<?xml version="1.0" standalone="no"?>
<!DOCTYPE svg PUBLIC "-//W3C//DTD SVG 1.1//EN" "http://www.w3.org/Graphics/SVG/1.1/DTD/svg11.dtd" >
<svg xmlns="http://www.w3.org/2000/svg" xmlns:xlink="http://www.w3.org/1999/xlink" version="1.1">
<metadata>
Created by FontForge 20160111 at Wed Feb  1 13:40:27 2017
 By root
Copyright (c) 2006 by Dino dos Santos _DSType. All rights reserved.
</metadata>
<defs>
<font id="LeituraNews-Roman4" horiz-adv-x="600" >
  <font-face 
    font-family="Leitura News Roman 4"
    font-weight="400"
    font-stretch="normal"
    units-per-em="1000"
    panose-1="2 0 5 3 0 0 0 2 0 4"
    ascent="800"
    descent="-200"
    x-height="500"
    cap-height="700"
    bbox="-166.612 -346 1595 1056"
    underline-thickness="50"
    underline-position="-100"
    unicode-range="U+000D-FB04"
  />
<missing-glyph horiz-adv-x="590" 
d="M70 500h450v-500h-450v500zM287 249l-206 236v-469zM304 249l205 -231v465zM93 488l203 -229l202 229h-405zM296 240l-201 -228h401z" />
    <glyph glyph-name="fi" unicode="fi" horiz-adv-x="620" 
d="M350 500l202 10h8v-400c0 -55 20 -70 60 -80v-30h-280v30c40 10 60 25 60 80v270c0 50 -18 65 -50 65h-120v-335c0 -55 20 -70 60 -80v-30h-270v30c40 15 50 25 50 80v335h-50v50l50 5c24 155 176 270 250 270c110 0 70 -130 10 -100c-132 66 -105 -15 -100 -170h120z
" />
    <glyph glyph-name="fl" unicode="fl" horiz-adv-x="620" 
d="M552 770l-47 -34c-41 21 -96 34 -145 34c-126 0 -266 -115 -290 -270l-50 -5v-50h50v-335c0 -55 -10 -65 -50 -80v-30h270v30c-40 10 -60 25 -60 80v335h100v55h-100c-5 151 -50 267 170 132v-522c0 -55 -20 -70 -60 -80v-30h280v30c-40 10 -60 25 -60 80v660h-8z" />
    <glyph glyph-name="ff" unicode="ff" horiz-adv-x="660" 
d="M550 445v-335c0 -55 20 -70 60 -80v-30h-270v30c40 15 50 25 50 80v335h-160v-335c0 -55 20 -70 60 -80v-30h-270v30c40 15 50 25 50 80v335h-50v50l50 5c24 155 176 270 250 270c110 0 70 -130 10 -100c-132 66 -105 -15 -100 -170h160c24 155 176 270 250 270
c110 0 70 -130 10 -100c-132 66 -105 -15 -100 -170h100v-55h-100z" />
    <glyph glyph-name="ffi" unicode="ffi" horiz-adv-x="940" 
d="M230 500h160c24 155 176 270 250 270c110 0 70 -130 10 -100c-132 66 -105 -15 -100 -170h120l202 10h8v-400c0 -55 20 -70 60 -80v-30h-280v30c40 10 60 25 60 80v270c0 50 -18 65 -50 65h-120v-335c0 -55 20 -70 60 -80v-30h-270v30c40 15 50 25 50 80v335h-160v-335
c0 -55 20 -70 60 -80v-30h-270v30c40 15 50 25 50 80v335h-50v50l50 5c24 155 176 270 250 270c110 0 70 -130 10 -100c-132 66 -105 -15 -100 -170z" />
    <glyph glyph-name="ffl" unicode="ffl" horiz-adv-x="940" 
d="M390 445h-160v-335c0 -55 20 -70 60 -80v-30h-270v30c40 15 50 25 50 80v335h-50v50l50 5c24 155 176 270 250 270c110 0 70 -130 10 -100c-132 66 -105 -15 -100 -170h160c24 155 164 270 290 270c49 0 104 -13 145 -34l47 34h8v-660c0 -55 20 -70 60 -80v-30h-280v30
c40 10 60 25 60 80v522c-220 135 -175 19 -170 -132h100v-55h-100v-335c0 -55 20 -70 60 -80v-30h-270v30c40 15 50 25 50 80v335z" />
    <glyph glyph-name="T_h" unicode="Th" horiz-adv-x="1130" 
d="M540 700l202 45h8v-320h2c38 50 110 85 183 85c67 0 135 -40 135 -150v-250c0 -55 20 -70 60 -80v-30h-260v30c30 15 40 25 40 80v240c0 45 -30 60 -60 60c-31 0 -70 -10 -100 -25v-275c0 -55 20 -70 60 -80v-30h-280v30c40 10 60 25 60 80v485c0 50 -18 60 -50 60h-160
v-545c0 -55 20 -70 60 -80v-30h-280v30c40 10 60 25 60 80v545h-40c-55 0 -115 -44 -125 -125h-35l5 170h515z" />
    <glyph glyph-name="T_h.caron" unicode="&#x164;h" horiz-adv-x="1130" 
d="M540 700l202 45h8v-320h2c38 50 110 85 183 85c67 0 135 -40 135 -150v-250c0 -55 20 -70 60 -80v-30h-260v30c30 15 40 25 40 80v240c0 45 -30 60 -60 60c-31 0 -70 -10 -100 -25v-275c0 -55 20 -70 60 -80v-30h-280v30c40 10 60 25 60 80v485c0 50 -18 60 -50 60h-160
v-545c0 -55 20 -70 60 -80v-30h-280v30c40 10 60 25 60 80v545h-40c-55 0 -115 -44 -125 -125h-35l5 170h515zM300 855l-105 75h-50l125 -180h60l125 180h-50z" />
    <glyph glyph-name="T_h.commaaccent" unicode="&#x162;h" horiz-adv-x="1130" 
d="M540 700l202 45h8v-320h2c38 50 110 85 183 85c67 0 135 -40 135 -150v-250c0 -55 20 -70 60 -80v-30h-260v30c30 15 40 25 40 80v240c0 45 -30 60 -60 60c-31 0 -70 -10 -100 -25v-275c0 -55 20 -70 60 -80v-30h-280v30c40 10 60 25 60 80v485c0 50 -18 60 -50 60h-160
v-545c0 -55 20 -70 60 -80v-30h-280v30c40 10 60 25 60 80v545h-40c-55 0 -115 -44 -125 -125h-35l5 170h515zM288 -36c74 0 91 -66 91 -110c0 -101 -80 -176 -141 -198l-21 32c94 44 123 134 68 134c-36 0 -66 26 -66 73c0 36 33 69 69 69z" />
    <glyph glyph-name="f_f_j" unicode="ffj" horiz-adv-x="920" 
d="M390 445h-160v-335c0 -55 20 -70 60 -80v-30h-270v30c40 15 50 25 50 80v335h-50v50l50 5c24 155 176 270 250 270c110 0 70 -130 10 -100c-132 66 -105 -15 -100 -170h160c24 155 176 270 250 270c110 0 70 -130 10 -100c-132 66 -105 -15 -100 -170h120l202 10h8v-465
c0 -175 -130 -315 -210 -315c-110 0 -70 130 -10 100c132 -66 60 60 60 215v335c0 50 -18 65 -50 65h-120v-335c0 -55 20 -70 60 -80v-30h-270v30c40 15 50 25 50 80v335z" />
    <glyph glyph-name="f_j" unicode="fj" 
d="M560 510v-465c0 -175 -130 -315 -210 -315c-110 0 -70 130 -10 100c132 -66 60 60 60 215v335c0 50 -18 65 -50 65h-120v-335c0 -55 20 -70 60 -80v-30h-270v30c40 15 50 25 50 80v335h-50v50l50 5c24 155 176 270 250 270c110 0 70 -130 10 -100
c-132 66 -105 -15 -100 -170h120l202 10h8z" />
    <glyph glyph-name=".notdef" horiz-adv-x="590" 
d="M70 500h450v-500h-450v500zM287 249l-206 236v-469zM304 249l205 -231v465zM93 488l203 -229l202 229h-405zM296 240l-201 -228h401z" />
    <glyph glyph-name=".notdef" horiz-adv-x="590" 
d="M70 500h450v-500h-450v500zM287 249l-206 236v-469zM304 249l205 -231v465zM93 488l203 -229l202 229h-405zM296 240l-201 -228h401z" />
    <glyph glyph-name="space" unicode=" " horiz-adv-x="230" 
 />
    <glyph glyph-name="exclam" unicode="!" horiz-adv-x="320" 
d="M87 63c0 40 33 73 73 73s73 -33 73 -73s-33 -73 -73 -73s-73 33 -73 73zM181 200h-40l-55 482c-6 56 25 88 75 88s77 -32 71 -88z" />
    <glyph glyph-name="quotedbl" unicode="&#x22;" horiz-adv-x="416" 
d="M326 760h-86l20 -205h46zM176 760h-86l20 -205h46z" />
    <glyph glyph-name="numbersign" unicode="#" horiz-adv-x="560" 
d="M30 215h142v105h-142v55h142v143h55v-143h105v143h55v-143h143v-55h-143v-105h143v-55h-143v-142h-55v142h-105v-142h-55v142h-142v55zM227 320v-105h105v105h-105z" />
    <glyph glyph-name="dollar" unicode="$" horiz-adv-x="535" 
d="M240 800h55v-91c56 -3 121 -18 170 -44l10 -175h-35c-30 119 -61 164 -145 165v-212c99 -40 210 -105 210 -233c0 -134 -95 -204 -210 -217v-93h-55v90c-69 2 -148 22 -200 50l-10 185h35c15 -135 93 -180 175 -180v239c-113 49 -210 104 -210 226c0 118 89 188 210 199
v91zM350 155c0 39 -20 71 -55 97v-192c32 17 55 49 55 95zM193 560c0 -33 13 -63 47 -88v169c-25 -14 -47 -38 -47 -81z" />
    <glyph glyph-name="percent" unicode="%" horiz-adv-x="980" 
d="M694 770h-59l-341 -830h60zM580 145c0 86 68 155 159 155c88 0 153 -69 151 -155c-1 -86 -69 -155 -160 -155c-89 0 -153 69 -150 155zM680 145c0 -90 17 -126 55 -126s55 36 55 126s-17 126 -55 126s-55 -36 -55 -126zM90 555c0 86 68 155 159 155
c88 0 153 -69 151 -155c-1 -86 -69 -155 -160 -155c-89 0 -153 69 -150 155zM190 555c0 -90 17 -126 55 -126s55 36 55 126s-17 126 -55 126s-55 -36 -55 -126z" />
    <glyph glyph-name="ampersand" unicode="&#x26;" horiz-adv-x="790" 
d="M187 205c0 63 24 98 48 125l191 -239c-33 -22 -72 -36 -116 -36c-65 0 -123 62 -123 150zM375 570c0 -45 -19 -98 -54 -126c-29 32 -61 82 -61 132c0 44 20 84 60 84c41 0 55 -45 55 -90zM457 53l46 -53h195v30c-48 10 -78 41 -93 60l-56 70c22 35 42 78 61 130
c19 53 30 70 110 80v30h-240v-30c80 -10 96 -27 80 -80c-9 -29 -22 -61 -41 -93l-171 215c118 47 140 105 140 161c0 84 -84 137 -172 137c-90 0 -192 -51 -192 -160c0 -63 21 -119 81 -185c-74 -26 -155 -96 -155 -188c0 -117 100 -187 227 -187c52 0 117 12 180 63z" />
    <glyph glyph-name="quoteright" unicode="&#x2019;" horiz-adv-x="340" 
d="M159 780c74 0 91 -66 91 -110c0 -101 -80 -176 -141 -198l-21 32c94 44 123 134 68 134c-36 0 -66 26 -66 73c0 36 33 69 69 69z" />
    <glyph glyph-name="parenleft" unicode="(" horiz-adv-x="375" 
d="M215 295c0 -177 35 -395 130 -560h-40c-157 154 -225 375 -225 560s68 406 225 560h40c-95 -165 -130 -383 -130 -560z" />
    <glyph glyph-name="parenright" unicode=")" horiz-adv-x="375" 
d="M160 295c0 -177 -35 -395 -130 -560h40c157 154 225 375 225 560s-68 406 -225 560h-40c95 -165 130 -383 130 -560z" />
    <glyph glyph-name="asterisk" unicode="*" horiz-adv-x="442" 
d="M121 648c9 10 24 11 34 1c7 -8 9 -18 54 -74c-8 73 -12 81 -12 91c0 14 10 24 24 24s25 -9 25 -24c0 -10 -4 -21 -13 -91c44 55 46 66 54 74c10 10 24 10 34 0s11 -24 0 -35c-7 -8 -16 -9 -74 -56c72 8 79 15 90 15c14 0 25 -11 25 -25s-11 -24 -25 -24
c-10 0 -19 4 -89 12c55 -44 64 -45 72 -52c10 -10 10 -26 0 -35c-10 -10 -25 -10 -35 0c-7 7 -10 15 -52 69c7 -67 13 -76 13 -85c0 -14 -11 -25 -25 -25s-24 11 -24 25c0 9 4 18 12 88c-44 -56 -46 -66 -52 -72c-10 -10 -26 -10 -36 0s-9 25 1 35c6 6 15 9 69 52
c-70 -8 -78 -12 -87 -12c-14 0 -24 10 -24 24s10 25 24 25c10 0 19 -6 89 -14c-56 45 -66 48 -72 55c-10 10 -10 24 0 34z" />
    <glyph glyph-name="plus" unicode="+" horiz-adv-x="560" 
d="M307 458v-163h163v-55h-163v-162h-55v162h-162v55h162v163h55z" />
    <glyph glyph-name="comma" unicode="," horiz-adv-x="340" 
d="M159 134c74 0 91 -66 91 -110c0 -101 -80 -176 -141 -198l-21 32c94 44 123 134 68 134c-36 0 -66 26 -66 73c0 36 33 69 69 69z" />
    <glyph glyph-name="hyphen" unicode="-" horiz-adv-x="560" 
d="M90 295h380v-55h-380v55z" />
    <glyph glyph-name="period" unicode="." horiz-adv-x="320" 
d="M87 63c0 40 33 73 73 73s73 -33 73 -73s-33 -73 -73 -73s-73 33 -73 73z" />
    <glyph glyph-name="slash" unicode="/" horiz-adv-x="480" 
d="M390 770h-59l-241 -830h60z" />
    <glyph glyph-name="zero" unicode="0" 
d="M40 325c0 170 90 335 260 335s260 -165 260 -335s-90 -335 -260 -335s-260 155 -260 335zM210 325c0 -190 20 -285 90 -285s90 95 90 285s-20 285 -90 285s-90 -95 -90 -285z" />
    <glyph glyph-name="one" unicode="1" horiz-adv-x="420" 
d="M290 660v-550c0 -55 20 -70 100 -80v-30h-360v30c80 10 100 25 100 80v390c0 55 -10 70 -100 70v30l250 60h10z" />
    <glyph glyph-name="two" unicode="2" horiz-adv-x="510" 
d="M250 610c50 0 70 -60 70 -140c0 -90 -30 -240 -290 -430v-40h450v120h-285c255 180 280 280 280 361c0 89 -75 179 -210 179c-145 0 -201 -61 -201 -125c0 -35 16 -70 71 -70c50 0 61 36 60 57c-5 73 15 88 55 88z" />
    <glyph glyph-name="three" unicode="3" horiz-adv-x="535" 
d="M240 40c60 0 88 46 88 146c0 85 -38 134 -101 134h-36v45h16c61 0 115 47 115 143c0 82 -52 102 -72 102c-40 0 -60 -15 -55 -88c1 -21 -10 -57 -60 -57c-55 0 -71 35 -71 70c0 64 56 125 191 125s214 -60 214 -149c0 -78 -59 -146 -157 -164v-2c89 -11 184 -55 184 -161
c0 -128 -106 -194 -261 -194c-125 0 -191 61 -191 125c0 35 16 70 76 70c50 0 61 -31 60 -52c-5 -73 20 -93 60 -93z" />
    <glyph glyph-name="four" unicode="4" horiz-adv-x="570" 
d="M307 220h-228l228 289v-289zM540 120v100h-73v440h-104l-333 -424v-116h277v-120h160v120h73z" />
    <glyph glyph-name="five" unicode="5" horiz-adv-x="535" 
d="M105 350l10 300h355v-120h-308l-6 -125c289 30 339 -133 339 -210c0 -120 -100 -205 -260 -205c-125 0 -191 61 -191 125c0 35 16 70 76 70c50 0 61 -31 60 -52c-5 -73 20 -93 60 -93c70 0 90 60 90 150c0 88 -45 160 -145 160h-80z" />
    <glyph glyph-name="six" unicode="6" horiz-adv-x="565" 
d="M355 200c0 -114 -23 -160 -70 -160c-75 0 -92 157 -75 286c24 19 51 26 70 26c51 0 75 -52 75 -152zM525 210c0 110 -68 209 -194 209c-27 0 -78 -6 -122 -44c11 75 40 205 215 255l-11 40c-212 -40 -373 -203 -373 -416c0 -143 93 -264 244 -264c120 0 241 86 241 220z
" />
    <glyph glyph-name="seven" unicode="7" horiz-adv-x="490" 
d="M268 0l202 590v60h-435l-5 -190h35c10 51 18 70 75 70h250l-302 -530h180z" />
    <glyph glyph-name="eight" unicode="8" horiz-adv-x="565" 
d="M360 514c0 -50 -19 -104 -39 -123c-86 34 -106 89 -106 132c0 58 39 87 70 87c41 0 75 -20 75 -96zM365 143c0 -56 -25 -103 -84 -103c-51 0 -91 41 -91 126c0 51 20 94 40 124c96 -41 135 -81 135 -147zM520 177c0 76 -35 143 -158 194c90 21 128 80 128 139
c0 103 -101 150 -201 150c-119 0 -219 -62 -219 -170c0 -61 25 -125 118 -178c-86 -19 -143 -77 -143 -153c0 -119 105 -169 234 -169c126 0 241 65 241 187z" />
    <glyph glyph-name="nine" unicode="9" horiz-adv-x="565" 
d="M210 450c0 114 23 160 70 160c75 0 92 -157 75 -286c-24 -19 -51 -26 -70 -26c-51 0 -75 52 -75 152zM40 440c0 -110 68 -209 194 -209c27 0 78 6 122 44c-11 -75 -40 -205 -215 -255l11 -40c212 40 373 203 373 416c0 143 -93 264 -244 264c-120 0 -241 -86 -241 -220z
" />
    <glyph glyph-name="colon" unicode=":" horiz-adv-x="320" 
d="M87 111c0 40 33 73 73 73s73 -33 73 -73s-33 -73 -73 -73s-73 33 -73 73zM87 390c0 40 33 73 73 73s73 -33 73 -73s-33 -73 -73 -73s-73 33 -73 73z" />
    <glyph glyph-name="semicolon" unicode=";" horiz-adv-x="340" 
d="M97 390c0 40 33 73 73 73s73 -33 73 -73s-33 -73 -73 -73s-73 33 -73 73zM159 134c74 0 91 -66 91 -110c0 -101 -80 -176 -141 -198l-21 32c94 44 123 134 68 134c-36 0 -66 26 -66 73c0 36 33 69 69 69z" />
    <glyph glyph-name="less" unicode="&#x3c;" horiz-adv-x="480" 
d="M166 269l224 149v65l-300 -200v-30l300 -200v65z" />
    <glyph glyph-name="equal" unicode="=" horiz-adv-x="560" 
d="M90 365h380v-55h-380v55zM90 225h380v-55h-380v55z" />
    <glyph glyph-name="greater" unicode="&#x3e;" horiz-adv-x="480" 
d="M314 269l-224 149v65l300 -200v-30l-300 -200v65z" />
    <glyph glyph-name="question" unicode="?" horiz-adv-x="449" 
d="M319 550c0 74 -136 60 -196 84c-103 42 -32 188 79 116c51 -33 167 -125 167 -220c0 -69 -19 -130 -112 -180c-26 -14 -68 -63 -48 -150h-45c-53 87 -107 220 14 272c55 24 141 13 141 78zM116 63c0 40 33 73 73 73s73 -33 73 -73s-33 -73 -73 -73s-73 33 -73 73z" />
    <glyph glyph-name="at" unicode="@" horiz-adv-x="884" 
d="M529 249c-7 -42 -25 -126 -39 -156c-19 -34 -45 -69 -85 -69c-61 0 -72 94 -50 183c21 90 60 150 123 150c28 0 68 -29 51 -108zM615 375l-59 -50h-3c-10 41 -41 61 -78 61c-86 0 -161 -75 -192 -164c-34 -95 -1 -232 108 -232c43 0 91 31 111 76c3 -39 25 -74 79 -74
c108 0 203 106 203 271c0 207 -136 301 -304 301c-199 0 -380 -176 -380 -393c0 -188 129 -327 317 -327c103 0 201 36 273 96l-10 18c-66 -53 -151 -81 -232 -81c-186 0 -279 107 -279 296c0 195 132 361 309 361c147 0 276 -66 276 -275c0 -151 -81 -230 -140 -230
c-49 0 -44 46 -36 88l48 258h-11z" />
    <glyph glyph-name="A" unicode="A" horiz-adv-x="700" 
d="M625 90l-230 615h-85l-210 -615c-14 -41 -40 -50 -100 -60v-30h240v30c-80 10 -90 45 -70 105l34 100h198l38 -115c15 -52 10 -80 -40 -90v-30h300v30c-50 15 -60 27 -75 60zM299 530h2l84 -250h-166z" />
    <glyph glyph-name="B" unicode="B" horiz-adv-x="610" 
d="M420 366v2c80 22 140 82 140 162c0 100 -80 170 -230 170h-300v-30c40 -10 60 -25 60 -80v-480c0 -55 -20 -70 -60 -80v-30h330c150 0 230 75 230 185c0 77 -45 150 -170 181zM250 340h40c90 0 135 -62 135 -150c0 -80 -25 -145 -105 -145h-70v295zM270 385h-20v270h50
c60 0 95 -55 95 -135c0 -86 -35 -135 -125 -135z" />
    <glyph glyph-name="C" unicode="C" horiz-adv-x="640" 
d="M380 40c-110 0 -180 120 -180 310s70 310 180 310c120 0 185 -80 205 -160h35l-10 150c-40 25 -130 60 -230 60c-210 0 -350 -150 -350 -360s140 -360 350 -360c100 0 190 35 230 60l10 150h-35c-20 -80 -85 -160 -205 -160z" />
    <glyph glyph-name="D" unicode="D" horiz-adv-x="740" 
d="M250 45h90c142 0 200 147 200 305c0 185 -62 305 -210 305h-80v-610zM340 0h-310v30c40 10 60 25 60 80v480c0 55 -20 70 -60 80v30h310c215 0 370 -130 370 -350c0 -206 -155 -350 -370 -350z" />
    <glyph glyph-name="E" unicode="E" 
d="M250 655v-280h60c55 0 99 25 108 105h35v-255h-35c-9 80 -53 105 -108 105h-60v-285h155c55 0 120 44 130 125h35l-10 -170h-530v30c40 10 60 25 60 80v480c0 55 -20 70 -60 80v30h520l5 -170h-35c-10 81 -70 125 -125 125h-145z" />
    <glyph glyph-name="F" unicode="F" horiz-adv-x="575" 
d="M250 315v-205c0 -55 20 -70 60 -80v-30h-280v30c40 10 60 25 60 80v480c0 55 -20 70 -60 80v30h520l5 -170h-35c-10 81 -70 125 -125 125h-145v-295h60c55 0 99 25 108 105h35v-255h-35c-9 80 -53 105 -108 105h-60z" />
    <glyph glyph-name="G" unicode="G" horiz-adv-x="710" 
d="M480 210v-150c-30 -13 -63 -20 -100 -20c-110 0 -180 120 -180 310s70 310 180 310c120 0 185 -80 205 -160h35l-10 150c-40 25 -130 60 -230 60c-210 0 -350 -150 -350 -360s140 -360 350 -360c100 0 220 50 260 80v140c0 55 0 70 60 80v30h-280v-30
c50 -10 60 -25 60 -80z" />
    <glyph glyph-name="H" unicode="H" horiz-adv-x="780" 
d="M690 590v-480c0 -55 20 -70 60 -80v-30h-280v30c40 10 60 25 60 80v225h-280v-225c0 -55 20 -70 60 -80v-30h-280v30c40 10 60 25 60 80v480c0 55 -20 70 -60 80v30h280v-30c-40 -10 -60 -25 -60 -80v-210h280v210c0 55 -20 70 -60 80v30h280v-30
c-40 -10 -60 -25 -60 -80z" />
    <glyph glyph-name="I" unicode="I" horiz-adv-x="340" 
d="M250 590v-480c0 -55 20 -70 60 -80v-30h-280v30c40 10 60 25 60 80v480c0 55 -20 70 -60 80v30h280v-30c-40 -10 -60 -25 -60 -80z" />
    <glyph glyph-name="J" unicode="J" horiz-adv-x="400" 
d="M310 590v-290c0 -160 -75 -310 -250 -310c-125 0 -73 151 6 85c122 -102 84 65 84 185v330c0 55 -20 70 -60 80v30h280v-30c-40 -10 -60 -25 -60 -80z" />
    <glyph glyph-name="K" unicode="K" horiz-adv-x="734" 
d="M330 420l115 145c33 40 55 95 -31 105v30h270v-30c-69 -10 -113 -27 -149 -70l-145 -190l215 -280c34 -43 85 -80 119 -100v-30h-320v30c46 10 29 49 -4 95l-115 160c-17 24 -25 25 -35 25v-200c0 -55 20 -70 60 -80v-30h-280v30c40 10 60 25 60 80v480
c0 55 -20 70 -60 80v30h280v-30c-40 -10 -60 -25 -60 -80v-220c40 0 55 20 80 50z" />
    <glyph glyph-name="L" unicode="L" horiz-adv-x="580" 
d="M250 45h155c55 0 120 44 130 125h35l-10 -170h-530v30c40 10 60 25 60 80v480c0 55 -20 70 -60 80v30h280v-30c-40 -10 -60 -25 -60 -80v-545z" />
    <glyph glyph-name="M" unicode="M" horiz-adv-x="880" 
d="M470 200l170 500h210v-30c-40 -10 -60 -25 -60 -80v-480c0 -55 20 -70 60 -80v-30h-280v30c40 10 60 25 60 80v400l-175 -515h-80l-205 575v-460c0 -55 10 -70 90 -80v-30h-230v30c80 10 90 25 90 80v480c0 55 -10 70 -90 80v30h265z" />
    <glyph glyph-name="N" unicode="N" horiz-adv-x="730" 
d="M570 240v350c0 55 -10 70 -90 80v30h230v-30c-60 -10 -85 -25 -85 -80v-590h-95l-360 570v-460c0 -55 10 -70 90 -80v-30h-230v30c60 10 85 25 85 80v480c0 55 -25 70 -85 80v30h250z" />
    <glyph glyph-name="O" unicode="O" horiz-adv-x="780" 
d="M30 350c0 210 172 360 360 360s360 -150 360 -360s-172 -360 -360 -360s-360 150 -360 360zM200 350c0 -190 60 -310 190 -310s190 120 190 310s-60 310 -190 310s-190 -120 -190 -310z" />
    <glyph glyph-name="P" unicode="P" horiz-adv-x="610" 
d="M250 335h40c100 0 135 77 135 165c0 80 -25 155 -105 155h-70v-320zM310 290h-60v-180c0 -55 20 -70 60 -80v-30h-280v30c40 10 60 25 60 80v480c0 55 -20 70 -60 80v30h330c150 0 230 -80 230 -190c0 -100 -70 -220 -280 -220z" />
    <glyph glyph-name="Q" unicode="Q" horiz-adv-x="780" 
d="M30 350c0 210 172 360 360 360s360 -150 360 -360c0 -181 -128 -318 -284 -351c64 -65 175 -173 304 -194v-25c-27 -12 -90 -30 -140 -30c-138 0 -210 93 -285 243c-170 21 -315 163 -315 357zM200 350c0 -190 60 -310 190 -310s190 120 190 310s-60 310 -190 310
s-190 -120 -190 -310z" />
    <glyph glyph-name="R" unicode="R" horiz-adv-x="670" 
d="M580 510c0 -75 -34 -156 -140 -191l120 -179c31 -42 60 -90 100 -110v-30h-190c-20 20 -58 70 -80 110l-105 190h-35v-190c0 -55 20 -70 60 -80v-30h-280v30c40 10 60 25 60 80v480c0 55 -20 70 -60 80v30h320c150 0 230 -80 230 -190zM250 345h40c100 0 125 67 125 155
c0 80 -25 155 -105 155h-60v-310z" />
    <glyph glyph-name="S" unicode="S" horiz-adv-x="535" 
d="M475 490h-35c-30 120 -61 165 -147 165c-33 0 -100 -20 -100 -95c0 -45 25 -86 97 -115c100 -40 215 -105 215 -235c0 -150 -118 -220 -252 -220c-72 0 -158 20 -213 50l-10 185h35c15 -135 93 -180 168 -180c61 0 117 38 117 110c0 60 -47 103 -122 135
c-101 43 -198 98 -198 220c0 128 105 200 242 200c61 0 138 -15 193 -45z" />
    <glyph glyph-name="T" unicode="T" 
d="M575 700h-550l-5 -170h35c10 81 70 125 125 125h40v-545c0 -55 -20 -70 -60 -80v-30h280v30c-40 10 -60 25 -60 80v545h40c55 0 115 -44 125 -125h35z" />
    <glyph glyph-name="U" unicode="U" horiz-adv-x="760" 
d="M595 280v310c0 55 -15 70 -95 80v30h240v-30c-70 -10 -90 -25 -90 -80v-320c0 -180 -112 -280 -275 -280c-195 0 -295 107 -295 280v320c0 55 -20 70 -60 80v30h280v-30c-40 -10 -60 -25 -60 -80v-310c0 -160 60 -230 165 -230c135 0 190 90 190 230z" />
    <glyph glyph-name="V" unicode="V" horiz-adv-x="700" 
d="M75 610l230 -615h85l210 615c14 41 40 50 100 60v30h-240v-30c80 -10 90 -45 70 -105l-129 -395h-2l-149 410c-15 52 -10 80 40 90v30h-290v-30c50 -15 60 -27 75 -60z" />
    <glyph glyph-name="W" unicode="W" horiz-adv-x="1010" 
d="M433 610l51 -160l-101 -280h-2l-134 410c-14 52 -8 80 43 90v30h-290v-30c49 -15 59 -27 73 -60l208 -615h85l143 378l127 -378h90l182 615c15 41 41 50 102 60v30h-240v-30c79 -10 90 -44 72 -105l-114 -395h-2l-119 410c-14 52 -8 80 43 90v30h-290v-30
c49 -15 62 -26 73 -60z" />
    <glyph glyph-name="X" unicode="X" horiz-adv-x="720" 
d="M140 590l155 -270l-140 -210c-32 -45 -65 -65 -135 -80v-30h255v30c-82 13 -69 66 -35 115l85 130l75 -130c30 -55 50 -105 -15 -115v-30h315v30c-40 20 -66 30 -95 80l-170 290l125 190c33 50 58 67 125 80v30h-245v-30c84 -8 83 -46 45 -102l-78 -121l-72 128
c-27 45 -55 87 5 95v30h-305v-30c63 -13 77 -31 105 -80z" />
    <glyph glyph-name="Y" unicode="Y" horiz-adv-x="640" 
d="M55 610l200 -367v-133c0 -55 -20 -70 -60 -80v-30h280v30c-40 10 -60 25 -60 80v181l145 319c18 40 41 50 90 60v30h-220v-30c71 -10 83 -46 60 -95l-119 -255h-2l-134 260c-25 48 -35 80 15 90v30h-260v-30c30 -15 48 -28 65 -60z" />
    <glyph glyph-name="Z" unicode="Z" 
d="M210 45l350 595v60h-503l-5 -170h35c10 81 68 125 125 125h178l-360 -605v-50h530l10 170h-35c-10 -81 -70 -125 -130 -125h-195z" />
    <glyph glyph-name="bracketleft" unicode="[" horiz-adv-x="380" 
d="M350 -260v45h-140v1025h140v45h-270v-1115h270z" />
    <glyph glyph-name="backslash" unicode="\" horiz-adv-x="480" 
d="M90 770h59l241 -830h-60z" />
    <glyph glyph-name="bracketright" unicode="]" horiz-adv-x="380" 
d="M30 -260v45h140v1025h-140v45h270v-1115h-270z" />
    <glyph glyph-name="asciicircum" unicode="^" horiz-adv-x="510" 
d="M255 605l-135 -115h-40l145 230h60l145 -230h-40z" />
    <glyph glyph-name="underscore" unicode="_" horiz-adv-x="610" 
d="M90 -40h430v-55h-430v55z" />
    <glyph glyph-name="quoteleft" unicode="&#x2018;" horiz-adv-x="340" 
d="M180 490c-74 0 -91 66 -91 110c0 101 80 176 141 198l21 -32c-94 -44 -123 -134 -68 -134c36 0 66 -26 66 -73c0 -36 -33 -69 -69 -69z" />
    <glyph glyph-name="a" unicode="a" horiz-adv-x="500" 
d="M435 375l-5 -235c-2 -80 25 -75 70 -65v-25c-50 -40 -80 -60 -140 -60c-70 0 -90 40 -90 80h-2c-55 -57 -78 -80 -138 -80c-59 0 -110 52 -110 120c0 62 51 102 130 115l123 20l2 85c2 80 -5 120 -65 120c-90 0 -82 -75 -55 -100c42 -39 -99 -84 -115 -50
c-29 63 80 210 230 210c100 0 167 -50 165 -135zM270 110l2 95l-47 -10c-34 -7 -51 -24 -45 -65c3 -20 18 -40 45 -40c20 0 31 8 45 20z" />
    <glyph glyph-name="b" unicode="b" horiz-adv-x="580" 
d="M280 425c-25 0 -50 -10 -70 -27v-233c0 -115 50 -125 80 -125c70 0 110 75 105 210c-5 130 -55 175 -115 175zM210 770v-330h2c33 45 78 70 138 70c130 0 210 -110 210 -260c0 -160 -125 -260 -255 -260c-37 0 -90 10 -135 50l-80 -45h-40v625c0 50 -20 65 -50 75v30
l202 45h8z" />
    <glyph glyph-name="c" unicode="c" horiz-adv-x="500" 
d="M280 460c-70 0 -102 -63 -102 -179c0 -131 77 -176 152 -176c60 0 100 15 150 45v-70c-20 -20 -80 -90 -205 -90c-165 0 -255 120 -255 255c0 170 140 265 265 265s191 -61 191 -125c0 -35 -16 -70 -76 -70c-50 0 -61 31 -60 52c5 73 -20 93 -60 93z" />
    <glyph glyph-name="d" unicode="d" 
d="M300 75c25 0 50 10 70 27v233c0 115 -50 125 -80 125c-70 0 -110 -75 -105 -210c5 -130 55 -175 115 -175zM370 480v140c0 50 -20 65 -50 75v30l200 45h10v-610c0 -70 5 -90 70 -85v-35l-220 -50h-10v70h-2c-33 -45 -78 -70 -138 -70c-130 0 -210 110 -210 260
c0 160 125 260 255 260c37 0 70 -10 95 -30z" />
    <glyph glyph-name="e" unicode="e" horiz-adv-x="500" 
d="M280 460c-57 0 -89 -42 -99 -120h154c25 90 -15 120 -55 120zM275 -10c-165 0 -255 120 -255 255c0 170 140 265 265 265c115 0 219 -55 189 -225h-296c0 -135 77 -180 152 -180c60 0 100 15 150 45v-70c-20 -20 -80 -90 -205 -90z" />
    <glyph glyph-name="f" unicode="f" horiz-adv-x="340" 
d="M70 110v335h-50v50l50 5c24 155 176 270 250 270c110 0 70 -130 10 -100c-132 66 -105 -15 -100 -170h100v-55h-100v-335c0 -55 20 -70 60 -80v-30h-270v30c40 15 50 25 50 80z" />
    <glyph glyph-name="g" unicode="g" horiz-adv-x="540" 
d="M310 -75l-155 20c-10 -35 -15 -55 -15 -95c0 -55 50 -70 100 -70c60 0 150 23 150 90c0 35 -37 49 -80 55zM185 325c7 -94 35 -130 70 -130c50 0 60 49 55 134c-5 86 -27 131 -65 131c-43 0 -67 -42 -60 -135zM420 440v-2c23 -21 45 -63 45 -108
c0 -115 -90 -185 -215 -185c-20 0 -45 5 -60 10c-10 -9 -25 -21 -25 -35c0 -15 12 -21 50 -25l149 -15c121 -12 166 -70 166 -140c0 -123 -190 -210 -330 -210c-124 0 -200 35 -200 100c0 60 54 93 125 125c-23 9 -80 25 -80 90c0 55 50 90 110 120c-65 20 -125 85 -125 162
c0 108 95 183 220 183c60 0 90 -13 125 -25l145 15v-60h-100z" />
    <glyph glyph-name="h" unicode="h" horiz-adv-x="620" 
d="M20 0v30c40 10 60 25 60 80v510c0 50 -20 65 -50 75v30l202 45h8v-345h2c38 50 110 85 183 85c67 0 135 -40 135 -150v-250c0 -55 20 -70 60 -80v-30h-260v30c30 15 40 25 40 80v240c0 45 -30 60 -60 60c-31 0 -70 -10 -100 -25v-275c0 -55 20 -70 60 -80v-30h-280z" />
    <glyph glyph-name="i" unicode="i" horiz-adv-x="300" 
d="M240 510v-400c0 -55 20 -70 60 -80v-30h-280v30c40 10 60 25 60 80v250c0 50 -20 65 -50 75v30l202 45h8zM68 677c0 51 41 93 92 93s93 -42 93 -93s-42 -92 -93 -92s-92 41 -92 92z" />
    <glyph glyph-name="j" unicode="j" horiz-adv-x="279" 
d="M239 510v-465c0 -175 -130 -315 -210 -315c-110 0 -70 130 -10 100c132 -66 60 60 60 215v315c0 50 -20 65 -50 75v30l202 45h8zM67 677c0 51 41 93 92 93s93 -42 93 -93s-42 -92 -93 -92s-92 41 -92 92z" />
    <glyph glyph-name="k" unicode="k" 
d="M240 220v-110c0 -55 20 -70 60 -80v-30h-280v30c40 10 60 25 60 80v510c0 50 -20 65 -50 75v30l202 45h8v-475c30 0 61 6 85 35l50 60c34 42 37 70 -35 80v30h235v-30c-54 -10 -87 -15 -115 -50l-90 -105l141 -190c65 -83 74 -80 99 -95v-30h-260v30c20 5 26 16 -15 75
l-55 80c-21 29 -30 35 -40 35z" />
    <glyph glyph-name="l" unicode="l" horiz-adv-x="300" 
d="M240 770v-660c0 -55 20 -70 60 -80v-30h-280v30c40 10 60 25 60 80v510c0 50 -20 65 -50 75v30l202 45h8z" />
    <glyph glyph-name="m" unicode="m" horiz-adv-x="920" 
d="M550 365v-255c0 -55 20 -70 60 -80v-30h-260v30c30 15 40 25 40 80v240c0 45 -20 60 -50 60c-31 0 -65 -15 -100 -45v-255c0 -55 20 -70 60 -80v-30h-280v30c40 10 60 25 60 80v250c0 50 -20 65 -50 75v30l205 45h8l-3 -105h2c38 65 100 105 173 105
c58 0 117 -30 131 -110h3c38 65 103 110 176 110c67 0 135 -40 135 -150v-250c0 -55 20 -70 60 -80v-30h-260v30c30 15 40 25 40 80v240c0 45 -20 60 -50 60c-31 0 -65 -15 -100 -45z" />
    <glyph glyph-name="n" unicode="n" horiz-adv-x="620" 
d="M20 0v30c40 10 60 25 60 80v250c0 50 -20 65 -50 75v30l205 45h8l-3 -105h2c38 65 110 105 183 105c67 0 135 -40 135 -150v-250c0 -55 20 -70 60 -80v-30h-260v30c30 15 40 25 40 80v240c0 45 -30 60 -60 60c-31 0 -65 -15 -100 -45v-255c0 -55 20 -70 60 -80v-30h-280z
" />
    <glyph glyph-name="o" unicode="o" horiz-adv-x="562" 
d="M21 250c2 144 114 260 264 260s258 -116 256 -260c-3 -144 -116 -260 -265 -260c-151 0 -258 116 -255 260zM191 250c0 -150 27 -210 90 -210s90 60 90 210s-27 210 -90 210s-90 -60 -90 -210z" />
    <glyph glyph-name="p" unicode="p" 
d="M300 425c-25 0 -50 -10 -70 -27v-233c0 -115 50 -125 80 -125c70 0 110 75 105 210c-5 130 -55 175 -115 175zM230 20v-170c0 -55 20 -70 60 -80v-30h-270v30c40 10 50 25 50 80v510c0 50 -20 65 -50 75v30l205 45h8l-3 -70h2c33 45 78 70 138 70
c130 0 210 -110 210 -260c0 -160 -125 -260 -255 -260c-37 0 -70 10 -95 30z" />
    <glyph glyph-name="q" unicode="q" horiz-adv-x="570" 
d="M300 75c25 0 50 10 70 27v233c0 115 -50 125 -80 125c-70 0 -110 -75 -105 -210c5 -130 55 -175 115 -175zM370 -150v210h-2c-33 -45 -78 -70 -138 -70c-130 0 -210 110 -210 260c0 160 125 260 255 260c37 0 90 -10 135 -50l80 45h40v-655c0 -55 10 -70 50 -80v-30h-270
v30c40 10 60 25 60 80z" />
    <glyph glyph-name="r" unicode="r" horiz-adv-x="435" 
d="M240 110v245c25 20 60 35 125 15c80 -25 103 140 5 140c-60 0 -93 -45 -128 -115h-2l3 115h-8l-205 -45v-30c30 -10 50 -25 50 -75v-250c0 -55 -20 -70 -60 -80v-30h280v30c-40 10 -60 25 -60 80z" />
    <glyph glyph-name="s" unicode="s" horiz-adv-x="430" 
d="M375 350h-35c-30 80 -65 110 -120 110c-25 0 -55 -15 -55 -55s31 -56 65 -70c130 -55 175 -95 175 -185c0 -95 -85 -160 -200 -160c-51 0 -120 15 -160 35l-10 135h35c30 -115 95 -120 125 -120c32 0 60 20 60 65c0 25 -9 55 -90 90c-100 43 -140 85 -140 170
c0 80 60 145 190 145c47 0 110 -12 150 -31z" />
    <glyph glyph-name="t" unicode="t" horiz-adv-x="380" 
d="M220 445v-295c0 -65 10 -85 60 -85c20 0 48 4 80 10v-25c-50 -40 -110 -60 -160 -60c-70 0 -140 35 -140 120v335h-40v50l40 15l120 140h40v-150h120v-55h-120z" />
    <glyph glyph-name="u" unicode="u" 
d="M370 135v260c0 50 -10 65 -60 75v30h220v-340c0 -70 5 -90 70 -85v-35l-220 -50h-10v105h-2c-38 -65 -100 -105 -173 -105c-67 0 -135 40 -135 150v255c0 50 -10 65 -50 75v30h210v-350c0 -45 30 -60 60 -60c31 0 55 15 90 45z" />
    <glyph glyph-name="v" unicode="v" horiz-adv-x="570" 
d="M55 410l185 -415h61l30 20l154 395c16 40 36 50 85 60v30h-220v-30c71 -10 84 -39 65 -90l-79 -214h-2l-94 214c-20 50 -20 80 30 90v30h-270v-30c30 -15 40 -27 55 -60z" />
    <glyph glyph-name="w" unicode="w" horiz-adv-x="860" 
d="M375 410l20 -53l-79 -191h-2l-74 214c-17 51 -20 80 30 90v30h-270v-30c30 -15 42 -26 55 -60l160 -415h61l30 20l115 270l109 -290h61l30 20l154 395c16 40 36 50 85 60v30h-220v-30c71 -10 84 -39 65 -90l-79 -214h-2l-69 214c-17 52 -15 80 35 90v30h-270v-30
c30 -15 42 -26 55 -60z" />
    <glyph glyph-name="x" unicode="x" horiz-adv-x="560" 
d="M90 420l124 -202l-97 -138c-25 -35 -53 -40 -107 -50v-30h204v30c-64 10 -49 36 -17 80l46 66l42 -66c30 -45 35 -70 -5 -80v-30h270v30c-30 10 -47 15 -70 50l-143 217l95 123c26 34 49 40 103 50v30h-205v-30c62 -10 45 -48 12 -90l-32 -40l-30 50c-28 47 -40 70 0 80
v30h-260v-30c40 -10 49 -15 70 -50z" />
    <glyph glyph-name="y" unicode="y" horiz-adv-x="570" 
d="M250 -20l-195 430c-15 33 -25 45 -55 60v30h270v-30c-50 -10 -50 -40 -30 -90l94 -214h2l79 214c19 51 6 80 -65 90v30h220v-30c-49 -10 -69 -20 -85 -60l-165 -420c-77 -196 -190 -260 -270 -260c-110 0 -72 121 -10 100c92 -31 155 -25 210 150z" />
    <glyph glyph-name="z" unicode="z" horiz-adv-x="480" 
d="M190 50h140c55 0 80 29 90 110h40l-10 -160h-430v80l250 370h-105c-55 0 -75 -29 -85 -110h-40l5 160h400v-80z" />
    <glyph glyph-name="braceleft" unicode="{" horiz-adv-x="430" 
d="M390 855v-35c-81 -2 -140 -10 -145 -104c-2 -38 19 -260 14 -302c-9 -83 -99 -106 -150 -126v-1c51 -21 141 -43 150 -128c5 -40 -16 -253 -14 -291c5 -94 65 -86 145 -93v-35c-150 0 -268 12 -268 148c0 69 33 211 23 282c-9 76 -26 85 -105 95v43c79 15 96 21 105 97
c10 71 -23 222 -23 291c0 136 118 159 268 159z" />
    <glyph glyph-name="bar" unicode="|" horiz-adv-x="235" 
d="M90 820h55v-920h-55v920z" />
    <glyph glyph-name="braceright" unicode="}" horiz-adv-x="430" 
d="M40 -259v35c81 2 140 10 145 104c2 38 -19 260 -14 302c9 83 99 106 150 126v1c-51 21 -141 43 -150 128c-5 40 16 253 14 291c-5 94 -65 86 -145 93v35c150 0 268 -12 268 -148c0 -69 -33 -211 -23 -282c9 -76 26 -85 105 -95v-43c-79 -15 -96 -21 -105 -97
c-10 -71 23 -222 23 -291c0 -136 -118 -159 -268 -159z" />
    <glyph glyph-name="asciitilde" unicode="~" horiz-adv-x="550" 
d="M115 310l-35 20c21 43 74 130 120 130c40 0 121 -40 160 -40c35 0 59 10 75 30l35 -20c-21 -42 -69 -120 -115 -120c-47 0 -118 40 -165 40c-36 0 -59 -21 -75 -40z" />
    <glyph glyph-name="exclamdown" unicode="&#xa1;" horiz-adv-x="320" 
d="M87 477c0 -40 33 -73 73 -73s73 33 73 73s-33 73 -73 73s-73 -33 -73 -73zM181 340h-40l-55 -482c-6 -56 25 -88 75 -88s77 32 71 88z" />
    <glyph glyph-name="cent" unicode="&#xa2;" horiz-adv-x="540" 
d="M270 -100v91c-149 11 -230 126 -230 254c0 154 115 247 230 262v93h55v-91c112 -6 171 -64 171 -124c0 -35 -16 -70 -76 -70c-50 0 -61 31 -60 52c4 56 -10 81 -35 89v-350c67 -5 120 9 175 44v-70c-19 -19 -71 -79 -175 -88v-92h-55zM198 281c0 -83 30 -131 72 -156v330
c-49 -16 -72 -76 -72 -174z" />
    <glyph glyph-name="sterling" unicode="&#xa3;" horiz-adv-x="637" 
d="M70 350h69c-3 40 -8 80 -12 122c-16 163 105 238 242 238c125 0 189 -61 187 -125c-1 -35 -19 -70 -79 -70c-50 0 -59 31 -58 52c8 73 -18 88 -67 88c-33 0 -77 -20 -80 -95c-2 -51 10 -128 8 -210h120v-45h-123c-8 -84 -35 -168 -107 -232l1 -2c145 79 198 33 263 9
c49 -18 95 -12 118 60h35c-11 -42 -53 -205 -214 -177c-48 8 -188 92 -313 37l-20 45c93 55 108 150 102 260h-72v45z" />
    <glyph glyph-name="fraction" unicode="&#x2044;" horiz-adv-x="480" 
d="M390 770h-59l-241 -830h60z" />
    <glyph glyph-name="yen" unicode="&#xa5;" horiz-adv-x="740" 
d="M470 285l140 325c18 40 41 50 90 60v30h-220v-30c71 -10 83 -46 60 -95l-114 -255h-2l-139 260c-25 48 -35 80 15 90v30h-260v-30c30 -15 48 -28 65 -60l182 -325h-102v-55h120v-120c0 -55 -20 -70 -60 -80v-30h280v30c-40 10 -60 25 -60 80v120h120v55h-115z" />
    <glyph glyph-name="florin" unicode="&#x192;" horiz-adv-x="310" 
d="M110 445h-41v50l50 5c27 157 223 270 297 270c110 0 47 -130 -7 -100c-121 66 -103 -15 -130 -170h100v-55h-110l-79 -445c-27 -157 -222 -270 -296 -270c-110 0 -47 130 7 100c120 -66 103 15 129 170z" />
    <glyph glyph-name="section" unicode="&#xa7;" horiz-adv-x="565" 
d="M280 20c61 0 100 40 100 95c0 65 -63 87 -120 110c-77 31 -140 65 -140 150c0 41 17 75 48 99c-30 24 -48 55 -48 101c0 80 67 135 170 135c109 0 175 -61 175 -125c0 -35 -28 -50 -54 -50c-22 0 -43 11 -42 32c5 73 -7 113 -84 113c-60 0 -95 -30 -95 -80
c0 -65 60 -85 115 -105c74 -27 155 -65 155 -155c0 -43 -17 -78 -45 -103c27 -24 45 -55 45 -97c0 -95 -90 -150 -185 -150c-109 0 -175 61 -175 125c0 35 28 50 54 50c22 0 43 -11 42 -32c-5 -73 7 -113 84 -113zM260 425c-20 8 -38 15 -55 24c-10 -13 -15 -29 -15 -49
c0 -65 60 -85 115 -105c21 -8 43 -16 63 -27c8 14 12 30 12 47c0 65 -63 87 -120 110z" />
    <glyph glyph-name="currency" unicode="&#xa4;" horiz-adv-x="513" 
d="M100 249c0 -45 18 -85 48 -114l-76 -86l9 -9l76 87c27 -22 62 -35 100 -35c37 0 72 13 99 35l77 -87l9 9l-76 86c30 28 49 69 49 114s-19 86 -50 115l78 89l-9 8l-78 -90c-27 22 -62 36 -99 36c-38 0 -73 -14 -100 -36l-79 90l-8 -8l78 -90c-30 -29 -48 -69 -48 -114z
M112 249c0 79 66 146 145 146s146 -67 146 -146s-67 -145 -146 -145s-145 66 -145 145z" />
    <glyph glyph-name="quotesingle" unicode="'" horiz-adv-x="266" 
d="M176 760h-86l20 -205h46z" />
    <glyph glyph-name="quotedblleft" unicode="&#x201c;" horiz-adv-x="560" 
d="M399 490c-74 0 -91 66 -91 110c0 101 80 176 141 198l21 -32c-94 -44 -123 -134 -68 -134c36 0 66 -26 66 -73c0 -36 -33 -69 -69 -69zM179 490c-74 0 -91 66 -91 110c0 101 80 176 141 198l21 -32c-94 -44 -123 -134 -68 -134c36 0 66 -26 66 -73c0 -36 -33 -69 -69 -69
z" />
    <glyph glyph-name="guillemotleft" unicode="&#xab;" horiz-adv-x="730" 
d="M246 269l144 149v65l-300 -200v-30l300 -200v65zM496 269l144 149v65l-300 -200v-30l300 -200v65z" />
    <glyph glyph-name="guilsinglleft" unicode="&#x2039;" horiz-adv-x="480" 
d="M246 269l144 149v65l-300 -200v-30l300 -200v65z" />
    <glyph glyph-name="guilsinglright" unicode="&#x203a;" horiz-adv-x="480" 
d="M234 269l-144 149v65l300 -200v-30l-300 -200v65z" />
    <glyph glyph-name="endash" unicode="&#x2013;" horiz-adv-x="610" 
d="M90 295h430v-55h-430v55z" />
    <glyph glyph-name="dagger" unicode="&#x2020;" horiz-adv-x="645" 
d="M308 -260v375c0 129 -25 164 -25 190c0 16 10 31 25 160c-137 -15 -152 -25 -168 -25c-22 0 -40 18 -40 40s18 40 40 40c16 0 31 -11 168 -25c-15 144 -25 158 -25 175c0 22 18 40 40 40s40 -18 40 -40c0 -17 -11 -31 -25 -175c136 14 150 25 167 25c22 0 40 -18 40 -40
s-18 -40 -40 -40c-17 0 -31 10 -167 25c14 -129 25 -144 25 -160c0 -26 -25 -61 -25 -190v-375h-30z" />
    <glyph glyph-name="daggerdbl" unicode="&#x2021;" horiz-adv-x="645" 
d="M363 230c0 -56 -21 -126 -25 -255c136 15 150 25 167 25c22 0 40 -18 40 -40s-18 -40 -40 -40c-17 0 -31 11 -167 25c14 -144 25 -158 25 -175c0 -22 -18 -40 -40 -40s-40 18 -40 40c0 17 10 31 25 175c-137 -14 -152 -25 -168 -25c-22 0 -40 18 -40 40s18 40 40 40
c16 0 31 -10 168 -25c-5 129 -25 199 -25 255s20 106 25 235c-137 -15 -152 -25 -168 -25c-22 0 -40 18 -40 40s18 40 40 40c16 0 31 -11 168 -25c-15 144 -25 158 -25 175c0 22 18 40 40 40s40 -18 40 -40c0 -17 -11 -31 -25 -175c136 14 150 25 167 25c22 0 40 -18 40 -40
s-18 -40 -40 -40c-17 0 -31 10 -167 25c4 -129 25 -179 25 -235z" />
    <glyph glyph-name="periodcentered" unicode="&#xb7;" horiz-adv-x="356" 
d="M83 248c0 52 43 95 95 95s95 -43 95 -95s-43 -95 -95 -95s-95 43 -95 95z" />
    <glyph glyph-name="paragraph" unicode="&#xb6;" horiz-adv-x="670" 
d="M330 300v-200c0 -55 -10 -70 -90 -80v-20h140v700h-90c-110 0 -190 -80 -190 -190c0 -100 70 -210 230 -210zM430 700v-700h140v20c-80 10 -90 25 -90 80v500c0 55 10 70 90 80v20h-140z" />
    <glyph glyph-name="bullet" unicode="&#x2022;" horiz-adv-x="397" 
d="M100 232c0 55 43 99 98 99s99 -44 99 -99s-44 -98 -99 -98s-98 43 -98 98z" />
    <glyph glyph-name="quotesinglbase" unicode="&#x201a;" horiz-adv-x="340" 
d="M159 134c74 0 91 -66 91 -110c0 -101 -80 -176 -141 -198l-21 32c94 44 123 134 68 134c-36 0 -66 26 -66 73c0 36 33 69 69 69z" />
    <glyph glyph-name="quotedblbase" unicode="&#x201e;" horiz-adv-x="560" 
d="M159 134c74 0 91 -66 91 -110c0 -101 -80 -176 -141 -198l-21 32c94 44 123 134 68 134c-36 0 -66 26 -66 73c0 36 33 69 69 69zM379 134c74 0 91 -66 91 -110c0 -101 -80 -176 -141 -198l-21 32c94 44 123 134 68 134c-36 0 -66 26 -66 73c0 36 33 69 69 69z" />
    <glyph glyph-name="quotedblright" unicode="&#x201d;" horiz-adv-x="560" 
d="M159 780c74 0 91 -66 91 -110c0 -101 -80 -176 -141 -198l-21 32c94 44 123 134 68 134c-36 0 -66 26 -66 73c0 36 33 69 69 69zM379 780c74 0 91 -66 91 -110c0 -101 -80 -176 -141 -198l-21 32c94 44 123 134 68 134c-36 0 -66 26 -66 73c0 36 33 69 69 69z" />
    <glyph glyph-name="guillemotright" unicode="&#xbb;" horiz-adv-x="730" 
d="M234 269l-144 149v65l300 -200v-30l-300 -200v65zM484 269l-144 149v65l300 -200v-30l-300 -200v65z" />
    <glyph glyph-name="ellipsis" unicode="&#x2026;" horiz-adv-x="800" 
d="M87 63c0 40 33 73 73 73s73 -33 73 -73s-33 -73 -73 -73s-73 33 -73 73zM327 63c0 40 33 73 73 73s73 -33 73 -73s-33 -73 -73 -73s-73 33 -73 73zM567 63c0 40 33 73 73 73s73 -33 73 -73s-33 -73 -73 -73s-73 33 -73 73z" />
    <glyph glyph-name="perthousand" unicode="&#x2030;" horiz-adv-x="1390" 
d="M694 770h-59l-341 -830h60zM580 145c0 86 68 155 159 155c88 0 153 -69 151 -155c-1 -86 -69 -155 -160 -155c-89 0 -153 69 -150 155zM680 145c0 -90 17 -126 55 -126s55 36 55 126s-17 126 -55 126s-55 -36 -55 -126zM90 555c0 86 68 155 159 155
c88 0 153 -69 151 -155c-1 -86 -69 -155 -160 -155c-89 0 -153 69 -150 155zM190 555c0 -90 17 -126 55 -126s55 36 55 126s-17 126 -55 126s-55 -36 -55 -126zM990 145c0 86 68 155 159 155c88 0 153 -69 151 -155c-1 -86 -69 -155 -160 -155c-89 0 -153 69 -150 155z
M1090 145c0 -90 17 -126 55 -126s55 36 55 126s-17 126 -55 126s-55 -36 -55 -126z" />
    <glyph glyph-name="questiondown" unicode="&#xbf;" horiz-adv-x="449" 
d="M130 -10c0 -74 136 -60 196 -84c103 -42 32 -188 -79 -116c-51 33 -167 125 -167 220c0 69 19 130 112 180c26 14 68 63 48 150h45c53 -87 107 -220 -14 -272c-55 -24 -141 -13 -141 -78zM333 477c0 -40 -33 -73 -73 -73s-73 33 -73 73s33 73 73 73s73 -33 73 -73z" />
    <glyph glyph-name="grave" unicode="`" horiz-adv-x="369" 
d="M259 550l-149 108c-66 48 32 122 71 62l98 -151z" />
    <glyph glyph-name="acute" unicode="&#xb4;" horiz-adv-x="369" 
d="M110 550l149 108c66 48 -32 122 -71 62l-98 -151z" />
    <glyph glyph-name="circumflex" unicode="&#x2c6;" horiz-adv-x="470" 
d="M235 625l-105 -75h-50l125 180h60l125 -180h-50z" />
    <glyph glyph-name="tilde" unicode="&#x2dc;" horiz-adv-x="550" 
d="M115 560l-35 20c21 43 74 130 120 130c40 0 121 -40 160 -40c35 0 59 10 75 30l35 -20c-21 -42 -69 -120 -115 -120c-47 0 -118 40 -165 40c-36 0 -59 -21 -75 -40z" />
    <glyph glyph-name="macron" unicode="&#xaf;" horiz-adv-x="510" 
d="M90 645h330v-55h-330v55z" />
    <glyph glyph-name="breve" unicode="&#x2d8;" horiz-adv-x="450" 
d="M225 570c90 0 135 78 135 151h-48c-11 -51 -56 -63 -87 -63s-76 12 -87 63h-48c0 -73 45 -151 135 -151z" />
    <glyph glyph-name="dotaccent" unicode="&#x2d9;" horiz-adv-x="314" 
d="M88 627c0 39 30 69 69 69s69 -30 69 -69s-30 -69 -69 -69s-69 30 -69 69z" />
    <glyph glyph-name="dieresis" unicode="&#xa8;" horiz-adv-x="500" 
d="M88 615c0 38 28 65 64 65c37 0 65 -27 65 -65s-28 -63 -65 -63c-36 0 -64 25 -64 63zM283 615c0 38 28 65 65 65c36 0 64 -27 64 -65s-28 -63 -64 -63c-37 0 -65 25 -65 63z" />
    <glyph glyph-name="ring" unicode="&#x2da;" horiz-adv-x="375" 
d="M91 637c0 54 41 97 96 97c54 0 97 -43 97 -97c0 -55 -43 -96 -97 -96c-55 0 -96 41 -96 96zM133 637c0 -30 24 -54 54 -54c31 0 55 24 55 54c0 31 -24 55 -55 55c-30 0 -54 -24 -54 -55z" />
    <glyph glyph-name="cedilla" unicode="&#xb8;" horiz-adv-x="372" 
d="M133 0h37v-40c0 -36 112 -14 111 -102c-1 -63 -109 -113 -181 -123l-10 45c30 10 85 23 85 65c0 53 -49 40 -45 105z" />
    <glyph glyph-name="hungarumlaut" unicode="&#x2dd;" horiz-adv-x="480" 
d="M122 550l108 153c38 57 -73 103 -89 43l-51 -181zM282 550l108 153c38 57 -73 103 -89 43l-51 -181z" />
    <glyph glyph-name="ogonek" unicode="&#x2db;" horiz-adv-x="360" 
d="M270 -160v-35c-18 -23 -60 -40 -90 -40c-123 0 -137 138 0 235h45c-84 -78 -79 -211 45 -160z" />
    <glyph glyph-name="caron" unicode="&#x2c7;" horiz-adv-x="470" 
d="M235 655l-105 75h-50l125 -180h60l125 180h-50z" />
    <glyph glyph-name="emdash" unicode="&#x2014;" horiz-adv-x="900" 
d="M90 295h720v-55h-720v55z" />
    <glyph glyph-name="AE" unicode="&#xc6;" horiz-adv-x="880" 
d="M450 700l-336 -610c-22 -41 -53 -50 -114 -60v-30h240v30c-78 10 -80 45 -46 105l104 195h112v-220c0 -55 -20 -70 -60 -80v-30h490l10 170h-35c-10 -81 -75 -125 -130 -125h-115v285h20c55 0 99 -25 108 -105h35v255h-35c-9 -80 -53 -105 -108 -105h-20v280h105
c55 0 115 -44 125 -125h35l-5 170h-380zM408 530h2v-155h-87z" />
    <glyph glyph-name="ordfeminine" unicode="&#xaa;" horiz-adv-x="385" 
d="M286 628l-4 -141c-2 -47 15 -45 43 -39v-15c-32 -26 -49 -36 -85 -36c-42 0 -54 25 -54 48h-1c-33 -35 -47 -48 -83 -48c-35 0 -62 31 -62 72c0 37 27 61 74 68l74 14l1 50c2 48 -3 71 -39 71c-53 0 -49 -44 -33 -59c26 -23 -59 -51 -67 -30c-19 37 47 127 136 127
c60 0 101 -30 100 -82zM186 469l1 57l-28 -6c-21 -4 -30 -15 -27 -39c2 -12 11 -23 27 -23c12 0 19 4 27 11z" />
    <glyph glyph-name="Lslash" unicode="&#x141;" horiz-adv-x="580" 
d="M30 375h60v215c0 55 -20 70 -60 80v30h280v-30c-40 -10 -60 -25 -60 -80v-215h90v-45h-90v-285h155c55 0 120 44 130 125h35l-10 -170h-530v30c40 10 60 25 60 80v220h-60v45z" />
    <glyph glyph-name="Oslash" unicode="&#xd8;" horiz-adv-x="780" 
d="M30 350c0 210 172 360 360 360c85 0 167 -31 231 -84l56 58l34 -38l-53 -56c56 -62 92 -145 92 -240c0 -210 -172 -360 -360 -360c-84 0 -164 29 -228 81l-57 -60l-36 39l55 57c-58 62 -94 146 -94 243zM200 350c0 -56 5 -105 15 -148l332 346c-30 71 -82 112 -157 112
c-130 0 -190 -120 -190 -310zM580 350c0 53 -5 101 -15 143l-331 -347c31 -68 82 -106 156 -106c130 0 190 120 190 310z" />
    <glyph glyph-name="OE" unicode="&#x152;" horiz-adv-x="970" 
d="M640 655v-280h40c55 0 99 25 108 105h35v-255h-35c-9 80 -53 105 -108 105h-40v-285h135c55 0 120 44 130 125h35l-10 -170h-440c-22 -6 -72 -10 -100 -10c-188 0 -360 150 -360 360s172 360 360 360c28 0 78 -4 100 -10h430l5 -170h-35c-10 81 -70 125 -125 125h-125z
M200 350c0 -190 60 -310 190 -310c55 0 90 30 90 100v410c0 80 -35 110 -90 110c-130 0 -190 -120 -190 -310z" />
    <glyph glyph-name="ordmasculine" unicode="&#xba;" horiz-adv-x="407" 
d="M41 552c2 88 67 158 158 158c88 0 155 -70 153 -158c-1 -85 -70 -155 -159 -155c-91 0 -155 70 -152 155zM142 552c0 -88 16 -125 54 -125s53 37 53 125c0 90 -15 128 -53 128s-54 -38 -54 -128z" />
    <glyph glyph-name="ae" unicode="&#xe6;" horiz-adv-x="741" 
d="M516 -10c-85 0 -145 31 -185 80c-90 -74 -148 -80 -201 -80c-59 0 -110 52 -110 120c0 62 51 102 130 115l123 20l2 85c2 80 -5 120 -65 120c-90 0 -82 -75 -55 -100c42 -39 -99 -84 -115 -50c-29 63 80 210 230 210c52 0 95 -13 124 -38c40 25 86 38 132 38
c115 0 219 -55 189 -225h-281c-3 -135 62 -180 137 -180c60 0 100 15 150 45v-70c-20 -20 -80 -90 -205 -90zM521 460c-57 0 -86 -39 -86 -120h141c25 90 -15 120 -55 120zM225 90c15 0 44 0 78 25c-13 25 -22 55 -25 90l-53 -10c-34 -7 -51 -24 -45 -65
c3 -20 18 -40 45 -40z" />
    <glyph glyph-name="dotlessi" unicode="&#x131;" horiz-adv-x="300" 
d="M240 510v-400c0 -55 20 -70 60 -80v-30h-280v30c40 10 60 25 60 80v250c0 50 -20 65 -50 75v30l202 45h8z" />
    <glyph glyph-name="lslash" unicode="&#x142;" horiz-adv-x="300" 
d="M290 330h-50v-220c0 -55 20 -70 60 -80v-30h-280v30c40 10 60 25 60 80v220h-50v45h50v245c0 50 -20 65 -50 75v30l202 45h8v-395h50v-45z" />
    <glyph glyph-name="oslash" unicode="&#xf8;" horiz-adv-x="562" 
d="M486 510l35 -35l-45 -48c42 -47 66 -109 65 -177c-3 -144 -116 -260 -265 -260c-62 0 -117 20 -160 53l-49 -53l-37 35l50 53c-39 46 -61 106 -59 172c2 144 114 260 264 260c59 0 112 -19 154 -50zM371 250c0 23 -1 43 -2 62l-169 -180c12 -65 38 -92 81 -92
c63 0 90 60 90 210zM191 250c0 -19 0 -37 1 -53l168 179c-13 59 -38 84 -79 84c-63 0 -90 -60 -90 -210z" />
    <glyph glyph-name="oe" unicode="&#x153;" horiz-adv-x="864" 
d="M639 -10c-78 0 -140 27 -183 69c-46 -43 -109 -69 -180 -69c-151 0 -258 116 -255 260c2 144 114 260 264 260c73 0 136 -28 181 -72c51 47 119 72 183 72c115 0 219 -55 189 -225h-296c0 -135 77 -180 152 -180c60 0 100 15 150 45v-70c-20 -20 -80 -90 -205 -90z
M191 250c0 -150 27 -210 90 -210s90 60 90 210s-27 210 -90 210s-90 -60 -90 -210zM644 460c-57 0 -89 -42 -99 -120h154c25 90 -15 120 -55 120z" />
    <glyph glyph-name="germandbls" unicode="&#xdf;" horiz-adv-x="620" 
d="M320 770c123 0 193 -60 193 -130c0 -120 -127 -138 -127 -215c0 -20 13 -42 41 -62l98 -71c153 -111 51 -302 -128 -302c-75 0 -124 44 -124 106c0 71 117 74 100 14c-15 -53 -5 -75 32 -75c33 0 65 15 65 65c0 42 -27 62 -51 80l-83 63c-85 64 -24 169 17 243
c42 75 33 239 -53 239c-60 0 -70 -70 -70 -225v-500h-210v30c40 15 50 25 50 80v335h-50v50l50 5c0 189 119 270 250 270z" />
    <glyph glyph-name="onesuperior" unicode="&#xb9;" horiz-adv-x="400" 
d="M236 906v-333c0 -33 9 -42 69 -48v-15h-210v15c60 6 69 15 69 48v246c0 33 -12 36 -69 36v15l135 36h6z" />
    <glyph glyph-name="logicalnot" unicode="&#xac;" horiz-adv-x="597" 
d="M507 295v-217h-55v162h-362v55h417z" />
    <glyph glyph-name="mu" unicode="&#xb5;" 
d="M370 135v260c0 50 -10 65 -60 75v30h220v-340c0 -70 5 -90 70 -85v-35l-220 -50h-10v105h-2c-35 -59 -88 -97 -152 -104c-23 -149 -135 -261 -206 -261c-110 0 -70 130 -10 100c132 -66 60 60 60 215v350c0 50 -10 65 -50 75v30h210v-350c0 -45 30 -60 60 -60
c31 0 55 15 90 45z" />
    <glyph glyph-name="trademark" unicode="&#x2122;" horiz-adv-x="954" 
d="M385 700h-290l-2 -89h20c6 49 30 62 62 62h18v-228c0 -32 -12 -41 -35 -47v-17h165v17c-23 6 -35 15 -35 47v228h17c32 0 57 -13 62 -62h21zM660 484l86 216h115v-19c-23 -5 -36 -14 -36 -47v-189c0 -32 13 -41 36 -47v-17h-165v17c23 6 35 15 35 47v143l-79 -210h-47
l-98 246v-179c0 -32 6 -41 53 -47v-17h-136v17c48 6 53 15 53 47v189c0 33 -5 42 -53 47v19h145z" />
    <glyph glyph-name="Eth" unicode="&#xd0;" horiz-adv-x="740" 
d="M30 375h60v215c0 55 -20 70 -60 80v30h310c215 0 370 -130 370 -350c0 -206 -155 -350 -370 -350h-310v30c40 10 60 25 60 80v220h-60v45zM250 45h90c142 0 200 147 200 305c0 185 -62 305 -210 305h-80v-280h90v-45h-90v-285z" />
    <glyph glyph-name="onehalf" unicode="&#xbd;" horiz-adv-x="900" 
d="M191 706v-333c0 -33 9 -42 69 -48v-15h-210v15c60 6 69 15 69 48v246c0 33 -12 36 -69 36v15l135 36h6zM587 710h-39l-241 -720h40zM721 370c39 0 54 -40 54 -88c0 -54 -15 -135 -183 -258v-24h258v57h-183c165 114 180 183 180 232c0 53 -42 107 -120 107
c-81 0 -119 -37 -119 -75c0 -21 13 -36 37 -36c22 0 32 14 31 26c-3 44 10 59 45 59z" />
    <glyph glyph-name="plusminus" unicode="&#xb1;" horiz-adv-x="560" 
d="M90 125h162v115h-162v55h162v163h55v-163h163v-55h-163v-115h163v-55h-380v55z" />
    <glyph glyph-name="Thorn" unicode="&#xde;" horiz-adv-x="610" 
d="M250 195h40c100 0 135 77 135 165c0 80 -25 155 -105 155h-70v-320zM90 110v480c0 55 -20 70 -60 80v30h280v-30c-40 -10 -60 -25 -60 -80v-30h110c150 0 230 -80 230 -190c0 -100 -70 -220 -280 -220h-60v-40c0 -55 20 -70 60 -80v-30h-280v30c40 10 60 25 60 80z" />
    <glyph glyph-name="onequarter" unicode="&#xbc;" horiz-adv-x="900" 
d="M191 706v-333c0 -33 9 -42 69 -48v-15h-210v15c60 6 69 15 69 48v246c0 33 -12 36 -69 36v15l135 36h6zM602 710h-39l-241 -720h40zM725 132h-152l152 192v-192zM850 84v48h-53v264h-47l-200 -254v-58h175v-84h72v84h53z" />
    <glyph glyph-name="divide" unicode="&#xf7;" horiz-adv-x="560" 
d="M219 123c0 36 30 66 66 66s66 -30 66 -66s-30 -66 -66 -66s-66 30 -66 66zM219 412c0 36 30 66 66 66s66 -30 66 -66s-30 -66 -66 -66s-66 30 -66 66zM90 295h380v-55h-380v55z" />
    <glyph glyph-name="brokenbar" unicode="&#xa6;" horiz-adv-x="235" 
d="M145 820v-360h-55v360h55zM145 260v-360h-55v360h55z" />
    <glyph glyph-name="degree" unicode="&#xb0;" horiz-adv-x="375" 
d="M91 673c0 54 41 97 96 97c54 0 97 -43 97 -97c0 -55 -43 -96 -97 -96c-55 0 -96 41 -96 96zM133 673c0 -30 24 -54 54 -54c31 0 55 24 55 54c0 31 -24 55 -55 55c-30 0 -54 -24 -54 -55z" />
    <glyph glyph-name="thorn" unicode="&#xfe;" 
d="M300 425c-25 0 -50 -10 -70 -27v-233c0 -115 50 -125 80 -125c70 0 110 75 105 210c-5 130 -55 175 -115 175zM230 20v-170c0 -55 20 -70 60 -80v-30h-270v30c40 10 50 25 50 80v770c0 50 -20 65 -50 75v30l202 45h8v-330h2c33 45 78 70 138 70c130 0 210 -110 210 -260
c0 -160 -125 -260 -255 -260c-37 0 -70 10 -95 30z" />
    <glyph glyph-name="threequarters" unicode="&#xbe;" horiz-adv-x="900" 
d="M607 710h-39l-241 -720h40zM165 325c47 0 70 33 70 93c0 51 -30 81 -78 81h-19v24h9c48 0 79 29 79 88c0 42 -27 65 -55 65c-33 0 -49 -15 -42 -59c2 -12 -9 -26 -31 -26c-16 0 -33 7 -35 26c-5 48 40 85 114 85c72 0 119 -36 119 -89c0 -47 -33 -86 -88 -99v-1
c53 -7 104 -34 104 -98c0 -77 -64 -115 -150 -115c-73 0 -117 33 -111 85c2 16 17 26 37 26c22 0 31 -13 31 -25c0 -44 13 -61 46 -61zM725 132h-152l152 192v-192zM850 84v48h-53v264h-47l-200 -254v-58h175v-84h72v84h53z" />
    <glyph glyph-name="twosuperior" unicode="&#xb2;" horiz-adv-x="400" 
d="M200 880c39 0 54 -40 54 -88c0 -54 -15 -135 -183 -258v-24h258v57h-183c165 114 180 183 180 232c0 53 -42 107 -120 107c-81 0 -119 -37 -119 -75c0 -21 13 -36 37 -36c22 0 32 14 31 26c-3 44 10 59 45 59z" />
    <glyph glyph-name="registered" unicode="&#xae;" horiz-adv-x="920" 
d="M607 410c0 -33 -26 -64 -75 -81l53 -77c13 -20 36 -45 59 -53v-17h-119c-15 10 -27 24 -35 41l-45 95h-14v-72c0 -33 11 -40 36 -47v-17h-167v17c23 7 37 14 37 47v190c0 33 -14 40 -37 47v17h172c89 0 135 -25 135 -90zM431 346h11c42 0 69 11 69 64c0 46 -16 65 -62 65
h-18v-129zM100 350c0 199 161 360 360 360s360 -161 360 -360s-161 -360 -360 -360s-360 161 -360 360zM136 350c0 -179 145 -324 324 -324s324 145 324 324s-145 324 -324 324s-324 -145 -324 -324z" />
    <glyph glyph-name="minus" unicode="&#x2212;" horiz-adv-x="560" 
d="M90 295h380v-55h-380v55z" />
    <glyph glyph-name="eth" unicode="&#xf0;" horiz-adv-x="562" 
d="M157 584l121 70c-24 53 -47 94 -58 116h70c13 -17 34 -42 59 -74l129 75l24 -41l-125 -73c75 -104 165 -256 165 -417c0 -144 -117 -250 -266 -250c-151 0 -258 106 -255 250c2 144 114 250 264 250c19 0 38 -2 56 -5c-13 45 -28 88 -44 126l-117 -68zM191 240
c0 -150 27 -200 90 -200s90 50 90 200s-27 200 -90 200s-90 -50 -90 -200z" />
    <glyph glyph-name="multiply" unicode="&#xd7;" horiz-adv-x="550" 
d="M460 419l-151 -151l151 -151l-35 -34l-151 150l-150 -150l-34 35l150 150l-150 150l34 35l150 -150l151 150z" />
    <glyph glyph-name="threesuperior" unicode="&#xb3;" horiz-adv-x="400" 
d="M184 525c47 0 70 33 70 93c0 51 -30 81 -78 81h-19v24h9c48 0 79 29 79 88c0 42 -27 65 -55 65c-33 0 -49 -15 -42 -59c2 -12 -9 -26 -31 -26c-16 0 -33 7 -35 26c-5 48 40 85 114 85c72 0 119 -36 119 -89c0 -47 -33 -86 -88 -99v-1c53 -7 104 -34 104 -98
c0 -77 -64 -115 -150 -115c-73 0 -117 33 -111 85c2 16 17 26 37 26c22 0 31 -13 31 -25c0 -44 13 -61 46 -61z" />
    <glyph glyph-name="copyright" unicode="&#xa9;" horiz-adv-x="920" 
d="M100 350c0 199 161 360 360 360s360 -161 360 -360s-161 -360 -360 -360s-360 161 -360 360zM136 350c0 -179 145 -324 324 -324s324 145 324 324s-145 324 -324 324s-324 -145 -324 -324zM487 206c-38 0 -83 22 -83 135s45 135 83 135c53 0 85 -46 97 -94h20l-5 89
c-23 15 -59 36 -118 36c-83 0 -177 -42 -177 -166s94 -166 177 -166c59 0 95 21 118 36l5 89h-20c-12 -48 -32 -94 -97 -94z" />
    <glyph glyph-name="Aacute" unicode="&#xc1;" horiz-adv-x="700" 
d="M351 750l149 108c66 48 -32 122 -71 62l-98 -151zM625 90l-230 615h-85l-210 -615c-14 -41 -40 -50 -100 -60v-30h240v30c-80 10 -90 45 -70 105l34 100h198l38 -115c15 -52 10 -80 -40 -90v-30h300v30c-50 15 -60 27 -75 60zM299 530h2l84 -250h-166z" />
    <glyph glyph-name="Acircumflex" unicode="&#xc2;" horiz-adv-x="700" 
d="M351 825l-105 -75h-50l125 180h60l125 -180h-50zM625 90l-230 615h-85l-210 -615c-14 -41 -40 -50 -100 -60v-30h240v30c-80 10 -90 45 -70 105l34 100h198l38 -115c15 -52 10 -80 -40 -90v-30h300v30c-50 15 -60 27 -75 60zM299 530h2l84 -250h-166z" />
    <glyph glyph-name="Adieresis" unicode="&#xc4;" horiz-adv-x="700" 
d="M187 815c0 38 28 65 64 65c37 0 65 -27 65 -65s-28 -63 -65 -63c-36 0 -64 25 -64 63zM382 815c0 38 28 65 65 65c36 0 64 -27 64 -65s-28 -63 -64 -63c-37 0 -65 25 -65 63zM625 90l-230 615h-85l-210 -615c-14 -41 -40 -50 -100 -60v-30h240v30c-80 10 -90 45 -70 105
l34 100h198l38 -115c15 -52 10 -80 -40 -90v-30h300v30c-50 15 -60 27 -75 60zM299 530h2l84 -250h-166z" />
    <glyph glyph-name="Agrave" unicode="&#xc0;" horiz-adv-x="700" 
d="M342 750l-149 108c-66 48 32 122 71 62l98 -151zM625 90l-230 615h-85l-210 -615c-14 -41 -40 -50 -100 -60v-30h240v30c-80 10 -90 45 -70 105l34 100h198l38 -115c15 -52 10 -80 -40 -90v-30h300v30c-50 15 -60 27 -75 60zM299 530h2l84 -250h-166z" />
    <glyph glyph-name="Aring" unicode="&#xc5;" horiz-adv-x="700" 
d="M253 782c0 54 41 97 96 97c54 0 97 -43 97 -97c0 -37 -20 -68 -49 -84l228 -608c15 -33 25 -45 75 -60v-30h-300v30c50 10 55 38 40 90l-35 110h-204l-31 -95c-20 -60 -10 -95 70 -105v-30h-240v30c60 10 86 19 100 60l206 605c-32 15 -53 47 -53 87zM301 530h-2
l-80 -245h166zM295 782c0 -30 24 -54 54 -54c31 0 55 24 55 54c0 31 -24 55 -55 55c-30 0 -54 -24 -54 -55z" />
    <glyph glyph-name="Atilde" unicode="&#xc3;" horiz-adv-x="700" 
d="M190 760l-35 20c21 43 74 130 120 130c40 0 121 -40 160 -40c35 0 59 10 75 30l35 -20c-21 -42 -69 -120 -115 -120c-47 0 -118 40 -165 40c-36 0 -59 -21 -75 -40zM625 90l-230 615h-85l-210 -615c-14 -41 -40 -50 -100 -60v-30h240v30c-80 10 -90 45 -70 105l34 100
h198l38 -115c15 -52 10 -80 -40 -90v-30h300v30c-50 15 -60 27 -75 60zM299 530h2l84 -250h-166z" />
    <glyph glyph-name="Ccedilla" unicode="&#xc7;" horiz-adv-x="640" 
d="M380 40c-110 0 -180 120 -180 310s70 310 180 310c120 0 185 -80 205 -160h35l-10 150c-40 25 -130 60 -230 60c-210 0 -350 -150 -350 -360c0 -198 124 -343 314 -358l-2 -42c-4 -65 45 -52 45 -105c0 -42 -55 -55 -85 -65l10 -45c72 10 180 60 181 123
c1 88 -111 66 -111 102v30c99 1 188 35 228 60l10 150h-35c-20 -80 -85 -160 -205 -160z" />
    <glyph glyph-name="Eacute" unicode="&#xc9;" 
d="M309 750l149 108c66 48 -32 122 -71 62l-98 -151zM250 655v-280h60c55 0 99 25 108 105h35v-255h-35c-9 80 -53 105 -108 105h-60v-285h155c55 0 120 44 130 125h35l-10 -170h-530v30c40 10 60 25 60 80v480c0 55 -20 70 -60 80v30h520l5 -170h-35
c-10 81 -70 125 -125 125h-145z" />
    <glyph glyph-name="Ecircumflex" unicode="&#xca;" 
d="M324 825l-105 -75h-50l125 180h60l125 -180h-50zM250 655v-280h60c55 0 99 25 108 105h35v-255h-35c-9 80 -53 105 -108 105h-60v-285h155c55 0 120 44 130 125h35l-10 -170h-530v30c40 10 60 25 60 80v480c0 55 -20 70 -60 80v30h520l5 -170h-35
c-10 81 -70 125 -125 125h-145z" />
    <glyph glyph-name="Edieresis" unicode="&#xcb;" 
d="M170 815c0 38 28 65 64 65c37 0 65 -27 65 -65s-28 -63 -65 -63c-36 0 -64 25 -64 63zM365 815c0 38 28 65 65 65c36 0 64 -27 64 -65s-28 -63 -64 -63c-37 0 -65 25 -65 63zM250 655v-280h60c55 0 99 25 108 105h35v-255h-35c-9 80 -53 105 -108 105h-60v-285h155
c55 0 120 44 130 125h35l-10 -170h-530v30c40 10 60 25 60 80v480c0 55 -20 70 -60 80v30h520l5 -170h-35c-10 81 -70 125 -125 125h-145z" />
    <glyph glyph-name="Egrave" unicode="&#xc8;" 
d="M326 750l-149 108c-66 48 32 122 71 62l98 -151zM250 655v-280h60c55 0 99 25 108 105h35v-255h-35c-9 80 -53 105 -108 105h-60v-285h155c55 0 120 44 130 125h35l-10 -170h-530v30c40 10 60 25 60 80v480c0 55 -20 70 -60 80v30h520l5 -170h-35
c-10 81 -70 125 -125 125h-145z" />
    <glyph glyph-name="Iacute" unicode="&#xcd;" horiz-adv-x="340" 
d="M173 750l149 108c66 48 -32 122 -71 62l-98 -151zM250 590v-480c0 -55 20 -70 60 -80v-30h-280v30c40 10 60 25 60 80v480c0 55 -20 70 -60 80v30h280v-30c-40 -10 -60 -25 -60 -80z" />
    <glyph glyph-name="Icircumflex" unicode="&#xce;" horiz-adv-x="340" 
d="M170 825l-105 -75h-50l125 180h60l125 -180h-50zM250 590v-480c0 -55 20 -70 60 -80v-30h-280v30c40 10 60 25 60 80v480c0 55 -20 70 -60 80v30h280v-30c-40 -10 -60 -25 -60 -80z" />
    <glyph glyph-name="Idieresis" unicode="&#xcf;" horiz-adv-x="340" 
d="M8 815c0 38 28 65 64 65c37 0 65 -27 65 -65s-28 -63 -65 -63c-36 0 -64 25 -64 63zM203 815c0 38 28 65 65 65c36 0 64 -27 64 -65s-28 -63 -64 -63c-37 0 -65 25 -65 63zM252 590v-480c0 -55 20 -70 60 -80v-30h-280v30c40 10 60 25 60 80v480c0 55 -20 70 -60 80v30
h280v-30c-40 -10 -60 -25 -60 -80z" />
    <glyph glyph-name="Igrave" unicode="&#xcc;" horiz-adv-x="340" 
d="M168 750l-149 108c-66 48 32 122 71 62l98 -151zM250 590v-480c0 -55 20 -70 60 -80v-30h-280v30c40 10 60 25 60 80v480c0 55 -20 70 -60 80v30h280v-30c-40 -10 -60 -25 -60 -80z" />
    <glyph glyph-name="Ntilde" unicode="&#xd1;" horiz-adv-x="730" 
d="M242 760l-35 20c21 43 74 130 120 130c40 0 121 -40 160 -40c35 0 59 10 75 30l35 -20c-21 -42 -69 -120 -115 -120c-47 0 -118 40 -165 40c-36 0 -59 -21 -75 -40zM570 240v350c0 55 -10 70 -90 80v30h230v-30c-60 -10 -85 -25 -85 -80v-590h-95l-360 570v-460
c0 -55 10 -70 90 -80v-30h-230v30c60 10 85 25 85 80v480c0 55 -25 70 -85 80v30h250z" />
    <glyph glyph-name="Oacute" unicode="&#xd3;" horiz-adv-x="780" 
d="M361 750l149 108c66 48 -32 122 -71 62l-98 -151zM30 350c0 210 172 360 360 360s360 -150 360 -360s-172 -360 -360 -360s-360 150 -360 360zM200 350c0 -190 60 -310 190 -310s190 120 190 310s-60 310 -190 310s-190 -120 -190 -310z" />
    <glyph glyph-name="Ocircumflex" unicode="&#xd4;" horiz-adv-x="780" 
d="M390 825l-105 -75h-50l125 180h60l125 -180h-50zM30 350c0 210 172 360 360 360s360 -150 360 -360s-172 -360 -360 -360s-360 150 -360 360zM200 350c0 -190 60 -310 190 -310s190 120 190 310s-60 310 -190 310s-190 -120 -190 -310z" />
    <glyph glyph-name="Odieresis" unicode="&#xd6;" horiz-adv-x="780" 
d="M236 815c0 38 28 65 64 65c37 0 65 -27 65 -65s-28 -63 -65 -63c-36 0 -64 25 -64 63zM431 815c0 38 28 65 65 65c36 0 64 -27 64 -65s-28 -63 -64 -63c-37 0 -65 25 -65 63zM30 350c0 210 172 360 360 360s360 -150 360 -360s-172 -360 -360 -360s-360 150 -360 360z
M200 350c0 -190 60 -310 190 -310s190 120 190 310s-60 310 -190 310s-190 -120 -190 -310z" />
    <glyph glyph-name="Ograve" unicode="&#xd2;" horiz-adv-x="780" 
d="M399 750l-149 108c-66 48 32 122 71 62l98 -151zM30 350c0 210 172 360 360 360s360 -150 360 -360s-172 -360 -360 -360s-360 150 -360 360zM200 350c0 -190 60 -310 190 -310s190 120 190 310s-60 310 -190 310s-190 -120 -190 -310z" />
    <glyph glyph-name="Otilde" unicode="&#xd5;" horiz-adv-x="780" 
d="M234 760l-35 20c21 43 74 130 120 130c40 0 121 -40 160 -40c35 0 59 10 75 30l35 -20c-21 -42 -69 -120 -115 -120c-47 0 -118 40 -165 40c-36 0 -59 -21 -75 -40zM30 350c0 210 172 360 360 360s360 -150 360 -360s-172 -360 -360 -360s-360 150 -360 360zM200 350
c0 -190 60 -310 190 -310s190 120 190 310s-60 310 -190 310s-190 -120 -190 -310z" />
    <glyph glyph-name="Scaron" unicode="&#x160;" horiz-adv-x="535" 
d="M277 855l-105 75h-50l125 -180h60l125 180h-50zM475 490h-35c-30 120 -61 165 -147 165c-33 0 -100 -20 -100 -95c0 -45 25 -86 97 -115c100 -40 215 -105 215 -235c0 -150 -118 -220 -252 -220c-72 0 -158 20 -213 50l-10 185h35c15 -135 93 -180 168 -180
c61 0 117 38 117 110c0 60 -47 103 -122 135c-101 43 -198 98 -198 220c0 128 105 200 242 200c61 0 138 -15 193 -45z" />
    <glyph glyph-name="Uacute" unicode="&#xda;" horiz-adv-x="760" 
d="M396 750l149 108c66 48 -32 122 -71 62l-98 -151zM595 280v310c0 55 -15 70 -95 80v30h240v-30c-70 -10 -90 -25 -90 -80v-320c0 -180 -112 -280 -275 -280c-195 0 -295 107 -295 280v320c0 55 -20 70 -60 80v30h280v-30c-40 -10 -60 -25 -60 -80v-310
c0 -160 60 -230 165 -230c135 0 190 90 190 230z" />
    <glyph glyph-name="Ucircumflex" unicode="&#xdb;" horiz-adv-x="760" 
d="M401 825l-105 -75h-50l125 180h60l125 -180h-50zM595 280v310c0 55 -15 70 -95 80v30h240v-30c-70 -10 -90 -25 -90 -80v-320c0 -180 -112 -280 -275 -280c-195 0 -295 107 -295 280v320c0 55 -20 70 -60 80v30h280v-30c-40 -10 -60 -25 -60 -80v-310
c0 -160 60 -230 165 -230c135 0 190 90 190 230z" />
    <glyph glyph-name="Udieresis" unicode="&#xdc;" horiz-adv-x="760" 
d="M241 815c0 38 28 65 64 65c37 0 65 -27 65 -65s-28 -63 -65 -63c-36 0 -64 25 -64 63zM436 815c0 38 28 65 65 65c36 0 64 -27 64 -65s-28 -63 -64 -63c-37 0 -65 25 -65 63zM595 280v310c0 55 -15 70 -95 80v30h240v-30c-70 -10 -90 -25 -90 -80v-320
c0 -180 -112 -280 -275 -280c-195 0 -295 107 -295 280v320c0 55 -20 70 -60 80v30h280v-30c-40 -10 -60 -25 -60 -80v-310c0 -160 60 -230 165 -230c135 0 190 90 190 230z" />
    <glyph glyph-name="Ugrave" unicode="&#xd9;" horiz-adv-x="760" 
d="M406 750l-149 108c-66 48 32 122 71 62l98 -151zM595 280v310c0 55 -15 70 -95 80v30h240v-30c-70 -10 -90 -25 -90 -80v-320c0 -180 -112 -280 -275 -280c-195 0 -295 107 -295 280v320c0 55 -20 70 -60 80v30h280v-30c-40 -10 -60 -25 -60 -80v-310
c0 -160 60 -230 165 -230c135 0 190 90 190 230z" />
    <glyph glyph-name="Yacute" unicode="&#xdd;" horiz-adv-x="640" 
d="M344 750l149 108c66 48 -32 122 -71 62l-98 -151zM55 610l200 -367v-133c0 -55 -20 -70 -60 -80v-30h280v30c-40 10 -60 25 -60 80v181l145 319c18 40 41 50 90 60v30h-220v-30c71 -10 83 -46 60 -95l-119 -255h-2l-134 260c-25 48 -35 80 15 90v30h-260v-30
c30 -15 48 -28 65 -60z" />
    <glyph glyph-name="Ydieresis" unicode="&#x178;" horiz-adv-x="640" 
d="M183 815c0 38 28 65 64 65c37 0 65 -27 65 -65s-28 -63 -65 -63c-36 0 -64 25 -64 63zM378 815c0 38 28 65 65 65c36 0 64 -27 64 -65s-28 -63 -64 -63c-37 0 -65 25 -65 63zM55 610l200 -367v-133c0 -55 -20 -70 -60 -80v-30h280v30c-40 10 -60 25 -60 80v181l145 319
c18 40 41 50 90 60v30h-220v-30c71 -10 83 -46 60 -95l-119 -255h-2l-134 260c-25 48 -35 80 15 90v30h-260v-30c30 -15 48 -28 65 -60z" />
    <glyph glyph-name="Zcaron" unicode="&#x17d;" 
d="M312 855l-105 75h-50l125 -180h60l125 180h-50zM210 45l350 595v60h-503l-5 -170h35c10 81 68 125 125 125h178l-360 -605v-50h530l10 170h-35c-10 -81 -70 -125 -130 -125h-195z" />
    <glyph glyph-name="aacute" unicode="&#xe1;" horiz-adv-x="500" 
d="M435 375l-5 -235c-2 -80 25 -75 70 -65v-25c-50 -40 -80 -60 -140 -60c-70 0 -90 40 -90 80h-2c-55 -57 -78 -80 -138 -80c-59 0 -110 52 -110 120c0 62 51 102 130 115l123 20l2 85c2 80 -5 120 -65 120c-90 0 -82 -75 -55 -100c42 -39 -99 -84 -115 -50
c-29 63 80 210 230 210c100 0 167 -50 165 -135zM270 110l2 95l-47 -10c-34 -7 -51 -24 -45 -65c3 -20 18 -40 45 -40c20 0 31 8 45 20zM228 550l149 108c66 48 -32 122 -71 62l-98 -151z" />
    <glyph glyph-name="acircumflex" unicode="&#xe2;" horiz-adv-x="500" 
d="M435 375l-5 -235c-2 -80 25 -75 70 -65v-25c-50 -40 -80 -60 -140 -60c-70 0 -90 40 -90 80h-2c-55 -57 -78 -80 -138 -80c-59 0 -110 52 -110 120c0 62 51 102 130 115l123 20l2 85c2 80 -5 120 -65 120c-90 0 -82 -75 -55 -100c42 -39 -99 -84 -115 -50
c-29 63 80 210 230 210c100 0 167 -50 165 -135zM270 110l2 95l-47 -10c-34 -7 -51 -24 -45 -65c3 -20 18 -40 45 -40c20 0 31 8 45 20zM241 625l-105 -75h-50l125 180h60l125 -180h-50z" />
    <glyph glyph-name="adieresis" unicode="&#xe4;" horiz-adv-x="500" 
d="M435 375l-5 -235c-2 -80 25 -75 70 -65v-25c-50 -40 -80 -60 -140 -60c-70 0 -90 40 -90 80h-2c-55 -57 -78 -80 -138 -80c-59 0 -110 52 -110 120c0 62 51 102 130 115l123 20l2 85c2 80 -5 120 -65 120c-90 0 -82 -75 -55 -100c42 -39 -99 -84 -115 -50
c-29 63 80 210 230 210c100 0 167 -50 165 -135zM270 110l2 95l-47 -10c-34 -7 -51 -24 -45 -65c3 -20 18 -40 45 -40c20 0 31 8 45 20zM82 615c0 38 28 65 64 65c37 0 65 -27 65 -65s-28 -63 -65 -63c-36 0 -64 25 -64 63zM277 615c0 38 28 65 65 65c36 0 64 -27 64 -65
s-28 -63 -64 -63c-37 0 -65 25 -65 63z" />
    <glyph glyph-name="agrave" unicode="&#xe0;" horiz-adv-x="500" 
d="M435 375l-5 -235c-2 -80 25 -75 70 -65v-25c-50 -40 -80 -60 -140 -60c-70 0 -90 40 -90 80h-2c-55 -57 -78 -80 -138 -80c-59 0 -110 52 -110 120c0 62 51 102 130 115l123 20l2 85c2 80 -5 120 -65 120c-90 0 -82 -75 -55 -100c42 -39 -99 -84 -115 -50
c-29 63 80 210 230 210c100 0 167 -50 165 -135zM270 110l2 95l-47 -10c-34 -7 -51 -24 -45 -65c3 -20 18 -40 45 -40c20 0 31 8 45 20zM254 550l-149 108c-66 48 32 122 71 62l98 -151z" />
    <glyph glyph-name="aring" unicode="&#xe5;" horiz-adv-x="500" 
d="M435 375l-5 -235c-2 -80 25 -75 70 -65v-25c-50 -40 -80 -60 -140 -60c-70 0 -90 40 -90 80h-2c-55 -57 -78 -80 -138 -80c-59 0 -110 52 -110 120c0 62 51 102 130 115l123 20l2 85c2 80 -5 120 -65 120c-90 0 -82 -75 -55 -100c42 -39 -99 -84 -115 -50
c-29 63 80 210 230 210c100 0 167 -50 165 -135zM270 110l2 95l-47 -10c-34 -7 -51 -24 -45 -65c3 -20 18 -40 45 -40c20 0 31 8 45 20zM148 637c0 54 41 97 96 97c54 0 97 -43 97 -97c0 -55 -43 -96 -97 -96c-55 0 -96 41 -96 96zM190 637c0 -30 24 -54 54 -54
c31 0 55 24 55 54c0 31 -24 55 -55 55c-30 0 -54 -24 -54 -55z" />
    <glyph glyph-name="atilde" unicode="&#xe3;" horiz-adv-x="500" 
d="M435 375l-5 -235c-2 -80 25 -75 70 -65v-25c-50 -40 -80 -60 -140 -60c-70 0 -90 40 -90 80h-2c-55 -57 -78 -80 -138 -80c-59 0 -110 52 -110 120c0 62 51 102 130 115l123 20l2 85c2 80 -5 120 -65 120c-90 0 -82 -75 -55 -100c42 -39 -99 -84 -115 -50
c-29 63 80 210 230 210c100 0 167 -50 165 -135zM270 110l2 95l-47 -10c-34 -7 -51 -24 -45 -65c3 -20 18 -40 45 -40c20 0 31 8 45 20zM81 560l-35 20c21 43 74 130 120 130c40 0 121 -40 160 -40c35 0 59 10 75 30l35 -20c-21 -42 -69 -120 -115 -120
c-47 0 -118 40 -165 40c-36 0 -59 -21 -75 -40z" />
    <glyph glyph-name="ccedilla" unicode="&#xe7;" horiz-adv-x="500" 
d="M280 460c-70 0 -102 -63 -102 -179c0 -131 77 -176 152 -176c60 0 100 15 150 45v-70c-20 -20 -79 -88 -200 -90v-30c0 -36 112 -14 111 -102c-1 -63 -109 -113 -181 -123l-10 45c30 10 85 23 85 65c0 53 -59 50 -55 115l2 33c-138 19 -212 129 -212 252
c0 170 140 265 265 265s191 -61 191 -125c0 -35 -16 -70 -76 -70c-50 0 -61 31 -60 52c5 73 -20 93 -60 93z" />
    <glyph glyph-name="eacute" unicode="&#xe9;" horiz-adv-x="500" 
d="M280 460c-57 0 -89 -42 -99 -120h154c25 90 -15 120 -55 120zM275 -10c-165 0 -255 120 -255 255c0 170 140 265 265 265c115 0 219 -55 189 -225h-296c0 -135 77 -180 152 -180c60 0 100 15 150 45v-70c-20 -20 -80 -90 -205 -90zM263 550l149 108c66 48 -32 122 -71 62
l-98 -151z" />
    <glyph glyph-name="ecircumflex" unicode="&#xea;" horiz-adv-x="500" 
d="M280 460c-57 0 -89 -42 -99 -120h154c25 90 -15 120 -55 120zM275 -10c-165 0 -255 120 -255 255c0 170 140 265 265 265c115 0 219 -55 189 -225h-296c0 -135 77 -180 152 -180c60 0 100 15 150 45v-70c-20 -20 -80 -90 -205 -90zM274 625l-105 -75h-50l125 180h60
l125 -180h-50z" />
    <glyph glyph-name="edieresis" unicode="&#xeb;" horiz-adv-x="500" 
d="M280 460c-57 0 -89 -42 -99 -120h154c25 90 -15 120 -55 120zM275 -10c-165 0 -255 120 -255 255c0 170 140 265 265 265c115 0 219 -55 189 -225h-296c0 -135 77 -180 152 -180c60 0 100 15 150 45v-70c-20 -20 -80 -90 -205 -90zM116 615c0 38 28 65 64 65
c37 0 65 -27 65 -65s-28 -63 -65 -63c-36 0 -64 25 -64 63zM311 615c0 38 28 65 65 65c36 0 64 -27 64 -65s-28 -63 -64 -63c-37 0 -65 25 -65 63z" />
    <glyph glyph-name="egrave" unicode="&#xe8;" horiz-adv-x="500" 
d="M280 460c-57 0 -89 -42 -99 -120h154c25 90 -15 120 -55 120zM275 -10c-165 0 -255 120 -255 255c0 170 140 265 265 265c115 0 219 -55 189 -225h-296c0 -135 77 -180 152 -180c60 0 100 15 150 45v-70c-20 -20 -80 -90 -205 -90zM299 550l-149 108c-66 48 32 122 71 62
l98 -151z" />
    <glyph glyph-name="iacute" unicode="&#xed;" horiz-adv-x="300" 
d="M240 510v-400c0 -55 20 -70 60 -80v-30h-280v30c40 10 60 25 60 80v250c0 50 -20 65 -50 75v30l202 45h8zM149 550l149 108c66 48 -32 122 -71 62l-98 -151z" />
    <glyph glyph-name="icircumflex" unicode="&#xee;" horiz-adv-x="300" 
d="M156 625l-105 -75h-50l125 180h60l125 -180h-50zM240 510v-400c0 -55 20 -70 60 -80v-30h-280v30c40 10 60 25 60 80v250c0 50 -20 65 -50 75v30l202 45h8z" />
    <glyph glyph-name="idieresis" unicode="&#xef;" horiz-adv-x="300" 
d="M240 510v-400c0 -55 20 -70 60 -80v-30h-280v30c40 10 60 25 60 80v250c0 50 -20 65 -50 75v30l202 45h8zM-2 615c0 38 28 65 64 65c37 0 65 -27 65 -65s-28 -63 -65 -63c-36 0 -64 25 -64 63zM193 615c0 38 28 65 65 65c36 0 64 -27 64 -65s-28 -63 -64 -63
c-37 0 -65 25 -65 63z" />
    <glyph glyph-name="igrave" unicode="&#xec;" horiz-adv-x="300" 
d="M240 510v-400c0 -55 20 -70 60 -80v-30h-280v30c40 10 60 25 60 80v250c0 50 -20 65 -50 75v30l202 45h8zM160 550l-149 108c-66 48 32 122 71 62l98 -151z" />
    <glyph glyph-name="ntilde" unicode="&#xf1;" horiz-adv-x="620" 
d="M20 0v30c40 10 60 25 60 80v250c0 50 -20 65 -50 75v30l205 45h8l-3 -105h2c38 65 110 105 183 105c67 0 135 -40 135 -150v-250c0 -55 20 -70 60 -80v-30h-260v30c30 15 40 25 40 80v240c0 45 -30 60 -60 60c-31 0 -65 -15 -100 -45v-255c0 -55 20 -70 60 -80v-30h-280z
M163 560l-35 20c21 43 74 130 120 130c40 0 121 -40 160 -40c35 0 59 10 75 30l35 -20c-21 -42 -69 -120 -115 -120c-47 0 -118 40 -165 40c-36 0 -59 -21 -75 -40z" />
    <glyph glyph-name="oacute" unicode="&#xf3;" horiz-adv-x="562" 
d="M21 250c2 144 114 260 264 260s258 -116 256 -260c-3 -144 -116 -260 -265 -260c-151 0 -258 116 -255 260zM191 250c0 -150 27 -210 90 -210s90 60 90 210s-27 210 -90 210s-90 -60 -90 -210zM274 550l149 108c66 48 -32 122 -71 62l-98 -151z" />
    <glyph glyph-name="ocircumflex" unicode="&#xf4;" horiz-adv-x="562" 
d="M21 250c2 144 114 260 264 260s258 -116 256 -260c-3 -144 -116 -260 -265 -260c-151 0 -258 116 -255 260zM191 250c0 -150 27 -210 90 -210s90 60 90 210s-27 210 -90 210s-90 -60 -90 -210zM290 625l-105 -75h-50l125 180h60l125 -180h-50z" />
    <glyph glyph-name="odieresis" unicode="&#xf6;" horiz-adv-x="562" 
d="M21 250c2 144 114 260 264 260s258 -116 256 -260c-3 -144 -116 -260 -265 -260c-151 0 -258 116 -255 260zM191 250c0 -150 27 -210 90 -210s90 60 90 210s-27 210 -90 210s-90 -60 -90 -210zM125 615c0 38 28 65 64 65c37 0 65 -27 65 -65s-28 -63 -65 -63
c-36 0 -64 25 -64 63zM320 615c0 38 28 65 65 65c36 0 64 -27 64 -65s-28 -63 -64 -63c-37 0 -65 25 -65 63z" />
    <glyph glyph-name="ograve" unicode="&#xf2;" horiz-adv-x="562" 
d="M21 250c2 144 114 260 264 260s258 -116 256 -260c-3 -144 -116 -260 -265 -260c-151 0 -258 116 -255 260zM191 250c0 -150 27 -210 90 -210s90 60 90 210s-27 210 -90 210s-90 -60 -90 -210zM308 550l-149 108c-66 48 32 122 71 62l98 -151z" />
    <glyph glyph-name="otilde" unicode="&#xf5;" horiz-adv-x="562" 
d="M21 250c2 144 114 260 264 260s258 -116 256 -260c-3 -144 -116 -260 -265 -260c-151 0 -258 116 -255 260zM191 250c0 -150 27 -210 90 -210s90 60 90 210s-27 210 -90 210s-90 -60 -90 -210zM128 560l-35 20c21 43 74 130 120 130c40 0 121 -40 160 -40
c35 0 59 10 75 30l35 -20c-21 -42 -69 -120 -115 -120c-47 0 -118 40 -165 40c-36 0 -59 -21 -75 -40z" />
    <glyph glyph-name="scaron" unicode="&#x161;" horiz-adv-x="430" 
d="M375 350h-35c-30 80 -65 110 -120 110c-25 0 -55 -15 -55 -55s31 -56 65 -70c130 -55 175 -95 175 -185c0 -95 -85 -160 -200 -160c-51 0 -120 15 -160 35l-10 135h35c30 -115 95 -120 125 -120c32 0 60 20 60 65c0 25 -9 55 -90 90c-100 43 -140 85 -140 170
c0 80 60 145 190 145c47 0 110 -12 150 -31zM203 655l-105 75h-50l125 -180h60l125 180h-50z" />
    <glyph glyph-name="uacute" unicode="&#xfa;" 
d="M370 135v260c0 50 -10 65 -60 75v30h220v-340c0 -70 5 -90 70 -85v-35l-220 -50h-10v105h-2c-38 -65 -100 -105 -173 -105c-67 0 -135 40 -135 150v255c0 50 -10 65 -50 75v30h210v-350c0 -45 30 -60 60 -60c31 0 55 15 90 45zM281 550l149 108c66 48 -32 122 -71 62
l-98 -151z" />
    <glyph glyph-name="ucircumflex" unicode="&#xfb;" 
d="M370 135v260c0 50 -10 65 -60 75v30h220v-340c0 -70 5 -90 70 -85v-35l-220 -50h-10v105h-2c-38 -65 -100 -105 -173 -105c-67 0 -135 40 -135 150v255c0 50 -10 65 -50 75v30h210v-350c0 -45 30 -60 60 -60c31 0 55 15 90 45zM292 625l-105 -75h-50l125 180h60l125 -180
h-50z" />
    <glyph glyph-name="udieresis" unicode="&#xfc;" 
d="M370 135v260c0 50 -10 65 -60 75v30h220v-340c0 -70 5 -90 70 -85v-35l-220 -50h-10v105h-2c-38 -65 -100 -105 -173 -105c-67 0 -135 40 -135 150v255c0 50 -10 65 -50 75v30h210v-350c0 -45 30 -60 60 -60c31 0 55 15 90 45zM127 615c0 38 28 65 64 65
c37 0 65 -27 65 -65s-28 -63 -65 -63c-36 0 -64 25 -64 63zM322 615c0 38 28 65 65 65c36 0 64 -27 64 -65s-28 -63 -64 -63c-37 0 -65 25 -65 63z" />
    <glyph glyph-name="ugrave" unicode="&#xf9;" 
d="M370 135v260c0 50 -10 65 -60 75v30h220v-340c0 -70 5 -90 70 -85v-35l-220 -50h-10v105h-2c-38 -65 -100 -105 -173 -105c-67 0 -135 40 -135 150v255c0 50 -10 65 -50 75v30h210v-350c0 -45 30 -60 60 -60c31 0 55 15 90 45zM290 550l-149 108c-66 48 32 122 71 62
l98 -151z" />
    <glyph glyph-name="yacute" unicode="&#xfd;" horiz-adv-x="570" 
d="M250 -20l-195 430c-15 33 -25 45 -55 60v30h270v-30c-50 -10 -50 -40 -30 -90l94 -214h2l79 214c19 51 6 80 -65 90v30h220v-30c-49 -10 -69 -20 -85 -60l-165 -420c-77 -196 -190 -260 -270 -260c-110 0 -72 121 -10 100c92 -31 155 -25 210 150zM319 550l149 108
c66 48 -32 122 -71 62l-98 -151z" />
    <glyph glyph-name="ydieresis" unicode="&#xff;" horiz-adv-x="570" 
d="M250 -20l-195 430c-15 33 -25 45 -55 60v30h270v-30c-50 -10 -50 -40 -30 -90l94 -214h2l79 214c19 51 6 80 -65 90v30h220v-30c-49 -10 -69 -20 -85 -60l-165 -420c-77 -196 -190 -260 -270 -260c-110 0 -72 121 -10 100c92 -31 155 -25 210 150zM144 615
c0 38 28 65 64 65c37 0 65 -27 65 -65s-28 -63 -65 -63c-36 0 -64 25 -64 63zM339 615c0 38 28 65 65 65c36 0 64 -27 64 -65s-28 -63 -64 -63c-37 0 -65 25 -65 63z" />
    <glyph glyph-name="zcaron" unicode="&#x17e;" horiz-adv-x="480" 
d="M190 50h140c55 0 80 29 90 110h40l-10 -160h-430v80l250 370h-105c-55 0 -75 -29 -85 -110h-40l5 160h400v-80zM256 655l-105 75h-50l125 -180h60l125 180h-50z" />
    <glyph glyph-name="exclamsmall" unicode="&#xf721;" horiz-adv-x="320" 
d="M87 63c0 40 33 73 73 73s73 -33 73 -73s-33 -73 -73 -73s-73 33 -73 73zM181 200h-40l-55 262c-12 55 25 88 75 88s82 -33 71 -88z" />
    <glyph glyph-name="Hungarumlautsmall" unicode="&#xf6f8;" horiz-adv-x="480" 
d="M122 600l108 153c38 57 -73 103 -89 43l-51 -181zM282 600l108 153c38 57 -73 103 -89 43l-51 -181z" />
    <glyph glyph-name="dollaroldstyle" unicode="&#xf724;" horiz-adv-x="495" 
d="M215 640h55v-91c46 -3 100 -16 138 -34l10 -140h-37c-29 77 -63 116 -111 123v-142c135 -57 180 -98 180 -194c0 -94 -75 -159 -180 -170v-92h-55v91c-53 3 -117 17 -155 38l-10 146h39c31 -114 91 -133 126 -135v164c-7 4 -15 7 -23 11c-108 47 -152 89 -152 182
c0 78 54 142 175 152v91zM295 113c0 16 -5 35 -25 55v-113c15 12 25 32 25 58zM190 439c0 -23 10 -40 25 -53v103c-14 -10 -25 -26 -25 -50z" />
    <glyph glyph-name="dollarsuperior" unicode="&#xf6e4;" horiz-adv-x="400" 
d="M219 1002v-101c32 -2 67 -11 96 -26l6 -103h-18c-13 72 -42 102 -94 102c-29 0 -67 -12 -67 -57c0 -39 28 -55 71 -72c60 -24 123 -53 123 -124c0 -72 -49 -112 -117 -119v-102h-35v101c-40 1 -83 10 -110 29l-10 107h18c9 -89 62 -110 106 -110c41 0 76 24 76 68
c0 46 -40 63 -84 82c-61 26 -111 53 -111 122c0 55 44 96 115 102v101h35z" />
    <glyph glyph-name="ampersandsmall" unicode="&#xf726;" horiz-adv-x="731" 
d="M180 156c0 49 21 76 43 97l172 -185c-29 -17 -64 -28 -104 -28c-59 0 -111 49 -111 116zM350 438c0 -34 -18 -76 -50 -96c-25 24 -54 63 -54 102c0 34 18 65 54 65s50 -35 50 -71zM421 43l44 -43h176v30c-43 10 -69 29 -84 43l-51 49c20 27 38 58 55 98
c18 41 28 51 100 60v25h-216v-25c72 -9 86 -19 72 -60c-9 -23 -20 -45 -37 -69l-155 166c106 37 126 81 126 124c0 65 -76 109 -155 109c-81 0 -173 -42 -173 -127c0 -48 19 -92 73 -143c-67 -20 -140 -74 -140 -145c0 -90 90 -145 205 -145c47 0 103 15 160 53z" />
    <glyph glyph-name="Acutesmall" unicode="&#xf7b4;" horiz-adv-x="369" 
d="M110 600l149 108c66 48 -32 122 -71 62l-98 -151z" />
    <glyph glyph-name="parenleftsuperior" unicode="&#x207d;" horiz-adv-x="400" 
d="M196 719c0 -104 20 -234 77 -334h-18c-94 99 -129 225 -129 334c0 113 35 238 129 337h18c-57 -99 -77 -229 -77 -337z" />
    <glyph glyph-name="parenrightsuperior" unicode="&#x207e;" horiz-adv-x="400" 
d="M204 719c0 -104 -20 -234 -78 -334h17c95 99 130 225 130 334c0 113 -35 238 -130 337h-17c58 -99 78 -229 78 -337z" />
    <glyph glyph-name="twodotenleader" unicode="&#x2025;" horiz-adv-x="550" 
d="M87 63c0 40 33 73 73 73s73 -33 73 -73s-33 -73 -73 -73s-73 33 -73 73zM317 63c0 40 33 73 73 73s73 -33 73 -73s-33 -73 -73 -73s-73 33 -73 73z" />
    <glyph glyph-name="onedotenleader" unicode="&#x2024;" horiz-adv-x="320" 
d="M87 63c0 40 33 73 73 73s73 -33 73 -73s-33 -73 -73 -73s-73 33 -73 73z" />
    <glyph glyph-name="zerooldstyle" unicode="&#xf730;" 
d="M40 270c0 170 90 280 260 280s260 -110 260 -280s-90 -280 -260 -280s-260 100 -260 280zM210 270c0 -190 20 -230 90 -230s90 40 90 230s-20 230 -90 230s-90 -40 -90 -230z" />
    <glyph glyph-name="oneoldstyle" unicode="&#xf731;" horiz-adv-x="430" 
d="M300 550v-440c0 -55 20 -70 100 -80v-30h-360v30c80 10 100 25 100 80v280c0 55 -10 70 -100 70v30l250 60h10z" />
    <glyph glyph-name="twooldstyle" unicode="&#xf732;" horiz-adv-x="510" 
d="M250 500c50 0 70 -50 70 -110c0 -90 -20 -180 -290 -350v-40h450v120h-265c215 120 260 200 260 281c0 89 -75 149 -210 149c-145 0 -201 -61 -201 -125c0 -35 16 -70 71 -70c50 0 61 36 60 57c-5 73 15 88 55 88z" />
    <glyph glyph-name="threeoldstyle" unicode="&#xf733;" horiz-adv-x="545" 
d="M250 -90c60 0 88 56 88 156c0 85 -31 144 -111 144h-26v45h16c61 0 115 47 115 143c0 82 -52 102 -72 102c-40 0 -60 -15 -55 -88c1 -21 -10 -57 -60 -57c-55 0 -71 35 -71 70c0 64 56 125 191 125s214 -60 214 -149c0 -78 -59 -146 -157 -164v-2
c89 -11 184 -65 184 -171c0 -128 -106 -204 -261 -204c-125 0 -191 61 -191 125c0 35 16 70 76 70c50 0 61 -31 60 -52c-5 -73 20 -93 60 -93z" />
    <glyph glyph-name="fouroldstyle" unicode="&#xf734;" horiz-adv-x="570" 
d="M307 100h-228l228 299v-299zM540 0v100h-73v450h-104l-333 -434v-116h277v-130h160v130h73z" />
    <glyph glyph-name="fiveoldstyle" unicode="&#xf735;" horiz-adv-x="535" 
d="M105 240l10 300h355v-120h-308l-6 -125c289 30 339 -143 339 -220c0 -120 -100 -215 -260 -215c-125 0 -191 61 -191 125c0 35 16 70 76 70c50 0 61 -31 60 -52c-5 -73 20 -93 60 -93c70 0 90 70 90 160c0 88 -45 170 -145 170h-80z" />
    <glyph glyph-name="sixoldstyle" unicode="&#xf736;" horiz-adv-x="565" 
d="M355 200c0 -114 -23 -160 -70 -160c-75 0 -92 157 -75 286c24 19 51 26 70 26c51 0 75 -52 75 -152zM525 210c0 110 -68 209 -194 209c-27 0 -78 -6 -122 -44c11 75 40 205 215 255l-11 40c-212 -40 -373 -203 -373 -416c0 -143 93 -264 244 -264c120 0 241 86 241 220z
" />
    <glyph glyph-name="sevenoldstyle" unicode="&#xf737;" horiz-adv-x="500" 
d="M278 -130l202 610v60h-435l-5 -190h35c10 51 18 70 75 70h250l-302 -550h180z" />
    <glyph glyph-name="eightoldstyle" unicode="&#xf738;" horiz-adv-x="565" 
d="M360 514c0 -50 -19 -104 -39 -123c-86 34 -106 89 -106 132c0 58 39 87 70 87c41 0 75 -20 75 -96zM365 143c0 -56 -25 -103 -84 -103c-51 0 -91 41 -91 126c0 51 20 94 40 124c96 -41 135 -81 135 -147zM520 177c0 76 -35 143 -158 194c90 21 128 80 128 139
c0 103 -101 150 -201 150c-119 0 -219 -62 -219 -170c0 -61 25 -125 118 -178c-86 -19 -143 -77 -143 -153c0 -119 105 -169 234 -169c126 0 241 65 241 187z" />
    <glyph glyph-name="nineoldstyle" unicode="&#xf739;" horiz-adv-x="565" 
d="M210 340c0 114 23 160 70 160c75 0 92 -157 75 -286c-24 -19 -51 -26 -70 -26c-51 0 -75 52 -75 152zM40 330c0 -110 68 -209 194 -209c27 0 78 6 122 44c-11 -75 -40 -205 -215 -255l11 -40c212 40 373 203 373 416c0 143 -93 264 -244 264c-120 0 -241 -86 -241 -220z
" />
    <glyph glyph-name="commasuperior" unicode="&#xf6e2;" horiz-adv-x="400" 
d="M192 599c52 0 63 -46 63 -77c0 -71 -55 -124 -99 -139l-10 20c66 30 84 101 45 101c-24 0 -46 18 -46 48c0 25 22 47 47 47z" />
    <glyph glyph-name="threequartersemdash" unicode="&#xf6de;" horiz-adv-x="900" 
d="M90 295h720v-55h-720v55z" />
    <glyph glyph-name="periodsuperior" unicode="&#xf6e8;" horiz-adv-x="400" 
d="M148 551c0 28 24 52 52 52s51 -24 51 -52c0 -27 -23 -51 -51 -51s-52 24 -52 51z" />
    <glyph glyph-name="questionsmall" unicode="&#xf73f;" horiz-adv-x="443" 
d="M313 410c0 74 -134 -16 -196 4c-72 23 -54 161 75 132c54 -12 171 -61 171 -156c0 -45 -30 -93 -112 -120c-28 -9 -55 -32 -48 -70h-45c-22 34 -80 146 22 169c50 11 133 2 133 41zM110 63c0 40 33 73 73 73s73 -33 73 -73s-33 -73 -73 -73s-73 33 -73 73z" />
    <glyph glyph-name="asuperior" unicode="&#xf6e9;" horiz-adv-x="365" 
d="M276 731l-4 -141c-2 -47 15 -45 43 -39v-15c-32 -26 -49 -36 -85 -36c-42 0 -54 25 -54 48h-1c-33 -35 -47 -48 -83 -48c-35 0 -62 31 -62 72c0 37 27 61 74 68l74 14l1 50c2 48 -3 71 -39 71c-53 0 -49 -44 -33 -59c26 -23 -59 -51 -67 -30c-19 37 47 127 136 127
c60 0 101 -30 100 -82zM176 572l1 57l-28 -6c-21 -4 -30 -15 -27 -39c2 -12 11 -23 27 -23c12 0 19 4 27 11z" />
    <glyph glyph-name="bsuperior" unicode="&#xf6ea;" horiz-adv-x="417" 
d="M208 759c-14 0 -29 -3 -42 -15v-139c0 -69 29 -75 48 -75c42 0 66 45 63 125c-4 78 -33 104 -69 104zM166 967v-196v0c21 27 48 42 83 42c77 0 125 -68 125 -158c0 -94 -75 -155 -151 -155c-21 0 -54 10 -81 30l-47 -25h-25v373c0 29 -10 38 -30 45v18l121 26h5z" />
    <glyph glyph-name="centsuperior" unicode="&#xf6e0;" horiz-adv-x="400" 
d="M243 400v101c55 2 100 21 124 35l4 87h-17c-12 -48 -49 -97 -123 -97s-125 61 -125 175c0 115 51 175 125 175s111 -50 123 -97h17l-4 86c-24 13 -69 34 -124 36v101h-35v-102c-107 -9 -180 -82 -180 -199c0 -118 73 -191 180 -199v-102h35z" />
    <glyph glyph-name="dsuperior" unicode="&#xf6eb;" horiz-adv-x="431" 
d="M198 551c15 0 30 7 41 16v140c0 68 -29 76 -47 76c-42 0 -66 -46 -62 -128c2 -77 32 -104 68 -104zM239 795v83c0 29 -11 38 -29 45v18l120 26h5v-365c0 -41 4 -54 43 -51v-21l-132 -30h-7v43h-1c-19 -28 -46 -43 -82 -43c-78 0 -126 67 -126 155c0 97 75 158 154 158
c21 0 41 -8 55 -18z" />
    <glyph glyph-name="esuperior" unicode="&#xf6ec;" horiz-adv-x="352" 
d="M185 783c-33 0 -53 -26 -59 -74h93c15 54 -9 74 -34 74zM184 500c-99 0 -154 72 -154 154c0 102 84 159 159 159c69 0 130 -34 113 -136h-177c0 -81 45 -108 91 -108c35 0 59 9 89 27v-41c-12 -12 -47 -55 -121 -55z" />
    <glyph glyph-name="isuperior" unicode="&#xf6ed;" horiz-adv-x="255" 
d="M172 815v-238c0 -34 12 -42 36 -47v-20h-168v20c25 5 36 13 36 47v149c0 29 -11 40 -26 43v20l116 26h6zM69 915c0 31 25 56 55 56s56 -25 56 -56c0 -30 -26 -53 -56 -53s-55 23 -55 53z" />
    <glyph glyph-name="lsuperior" unicode="&#xf6ee;" horiz-adv-x="255" 
d="M172 971v-394c0 -34 12 -42 36 -47v-20h-168v20c25 5 36 13 36 47v304c0 31 -11 39 -26 45v18l116 27h6z" />
    <glyph glyph-name="msuperior" unicode="&#xf6ef;" horiz-adv-x="626" 
d="M357 729v-152c0 -34 14 -42 35 -47v-20h-154v20c18 7 23 13 23 47v142c0 28 -12 36 -29 36c-19 0 -38 -8 -60 -26v-152c0 -34 12 -42 36 -47v-20h-168v20c25 5 36 13 36 47v149c0 29 -11 40 -26 43v20l119 26h4l-1 -62h1c22 40 60 62 104 62c35 0 69 -19 79 -65h1
c22 39 62 65 106 65c39 0 81 -22 81 -89v-149c0 -34 11 -42 34 -47v-20h-154v20c18 7 23 13 23 47v142c0 28 -12 36 -29 36c-19 0 -40 -8 -61 -26z" />
    <glyph glyph-name="nsuperior" unicode="&#x207f;" horiz-adv-x="448" 
d="M40 510v20c25 5 36 13 36 47v149c0 29 -11 40 -26 43v20l119 26h4l-1 -62h1c22 40 66 62 110 62c40 0 80 -22 80 -89v-149c0 -34 11 -42 37 -47v-20h-156v20c17 7 24 13 24 47v142c0 28 -19 36 -36 36c-19 0 -38 -8 -60 -26v-152c0 -34 12 -42 36 -47v-20h-168z" />
    <glyph glyph-name="osuperior" unicode="&#xf6f0;" horiz-adv-x="387" 
d="M31 655c2 88 67 158 158 158c88 0 155 -70 153 -158c-1 -85 -70 -155 -159 -155c-91 0 -155 70 -152 155zM132 655c0 -88 16 -125 54 -125s53 37 53 125c0 90 -15 128 -53 128s-54 -38 -54 -128z" />
    <glyph glyph-name="rsuperior" unicode="&#xf6f1;" horiz-adv-x="330" 
d="M172 577v146c15 12 36 20 75 8c49 -14 62 84 2 84c-35 0 -55 -26 -76 -68h-1l1 68h-4l-119 -26v-20c15 -3 26 -14 26 -43v-149c0 -34 -11 -42 -36 -47v-20h168v20c-24 5 -36 13 -36 47z" />
    <glyph glyph-name="ssuperior" unicode="&#xf6f2;" horiz-adv-x="304" 
d="M239 716h-20c-18 47 -39 67 -72 67c-15 0 -33 -11 -33 -35c0 -23 18 -33 39 -41c77 -33 105 -57 105 -111c0 -56 -51 -96 -121 -96c-29 0 -71 10 -97 22v80h17c18 -69 57 -72 75 -72c19 0 37 13 37 39c0 15 -6 33 -55 54c-59 25 -84 51 -84 102c0 47 36 88 114 88
c28 0 66 -10 90 -19z" />
    <glyph glyph-name="tsuperior" unicode="&#xf6f3;" horiz-adv-x="298" 
d="M160 772v-176c0 -38 6 -51 35 -51c13 0 29 2 49 6v-15c-30 -26 -65 -36 -97 -36c-40 0 -82 22 -82 72v200h-25v29l25 12l71 82h24v-90h72v-33h-72z" />
    <glyph glyph-name="parenleftinferior" unicode="&#x208d;" horiz-adv-x="400" 
d="M196 9c0 -104 20 -234 77 -334h-18c-94 99 -129 225 -129 334c0 113 35 238 129 337h18c-57 -99 -77 -229 -77 -337z" />
    <glyph glyph-name="parenrightinferior" unicode="&#x208e;" horiz-adv-x="400" 
d="M204 9c0 -104 -20 -234 -78 -334h17c95 99 130 225 130 334c0 113 -35 238 -130 337h-17c58 -99 78 -229 78 -337z" />
    <glyph glyph-name="Circumflexsmall" unicode="&#xf6f6;" horiz-adv-x="470" 
d="M235 675l-105 -75h-50l125 180h60l125 -180h-50z" />
    <glyph glyph-name="hyphensuperior" unicode="&#xf6e6;" horiz-adv-x="400" 
d="M15 730h370v-45h-370v45z" />
    <glyph glyph-name="Gravesmall" unicode="&#xf760;" horiz-adv-x="369" 
d="M259 600l-149 108c-66 48 32 122 71 62l98 -151z" />
    <glyph glyph-name="Asmall" unicode="&#xf761;" horiz-adv-x="590" 
d="M535 90l-195 455h-83l-172 -455c-15 -40 -36 -50 -85 -60v-30h220v30c-71 10 -83 39 -65 90l16 45h160l19 -45c20 -50 20 -80 -30 -90v-30h270v30c-30 15 -41 27 -55 60zM244 374h2l65 -164h-125z" />
    <glyph glyph-name="Bsmall" unicode="&#xf762;" horiz-adv-x="570" 
d="M380 286v2c70 12 140 42 140 122c0 90 -80 130 -230 130h-260v-30c40 -10 60 -25 60 -80v-320c0 -55 -20 -70 -60 -80v-30h270c150 0 250 35 250 145c0 77 -65 130 -170 141zM250 260h20c70 0 115 -22 115 -110c0 -80 -45 -105 -105 -105h-30v215zM270 305h-20v190h10
c40 0 95 -5 95 -85c0 -86 -35 -105 -85 -105z" />
    <glyph glyph-name="Csmall" unicode="&#xf763;" horiz-adv-x="560" 
d="M340 40c-60 0 -140 40 -140 230s80 230 140 230c90 0 145 -80 165 -160h35l-10 150c-40 25 -100 60 -200 60c-140 0 -300 -70 -300 -280s160 -280 300 -280c100 0 160 35 200 60l10 150h-35c-20 -80 -55 -160 -165 -160z" />
    <glyph glyph-name="Dsmall" unicode="&#xf764;" horiz-adv-x="660" 
d="M250 45h30c142 0 180 97 180 225c0 155 -42 225 -190 225h-20v-450zM280 0h-250v30c40 10 60 25 60 80v320c0 55 -20 70 -60 80v30h250c215 0 350 -80 350 -270c0 -176 -135 -270 -350 -270z" />
    <glyph glyph-name="Esmall" unicode="&#xf765;" horiz-adv-x="560" 
d="M250 495v-200h20c55 0 99 15 108 95h35v-235h-35c-9 80 -53 95 -108 95h-20v-205h115c55 0 120 24 130 105h35l-10 -150h-490v30c40 10 60 25 60 80v320c0 55 -20 70 -60 80v30h480l5 -150h-35c-10 81 -70 105 -125 105h-105z" />
    <glyph glyph-name="Fsmall" unicode="&#xf766;" horiz-adv-x="535" 
d="M250 240v-130c0 -55 20 -70 60 -80v-30h-280v30c40 10 60 25 60 80v320c0 55 -20 70 -60 80v30h480l5 -150h-35c-10 81 -70 105 -125 105h-105v-210h20c55 0 99 15 108 95h35v-235h-35c-9 80 -53 95 -108 95h-20z" />
    <glyph glyph-name="Gsmall" unicode="&#xf767;" horiz-adv-x="630" 
d="M340 40c-60 0 -140 40 -140 230s80 230 140 230c90 0 145 -80 165 -160h35l-10 150c-40 25 -100 60 -200 60c-140 0 -300 -70 -300 -280s160 -280 299 -280c100 0 200 50 240 80v70c0 55 0 70 60 80v30h-280v-30c50 -10 60 -25 60 -80v-85c-30 -13 -49 -15 -69 -15z" />
    <glyph glyph-name="Hsmall" unicode="&#xf768;" horiz-adv-x="710" 
d="M620 430v-320c0 -55 20 -70 60 -80v-30h-280v30c40 10 60 25 60 80v145h-210v-145c0 -55 20 -70 60 -80v-30h-280v30c40 10 60 25 60 80v320c0 55 -20 70 -60 80v30h280v-30c-40 -10 -60 -25 -60 -80v-130h210v130c0 55 -20 70 -60 80v30h280v-30
c-40 -10 -60 -25 -60 -80z" />
    <glyph glyph-name="Ismall" unicode="&#xf769;" horiz-adv-x="340" 
d="M250 430v-320c0 -55 20 -70 60 -80v-30h-280v30c40 10 60 25 60 80v320c0 55 -20 70 -60 80v30h280v-30c-40 -10 -60 -25 -60 -80z" />
    <glyph glyph-name="Jsmall" unicode="&#xf76a;" horiz-adv-x="400" 
d="M310 430v-130c0 -160 -75 -310 -250 -310c-125 0 -73 151 6 85c122 -102 84 65 84 185v170c0 55 -20 70 -60 80v30h280v-30c-40 -10 -60 -25 -60 -80z" />
    <glyph glyph-name="Ksmall" unicode="&#xf76b;" horiz-adv-x="640" 
d="M250 305v125c0 55 20 70 60 80v30h-280v-30c40 -10 60 -25 60 -80v-320c0 -55 -20 -70 -60 -80v-30h280v30c-40 10 -60 25 -60 80v120c10 0 24 -16 45 -45l60 -80c41 -59 35 -70 15 -75v-30h260v30c-25 15 -35 11 -99 95l-151 200l120 135c30 34 61 40 115 50v30h-235
v-30c72 -10 69 -38 35 -80l-80 -90c-24 -29 -55 -35 -85 -35z" />
    <glyph glyph-name="Lsmall" unicode="&#xf76c;" horiz-adv-x="540" 
d="M90 110v320c0 55 -20 70 -60 80v30h280v-30c-40 -10 -60 -25 -60 -80v-385h115c55 0 120 24 130 105h35l-10 -150h-490v30c40 10 60 25 60 80z" />
    <glyph glyph-name="Msmall" unicode="&#xf76d;" horiz-adv-x="800" 
d="M430 175l145 365h195v-30c-40 -10 -60 -25 -60 -80v-320c0 -55 20 -70 60 -80v-30h-280v30c40 10 60 25 60 80v240l-135 -355h-80l-165 415v-300c0 -55 10 -70 90 -80v-30h-230v30c80 10 90 25 90 80v320c0 55 -10 70 -90 80v30h245z" />
    <glyph glyph-name="Nsmall" unicode="&#xf76e;" horiz-adv-x="670" 
d="M510 210v220c0 55 -10 70 -90 80v30h230v-30c-60 -10 -85 -25 -85 -80v-430h-95l-300 410v-300c0 -55 10 -70 90 -80v-30h-230v30c60 10 85 25 85 80v320c0 55 -25 70 -85 80v30h230z" />
    <glyph glyph-name="Osmall" unicode="&#xf76f;" horiz-adv-x="660" 
d="M30 270c0 180 142 280 300 280s300 -100 300 -280s-142 -280 -300 -280s-300 100 -300 280zM200 270c0 -190 61 -230 130 -230s130 40 130 230s-61 230 -130 230s-130 -40 -130 -230z" />
    <glyph glyph-name="Psmall" unicode="&#xf770;" horiz-adv-x="570" 
d="M250 235h20c70 0 115 52 115 140c0 80 -25 120 -105 120h-30v-260zM270 190h-20v-80c0 -55 20 -70 60 -80v-30h-280v30c40 10 60 25 60 80v320c0 55 -20 70 -60 80v30h290c150 0 230 -55 230 -165c0 -100 -70 -185 -280 -185z" />
    <glyph glyph-name="Qsmall" unicode="&#xf771;" horiz-adv-x="660" 
d="M30 270c0 180 142 280 300 280s300 -100 300 -280c0 -154 -103 -249 -232 -273c65 -65 174 -171 302 -192v-25c-27 -12 -90 -30 -140 -30c-136 0 -208 97 -282 244c-136 19 -248 116 -248 276zM200 270c0 -190 61 -230 130 -230s130 40 130 230s-61 230 -130 230
s-130 -40 -130 -230z" />
    <glyph glyph-name="Rsmall" unicode="&#xf772;" horiz-adv-x="610" 
d="M550 385c0 -55 -47 -108 -129 -135l89 -130c23 -33 60 -75 100 -90v-30h-200c-26 20 -46 40 -60 70l-76 160h-24v-120c0 -55 20 -70 60 -80v-30h-280v30c40 10 60 25 60 80v320c0 55 -20 70 -60 80v30h290c150 0 230 -45 230 -155zM250 275h20c70 0 115 22 115 110
c0 80 -25 110 -105 110h-30v-220z" />
    <glyph glyph-name="Ssmall" unicode="&#xf773;" horiz-adv-x="475" 
d="M408 375h-37c-32 87 -71 125 -130 125c-27 0 -61 -18 -61 -61c0 -42 35 -64 71 -79c142 -59 189 -100 189 -198c0 -103 -91 -172 -214 -172c-55 0 -132 15 -176 39l-10 146h39c34 -125 104 -135 136 -135c34 0 70 24 70 73c0 29 -15 65 -103 102
c-108 47 -152 89 -152 182c0 85 64 153 206 153c51 0 118 -14 162 -35z" />
    <glyph glyph-name="Tsmall" unicode="&#xf774;" horiz-adv-x="540" 
d="M515 540h-490l-5 -150h35c10 81 50 105 105 105h30v-385c0 -55 -20 -70 -60 -80v-30h280v30c-40 10 -60 25 -60 80v385h30c55 0 95 -24 105 -105h35z" />
    <glyph glyph-name="Usmall" unicode="&#xf775;" horiz-adv-x="700" 
d="M535 250v180c0 55 -15 70 -95 80v30h240v-30c-70 -10 -90 -25 -90 -80v-190c0 -170 -112 -250 -245 -250c-165 0 -265 87 -265 250v190c0 55 -20 70 -60 80v30h280v-30c-40 -10 -60 -25 -60 -80v-180c0 -150 50 -200 135 -200c115 0 160 70 160 200z" />
    <glyph glyph-name="Vsmall" unicode="&#xf776;" horiz-adv-x="590" 
d="M55 450l195 -455h84l171 455c15 40 36 50 85 60v30h-220v-30c71 -10 83 -39 65 -90l-89 -254h-2l-104 254c-20 50 -20 80 30 90v30h-270v-30c30 -15 41 -27 55 -60z" />
    <glyph glyph-name="Wsmall" unicode="&#xf777;" horiz-adv-x="880" 
d="M385 450l22 -63l-85 -221h-2l-80 254c-17 51 -20 80 30 90v30h-270v-30c30 -15 42 -26 55 -60l170 -455h83l123 330l109 -330h84l171 455c15 40 36 50 85 60v30h-220v-30c71 -10 84 -39 65 -90l-89 -254h-2l-74 254c-15 53 -10 80 40 90v30h-270v-30
c30 -15 43 -26 55 -60z" />
    <glyph glyph-name="Xsmall" unicode="&#xf778;" horiz-adv-x="620" 
d="M100 460l144 -222l-117 -158c-26 -35 -53 -40 -107 -50v-30h204v30c-64 10 -50 37 -17 80l66 86l62 -86c32 -44 35 -70 -5 -80v-30h270v30c-30 10 -46 15 -70 50l-163 237l115 143c27 33 49 40 103 50v30h-205v-30c62 -10 47 -50 12 -90l-52 -60l-50 70
c-32 45 -40 70 0 80v30h-260v-30c40 -10 48 -16 70 -50z" />
    <glyph glyph-name="Ysmall" unicode="&#xf779;" horiz-adv-x="560" 
d="M55 450l160 -287v-53c0 -55 -20 -70 -60 -80v-30h280v30c-40 10 -60 25 -60 80v101l105 239c18 40 41 50 90 60v30h-220v-30c71 -10 82 -46 60 -95l-79 -175h-2l-94 180c-25 48 -35 80 15 90v30h-260v-30c30 -15 47 -28 65 -60z" />
    <glyph glyph-name="Zsmall" unicode="&#xf77a;" horiz-adv-x="535" 
d="M205 45l290 435v60h-443l-5 -150h35c10 81 68 105 125 105h118l-300 -445v-50h470l10 150h-35c-10 -81 -70 -105 -130 -105h-135z" />
    <glyph glyph-name="colonmonetary" unicode="&#x20a1;" horiz-adv-x="640" 
d="M485 -100v102c54 13 100 32 125 48l10 150h-35c-20 -80 -85 -160 -205 -160c-110 0 -180 120 -180 310s70 310 180 310c120 0 185 -80 205 -160h35l-10 150c-25 15 -71 35 -125 47v103h-55v-93c-16 2 -33 3 -50 3c-23 0 -44 -2 -65 -5v95h-55v-109
c-142 -46 -230 -174 -230 -341s88 -296 230 -342v-108h55v95c21 -3 42 -5 65 -5c17 0 34 1 50 3v-93h55z" />
    <glyph glyph-name="rupiah" unicode="&#xf6dd;" horiz-adv-x="1280" 
d="M890 20v-170c0 -55 20 -70 60 -80v-30h-270v30c40 10 50 25 50 80v150h-240c-20 20 -58 70 -80 110l-105 190h-35v-190c0 -55 20 -70 60 -80v-30h-280v30c40 10 60 25 60 80v480c0 55 -20 70 -60 80v30h320c150 0 230 -80 230 -190c0 -75 -34 -156 -140 -191l120 -179
c46 -70 101 -96 150 -105v325c0 50 -20 65 -50 75v30l205 45h8l-3 -70h2c33 45 78 70 138 70c130 0 210 -110 210 -260c0 -160 -125 -260 -255 -260c-37 0 -70 10 -95 30zM960 425c-25 0 -50 -10 -70 -27v-233c0 -115 50 -125 80 -125c70 0 110 75 105 210
c-5 130 -55 175 -115 175zM270 345h40c100 0 125 67 125 155c0 80 -25 155 -105 155h-60v-310z" />
    <glyph glyph-name="Tildesmall" unicode="&#xf6fe;" horiz-adv-x="550" 
d="M115 610l-35 20c21 43 74 130 120 130c40 0 121 -40 160 -40c35 0 59 10 75 30l35 -20c-21 -42 -69 -120 -115 -120c-47 0 -118 40 -165 40c-36 0 -59 -21 -75 -40z" />
    <glyph glyph-name="exclamdownsmall" unicode="&#xf7a1;" horiz-adv-x="320" 
d="M87 477c0 -40 33 -73 73 -73s73 33 73 73s-33 73 -73 73s-73 -33 -73 -73zM181 340h-40l-55 -262c-12 -55 25 -88 75 -88s82 33 71 88z" />
    <glyph glyph-name="centoldstyle" unicode="&#xf7a2;" 
d="M363 640h-55v-91c-132 -10 -268 -85 -268 -279c0 -195 136 -269 268 -279v-91h55v91c86 5 140 36 177 59l10 150h-35c-19 -77 -52 -154 -152 -160v459c82 -7 133 -83 152 -159h35l-10 150c-37 23 -91 54 -177 59v91zM210 270c0 147 48 205 98 223v-446
c-50 18 -98 75 -98 223z" />
    <glyph glyph-name="Lslashsmall" unicode="&#xf6f9;" horiz-adv-x="540" 
d="M30 290h60v140c0 55 -20 70 -60 80v30h280v-30c-40 -10 -60 -25 -60 -80v-140h70v-45h-70v-200h115c55 0 120 24 130 105h35l-10 -150h-490v30c40 10 60 25 60 80v135h-60v45z" />
    <glyph glyph-name="Scaronsmall" unicode="&#xf6fd;" horiz-adv-x="475" 
d="M408 375h-37c-32 87 -71 125 -130 125c-27 0 -61 -18 -61 -61c0 -42 35 -64 71 -79c142 -59 189 -100 189 -198c0 -103 -91 -172 -214 -172c-55 0 -132 15 -176 39l-10 146h39c34 -125 104 -135 136 -135c34 0 70 24 70 73c0 29 -15 65 -103 102
c-108 47 -152 89 -152 182c0 85 64 153 206 153c51 0 118 -14 162 -35zM237 695l-105 75h-50l125 -180h60l125 180h-50z" />
    <glyph glyph-name="Zcaronsmall" unicode="&#xf6ff;" horiz-adv-x="535" 
d="M205 45l290 435v60h-443l-5 -150h35c10 81 68 105 125 105h118l-300 -445v-50h470l10 150h-35c-10 -81 -70 -105 -130 -105h-135zM280 695l-105 75h-50l125 -180h60l125 180h-50z" />
    <glyph glyph-name="Dieresissmall" unicode="&#xf7a8;" horiz-adv-x="500" 
d="M88 665c0 38 28 65 64 65c37 0 65 -27 65 -65s-28 -63 -65 -63c-36 0 -64 25 -64 63zM283 665c0 38 28 65 65 65c36 0 64 -27 64 -65s-28 -63 -64 -63c-37 0 -65 25 -65 63z" />
    <glyph glyph-name="Brevesmall" unicode="&#xf6f4;" horiz-adv-x="450" 
d="M225 620c90 0 135 78 135 151h-48c-11 -51 -56 -63 -87 -63s-76 12 -87 63h-48c0 -73 45 -151 135 -151z" />
    <glyph glyph-name="Caronsmall" unicode="&#xf6f5;" horiz-adv-x="470" 
d="M235 705l-105 75h-50l125 -180h60l125 180h-50z" />
    <glyph glyph-name="Dotaccentsmall" unicode="&#xf6f7;" horiz-adv-x="314" 
d="M88 677c0 39 30 69 69 69s69 -30 69 -69s-30 -69 -69 -69s-69 30 -69 69z" />
    <glyph glyph-name="Macronsmall" unicode="&#xf7af;" horiz-adv-x="510" 
d="M90 695h330v-55h-330v55z" />
    <glyph glyph-name="figuredash" unicode="&#x2012;" horiz-adv-x="610" 
d="M90 295h430v-55h-430v55z" />
    <glyph glyph-name="hypheninferior" unicode="&#xf6e5;" horiz-adv-x="400" 
d="M15 20h370v-45h-370v45z" />
    <glyph glyph-name="Ogoneksmall" unicode="&#xf6fb;" horiz-adv-x="360" 
d="M270 -160v-35c-18 -23 -60 -40 -90 -40c-123 0 -137 138 0 235h45c-84 -78 -79 -211 45 -160z" />
    <glyph glyph-name="Ringsmall" unicode="&#xf6fc;" horiz-adv-x="375" 
d="M91 687c0 54 41 97 96 97c54 0 97 -43 97 -97c0 -55 -43 -96 -97 -96c-55 0 -96 41 -96 96zM133 687c0 -30 24 -54 54 -54c31 0 55 24 55 54c0 31 -24 55 -55 55c-30 0 -54 -24 -54 -55z" />
    <glyph glyph-name="Cedillasmall" unicode="&#xf7b8;" horiz-adv-x="372" 
d="M133 0h37v-40c0 -36 112 -14 111 -102c-1 -63 -109 -113 -181 -123l-10 45c30 10 85 23 85 65c0 53 -49 40 -45 105z" />
    <glyph glyph-name="questiondownsmall" unicode="&#xf7bf;" horiz-adv-x="443" 
d="M129 130c0 -74 134 16 196 -4c72 -23 54 -161 -75 -132c-54 12 -171 61 -171 156c0 45 30 93 112 120c28 9 55 32 48 70h45c22 -34 80 -146 -22 -169c-50 -11 -133 -2 -133 -41zM332 477c0 -40 -33 -73 -73 -73s-73 33 -73 73s33 73 73 73s73 -33 73 -73z" />
    <glyph glyph-name="oneeighth" unicode="&#x215b;" horiz-adv-x="900" 
d="M191 706v-333c0 -33 9 -42 69 -48v-15h-210v15c60 6 69 15 69 48v246c0 33 -12 36 -69 36v15l135 36h6zM587 710h-39l-241 -720h40zM774 301c0 -35 -13 -66 -36 -80c-56 22 -81 50 -81 86c0 38 26 59 57 59c34 0 60 -19 60 -65zM780 85c0 -40 -23 -70 -67 -70
c-43 0 -71 30 -71 84c0 33 14 59 41 79c64 -25 97 -54 97 -93zM850 102c0 46 -23 79 -92 109c51 16 77 52 77 87c0 62 -58 94 -118 94c-65 0 -128 -37 -128 -102c0 -37 21 -72 73 -101c-53 -17 -88 -53 -88 -95c0 -71 61 -104 134 -104s142 39 142 112z" />
    <glyph glyph-name="threeeighths" unicode="&#x215c;" horiz-adv-x="900" 
d="M587 710h-39l-241 -720h40zM774 301c0 -35 -13 -66 -36 -80c-56 22 -81 50 -81 86c0 38 26 59 57 59c34 0 60 -19 60 -65zM780 85c0 -40 -23 -70 -67 -70c-43 0 -71 30 -71 84c0 33 14 59 41 79c64 -25 97 -54 97 -93zM850 102c0 46 -23 79 -92 109c51 16 77 52 77 87
c0 62 -58 94 -118 94c-65 0 -128 -37 -128 -102c0 -37 21 -72 73 -101c-53 -17 -88 -53 -88 -95c0 -71 61 -104 134 -104s142 39 142 112zM165 325c47 0 70 33 70 93c0 51 -30 81 -78 81h-19v24h9c48 0 79 29 79 88c0 42 -27 65 -55 65c-33 0 -49 -15 -42 -59
c2 -12 -9 -26 -31 -26c-16 0 -33 7 -35 26c-5 48 40 85 114 85c72 0 119 -36 119 -89c0 -47 -33 -86 -88 -99v-1c53 -7 104 -34 104 -98c0 -77 -64 -115 -150 -115c-73 0 -117 33 -111 85c2 16 17 26 37 26c22 0 31 -13 31 -25c0 -44 13 -61 46 -61z" />
    <glyph glyph-name="fiveeighths" unicode="&#x215d;" horiz-adv-x="900" 
d="M587 710h-39l-241 -720h40zM774 301c0 -35 -13 -66 -36 -80c-56 22 -81 50 -81 86c0 38 26 59 57 59c34 0 60 -19 60 -65zM780 85c0 -40 -23 -70 -67 -70c-43 0 -71 30 -71 84c0 33 14 59 41 79c64 -25 97 -54 97 -93zM850 102c0 46 -23 79 -92 109c51 16 77 52 77 87
c0 62 -58 94 -118 94c-65 0 -128 -37 -128 -102c0 -37 21 -72 73 -101c-53 -17 -88 -53 -88 -95c0 -71 61 -104 134 -104s142 39 142 112zM86 519l6 177h206v-57h-181l-3 -91c161 19 199 -74 199 -125c0 -72 -57 -123 -150 -123c-70 0 -113 37 -113 75c0 21 13 36 39 36
c22 0 32 -13 31 -25c-4 -43 13 -58 42 -58c45 0 76 29 76 89c0 55 -29 102 -111 102h-41z" />
    <glyph glyph-name="seveneighths" unicode="&#x215e;" horiz-adv-x="900" 
d="M547 710h-39l-241 -720h40zM774 301c0 -35 -13 -66 -36 -80c-56 22 -81 50 -81 86c0 38 26 59 57 59c34 0 60 -19 60 -65zM780 85c0 -40 -23 -70 -67 -70c-43 0 -71 30 -71 84c0 33 14 59 41 79c64 -25 97 -54 97 -93zM850 102c0 46 -23 79 -92 109c51 16 77 52 77 87
c0 62 -58 94 -118 94c-65 0 -128 -37 -128 -102c0 -37 21 -72 73 -101c-53 -17 -88 -53 -88 -95c0 -71 61 -104 134 -104s142 39 142 112zM172 310l136 366v24h-255l-3 -105h18c6 40 11 48 51 48h150l-181 -333h84z" />
    <glyph glyph-name="onethird" unicode="&#x2153;" horiz-adv-x="900" 
d="M703 15c47 0 70 33 70 93c0 51 -30 81 -78 81h-19v24h9c48 0 79 29 79 88c0 42 -27 65 -55 65c-33 0 -49 -15 -42 -59c2 -12 -9 -26 -31 -26c-16 0 -33 7 -35 26c-5 48 40 85 114 85c72 0 119 -36 119 -89c0 -47 -33 -86 -88 -99v-1c53 -7 104 -34 104 -98
c0 -77 -64 -115 -150 -115c-73 0 -117 33 -111 85c2 16 17 26 37 26c22 0 31 -13 31 -25c0 -44 13 -61 46 -61zM191 706v-333c0 -33 9 -42 69 -48v-15h-210v15c60 6 69 15 69 48v246c0 33 -12 36 -69 36v15l135 36h6zM587 710h-39l-241 -720h40z" />
    <glyph glyph-name="twothirds" unicode="&#x2154;" horiz-adv-x="900" 
d="M703 15c47 0 70 33 70 93c0 51 -30 81 -78 81h-19v24h9c48 0 79 29 79 88c0 42 -27 65 -55 65c-33 0 -49 -15 -42 -59c2 -12 -9 -26 -31 -26c-16 0 -33 7 -35 26c-5 48 40 85 114 85c72 0 119 -36 119 -89c0 -47 -33 -86 -88 -99v-1c53 -7 104 -34 104 -98
c0 -77 -64 -115 -150 -115c-73 0 -117 33 -111 85c2 16 17 26 37 26c22 0 31 -13 31 -25c0 -44 13 -61 46 -61zM607 710h-39l-241 -720h40zM179 680c39 0 54 -40 54 -88c0 -54 -15 -135 -183 -258v-24h258v57h-183c165 114 180 183 180 232c0 53 -42 107 -120 107
c-81 0 -119 -37 -119 -75c0 -21 13 -36 37 -36c22 0 32 14 31 26c-3 44 10 59 45 59z" />
    <glyph glyph-name="zerosuperior" unicode="&#x2070;" horiz-adv-x="400" 
d="M50 701c0 102 48 201 150 201s150 -99 150 -201s-48 -201 -150 -201s-150 96 -150 201zM128 701c0 -105 15 -176 72 -176s72 71 72 176s-15 175 -72 175s-72 -70 -72 -175z" />
    <glyph glyph-name="foursuperior" unicode="&#x2074;" horiz-adv-x="400" 
d="M225 642h-152l152 192v-192zM350 594v48h-53v264h-47l-200 -254v-58h175v-84h72v84h53z" />
    <glyph glyph-name="fivesuperior" unicode="&#x2075;" horiz-adv-x="400" 
d="M104 719l6 177h206v-57h-181l-3 -91c161 19 199 -74 199 -125c0 -72 -57 -123 -150 -123c-70 0 -113 37 -113 75c0 21 13 36 39 36c22 0 32 -13 31 -25c-4 -43 13 -58 42 -58c45 0 76 29 76 89c0 55 -29 102 -111 102h-41z" />
    <glyph glyph-name="sixsuperior" unicode="&#x2076;" horiz-adv-x="400" 
d="M261 626c0 -68 -23 -101 -60 -101c-52 0 -74 85 -63 171c17 16 40 25 60 25c40 0 63 -35 63 -95zM339 632c0 66 -44 122 -113 122c-26 0 -58 -6 -89 -32c11 63 41 135 146 165l-5 21c-127 -24 -218 -122 -218 -250c0 -85 50 -158 140 -158c72 0 139 52 139 132z" />
    <glyph glyph-name="sevensuperior" unicode="&#x2077;" horiz-adv-x="400" 
d="M193 510l136 366v24h-255l-3 -105h18c6 40 11 48 51 48h150l-181 -333h84z" />
    <glyph glyph-name="eightsuperior" unicode="&#x2078;" horiz-adv-x="400" 
d="M262 811c0 -35 -13 -66 -36 -80c-56 22 -81 50 -81 86c0 38 26 59 57 59c34 0 60 -19 60 -65zM268 595c0 -40 -23 -70 -67 -70c-43 0 -71 30 -71 84c0 33 14 59 41 79c64 -25 97 -54 97 -93zM338 612c0 46 -23 79 -92 109c51 16 77 52 77 87c0 62 -58 94 -118 94
c-65 0 -128 -37 -128 -102c0 -37 21 -72 73 -101c-53 -17 -88 -53 -88 -95c0 -71 61 -104 134 -104s142 39 142 112z" />
    <glyph glyph-name="ninesuperior" unicode="&#x2079;" horiz-adv-x="400" 
d="M138 772c0 68 23 100 60 100c52 0 74 -84 63 -170c-17 -16 -40 -26 -60 -26c-40 0 -63 36 -63 96zM60 766c0 -66 44 -122 113 -122c26 0 58 6 89 32c-12 -63 -41 -135 -146 -165l5 -21c127 24 218 122 218 250c0 85 -50 158 -140 158c-72 0 -139 -52 -139 -132z" />
    <glyph glyph-name="zeroinferior" unicode="&#x2080;" horiz-adv-x="400" 
d="M50 -9c0 102 48 201 150 201s150 -99 150 -201s-48 -201 -150 -201s-150 96 -150 201zM128 -9c0 -105 15 -176 72 -176s72 71 72 176s-15 175 -72 175s-72 -70 -72 -175z" />
    <glyph glyph-name="oneinferior" unicode="&#x2081;" horiz-adv-x="400" 
d="M236 196v-333c0 -33 9 -42 69 -48v-15h-210v15c60 6 69 15 69 48v246c0 33 -12 36 -69 36v15l135 36h6z" />
    <glyph glyph-name="twoinferior" unicode="&#x2082;" horiz-adv-x="400" 
d="M200 170c39 0 54 -40 54 -88c0 -54 -15 -135 -183 -258v-24h258v57h-183c165 114 180 183 180 232c0 53 -42 107 -120 107c-81 0 -119 -37 -119 -75c0 -21 13 -36 37 -36c22 0 32 14 31 26c-3 44 10 59 45 59z" />
    <glyph glyph-name="threeinferior" unicode="&#x2083;" horiz-adv-x="400" 
d="M184 -185c47 0 70 33 70 93c0 51 -30 81 -78 81h-19v24h9c48 0 79 29 79 88c0 42 -27 65 -55 65c-33 0 -49 -15 -42 -59c2 -12 -9 -26 -31 -26c-16 0 -33 7 -35 26c-5 48 40 85 114 85c72 0 119 -36 119 -89c0 -47 -33 -86 -88 -99v-1c53 -7 104 -34 104 -98
c0 -77 -64 -115 -150 -115c-73 0 -117 33 -111 85c2 16 17 26 37 26c22 0 31 -13 31 -25c0 -44 13 -61 46 -61z" />
    <glyph glyph-name="fourinferior" unicode="&#x2084;" horiz-adv-x="400" 
d="M225 -68h-152l152 192v-192zM350 -116v48h-53v264h-47l-200 -254v-58h175v-84h72v84h53z" />
    <glyph glyph-name="fiveinferior" unicode="&#x2085;" horiz-adv-x="400" 
d="M104 9l6 177h206v-57h-181l-3 -91c161 19 199 -74 199 -125c0 -72 -57 -123 -150 -123c-70 0 -113 37 -113 75c0 21 13 36 39 36c22 0 32 -13 31 -25c-4 -43 13 -58 42 -58c45 0 76 29 76 89c0 55 -29 102 -111 102h-41z" />
    <glyph glyph-name="sixinferior" unicode="&#x2086;" horiz-adv-x="400" 
d="M261 -84c0 -68 -23 -101 -60 -101c-52 0 -74 85 -63 171c17 16 40 25 60 25c40 0 63 -35 63 -95zM339 -78c0 66 -44 122 -113 122c-26 0 -58 -6 -89 -32c11 63 41 135 146 165l-5 21c-127 -24 -218 -122 -218 -250c0 -85 50 -158 140 -158c72 0 139 52 139 132z" />
    <glyph glyph-name="seveninferior" unicode="&#x2087;" horiz-adv-x="400" 
d="M193 -200l136 366v24h-255l-3 -105h18c6 40 11 48 51 48h150l-181 -333h84z" />
    <glyph glyph-name="eightinferior" unicode="&#x2088;" horiz-adv-x="400" 
d="M262 101c0 -35 -13 -66 -36 -80c-56 22 -81 50 -81 86c0 38 26 59 57 59c34 0 60 -19 60 -65zM268 -115c0 -40 -23 -70 -67 -70c-43 0 -71 30 -71 84c0 33 14 59 41 79c64 -25 97 -54 97 -93zM338 -98c0 46 -23 79 -92 109c51 16 77 52 77 87c0 62 -58 94 -118 94
c-65 0 -128 -37 -128 -102c0 -37 21 -72 73 -101c-53 -17 -88 -53 -88 -95c0 -71 61 -104 134 -104s142 39 142 112z" />
    <glyph glyph-name="nineinferior" unicode="&#x2089;" horiz-adv-x="400" 
d="M138 62c0 68 23 100 60 100c52 0 74 -84 63 -170c-17 -16 -40 -26 -60 -26c-40 0 -63 36 -63 96zM60 56c0 -66 44 -122 113 -122c26 0 58 6 89 32c-12 -63 -41 -135 -146 -165l5 -21c127 24 218 122 218 250c0 85 -50 158 -140 158c-72 0 -139 -52 -139 -132z" />
    <glyph glyph-name="centinferior" unicode="&#xf6df;" horiz-adv-x="400" 
d="M243 -310v101c55 2 100 21 124 35l4 87h-17c-12 -48 -49 -97 -123 -97s-125 61 -125 175c0 115 51 175 125 175s111 -50 123 -97h17l-4 86c-24 13 -69 34 -124 36v101h-35v-102c-107 -9 -180 -82 -180 -199c0 -118 73 -191 180 -199v-102h35z" />
    <glyph glyph-name="dollarinferior" unicode="&#xf6e3;" horiz-adv-x="400" 
d="M219 292v-101c32 -2 67 -11 96 -26l6 -103h-18c-13 72 -42 102 -94 102c-29 0 -67 -12 -67 -57c0 -39 28 -55 71 -72c60 -24 123 -53 123 -124c0 -72 -49 -112 -117 -119v-102h-35v101c-40 1 -83 10 -110 29l-10 107h18c9 -89 62 -110 106 -110c41 0 76 24 76 68
c0 46 -40 63 -84 82c-61 26 -111 53 -111 122c0 55 44 96 115 102v101h35z" />
    <glyph glyph-name="periodinferior" unicode="&#xf6e7;" horiz-adv-x="400" 
d="M148 -159c0 28 24 52 52 52s51 -24 51 -52c0 -27 -23 -51 -51 -51s-52 24 -52 51z" />
    <glyph glyph-name="commainferior" unicode="&#xf6e1;" horiz-adv-x="400" 
d="M192 -111c52 0 63 -46 63 -77c0 -71 -55 -124 -99 -139l-10 20c66 30 84 101 45 101c-24 0 -46 18 -46 48c0 25 22 47 47 47z" />
    <glyph glyph-name="Agravesmall" unicode="&#xf7e0;" horiz-adv-x="590" 
d="M284 600l-149 108c-66 48 32 122 71 62l98 -151zM535 90l-195 455h-83l-172 -455c-15 -40 -36 -50 -85 -60v-30h220v30c-71 10 -83 39 -65 90l16 45h160l19 -45c20 -50 20 -80 -30 -90v-30h270v30c-30 15 -41 27 -55 60zM244 374h2l65 -164h-125z" />
    <glyph glyph-name="Aacutesmall" unicode="&#xf7e1;" horiz-adv-x="590" 
d="M291 600l149 108c66 48 -32 122 -71 62l-98 -151zM535 90l-195 455h-83l-172 -455c-15 -40 -36 -50 -85 -60v-30h220v30c-71 10 -83 39 -65 90l16 45h160l19 -45c20 -50 20 -80 -30 -90v-30h270v30c-30 15 -41 27 -55 60zM244 374h2l65 -164h-125z" />
    <glyph glyph-name="Acircumflexsmall" unicode="&#xf7e2;" horiz-adv-x="590" 
d="M286 675l-105 -75h-50l125 180h60l125 -180h-50zM535 90l-195 455h-83l-172 -455c-15 -40 -36 -50 -85 -60v-30h220v30c-71 10 -83 39 -65 90l16 45h160l19 -45c20 -50 20 -80 -30 -90v-30h270v30c-30 15 -41 27 -55 60zM244 374h2l65 -164h-125z" />
    <glyph glyph-name="Atildesmall" unicode="&#xf7e3;" horiz-adv-x="590" 
d="M127 610l-35 20c21 43 74 130 120 130c40 0 121 -40 160 -40c35 0 59 10 75 30l35 -20c-21 -42 -69 -120 -115 -120c-47 0 -118 40 -165 40c-36 0 -59 -21 -75 -40zM535 90l-195 455h-83l-172 -455c-15 -40 -36 -50 -85 -60v-30h220v30c-71 10 -83 39 -65 90l16 45h160
l19 -45c20 -50 20 -80 -30 -90v-30h270v30c-30 15 -41 27 -55 60zM244 374h2l65 -164h-125z" />
    <glyph glyph-name="Adieresissmall" unicode="&#xf7e4;" horiz-adv-x="590" 
d="M126 665c0 38 28 65 64 65c37 0 65 -27 65 -65s-28 -63 -65 -63c-36 0 -64 25 -64 63zM321 665c0 38 28 65 65 65c36 0 64 -27 64 -65s-28 -63 -64 -63c-37 0 -65 25 -65 63zM535 90l-195 455h-83l-172 -455c-15 -40 -36 -50 -85 -60v-30h220v30c-71 10 -83 39 -65 90
l16 45h160l19 -45c20 -50 20 -80 -30 -90v-30h270v30c-30 15 -41 27 -55 60zM244 374h2l65 -164h-125z" />
    <glyph glyph-name="Aringsmall" unicode="&#xf7e5;" horiz-adv-x="590" 
d="M201 622c0 -39 21 -71 52 -87l-168 -445c-15 -40 -36 -50 -85 -60v-30h220v30c-71 10 -83 39 -65 90l14 40h164l17 -40c20 -50 20 -80 -30 -90v-30h270v30c-30 15 -41 27 -55 60l-192 447c30 16 51 47 51 85c0 54 -43 97 -97 97c-55 0 -96 -43 -96 -97zM244 374h2
l65 -159h-123zM243 622c0 31 24 55 54 55c31 0 55 -24 55 -55c0 -30 -24 -54 -55 -54c-30 0 -54 24 -54 54z" />
    <glyph glyph-name="AEsmall" unicode="&#xf7e6;" horiz-adv-x="750" 
d="M480 295v200h65c55 0 115 -24 125 -105h35l-5 150h-343l-263 -450c-23 -40 -44 -50 -94 -60v-30h210v30c-69 10 -68 39 -40 90l46 80h104v-90c0 -55 -20 -70 -60 -80v-30h450l10 150h-35c-10 -81 -75 -105 -130 -105h-75v205h20c25 0 59 -15 68 -95h35v235h-35
c-9 -80 -43 -95 -68 -95h-20zM318 379h2v-134h-79z" />
    <glyph glyph-name="Ccedillasmall" unicode="&#xf7e7;" horiz-adv-x="560" 
d="M340 40c-60 0 -140 40 -140 230s80 230 140 230c90 0 145 -80 165 -160h35l-10 150c-40 25 -100 60 -200 60c-140 0 -300 -70 -300 -280c0 -196 138 -270 270 -279l-2 -41c-4 -65 45 -52 45 -105c0 -42 -55 -55 -85 -65l10 -45c72 10 180 60 181 123
c1 88 -111 66 -111 102v30c95 2 153 35 192 60l10 150h-35c-20 -80 -55 -160 -165 -160z" />
    <glyph glyph-name="Egravesmall" unicode="&#xf7e8;" horiz-adv-x="560" 
d="M250 495v-200h20c55 0 99 15 108 95h35v-235h-35c-9 80 -53 95 -108 95h-20v-205h115c55 0 120 24 130 105h35l-10 -150h-490v30c40 10 60 25 60 80v320c0 55 -20 70 -60 80v30h480l5 -150h-35c-10 81 -70 105 -125 105h-105zM305 600l-149 108c-66 48 32 122 71 62
l98 -151z" />
    <glyph glyph-name="Eacutesmall" unicode="&#xf7e9;" horiz-adv-x="560" 
d="M250 495v-200h20c55 0 99 15 108 95h35v-235h-35c-9 80 -53 95 -108 95h-20v-205h115c55 0 120 24 130 105h35l-10 -150h-490v30c40 10 60 25 60 80v320c0 55 -20 70 -60 80v30h480l5 -150h-35c-10 81 -70 105 -125 105h-105zM308 600l149 108c66 48 -32 122 -71 62
l-98 -151z" />
    <glyph glyph-name="Ecircumflexsmall" unicode="&#xf7ea;" horiz-adv-x="560" 
d="M250 495v-200h20c55 0 99 15 108 95h35v-235h-35c-9 80 -53 95 -108 95h-20v-205h115c55 0 120 24 130 105h35l-10 -150h-490v30c40 10 60 25 60 80v320c0 55 -20 70 -60 80v30h480l5 -150h-35c-10 81 -70 105 -125 105h-105zM312 675l-105 -75h-50l125 180h60l125 -180
h-50z" />
    <glyph glyph-name="Edieresissmall" unicode="&#xf7eb;" horiz-adv-x="560" 
d="M250 495v-200h20c55 0 99 15 108 95h35v-235h-35c-9 80 -53 95 -108 95h-20v-205h115c55 0 120 24 130 105h35l-10 -150h-490v30c40 10 60 25 60 80v320c0 55 -20 70 -60 80v30h480l5 -150h-35c-10 81 -70 105 -125 105h-105zM144 665c0 38 28 65 64 65
c37 0 65 -27 65 -65s-28 -63 -65 -63c-36 0 -64 25 -64 63zM339 665c0 38 28 65 65 65c36 0 64 -27 64 -65s-28 -63 -64 -63c-37 0 -65 25 -65 63z" />
    <glyph glyph-name="Igravesmall" unicode="&#xf7ec;" horiz-adv-x="340" 
d="M263 430v-320c0 -55 20 -70 60 -80v-30h-280v30c40 10 60 25 60 80v320c0 55 -20 70 -60 80v30h280v-30c-40 -10 -60 -25 -60 -80zM185 600l-149 108c-66 48 32 122 71 62l98 -151z" />
    <glyph glyph-name="Iacutesmall" unicode="&#xf7ed;" horiz-adv-x="340" 
d="M250 430v-320c0 -55 20 -70 60 -80v-30h-280v30c40 10 60 25 60 80v320c0 55 -20 70 -60 80v30h280v-30c-40 -10 -60 -25 -60 -80zM166 600l149 108c66 48 -32 122 -71 62l-98 -151z" />
    <glyph glyph-name="Icircumflexsmall" unicode="&#xf7ee;" horiz-adv-x="340" 
d="M249 430v-320c0 -55 20 -70 60 -80v-30h-280v30c40 10 60 25 60 80v320c0 55 -20 70 -60 80v30h280v-30c-40 -10 -60 -25 -60 -80zM170 675l-105 -75h-50l125 180h60l125 -180h-50z" />
    <glyph glyph-name="Idieresissmall" unicode="&#xf7ef;" horiz-adv-x="340" 
d="M252 430v-320c0 -55 20 -70 60 -80v-30h-280v30c40 10 60 25 60 80v320c0 55 -20 70 -60 80v30h280v-30c-40 -10 -60 -25 -60 -80zM8 665c0 38 28 65 64 65c37 0 65 -27 65 -65s-28 -63 -65 -63c-36 0 -64 25 -64 63zM203 665c0 38 28 65 65 65c36 0 64 -27 64 -65
s-28 -63 -64 -63c-37 0 -65 25 -65 63z" />
    <glyph glyph-name="Ethsmall" unicode="&#xf7f0;" horiz-adv-x="660" 
d="M280 0h-250v30c40 10 60 25 60 80v140h-60v45h60v135c0 55 -20 70 -60 80v30h250c215 0 350 -80 350 -270c0 -176 -135 -270 -350 -270zM250 45h30c142 0 180 97 180 225c0 155 -42 225 -190 225h-20v-200h90v-45h-90v-205z" />
    <glyph glyph-name="Ntildesmall" unicode="&#xf7f1;" horiz-adv-x="670" 
d="M510 210v220c0 55 -10 70 -90 80v30h230v-30c-60 -10 -85 -25 -85 -80v-430h-95l-300 410v-300c0 -55 10 -70 90 -80v-30h-230v30c60 10 85 25 85 80v320c0 55 -25 70 -85 80v30h230zM184 610l-35 20c21 43 74 130 120 130c40 0 121 -40 160 -40c35 0 59 10 75 30l35 -20
c-21 -42 -69 -120 -115 -120c-47 0 -118 40 -165 40c-36 0 -59 -21 -75 -40z" />
    <glyph glyph-name="Ogravesmall" unicode="&#xf7f2;" horiz-adv-x="660" 
d="M30 270c0 180 142 280 300 280s300 -100 300 -280s-142 -280 -300 -280s-300 100 -300 280zM200 270c0 -190 61 -230 130 -230s130 40 130 230s-61 230 -130 230s-130 -40 -130 -230zM329 600l-149 108c-66 48 32 122 71 62l98 -151z" />
    <glyph glyph-name="Oacutesmall" unicode="&#xf7f3;" horiz-adv-x="660" 
d="M30 270c0 180 142 280 300 280s300 -100 300 -280s-142 -280 -300 -280s-300 100 -300 280zM200 270c0 -190 61 -230 130 -230s130 40 130 230s-61 230 -130 230s-130 -40 -130 -230zM334 600l149 108c66 48 -32 122 -71 62l-98 -151z" />
    <glyph glyph-name="Ocircumflexsmall" unicode="&#xf7f4;" horiz-adv-x="660" 
d="M30 270c0 180 142 280 300 280s300 -100 300 -280s-142 -280 -300 -280s-300 100 -300 280zM200 270c0 -190 61 -230 130 -230s130 40 130 230s-61 230 -130 230s-130 -40 -130 -230zM329 675l-105 -75h-50l125 180h60l125 -180h-50z" />
    <glyph glyph-name="Otildesmall" unicode="&#xf7f5;" horiz-adv-x="660" 
d="M30 270c0 180 142 280 300 280s300 -100 300 -280s-142 -280 -300 -280s-300 100 -300 280zM200 270c0 -190 61 -230 130 -230s130 40 130 230s-61 230 -130 230s-130 -40 -130 -230zM173 610l-35 20c21 43 74 130 120 130c40 0 121 -40 160 -40c35 0 59 10 75 30l35 -20
c-21 -42 -69 -120 -115 -120c-47 0 -118 40 -165 40c-36 0 -59 -21 -75 -40z" />
    <glyph glyph-name="Odieresissmall" unicode="&#xf7f6;" horiz-adv-x="660" 
d="M30 270c0 180 142 280 300 280s300 -100 300 -280s-142 -280 -300 -280s-300 100 -300 280zM200 270c0 -190 61 -230 130 -230s130 40 130 230s-61 230 -130 230s-130 -40 -130 -230zM171 665c0 38 28 65 64 65c37 0 65 -27 65 -65s-28 -63 -65 -63c-36 0 -64 25 -64 63z
M366 665c0 38 28 65 65 65c36 0 64 -27 64 -65s-28 -63 -64 -63c-37 0 -65 25 -65 63z" />
    <glyph glyph-name="OEsmall" unicode="&#xf6fa;" horiz-adv-x="874" 
d="M564 495v-200h20c55 0 99 15 108 95h35v-235h-35c-9 80 -53 95 -108 95h-20v-205h115c55 0 120 24 130 105h35l-10 -150h-424c-23 -6 -51 -10 -80 -10c-158 0 -300 100 -300 280s142 280 300 280c29 0 59 -4 82 -10h412l5 -150h-35c-10 81 -70 105 -125 105h-105z
M200 270c0 -190 61 -230 130 -230s73 40 73 230s-4 230 -73 230s-130 -40 -130 -230z" />
    <glyph glyph-name="Oslashsmall" unicode="&#xf7f8;" horiz-adv-x="660" 
d="M69 19l46 48c-52 48 -85 116 -85 203c0 180 142 280 300 280c71 0 138 -20 191 -59l52 54l34 -38l-48 -50c44 -46 71 -109 71 -187c0 -180 -142 -280 -300 -280c-64 0 -125 16 -175 47l-50 -52zM200 270c0 -43 3 -77 8 -106l235 245c-23 72 -66 91 -113 91
c-69 0 -130 -40 -130 -230zM460 270c0 30 -2 56 -5 79l-230 -240c24 -54 63 -69 105 -69c69 0 130 40 130 230z" />
    <glyph glyph-name="Ugravesmall" unicode="&#xf7f9;" horiz-adv-x="700" 
d="M535 250v180c0 55 -15 70 -95 80v30h240v-30c-70 -10 -90 -25 -90 -80v-190c0 -170 -112 -250 -245 -250c-165 0 -265 87 -265 250v190c0 55 -20 70 -60 80v30h280v-30c-40 -10 -60 -25 -60 -80v-180c0 -150 50 -200 135 -200c115 0 160 70 160 200zM366 600l-149 108
c-66 48 32 122 71 62l98 -151z" />
    <glyph glyph-name="Uacutesmall" unicode="&#xf7fa;" horiz-adv-x="700" 
d="M535 250v180c0 55 -15 70 -95 80v30h240v-30c-70 -10 -90 -25 -90 -80v-190c0 -170 -112 -250 -245 -250c-165 0 -265 87 -265 250v190c0 55 -20 70 -60 80v30h280v-30c-40 -10 -60 -25 -60 -80v-180c0 -150 50 -200 135 -200c115 0 160 70 160 200zM372 600l149 108
c66 48 -32 122 -71 62l-98 -151z" />
    <glyph glyph-name="Ucircumflexsmall" unicode="&#xf7fb;" horiz-adv-x="700" 
d="M535 250v180c0 55 -15 70 -95 80v30h240v-30c-70 -10 -90 -25 -90 -80v-190c0 -170 -112 -250 -245 -250c-165 0 -265 87 -265 250v190c0 55 -20 70 -60 80v30h280v-30c-40 -10 -60 -25 -60 -80v-180c0 -150 50 -200 135 -200c115 0 160 70 160 200zM373 675l-105 -75
h-50l125 180h60l125 -180h-50z" />
    <glyph glyph-name="Udieresissmall" unicode="&#xf7fc;" horiz-adv-x="700" 
d="M535 250v180c0 55 -15 70 -95 80v30h240v-30c-70 -10 -90 -25 -90 -80v-190c0 -170 -112 -250 -245 -250c-165 0 -265 87 -265 250v190c0 55 -20 70 -60 80v30h280v-30c-40 -10 -60 -25 -60 -80v-180c0 -150 50 -200 135 -200c115 0 160 70 160 200zM211 665
c0 38 28 65 64 65c37 0 65 -27 65 -65s-28 -63 -65 -63c-36 0 -64 25 -64 63zM406 665c0 38 28 65 65 65c36 0 64 -27 64 -65s-28 -63 -64 -63c-37 0 -65 25 -65 63z" />
    <glyph glyph-name="Yacutesmall" unicode="&#xf7fd;" horiz-adv-x="560" 
d="M55 450l160 -287v-53c0 -55 -20 -70 -60 -80v-30h280v30c-40 10 -60 25 -60 80v101l105 239c18 40 41 50 90 60v30h-220v-30c71 -10 82 -46 60 -95l-79 -175h-2l-94 180c-25 48 -35 80 15 90v30h-260v-30c30 -15 47 -28 65 -60zM300 600l149 108c66 48 -32 122 -71 62
l-98 -151z" />
    <glyph glyph-name="Thornsmall" unicode="&#xf7fe;" horiz-adv-x="570" 
d="M250 160h20c70 0 115 22 115 110c0 80 -25 110 -105 110h-30v-220zM90 110v320c0 55 -20 70 -60 80v30h280v-30c-40 -10 -60 -25 -60 -80v-5h70c150 0 230 -45 230 -155c0 -100 -70 -155 -280 -155h-20v-5c0 -55 20 -70 60 -80v-30h-280v30c40 10 60 25 60 80z" />
    <glyph glyph-name="Ydieresissmall" unicode="&#xf7ff;" horiz-adv-x="560" 
d="M55 450l160 -287v-53c0 -55 -20 -70 -60 -80v-30h280v30c-40 10 -60 25 -60 80v101l105 239c18 40 41 50 90 60v30h-220v-30c71 -10 82 -46 60 -95l-79 -175h-2l-94 180c-25 48 -35 80 15 90v30h-260v-30c30 -15 47 -28 65 -60zM141 665c0 38 28 65 64 65
c37 0 65 -27 65 -65s-28 -63 -65 -63c-36 0 -64 25 -64 63zM336 665c0 38 28 65 65 65c36 0 64 -27 64 -65s-28 -63 -64 -63c-37 0 -65 25 -65 63z" />
    <glyph glyph-name=".null" horiz-adv-x="0" 
 />
    <glyph glyph-name="CR" unicode="&#xd;" horiz-adv-x="230" 
 />
    <glyph glyph-name="Euro" unicode="&#x20ac;" horiz-adv-x="750" 
d="M50 435h68c32 164 161 275 342 275c100 0 190 -35 230 -60l10 -150h-35c-20 80 -85 160 -205 160c-93 0 -157 -85 -175 -225h145v-55h-150v-30c0 -12 0 -24 1 -35h149v-55h-144c19 -137 82 -220 174 -220c120 0 185 80 205 160h35l-10 -150c-40 -25 -130 -60 -230 -60
c-179 0 -307 108 -341 270h-69v55h61c-1 11 -1 23 -1 35c0 10 0 20 1 30h-61v55z" />
    <glyph glyph-name="uni00AD" unicode="&#xad;" horiz-adv-x="560" 
d="M90 295h380v-55h-380v55z" />
    <glyph glyph-name="cyrbreve" unicode="&#xf6d4;" horiz-adv-x="450" 
d="M225 570c90 0 135 78 135 151h-48c-11 -51 -56 -63 -87 -63s-76 12 -87 63h-48c0 -73 45 -151 135 -151z" />
    <glyph glyph-name="commaaccent" unicode="&#xf6c3;" horiz-adv-x="340" 
d="M159 -36c74 0 91 -66 91 -110c0 -101 -80 -176 -141 -198l-21 32c94 44 123 134 68 134c-36 0 -66 26 -66 73c0 36 33 69 69 69z" />
    <glyph glyph-name="undercommaaccent" unicode="&#xf005;" horiz-adv-x="340" 
d="M159 -36c74 0 91 -66 91 -110c0 -101 -80 -176 -141 -198l-21 32c94 44 123 134 68 134c-36 0 -66 26 -66 73c0 36 33 69 69 69z" />
    <glyph glyph-name="dieresisacute" unicode="&#xf6d7;" horiz-adv-x="580" 
d="M88 615c0 38 28 65 64 65c37 0 65 -27 65 -65s-28 -63 -65 -63c-36 0 -64 25 -64 63zM363 615c0 38 28 65 65 65c36 0 64 -27 64 -65s-28 -63 -64 -63c-37 0 -65 25 -65 63zM287 600l108 153c38 57 -73 103 -89 43l-51 -181z" />
    <glyph glyph-name="dieresisgrave" unicode="&#xf6d8;" horiz-adv-x="580" 
d="M492 615c0 38 -28 65 -64 65c-37 0 -65 -27 -65 -65s28 -63 65 -63c36 0 64 25 64 63zM217 615c0 38 -28 65 -65 65c-36 0 -64 -27 -64 -65s28 -63 64 -63c37 0 65 25 65 63zM293 600l-108 153c-38 57 73 103 89 43l51 -181z" />
    <glyph glyph-name="dblgrave" unicode="&#xf6d6;" horiz-adv-x="480" 
d="M360 550l-108 153c-38 57 73 103 89 43l51 -181zM200 550l-108 153c-38 57 73 103 89 43l51 -181z" />
    <glyph glyph-name="cyrflex" unicode="&#xf6d5;" horiz-adv-x="470" 
d="M235 625l-105 -75h-50l125 180h60l125 -180h-50z" />
    <glyph glyph-name="uni02C9" unicode="&#x2c9;" horiz-adv-x="510" 
d="M90 645h330v-55h-330v55z" />
    <glyph glyph-name="Acute" unicode="&#xf6c9;" horiz-adv-x="369" 
d="M110 750l149 108c66 48 -32 122 -71 62l-98 -151z" />
    <glyph glyph-name="Breve" horiz-adv-x="450" 
d="M225 770c90 0 135 78 135 151h-48c-11 -51 -56 -63 -87 -63s-76 12 -87 63h-48c0 -73 45 -151 135 -151z" />
    <glyph glyph-name="cyrBreve" unicode="&#xf6d1;" horiz-adv-x="450" 
d="M225 770c90 0 135 78 135 151h-48c-11 -51 -56 -63 -87 -63s-76 12 -87 63h-48c0 -73 45 -151 135 -151z" />
    <glyph glyph-name="Caron" unicode="&#xf6ca;" horiz-adv-x="470" 
d="M235 855l-105 75h-50l125 -180h60l125 180h-50z" />
    <glyph glyph-name="Cedilla" horiz-adv-x="372" 
d="M133 0h37v-40c0 -36 112 -14 111 -102c-1 -63 -109 -113 -181 -123l-10 45c30 10 85 23 85 65c0 53 -49 40 -45 105z" />
    <glyph glyph-name="Circumflex" horiz-adv-x="470" 
d="M235 825l-105 -75h-50l125 180h60l125 -180h-50z" />
    <glyph glyph-name="commaaccent.cap" horiz-adv-x="340" 
d="M159 -36c74 0 91 -66 91 -110c0 -101 -80 -176 -141 -198l-21 32c94 44 123 134 68 134c-36 0 -66 26 -66 73c0 36 33 69 69 69z" />
    <glyph glyph-name="Dieresis" unicode="&#xf6cb;" horiz-adv-x="500" 
d="M88 815c0 38 28 65 64 65c37 0 65 -27 65 -65s-28 -63 -65 -63c-36 0 -64 25 -64 63zM283 815c0 38 28 65 65 65c36 0 64 -27 64 -65s-28 -63 -64 -63c-37 0 -65 25 -65 63z" />
    <glyph glyph-name="DieresisAcute" unicode="&#xf6cc;" horiz-adv-x="580" 
d="M88 815c0 38 28 65 64 65c37 0 65 -27 65 -65s-28 -63 -65 -63c-36 0 -64 25 -64 63zM363 815c0 38 28 65 65 65c36 0 64 -27 64 -65s-28 -63 -64 -63c-37 0 -65 25 -65 63zM287 800l108 153c38 57 -73 103 -89 43l-51 -181z" />
    <glyph glyph-name="DieresisGrave" unicode="&#xf6cd;" horiz-adv-x="580" 
d="M492 815c0 38 -28 65 -64 65c-37 0 -65 -27 -65 -65s28 -63 65 -63c36 0 64 25 64 63zM217 815c0 38 -28 65 -65 65c-36 0 -64 -27 -64 -65s28 -63 64 -63c37 0 65 25 65 63zM293 800l-108 153c-38 57 73 103 89 43l51 -181z" />
    <glyph glyph-name="Dotaccent" horiz-adv-x="314" 
d="M88 827c0 39 30 69 69 69s69 -30 69 -69s-30 -69 -69 -69s-69 30 -69 69z" />
    <glyph glyph-name="Hungarumlaut" unicode="&#xf6cf;" horiz-adv-x="480" 
d="M122 750l108 153c38 57 -73 103 -89 43l-51 -181zM282 750l108 153c38 57 -73 103 -89 43l-51 -181z" />
    <glyph glyph-name="Grave" unicode="&#xf6ce;" horiz-adv-x="369" 
d="M259 750l-149 108c-66 48 32 122 71 62l98 -151z" />
    <glyph glyph-name="dblGrave" unicode="&#xf6d3;" horiz-adv-x="480" 
d="M360 750l-108 153c-38 57 73 103 89 43l51 -181zM200 750l-108 153c-38 57 73 103 89 43l51 -181z" />
    <glyph glyph-name="cyrFlex" unicode="&#xf6d2;" horiz-adv-x="470" 
d="M235 825l-105 -75h-50l125 180h60l125 -180h-50z" />
    <glyph glyph-name="Macron" unicode="&#xf6d0;" horiz-adv-x="510" 
d="M90 845h330v-55h-330v55z" />
    <glyph glyph-name="Ogonek" horiz-adv-x="360" 
d="M270 -160v-35c-18 -23 -60 -40 -90 -40c-123 0 -137 138 0 235h45c-84 -78 -79 -211 45 -160z" />
    <glyph glyph-name="Ring" horiz-adv-x="375" 
d="M91 837c0 54 41 97 96 97c54 0 97 -43 97 -97c0 -55 -43 -96 -97 -96c-55 0 -96 41 -96 96zM133 837c0 -30 24 -54 54 -54c31 0 55 24 55 54c0 31 -24 55 -55 55c-30 0 -54 -24 -54 -55z" />
    <glyph glyph-name="Tilde" horiz-adv-x="550" 
d="M115 760l-35 20c21 43 74 130 120 130c40 0 121 -40 160 -40c35 0 59 10 75 30l35 -20c-21 -42 -69 -120 -115 -120c-47 0 -118 40 -165 40c-36 0 -59 -21 -75 -40z" />
    <glyph glyph-name="commaaccent.small" horiz-adv-x="340" 
d="M159 -36c74 0 91 -66 91 -110c0 -101 -80 -176 -141 -198l-21 32c94 44 123 134 68 134c-36 0 -66 26 -66 73c0 36 33 69 69 69z" />
    <glyph glyph-name="DieresisAcute.small" horiz-adv-x="580" 
d="M88 665c0 38 28 65 64 65c37 0 65 -27 65 -65s-28 -63 -65 -63c-36 0 -64 25 -64 63zM363 665c0 38 28 65 65 65c36 0 64 -27 64 -65s-28 -63 -64 -63c-37 0 -65 25 -65 63zM287 650l108 153c38 57 -73 103 -89 43l-51 -181z" />
    <glyph glyph-name="DieresisGrave.small" horiz-adv-x="580" 
d="M492 665c0 38 -28 65 -64 65c-37 0 -65 -27 -65 -65s28 -63 65 -63c36 0 64 25 64 63zM217 665c0 38 -28 65 -65 65c-36 0 -64 -27 -64 -65s28 -63 64 -63c37 0 65 25 65 63zM293 650l-108 153c-38 57 73 103 89 43l51 -181z" />
    <glyph glyph-name="dblGrave.small" horiz-adv-x="480" 
d="M360 600l-108 153c-38 57 73 103 89 43l51 -181zM200 600l-108 153c-38 57 73 103 89 43l51 -181z" />
    <glyph glyph-name="middot" horiz-adv-x="306" 
d="M89 263c0 38 28 65 64 65s64 -27 64 -65s-28 -63 -64 -63s-64 25 -64 63z" />
    <glyph glyph-name="Abreve" unicode="&#x102;" horiz-adv-x="700" 
d="M349 770c90 0 135 78 135 151h-48c-11 -51 -56 -63 -87 -63s-76 12 -87 63h-48c0 -73 45 -151 135 -151zM625 90l-230 615h-85l-210 -615c-14 -41 -40 -50 -100 -60v-30h240v30c-80 10 -90 45 -70 105l34 100h198l38 -115c15 -52 10 -80 -40 -90v-30h300v30
c-50 15 -60 27 -75 60zM299 530h2l84 -250h-166z" />
    <glyph glyph-name="Amacron" unicode="&#x100;" horiz-adv-x="700" 
d="M186 845h330v-55h-330v55zM625 90l-230 615h-85l-210 -615c-14 -41 -40 -50 -100 -60v-30h240v30c-80 10 -90 45 -70 105l34 100h198l38 -115c15 -52 10 -80 -40 -90v-30h300v30c-50 15 -60 27 -75 60zM299 530h2l84 -250h-166z" />
    <glyph glyph-name="Aogonek" unicode="&#x104;" horiz-adv-x="700" 
d="M625 90l-230 615h-85l-210 -615c-14 -41 -40 -50 -100 -60v-30h240v30c-80 10 -90 45 -70 105l31 95h204l35 -110c15 -52 10 -80 -40 -90v-30h150c-137 -97 -123 -235 0 -235c30 0 72 17 90 40v35c-124 -51 -129 82 -45 160h105v30c-50 15 -60 27 -75 60zM299 530h2
l84 -245h-166z" />
    <glyph glyph-name="AEacute" unicode="&#x1fc;" horiz-adv-x="880" 
d="M505 750l149 108c66 48 -32 122 -71 62l-98 -151zM450 700l-336 -610c-22 -41 -53 -50 -114 -60v-30h240v30c-78 10 -80 45 -46 105l104 195h112v-220c0 -55 -20 -70 -60 -80v-30h490l10 170h-35c-10 -81 -75 -125 -130 -125h-115v285h20c55 0 99 -25 108 -105h35v255
h-35c-9 -80 -53 -105 -108 -105h-20v280h105c55 0 115 -44 125 -125h35l-5 170h-380zM408 530h2v-155h-87z" />
    <glyph glyph-name="Cacute" unicode="&#x106;" horiz-adv-x="640" 
d="M367 750l149 108c66 48 -32 122 -71 62l-98 -151zM380 40c-110 0 -180 120 -180 310s70 310 180 310c120 0 185 -80 205 -160h35l-10 150c-40 25 -130 60 -230 60c-210 0 -350 -150 -350 -360s140 -360 350 -360c100 0 190 35 230 60l10 150h-35
c-20 -80 -85 -160 -205 -160z" />
    <glyph glyph-name="Ccaron" unicode="&#x10c;" horiz-adv-x="640" 
d="M379 855l-105 75h-50l125 -180h60l125 180h-50zM380 40c-110 0 -180 120 -180 310s70 310 180 310c120 0 185 -80 205 -160h35l-10 150c-40 25 -130 60 -230 60c-210 0 -350 -150 -350 -360s140 -360 350 -360c100 0 190 35 230 60l10 150h-35
c-20 -80 -85 -160 -205 -160z" />
    <glyph glyph-name="Ccircumflex" unicode="&#x108;" horiz-adv-x="640" 
d="M371 825l-105 -75h-50l125 180h60l125 -180h-50zM380 40c-110 0 -180 120 -180 310s70 310 180 310c120 0 185 -80 205 -160h35l-10 150c-40 25 -130 60 -230 60c-210 0 -350 -150 -350 -360s140 -360 350 -360c100 0 190 35 230 60l10 150h-35
c-20 -80 -85 -160 -205 -160z" />
    <glyph glyph-name="Cdotaccent" unicode="&#x10a;" horiz-adv-x="640" 
d="M322 827c0 39 30 69 69 69s69 -30 69 -69s-30 -69 -69 -69s-69 30 -69 69zM380 40c-110 0 -180 120 -180 310s70 310 180 310c120 0 185 -80 205 -160h35l-10 150c-40 25 -130 60 -230 60c-210 0 -350 -150 -350 -360s140 -360 350 -360c100 0 190 35 230 60l10 150h-35
c-20 -80 -85 -160 -205 -160z" />
    <glyph glyph-name="Dcaron" unicode="&#x10e;" horiz-adv-x="740" 
d="M356 855l-105 75h-50l125 -180h60l125 180h-50zM250 45h90c142 0 200 147 200 305c0 185 -62 305 -210 305h-80v-610zM340 0h-310v30c40 10 60 25 60 80v480c0 55 -20 70 -60 80v30h310c215 0 370 -130 370 -350c0 -206 -155 -350 -370 -350z" />
    <glyph glyph-name="Dcroat" unicode="&#x110;" horiz-adv-x="740" 
d="M0 375h90v215c0 55 -20 70 -60 80v30h310c215 0 370 -130 370 -350c0 -206 -155 -350 -370 -350h-310v30c40 10 60 25 60 80v220h-90v45zM250 45h90c142 0 200 147 200 305c0 185 -62 305 -210 305h-80v-280h90v-45h-90v-285z" />
    <glyph glyph-name="Ebreve" unicode="&#x114;" 
d="M329 770c90 0 135 78 135 151h-48c-11 -51 -56 -63 -87 -63s-76 12 -87 63h-48c0 -73 45 -151 135 -151zM250 655v-280h60c55 0 99 25 108 105h35v-255h-35c-9 80 -53 105 -108 105h-60v-285h155c55 0 120 44 130 125h35l-10 -170h-530v30c40 10 60 25 60 80v480
c0 55 -20 70 -60 80v30h520l5 -170h-35c-10 81 -70 125 -125 125h-145z" />
    <glyph glyph-name="Ecaron" unicode="&#x11a;" 
d="M331 855l-105 75h-50l125 -180h60l125 180h-50zM250 655v-280h60c55 0 99 25 108 105h35v-255h-35c-9 80 -53 105 -108 105h-60v-285h155c55 0 120 44 130 125h35l-10 -170h-530v30c40 10 60 25 60 80v480c0 55 -20 70 -60 80v30h520l5 -170h-35c-10 81 -70 125 -125 125
h-145z" />
    <glyph glyph-name="Edotaccent" unicode="&#x116;" 
d="M255 827c0 39 30 69 69 69s69 -30 69 -69s-30 -69 -69 -69s-69 30 -69 69zM250 655v-280h60c55 0 99 25 108 105h35v-255h-35c-9 80 -53 105 -108 105h-60v-285h155c55 0 120 44 130 125h35l-10 -170h-530v30c40 10 60 25 60 80v480c0 55 -20 70 -60 80v30h520l5 -170
h-35c-10 81 -70 125 -125 125h-145z" />
    <glyph glyph-name="Emacron" unicode="&#x112;" 
d="M160 845h330v-55h-330v55zM250 655v-280h60c55 0 99 25 108 105h35v-255h-35c-9 80 -53 105 -108 105h-60v-285h155c55 0 120 44 130 125h35l-10 -170h-530v30c40 10 60 25 60 80v480c0 55 -20 70 -60 80v30h520l5 -170h-35c-10 81 -70 125 -125 125h-145z" />
    <glyph glyph-name="Eogonek" unicode="&#x118;" 
d="M605 -160v-35c-18 -23 -60 -40 -90 -40c-123 0 -137 138 0 235h-485v30c40 10 60 25 60 80v480c0 55 -20 70 -60 80v30h520l5 -170h-35c-10 81 -70 125 -125 125h-145v-280h60c55 0 99 25 108 105h35v-255h-35c-9 80 -53 105 -108 105h-60v-285h155c55 0 120 44 130 125
h35l-10 -170c-84 -78 -79 -211 45 -160z" />
    <glyph glyph-name="Gbreve" unicode="&#x11e;" horiz-adv-x="700" 
d="M377 770c90 0 135 78 135 151h-48c-11 -51 -56 -63 -87 -63s-76 12 -87 63h-48c0 -73 45 -151 135 -151zM480 210v-150c-30 -13 -63 -20 -100 -20c-110 0 -180 120 -180 310s70 310 180 310c120 0 185 -80 205 -160h35l-10 150c-40 25 -130 60 -230 60
c-210 0 -350 -150 -350 -360s140 -360 350 -360c100 0 220 50 260 80v140c0 55 0 70 60 80v30h-280v-30c50 -10 60 -25 60 -80z" />
    <glyph glyph-name="Gcircumflex" unicode="&#x11c;" horiz-adv-x="700" 
d="M375 825l-105 -75h-50l125 180h60l125 -180h-50zM480 210v-150c-30 -13 -63 -20 -100 -20c-110 0 -180 120 -180 310s70 310 180 310c120 0 185 -80 205 -160h35l-10 150c-40 25 -130 60 -230 60c-210 0 -350 -150 -350 -360s140 -360 350 -360c100 0 220 50 260 80v140
c0 55 0 70 60 80v30h-280v-30c50 -10 60 -25 60 -80z" />
    <glyph glyph-name="Gcommaaccent" unicode="&#x122;" horiz-adv-x="700" 
d="M480 210v-150c-30 -13 -63 -20 -100 -20c-110 0 -180 120 -180 310s70 310 180 310c120 0 185 -80 205 -160h35l-10 150c-40 25 -130 60 -230 60c-210 0 -350 -150 -350 -360s140 -360 350 -360c100 0 220 50 260 80v140c0 55 0 70 60 80v30h-280v-30
c50 -10 60 -25 60 -80zM368 -36c74 0 91 -66 91 -110c0 -101 -80 -176 -141 -198l-21 32c94 44 123 134 68 134c-36 0 -66 26 -66 73c0 36 33 69 69 69z" />
    <glyph glyph-name="Gdotaccent" unicode="&#x120;" horiz-adv-x="700" 
d="M321 827c0 39 30 69 69 69s69 -30 69 -69s-30 -69 -69 -69s-69 30 -69 69zM480 210v-150c-30 -13 -63 -20 -100 -20c-110 0 -180 120 -180 310s70 310 180 310c120 0 185 -80 205 -160h35l-10 150c-40 25 -130 60 -230 60c-210 0 -350 -150 -350 -360s140 -360 350 -360
c100 0 220 50 260 80v140c0 55 0 70 60 80v30h-280v-30c50 -10 60 -25 60 -80z" />
    <glyph glyph-name="Hbar" unicode="&#x126;" horiz-adv-x="780" 
d="M30 510h60v80c0 55 -20 70 -60 80v30h280v-30c-40 -10 -60 -25 -60 -80v-80h280v80c0 55 -20 70 -60 80v30h280v-30c-40 -10 -60 -25 -60 -80v-80h60v-45h-60v-355c0 -55 20 -70 60 -80v-30h-280v30c40 10 60 25 60 80v225h-280v-225c0 -55 20 -70 60 -80v-30h-280v30
c40 10 60 25 60 80v355h-60v45zM250 380h280v85h-280v-85z" />
    <glyph glyph-name="Hcircumflex" unicode="&#x124;" horiz-adv-x="780" 
d="M394 825l-105 -75h-50l125 180h60l125 -180h-50zM690 590v-480c0 -55 20 -70 60 -80v-30h-280v30c40 10 60 25 60 80v225h-280v-225c0 -55 20 -70 60 -80v-30h-280v30c40 10 60 25 60 80v480c0 55 -20 70 -60 80v30h280v-30c-40 -10 -60 -25 -60 -80v-210h280v210
c0 55 -20 70 -60 80v30h280v-30c-40 -10 -60 -25 -60 -80z" />
    <glyph glyph-name="Ibreve" unicode="&#x12c;" horiz-adv-x="340" 
d="M171 770c90 0 135 78 135 151h-48c-11 -51 -56 -63 -87 -63s-76 12 -87 63h-48c0 -73 45 -151 135 -151zM250 590v-480c0 -55 20 -70 60 -80v-30h-280v30c40 10 60 25 60 80v480c0 55 -20 70 -60 80v30h280v-30c-40 -10 -60 -25 -60 -80z" />
    <glyph glyph-name="Idotaccent" unicode="&#x130;" horiz-adv-x="340" 
d="M99 827c0 39 30 69 69 69s69 -30 69 -69s-30 -69 -69 -69s-69 30 -69 69zM250 590v-480c0 -55 20 -70 60 -80v-30h-280v30c40 10 60 25 60 80v480c0 55 -20 70 -60 80v30h280v-30c-40 -10 -60 -25 -60 -80z" />
    <glyph glyph-name="Imacron" unicode="&#x12a;" horiz-adv-x="340" 
d="M5 845h330v-55h-330v55zM250 590v-480c0 -55 20 -70 60 -80v-30h-280v30c40 10 60 25 60 80v480c0 55 -20 70 -60 80v30h280v-30c-40 -10 -60 -25 -60 -80z" />
    <glyph glyph-name="Iogonek" unicode="&#x12e;" horiz-adv-x="340" 
d="M250 -160v-35c-18 -23 -60 -40 -90 -40c-123 0 -137 138 0 235h-130v30c40 10 60 25 60 80v480c0 55 -20 70 -60 80v30h280v-30c-40 -10 -60 -25 -60 -80v-480c0 -55 20 -70 60 -80v-30h-105c-84 -78 -79 -211 45 -160z" />
    <glyph glyph-name="Itilde" unicode="&#x128;" horiz-adv-x="340" 
d="M10 760l-35 20c21 43 74 130 120 130c40 0 121 -40 160 -40c35 0 59 10 75 30l35 -20c-21 -42 -69 -120 -115 -120c-47 0 -118 40 -165 40c-36 0 -59 -21 -75 -40zM250 590v-480c0 -55 20 -70 60 -80v-30h-280v30c40 10 60 25 60 80v480c0 55 -20 70 -60 80v30h280v-30
c-40 -10 -60 -25 -60 -80z" />
    <glyph glyph-name="IJ" unicode="&#x132;" horiz-adv-x="740" 
d="M250 590v-480c0 -55 20 -70 60 -80v-30h-280v30c40 10 60 25 60 80v480c0 55 -20 70 -60 80v30h280v-30c-40 -10 -60 -25 -60 -80zM650 590v-290c0 -160 -75 -310 -250 -310c-125 0 -73 151 6 85c122 -102 84 65 84 185v330c0 55 -20 70 -60 80v30h280v-30
c-40 -10 -60 -25 -60 -80z" />
    <glyph glyph-name="Jcircumflex" unicode="&#x134;" horiz-adv-x="400" 
d="M230 825l-105 -75h-50l125 180h60l125 -180h-50zM310 590v-290c0 -160 -75 -310 -250 -310c-125 0 -73 151 6 85c122 -102 84 65 84 185v330c0 55 -20 70 -60 80v30h280v-30c-40 -10 -60 -25 -60 -80z" />
    <glyph glyph-name="Kcommaaccent" unicode="&#x136;" horiz-adv-x="734" 
d="M346 -29c74 0 91 -66 91 -110c0 -101 -80 -176 -141 -198l-21 32c94 44 123 134 68 134c-36 0 -66 26 -66 73c0 36 33 69 69 69zM330 420l115 145c33 40 55 95 -31 105v30h270v-30c-69 -10 -113 -27 -149 -70l-145 -190l215 -280c34 -43 85 -80 119 -100v-30h-320v30
c46 10 29 49 -4 95l-115 160c-17 24 -25 25 -35 25v-200c0 -55 20 -70 60 -80v-30h-280v30c40 10 60 25 60 80v480c0 55 -20 70 -60 80v30h280v-30c-40 -10 -60 -25 -60 -80v-220c40 0 55 20 80 50z" />
    <glyph glyph-name="Lacute" unicode="&#x139;" horiz-adv-x="580" 
d="M170 750l149 108c66 48 -32 122 -71 62l-98 -151zM250 45h155c55 0 120 44 130 125h35l-10 -170h-530v30c40 10 60 25 60 80v480c0 55 -20 70 -60 80v30h280v-30c-40 -10 -60 -25 -60 -80v-545z" />
    <glyph glyph-name="Lcaron" unicode="&#x13d;" horiz-adv-x="580" 
d="M424 725c74 0 91 -66 91 -110c0 -101 -80 -176 -141 -198l-21 32c94 44 123 134 68 134c-36 0 -66 26 -66 73c0 36 33 69 69 69zM250 45h155c55 0 120 44 130 125h35l-10 -170h-530v30c40 10 60 25 60 80v480c0 55 -20 70 -60 80v30h280v-30c-40 -10 -60 -25 -60 -80
v-545z" />
    <glyph glyph-name="Lcommaaccent" unicode="&#x13b;" horiz-adv-x="580" 
d="M300 -28c74 0 91 -66 91 -110c0 -101 -80 -176 -141 -198l-21 32c94 44 123 134 68 134c-36 0 -66 26 -66 73c0 36 33 69 69 69zM250 45h155c55 0 120 44 130 125h35l-10 -170h-530v30c40 10 60 25 60 80v480c0 55 -20 70 -60 80v30h280v-30c-40 -10 -60 -25 -60 -80
v-545z" />
    <glyph glyph-name="Ldot" unicode="&#x13f;" horiz-adv-x="580" 
d="M303 363c0 38 28 65 64 65s64 -27 64 -65s-28 -63 -64 -63s-64 25 -64 63zM250 45h155c55 0 120 44 130 125h35l-10 -170h-530v30c40 10 60 25 60 80v480c0 55 -20 70 -60 80v30h280v-30c-40 -10 -60 -25 -60 -80v-545z" />
    <glyph glyph-name="Nacute" unicode="&#x143;" horiz-adv-x="730" 
d="M367 750l149 108c66 48 -32 122 -71 62l-98 -151zM570 240v350c0 55 -10 70 -90 80v30h230v-30c-60 -10 -85 -25 -85 -80v-590h-95l-360 570v-460c0 -55 10 -70 90 -80v-30h-230v30c60 10 85 25 85 80v480c0 55 -25 70 -85 80v30h250z" />
    <glyph glyph-name="Ncaron" unicode="&#x147;" horiz-adv-x="730" 
d="M382 855l-105 75h-50l125 -180h60l125 180h-50zM570 240v350c0 55 -10 70 -90 80v30h230v-30c-60 -10 -85 -25 -85 -80v-590h-95l-360 570v-460c0 -55 10 -70 90 -80v-30h-230v30c60 10 85 25 85 80v480c0 55 -25 70 -85 80v30h250z" />
    <glyph glyph-name="Ncommaaccent" unicode="&#x145;" horiz-adv-x="730" 
d="M348 -36c74 0 91 -66 91 -110c0 -101 -80 -176 -141 -198l-21 32c94 44 123 134 68 134c-36 0 -66 26 -66 73c0 36 33 69 69 69zM570 240v350c0 55 -10 70 -90 80v30h230v-30c-60 -10 -85 -25 -85 -80v-590h-95l-360 570v-460c0 -55 10 -70 90 -80v-30h-230v30
c60 10 85 25 85 80v480c0 55 -25 70 -85 80v30h250z" />
    <glyph glyph-name="Obreve" unicode="&#x14e;" horiz-adv-x="780" 
d="M404 770c90 0 135 78 135 151h-48c-11 -51 -56 -63 -87 -63s-76 12 -87 63h-48c0 -73 45 -151 135 -151zM30 350c0 210 172 360 360 360s360 -150 360 -360s-172 -360 -360 -360s-360 150 -360 360zM200 350c0 -190 60 -310 190 -310s190 120 190 310s-60 310 -190 310
s-190 -120 -190 -310z" />
    <glyph glyph-name="Ohungarumlaut" unicode="&#x150;" horiz-adv-x="780" 
d="M316 750l108 153c38 57 -73 103 -89 43l-51 -181zM476 750l108 153c38 57 -73 103 -89 43l-51 -181zM30 350c0 210 172 360 360 360s360 -150 360 -360s-172 -360 -360 -360s-360 150 -360 360zM200 350c0 -190 60 -310 190 -310s190 120 190 310s-60 310 -190 310
s-190 -120 -190 -310z" />
    <glyph glyph-name="Omacron" unicode="&#x14c;" horiz-adv-x="780" 
d="M232 845h330v-55h-330v55zM30 350c0 210 172 360 360 360s360 -150 360 -360s-172 -360 -360 -360s-360 150 -360 360zM200 350c0 -190 60 -310 190 -310s190 120 190 310s-60 310 -190 310s-190 -120 -190 -310z" />
    <glyph glyph-name="Oslashacute" unicode="&#x1fe;" horiz-adv-x="780" 
d="M387 750l149 108c66 48 -32 122 -71 62l-98 -151zM30 350c0 210 172 360 360 360c85 0 167 -31 231 -84l56 58l34 -38l-53 -56c56 -62 92 -145 92 -240c0 -210 -172 -360 -360 -360c-84 0 -164 29 -228 81l-57 -60l-36 39l55 57c-58 62 -94 146 -94 243zM200 350
c0 -56 5 -105 15 -148l332 346c-30 71 -82 112 -157 112c-130 0 -190 -120 -190 -310zM580 350c0 53 -5 101 -15 143l-331 -347c31 -68 82 -106 156 -106c130 0 190 120 190 310z" />
    <glyph glyph-name="Racute" unicode="&#x154;" horiz-adv-x="670" 
d="M300 750l149 108c66 48 -32 122 -71 62l-98 -151zM580 510c0 -75 -34 -156 -140 -191l120 -179c31 -42 60 -90 100 -110v-30h-190c-20 20 -58 70 -80 110l-105 190h-35v-190c0 -55 20 -70 60 -80v-30h-280v30c40 10 60 25 60 80v480c0 55 -20 70 -60 80v30h320
c150 0 230 -80 230 -190zM250 345h40c100 0 125 67 125 155c0 80 -25 155 -105 155h-60v-310z" />
    <glyph glyph-name="Rcaron" unicode="&#x158;" horiz-adv-x="670" 
d="M315 855l-105 75h-50l125 -180h60l125 180h-50zM580 510c0 -75 -34 -156 -140 -191l120 -179c31 -42 60 -90 100 -110v-30h-190c-20 20 -58 70 -80 110l-105 190h-35v-190c0 -55 20 -70 60 -80v-30h-280v30c40 10 60 25 60 80v480c0 55 -20 70 -60 80v30h320
c150 0 230 -80 230 -190zM250 345h40c100 0 125 67 125 155c0 80 -25 155 -105 155h-60v-310z" />
    <glyph glyph-name="Rcommaaccent" unicode="&#x156;" horiz-adv-x="670" 
d="M347 -30c74 0 91 -66 91 -110c0 -101 -80 -176 -141 -198l-21 32c94 44 123 134 68 134c-36 0 -66 26 -66 73c0 36 33 69 69 69zM580 510c0 -75 -34 -156 -140 -191l120 -179c31 -42 60 -90 100 -110v-30h-190c-20 20 -58 70 -80 110l-105 190h-35v-190
c0 -55 20 -70 60 -80v-30h-280v30c40 10 60 25 60 80v480c0 55 -20 70 -60 80v30h320c150 0 230 -80 230 -190zM250 345h40c100 0 125 67 125 155c0 80 -25 155 -105 155h-60v-310z" />
    <glyph glyph-name="Sacute" unicode="&#x15a;" horiz-adv-x="535" 
d="M262 750l149 108c66 48 -32 122 -71 62l-98 -151zM475 490h-35c-30 120 -61 165 -147 165c-33 0 -100 -20 -100 -95c0 -45 25 -86 97 -115c100 -40 215 -105 215 -235c0 -150 -118 -220 -252 -220c-72 0 -158 20 -213 50l-10 185h35c15 -135 93 -180 168 -180
c61 0 117 38 117 110c0 60 -47 103 -122 135c-101 43 -198 98 -198 220c0 128 105 200 242 200c61 0 138 -15 193 -45z" />
    <glyph glyph-name="Scedilla" unicode="&#x15e;" horiz-adv-x="535" 
d="M475 490h-35c-30 120 -61 165 -147 165c-33 0 -100 -20 -100 -95c0 -45 25 -86 97 -115c100 -40 215 -105 215 -235c0 -144 -108 -214 -235 -219v-31c0 -36 112 -14 111 -102c-1 -63 -109 -113 -181 -123l-10 45c30 10 85 23 85 65c0 53 -49 40 -45 105l2 41
c-67 3 -142 22 -192 49l-10 185h35c15 -135 93 -180 168 -180c61 0 117 38 117 110c0 60 -47 103 -122 135c-101 43 -198 98 -198 220c0 128 105 200 242 200c61 0 138 -15 193 -45z" />
    <glyph glyph-name="Scircumflex" unicode="&#x15c;" horiz-adv-x="535" 
d="M272 825l-105 -75h-50l125 180h60l125 -180h-50zM475 490h-35c-30 120 -61 165 -147 165c-33 0 -100 -20 -100 -95c0 -45 25 -86 97 -115c100 -40 215 -105 215 -235c0 -150 -118 -220 -252 -220c-72 0 -158 20 -213 50l-10 185h35c15 -135 93 -180 168 -180
c61 0 117 38 117 110c0 60 -47 103 -122 135c-101 43 -198 98 -198 220c0 128 105 200 242 200c61 0 138 -15 193 -45z" />
    <glyph glyph-name="Scommaaccent" unicode="&#x218;" horiz-adv-x="535" 
d="M256 -36c74 0 91 -66 91 -110c0 -101 -80 -176 -141 -198l-21 32c94 44 123 134 68 134c-36 0 -66 26 -66 73c0 36 33 69 69 69zM475 490h-35c-30 120 -61 165 -147 165c-33 0 -100 -20 -100 -95c0 -45 25 -86 97 -115c100 -40 215 -105 215 -235
c0 -150 -118 -220 -252 -220c-72 0 -158 20 -213 50l-10 185h35c15 -135 93 -180 168 -180c61 0 117 38 117 110c0 60 -47 103 -122 135c-101 43 -198 98 -198 220c0 128 105 200 242 200c61 0 138 -15 193 -45z" />
    <glyph glyph-name="Tbar" unicode="&#x166;" 
d="M470 375h-90v280h40c55 0 115 -44 125 -125h35l-5 170h-550l-5 -170h35c10 81 70 125 125 125h40v-280h-90v-45h90v-220c0 -55 -20 -70 -60 -80v-30h280v30c-40 10 -60 25 -60 80v220h90v45z" />
    <glyph glyph-name="Tcaron" unicode="&#x164;" 
d="M299 855l-105 75h-50l125 -180h60l125 180h-50zM575 700h-550l-5 -170h35c10 81 70 125 125 125h40v-545c0 -55 -20 -70 -60 -80v-30h280v30c-40 10 -60 25 -60 80v545h40c55 0 115 -44 125 -125h35z" />
    <glyph glyph-name="Tcommaaccent" unicode="&#x162;" 
d="M288 -36c74 0 91 -66 91 -110c0 -101 -80 -176 -141 -198l-21 32c94 44 123 134 68 134c-36 0 -66 26 -66 73c0 36 33 69 69 69zM575 700h-550l-5 -170h35c10 81 70 125 125 125h40v-545c0 -55 -20 -70 -60 -80v-30h280v30c-40 10 -60 25 -60 80v545h40
c55 0 115 -44 125 -125h35z" />
    <glyph glyph-name="uni021A" unicode="&#x21a;" 
d="M289 -33c74 0 91 -66 91 -110c0 -101 -80 -176 -141 -198l-21 32c94 44 123 134 68 134c-36 0 -66 26 -66 73c0 36 33 69 69 69zM575 700h-550l-5 -170h35c10 81 70 125 125 125h40v-545c0 -55 -20 -70 -60 -80v-30h280v30c-40 10 -60 25 -60 80v545h40
c55 0 115 -44 125 -125h35z" />
    <glyph glyph-name="Ubreve" unicode="&#x16c;" horiz-adv-x="760" 
d="M386 770c90 0 135 78 135 151h-48c-11 -51 -56 -63 -87 -63s-76 12 -87 63h-48c0 -73 45 -151 135 -151zM595 280v310c0 55 -15 70 -95 80v30h240v-30c-70 -10 -90 -25 -90 -80v-320c0 -180 -112 -280 -275 -280c-195 0 -295 107 -295 280v320c0 55 -20 70 -60 80v30h280
v-30c-40 -10 -60 -25 -60 -80v-310c0 -160 60 -230 165 -230c135 0 190 90 190 230z" />
    <glyph glyph-name="Uhungarumlaut" unicode="&#x170;" horiz-adv-x="760" 
d="M320 750l108 153c38 57 -73 103 -89 43l-51 -181zM480 750l108 153c38 57 -73 103 -89 43l-51 -181zM595 280v310c0 55 -15 70 -95 80v30h240v-30c-70 -10 -90 -25 -90 -80v-320c0 -180 -112 -280 -275 -280c-195 0 -295 107 -295 280v320c0 55 -20 70 -60 80v30h280v-30
c-40 -10 -60 -25 -60 -80v-310c0 -160 60 -230 165 -230c135 0 190 90 190 230z" />
    <glyph glyph-name="Umacron" unicode="&#x16a;" horiz-adv-x="760" 
d="M234 845h330v-55h-330v55zM595 280v310c0 55 -15 70 -95 80v30h240v-30c-70 -10 -90 -25 -90 -80v-320c0 -180 -112 -280 -275 -280c-195 0 -295 107 -295 280v320c0 55 -20 70 -60 80v30h280v-30c-40 -10 -60 -25 -60 -80v-310c0 -160 60 -230 165 -230
c135 0 190 90 190 230z" />
    <glyph glyph-name="Uogonek" unicode="&#x172;" horiz-adv-x="760" 
d="M460 -160v-35c-18 -23 -60 -40 -90 -40c-119 0 -136 129 -13 225c-183 7 -277 112 -277 280v320c0 55 -20 70 -60 80v30h280v-30c-40 -10 -60 -25 -60 -80v-310c0 -160 60 -230 165 -230c135 0 190 90 190 230v310c0 55 -15 70 -95 80v30h240v-30
c-70 -10 -90 -25 -90 -80v-320c0 -169 -98 -267 -244 -279c-75 -78 -66 -200 54 -151z" />
    <glyph glyph-name="Uring" unicode="&#x16e;" horiz-adv-x="760" 
d="M306 837c0 54 41 97 96 97c54 0 97 -43 97 -97c0 -55 -43 -96 -97 -96c-55 0 -96 41 -96 96zM348 837c0 -30 24 -54 54 -54c31 0 55 24 55 54c0 31 -24 55 -55 55c-30 0 -54 -24 -54 -55zM595 280v310c0 55 -15 70 -95 80v30h240v-30c-70 -10 -90 -25 -90 -80v-320
c0 -180 -112 -280 -275 -280c-195 0 -295 107 -295 280v320c0 55 -20 70 -60 80v30h280v-30c-40 -10 -60 -25 -60 -80v-310c0 -160 60 -230 165 -230c135 0 190 90 190 230z" />
    <glyph glyph-name="Utilde" unicode="&#x168;" horiz-adv-x="760" 
d="M248 760l-35 20c21 43 74 130 120 130c40 0 121 -40 160 -40c35 0 59 10 75 30l35 -20c-21 -42 -69 -120 -115 -120c-47 0 -118 40 -165 40c-36 0 -59 -21 -75 -40zM595 280v310c0 55 -15 70 -95 80v30h240v-30c-70 -10 -90 -25 -90 -80v-320c0 -180 -112 -280 -275 -280
c-195 0 -295 107 -295 280v320c0 55 -20 70 -60 80v30h280v-30c-40 -10 -60 -25 -60 -80v-310c0 -160 60 -230 165 -230c135 0 190 90 190 230z" />
    <glyph glyph-name="Wacute" unicode="&#x1e82;" horiz-adv-x="1010" 
d="M523 750l149 108c66 48 -32 122 -71 62l-98 -151zM433 610l51 -160l-101 -280h-2l-134 410c-14 52 -8 80 43 90v30h-290v-30c49 -15 59 -27 73 -60l208 -615h85l143 378l127 -378h90l182 615c15 41 41 50 102 60v30h-240v-30c79 -10 90 -44 72 -105l-114 -395h-2
l-119 410c-14 52 -8 80 43 90v30h-290v-30c49 -15 62 -26 73 -60z" />
    <glyph glyph-name="Wcircumflex" unicode="&#x174;" horiz-adv-x="1010" 
d="M513 825l-105 -75h-50l125 180h60l125 -180h-50zM433 610l51 -160l-101 -280h-2l-134 410c-14 52 -8 80 43 90v30h-290v-30c49 -15 59 -27 73 -60l208 -615h85l143 378l127 -378h90l182 615c15 41 41 50 102 60v30h-240v-30c79 -10 90 -44 72 -105l-114 -395h-2l-119 410
c-14 52 -8 80 43 90v30h-290v-30c49 -15 62 -26 73 -60z" />
    <glyph glyph-name="Wdieresis" unicode="&#x1e84;" horiz-adv-x="1010" 
d="M353 815c0 38 28 65 64 65c37 0 65 -27 65 -65s-28 -63 -65 -63c-36 0 -64 25 -64 63zM548 815c0 38 28 65 65 65c36 0 64 -27 64 -65s-28 -63 -64 -63c-37 0 -65 25 -65 63zM433 610l51 -160l-101 -280h-2l-134 410c-14 52 -8 80 43 90v30h-290v-30
c49 -15 59 -27 73 -60l208 -615h85l143 378l127 -378h90l182 615c15 41 41 50 102 60v30h-240v-30c79 -10 90 -44 72 -105l-114 -395h-2l-119 410c-14 52 -8 80 43 90v30h-290v-30c49 -15 62 -26 73 -60z" />
    <glyph glyph-name="Wgrave" unicode="&#x1e80;" horiz-adv-x="1010" 
d="M517 750l-149 108c-66 48 32 122 71 62l98 -151zM433 610l51 -160l-101 -280h-2l-134 410c-14 52 -8 80 43 90v30h-290v-30c49 -15 59 -27 73 -60l208 -615h85l143 378l127 -378h90l182 615c15 41 41 50 102 60v30h-240v-30c79 -10 90 -44 72 -105l-114 -395h-2l-119 410
c-14 52 -8 80 43 90v30h-290v-30c49 -15 62 -26 73 -60z" />
    <glyph glyph-name="Ycircumflex" unicode="&#x176;" horiz-adv-x="640" 
d="M346 825l-105 -75h-50l125 180h60l125 -180h-50zM55 610l200 -367v-133c0 -55 -20 -70 -60 -80v-30h280v30c-40 10 -60 25 -60 80v181l145 319c18 40 41 50 90 60v30h-220v-30c71 -10 83 -46 60 -95l-119 -255h-2l-134 260c-25 48 -35 80 15 90v30h-260v-30
c30 -15 48 -28 65 -60z" />
    <glyph glyph-name="Ygrave" unicode="&#x1ef2;" horiz-adv-x="640" 
d="M345 750l-149 108c-66 48 32 122 71 62l98 -151zM55 610l200 -367v-133c0 -55 -20 -70 -60 -80v-30h280v30c-40 10 -60 25 -60 80v181l145 319c18 40 41 50 90 60v30h-220v-30c71 -10 83 -46 60 -95l-119 -255h-2l-134 260c-25 48 -35 80 15 90v30h-260v-30
c30 -15 48 -28 65 -60z" />
    <glyph glyph-name="Zacute" unicode="&#x179;" 
d="M302 750l149 108c66 48 -32 122 -71 62l-98 -151zM210 45l350 595v60h-503l-5 -170h35c10 81 68 125 125 125h178l-360 -605v-50h530l10 170h-35c-10 -81 -70 -125 -130 -125h-195z" />
    <glyph glyph-name="Zdotaccent" unicode="&#x17b;" 
d="M249 827c0 39 30 69 69 69s69 -30 69 -69s-30 -69 -69 -69s-69 30 -69 69zM210 45l350 595v60h-503l-5 -170h35c10 81 68 125 125 125h178l-360 -605v-50h530l10 170h-35c-10 -81 -70 -125 -130 -125h-195z" />
    <glyph glyph-name="Abreve.small" unicode="&#xf66d;" horiz-adv-x="590" 
d="M283 620c90 0 135 78 135 151h-48c-11 -51 -56 -63 -87 -63s-76 12 -87 63h-48c0 -73 45 -151 135 -151zM535 90l-195 455h-83l-172 -455c-15 -40 -36 -50 -85 -60v-30h220v30c-71 10 -83 39 -65 90l16 45h160l19 -45c20 -50 20 -80 -30 -90v-30h270v30
c-30 15 -41 27 -55 60zM244 374h2l65 -164h-125z" />
    <glyph glyph-name="Amacron.small" unicode="&#xf66e;" horiz-adv-x="590" 
d="M124 695h330v-55h-330v55zM535 90l-195 455h-83l-172 -455c-15 -40 -36 -50 -85 -60v-30h220v30c-71 10 -83 39 -65 90l16 45h160l19 -45c20 -50 20 -80 -30 -90v-30h270v30c-30 15 -41 27 -55 60zM244 374h2l65 -164h-125z" />
    <glyph glyph-name="Aogonek.small" horiz-adv-x="590" 
d="M540 -195v35c-124 -51 -129 82 -45 160h95v30c-30 15 -41 27 -55 60l-195 455h-83l-172 -455c-15 -40 -36 -50 -85 -60v-30h220v30c-71 10 -83 39 -65 90l14 40h164l17 -40c20 -50 20 -80 -30 -90v-30h130c-137 -97 -123 -235 0 -235c30 0 72 17 90 40zM244 374h2
l65 -159h-123z" />
    <glyph glyph-name="AEacute.small" unicode="&#xf670;" horiz-adv-x="750" 
d="M480 295v200h65c55 0 115 -24 125 -105h35l-5 150h-343l-263 -450c-23 -40 -44 -50 -94 -60v-30h210v30c-69 10 -68 39 -40 90l46 80h104v-90c0 -55 -20 -70 -60 -80v-30h450l10 150h-35c-10 -81 -75 -105 -130 -105h-75v205h20c25 0 59 -15 68 -95h35v235h-35
c-9 -80 -43 -95 -68 -95h-20zM318 379h2v-134h-79zM414 600l149 108c66 48 -32 122 -71 62l-98 -151z" />
    <glyph glyph-name="Cacute.small" unicode="&#xf671;" horiz-adv-x="560" 
d="M340 40c-60 0 -140 40 -140 230s80 230 140 230c90 0 145 -80 165 -160h35l-10 150c-40 25 -100 60 -200 60c-140 0 -300 -70 -300 -280s160 -280 300 -280c100 0 160 35 200 60l10 150h-35c-20 -80 -55 -160 -165 -160zM312 600l149 108c66 48 -32 122 -71 62l-98 -151z
" />
    <glyph glyph-name="Ccaron.small" unicode="&#xf672;" horiz-adv-x="560" 
d="M340 40c-60 0 -140 40 -140 230s80 230 140 230c90 0 145 -80 165 -160h35l-10 150c-40 25 -100 60 -200 60c-140 0 -300 -70 -300 -280s160 -280 300 -280c100 0 160 35 200 60l10 150h-35c-20 -80 -55 -160 -165 -160zM327 705l-105 75h-50l125 -180h60l125 180h-50z
" />
    <glyph glyph-name="Ccircumflex.small" unicode="&#xf673;" horiz-adv-x="560" 
d="M340 40c-60 0 -140 40 -140 230s80 230 140 230c90 0 145 -80 165 -160h35l-10 150c-40 25 -100 60 -200 60c-140 0 -300 -70 -300 -280s160 -280 300 -280c100 0 160 35 200 60l10 150h-35c-20 -80 -55 -160 -165 -160zM317 675l-105 -75h-50l125 180h60l125 -180h-50z
" />
    <glyph glyph-name="Cdotaccent.small" unicode="&#xf674;" horiz-adv-x="560" 
d="M340 40c-60 0 -140 40 -140 230s80 230 140 230c90 0 145 -80 165 -160h35l-10 150c-40 25 -100 60 -200 60c-140 0 -300 -70 -300 -280s160 -280 300 -280c100 0 160 35 200 60l10 150h-35c-20 -80 -55 -160 -165 -160zM259 677c0 39 30 69 69 69s69 -30 69 -69
s-30 -69 -69 -69s-69 30 -69 69z" />
    <glyph glyph-name="Dcaron.small" unicode="&#xf675;" horiz-adv-x="660" 
d="M250 45h30c142 0 180 97 180 225c0 155 -42 225 -190 225h-20v-450zM280 0h-250v30c40 10 60 25 60 80v320c0 55 -20 70 -60 80v30h250c215 0 350 -80 350 -270c0 -176 -135 -270 -350 -270zM321 705l-105 75h-50l125 -180h60l125 180h-50z" />
    <glyph glyph-name="Dcroat.small" horiz-adv-x="660" 
d="M280 0h-250v30c40 10 60 25 60 80v140h-60v45h60v135c0 55 -20 70 -60 80v30h250c215 0 350 -80 350 -270c0 -176 -135 -270 -350 -270zM250 45h30c142 0 180 97 180 225c0 155 -42 225 -190 225h-20v-200h90v-45h-90v-205z" />
    <glyph glyph-name="Ebreve.small" unicode="&#xf677;" horiz-adv-x="560" 
d="M250 495v-200h20c55 0 99 15 108 95h35v-235h-35c-9 80 -53 95 -108 95h-20v-205h115c55 0 120 24 130 105h35l-10 -150h-490v30c40 10 60 25 60 80v320c0 55 -20 70 -60 80v30h480l5 -150h-35c-10 81 -70 105 -125 105h-105zM313 620c90 0 135 78 135 151h-48
c-11 -51 -56 -63 -87 -63s-76 12 -87 63h-48c0 -73 45 -151 135 -151z" />
    <glyph glyph-name="Ecaron.small" unicode="&#xf678;" horiz-adv-x="560" 
d="M250 495v-200h20c55 0 99 15 108 95h35v-235h-35c-9 80 -53 95 -108 95h-20v-205h115c55 0 120 24 130 105h35l-10 -150h-490v30c40 10 60 25 60 80v320c0 55 -20 70 -60 80v30h480l5 -150h-35c-10 81 -70 105 -125 105h-105zM322 705l-105 75h-50l125 -180h60l125 180
h-50z" />
    <glyph glyph-name="Edotaccent.small" unicode="&#xf679;" horiz-adv-x="560" 
d="M250 495v-200h20c55 0 99 15 108 95h35v-235h-35c-9 80 -53 95 -108 95h-20v-205h115c55 0 120 24 130 105h35l-10 -150h-490v30c40 10 60 25 60 80v320c0 55 -20 70 -60 80v30h480l5 -150h-35c-10 81 -70 105 -125 105h-105zM249 677c0 39 30 69 69 69s69 -30 69 -69
s-30 -69 -69 -69s-69 30 -69 69z" />
    <glyph glyph-name="Emacron.small" unicode="&#xf67a;" horiz-adv-x="560" 
d="M250 495v-200h20c55 0 99 15 108 95h35v-235h-35c-9 80 -53 95 -108 95h-20v-205h115c55 0 120 24 130 105h35l-10 -150h-490v30c40 10 60 25 60 80v320c0 55 -20 70 -60 80v30h480l5 -150h-35c-10 81 -70 105 -125 105h-105zM139 695h330v-55h-330v55z" />
    <glyph glyph-name="Eogonek.small" horiz-adv-x="560" 
d="M530 150l-10 -150c-84 -78 -79 -211 45 -160v-35c-18 -23 -60 -40 -90 -40c-123 0 -137 138 0 235h-445v30c40 10 60 25 60 80v320c0 55 -20 70 -60 80v30h480l5 -150h-35c-10 81 -70 105 -125 105h-105v-200h20c55 0 99 15 108 95h35v-235h-35c-9 80 -53 95 -108 95h-20
v-205h115c55 0 120 24 130 105h35z" />
    <glyph glyph-name="Gbreve.small" unicode="&#xf67d;" horiz-adv-x="630" 
d="M340 40c-60 0 -140 40 -140 230s80 230 140 230c90 0 145 -80 165 -160h35l-10 150c-40 25 -100 60 -200 60c-140 0 -300 -70 -300 -280s160 -280 299 -280c100 0 200 50 240 80v70c0 55 0 70 60 80v30h-280v-30c50 -10 60 -25 60 -80v-85c-30 -13 -49 -15 -69 -15z
M321 620c90 0 135 78 135 151h-48c-11 -51 -56 -63 -87 -63s-76 12 -87 63h-48c0 -73 45 -151 135 -151z" />
    <glyph glyph-name="Gcircumflex.small" unicode="&#xf67e;" horiz-adv-x="630" 
d="M340 40c-60 0 -140 40 -140 230s80 230 140 230c90 0 145 -80 165 -160h35l-10 150c-40 25 -100 60 -200 60c-140 0 -300 -70 -300 -280s160 -280 299 -280c100 0 200 50 240 80v70c0 55 0 70 60 80v30h-280v-30c50 -10 60 -25 60 -80v-85c-30 -13 -49 -15 -69 -15z
M322 675l-105 -75h-50l125 180h60l125 -180h-50z" />
    <glyph glyph-name="Gcommaaccent.small" unicode="&#xf67f;" horiz-adv-x="630" 
d="M340 40c-60 0 -140 40 -140 230s80 230 140 230c90 0 145 -80 165 -160h35l-10 150c-40 25 -100 60 -200 60c-140 0 -300 -70 -300 -280s160 -280 299 -280c100 0 200 50 240 80v70c0 55 0 70 60 80v30h-280v-30c50 -10 60 -25 60 -80v-85c-30 -13 -49 -15 -69 -15z
M315 -36c74 0 91 -66 91 -110c0 -101 -80 -176 -141 -198l-21 32c94 44 123 134 68 134c-36 0 -66 26 -66 73c0 36 33 69 69 69z" />
    <glyph glyph-name="Gdotaccent.small" unicode="&#xf680;" horiz-adv-x="630" 
d="M340 40c-60 0 -140 40 -140 230s80 230 140 230c90 0 145 -80 165 -160h35l-10 150c-40 25 -100 60 -200 60c-140 0 -300 -70 -300 -280s160 -280 299 -280c100 0 200 50 240 80v70c0 55 0 70 60 80v30h-280v-30c50 -10 60 -25 60 -80v-85c-30 -13 -49 -15 -69 -15z
M260 677c0 39 30 69 69 69s69 -30 69 -69s-30 -69 -69 -69s-69 30 -69 69z" />
    <glyph glyph-name="Hbar.small" horiz-adv-x="710" 
d="M30 400h60v30c0 55 -20 70 -60 80v30h280v-30c-40 -10 -60 -25 -60 -80v-30h210v30c0 55 -20 70 -60 80v30h280v-30c-40 -10 -60 -25 -60 -80v-30h60v-45h-60v-245c0 -55 20 -70 60 -80v-30h-280v30c40 10 60 25 60 80v145h-210v-145c0 -55 20 -70 60 -80v-30h-280v30
c40 10 60 25 60 80v245h-60v45zM250 300h210v55h-210v-55z" />
    <glyph glyph-name="Hcircumflex.small" unicode="&#xf682;" horiz-adv-x="710" 
d="M620 430v-320c0 -55 20 -70 60 -80v-30h-280v30c40 10 60 25 60 80v145h-210v-145c0 -55 20 -70 60 -80v-30h-280v30c40 10 60 25 60 80v320c0 55 -20 70 -60 80v30h280v-30c-40 -10 -60 -25 -60 -80v-130h210v130c0 55 -20 70 -60 80v30h280v-30
c-40 -10 -60 -25 -60 -80zM359 675l-105 -75h-50l125 180h60l125 -180h-50z" />
    <glyph glyph-name="Ibreve.small" unicode="&#xf683;" horiz-adv-x="340" 
d="M250 430v-320c0 -55 20 -70 60 -80v-30h-280v30c40 10 60 25 60 80v320c0 55 -20 70 -60 80v30h280v-30c-40 -10 -60 -25 -60 -80zM168 620c90 0 135 78 135 151h-48c-11 -51 -56 -63 -87 -63s-76 12 -87 63h-48c0 -73 45 -151 135 -151z" />
    <glyph glyph-name="Idotaccent.small" unicode="&#xf6ad;" horiz-adv-x="340" 
d="M250 430v-320c0 -55 20 -70 60 -80v-30h-280v30c40 10 60 25 60 80v320c0 55 -20 70 -60 80v30h280v-30c-40 -10 -60 -25 -60 -80zM99 677c0 39 30 69 69 69s69 -30 69 -69s-30 -69 -69 -69s-69 30 -69 69z" />
    <glyph glyph-name="Imacron.small" unicode="&#xf685;" horiz-adv-x="340" 
d="M251 430v-320c0 -55 20 -70 60 -80v-30h-280v30c40 10 60 25 60 80v320c0 55 -20 70 -60 80v30h280v-30c-40 -10 -60 -25 -60 -80zM5 695h330v-55h-330v55z" />
    <glyph glyph-name="Iogonek.small" horiz-adv-x="340" 
d="M250 -160v-35c-18 -23 -60 -40 -90 -40c-123 0 -137 138 0 235h-130v30c40 10 60 25 60 80v320c0 55 -20 70 -60 80v30h280v-30c-40 -10 -60 -25 -60 -80v-320c0 -55 20 -70 60 -80v-30h-105c-84 -78 -79 -211 45 -160z" />
    <glyph glyph-name="Itilde.small" unicode="&#xf687;" horiz-adv-x="340" 
d="M251 430v-320c0 -55 20 -70 60 -80v-30h-280v30c40 10 60 25 60 80v320c0 55 -20 70 -60 80v30h280v-30c-40 -10 -60 -25 -60 -80zM10 610l-35 20c21 43 74 130 120 130c40 0 121 -40 160 -40c35 0 59 10 75 30l35 -20c-21 -42 -69 -120 -115 -120c-47 0 -118 40 -165 40
c-36 0 -59 -21 -75 -40z" />
    <glyph glyph-name="IJ.small" horiz-adv-x="730" 
d="M250 430v-320c0 -55 20 -70 60 -80v-30h-280v30c40 10 60 25 60 80v320c0 55 -20 70 -60 80v30h280v-30c-40 -10 -60 -25 -60 -80zM640 430v-130c0 -160 -75 -310 -250 -310c-125 0 -73 151 6 85c122 -102 84 65 84 185v170c0 55 -20 70 -60 80v30h280v-30
c-40 -10 -60 -25 -60 -80z" />
    <glyph glyph-name="Jcircumflex.small" unicode="&#xf688;" horiz-adv-x="400" 
d="M310 430v-130c0 -160 -75 -310 -250 -310c-125 0 -73 151 6 85c122 -102 84 65 84 185v170c0 55 -20 70 -60 80v30h280v-30c-40 -10 -60 -25 -60 -80zM230 675l-105 -75h-50l125 180h60l125 -180h-50z" />
    <glyph glyph-name="Kcommaaccent.small" unicode="&#xf689;" horiz-adv-x="640" 
d="M250 305v125c0 55 20 70 60 80v30h-280v-30c40 -10 60 -25 60 -80v-320c0 -55 -20 -70 -60 -80v-30h280v30c-40 10 -60 25 -60 80v120c10 0 24 -16 45 -45l60 -80c41 -59 35 -70 15 -75v-30h260v30c-25 15 -35 11 -99 95l-151 200l120 135c30 34 61 40 115 50v30h-235
v-30c72 -10 69 -38 35 -80l-80 -90c-24 -29 -55 -35 -85 -35zM325 -36c74 0 91 -66 91 -110c0 -101 -80 -176 -141 -198l-21 32c94 44 123 134 68 134c-36 0 -66 26 -66 73c0 36 33 69 69 69z" />
    <glyph glyph-name="Lacute.small" unicode="&#xf68a;" horiz-adv-x="540" 
d="M90 110v320c0 55 -20 70 -60 80v30h280v-30c-40 -10 -60 -25 -60 -80v-385h115c55 0 120 24 130 105h35l-10 -150h-490v30c40 10 60 25 60 80zM175 600l149 108c66 48 -32 122 -71 62l-98 -151z" />
    <glyph glyph-name="Lcaron.small" unicode="&#xf68b;" horiz-adv-x="540" 
d="M90 110v320c0 55 -20 70 -60 80v30h280v-30c-40 -10 -60 -25 -60 -80v-385h115c55 0 120 24 130 105h35l-10 -150h-490v30c40 10 60 25 60 80zM429 564c74 0 91 -66 91 -110c0 -101 -80 -176 -141 -198l-21 32c94 44 123 134 68 134c-36 0 -66 26 -66 73
c0 36 33 69 69 69z" />
    <glyph glyph-name="Lcommaaccent.small" unicode="&#xf68c;" horiz-adv-x="540" 
d="M90 110v320c0 55 -20 70 -60 80v30h280v-30c-40 -10 -60 -25 -60 -80v-385h115c55 0 120 24 130 105h35l-10 -150h-490v30c40 10 60 25 60 80zM292 -36c74 0 91 -66 91 -110c0 -101 -80 -176 -141 -198l-21 32c94 44 123 134 68 134c-36 0 -66 26 -66 73
c0 36 33 69 69 69z" />
    <glyph glyph-name="Ldot.small" unicode="&#xf68d;" horiz-adv-x="540" 
d="M90 110v320c0 55 -20 70 -60 80v30h280v-30c-40 -10 -60 -25 -60 -80v-385h115c55 0 120 24 130 105h35l-10 -150h-490v30c40 10 60 25 60 80zM312 289c0 39 30 69 69 69s69 -30 69 -69s-30 -69 -69 -69s-69 30 -69 69z" />
    <glyph glyph-name="Nacute.small" unicode="&#xf68e;" horiz-adv-x="670" 
d="M510 210v220c0 55 -10 70 -90 80v30h230v-30c-60 -10 -85 -25 -85 -80v-430h-95l-300 410v-300c0 -55 10 -70 90 -80v-30h-230v30c60 10 85 25 85 80v320c0 55 -25 70 -85 80v30h230zM348 600l149 108c66 48 -32 122 -71 62l-98 -151z" />
    <glyph glyph-name="Ncaron.small" unicode="&#xf68f;" horiz-adv-x="670" 
d="M510 210v220c0 55 -10 70 -90 80v30h230v-30c-60 -10 -85 -25 -85 -80v-430h-95l-300 410v-300c0 -55 10 -70 90 -80v-30h-230v30c60 10 85 25 85 80v320c0 55 -25 70 -85 80v30h230zM349 705l-105 75h-50l125 -180h60l125 180h-50z" />
    <glyph glyph-name="Ncommaaccent.small" unicode="&#xf690;" horiz-adv-x="670" 
d="M510 210v220c0 55 -10 70 -90 80v30h230v-30c-60 -10 -85 -25 -85 -80v-430h-95l-300 410v-300c0 -55 10 -70 90 -80v-30h-230v30c60 10 85 25 85 80v320c0 55 -25 70 -85 80v30h230zM327 -36c74 0 91 -66 91 -110c0 -101 -80 -176 -141 -198l-21 32
c94 44 123 134 68 134c-36 0 -66 26 -66 73c0 36 33 69 69 69z" />
    <glyph glyph-name="Obreve.small" unicode="&#xf691;" horiz-adv-x="660" 
d="M30 270c0 180 142 280 300 280s300 -100 300 -280s-142 -280 -300 -280s-300 100 -300 280zM200 270c0 -190 61 -230 130 -230s130 40 130 230s-61 230 -130 230s-130 -40 -130 -230zM331 620c90 0 135 78 135 151h-48c-11 -51 -56 -63 -87 -63s-76 12 -87 63h-48
c0 -73 45 -151 135 -151z" />
    <glyph glyph-name="Ohungarumlaut.small" unicode="&#xf692;" horiz-adv-x="660" 
d="M30 270c0 180 142 280 300 280s300 -100 300 -280s-142 -280 -300 -280s-300 100 -300 280zM200 270c0 -190 61 -230 130 -230s130 40 130 230s-61 230 -130 230s-130 -40 -130 -230zM257 600l108 153c38 57 -73 103 -89 43l-51 -181zM417 600l108 153
c38 57 -73 103 -89 43l-51 -181z" />
    <glyph glyph-name="Omacron.small" unicode="&#xf693;" horiz-adv-x="660" 
d="M30 270c0 180 142 280 300 280s300 -100 300 -280s-142 -280 -300 -280s-300 100 -300 280zM200 270c0 -190 61 -230 130 -230s130 40 130 230s-61 230 -130 230s-130 -40 -130 -230zM159 695h330v-55h-330v55z" />
    <glyph glyph-name="Oslashacute.small" unicode="&#xf694;" horiz-adv-x="660" 
d="M332 600l149 108c66 48 -32 122 -71 62l-98 -151zM69 19l46 48c-52 48 -85 116 -85 203c0 180 142 280 300 280c71 0 138 -20 191 -59l52 54l34 -38l-48 -50c44 -46 71 -109 71 -187c0 -180 -142 -280 -300 -280c-64 0 -125 16 -175 47l-50 -52zM200 270
c0 -43 3 -77 8 -106l235 245c-23 72 -66 91 -113 91c-69 0 -130 -40 -130 -230zM460 270c0 30 -2 56 -5 79l-230 -240c24 -54 63 -69 105 -69c69 0 130 40 130 230z" />
    <glyph glyph-name="Racute.small" unicode="&#xf695;" horiz-adv-x="610" 
d="M285 600l149 108c66 48 -32 122 -71 62l-98 -151zM550 385c0 -55 -47 -108 -129 -135l89 -130c23 -33 60 -75 100 -90v-30h-200c-26 20 -46 40 -60 70l-76 160h-24v-120c0 -55 20 -70 60 -80v-30h-280v30c40 10 60 25 60 80v320c0 55 -20 70 -60 80v30h290
c150 0 230 -45 230 -155zM250 275h20c70 0 115 22 115 110c0 80 -25 110 -105 110h-30v-220z" />
    <glyph glyph-name="Rcaron.small" unicode="&#xf696;" horiz-adv-x="610" 
d="M293 705l-105 75h-50l125 -180h60l125 180h-50zM550 385c0 -55 -47 -108 -129 -135l89 -130c23 -33 60 -75 100 -90v-30h-200c-26 20 -46 40 -60 70l-76 160h-24v-120c0 -55 20 -70 60 -80v-30h-280v30c40 10 60 25 60 80v320c0 55 -20 70 -60 80v30h290
c150 0 230 -45 230 -155zM250 275h20c70 0 115 22 115 110c0 80 -25 110 -105 110h-30v-220z" />
    <glyph glyph-name="Rcommaaccent.small" unicode="&#xf697;" horiz-adv-x="610" 
d="M328 -36c74 0 91 -66 91 -110c0 -101 -80 -176 -141 -198l-21 32c94 44 123 134 68 134c-36 0 -66 26 -66 73c0 36 33 69 69 69zM550 385c0 -55 -47 -108 -129 -135l89 -130c23 -33 60 -75 100 -90v-30h-200c-26 20 -46 40 -60 70l-76 160h-24v-120c0 -55 20 -70 60 -80
v-30h-280v30c40 10 60 25 60 80v320c0 55 -20 70 -60 80v30h290c150 0 230 -45 230 -155zM250 275h20c70 0 115 22 115 110c0 80 -25 110 -105 110h-30v-220z" />
    <glyph glyph-name="Sacute.small" unicode="&#xf698;" horiz-adv-x="475" 
d="M408 375h-37c-32 87 -71 125 -130 125c-27 0 -61 -18 -61 -61c0 -42 35 -64 71 -79c142 -59 189 -100 189 -198c0 -103 -91 -172 -214 -172c-55 0 -132 15 -176 39l-10 146h39c34 -125 104 -135 136 -135c34 0 70 24 70 73c0 29 -15 65 -103 102
c-108 47 -152 89 -152 182c0 85 64 153 206 153c51 0 118 -14 162 -35zM222 600l149 108c66 48 -32 122 -71 62l-98 -151z" />
    <glyph glyph-name="Scedilla.small" horiz-adv-x="475" 
d="M408 375h-37c-32 87 -71 125 -130 125c-27 0 -61 -18 -61 -61c0 -42 35 -64 71 -79c142 -59 189 -100 189 -198c0 -101 -87 -168 -205 -172v-30c0 -36 112 -14 111 -102c-1 -63 -109 -113 -181 -123l-10 45c30 10 85 23 85 65c0 53 -49 40 -45 105l2 41
c-51 4 -110 18 -147 38l-10 146h39c34 -125 104 -135 136 -135c34 0 70 24 70 73c0 29 -15 65 -103 102c-108 47 -152 89 -152 182c0 85 64 153 206 153c51 0 118 -14 162 -35z" />
    <glyph glyph-name="Scircumflex.small" unicode="&#xf69a;" horiz-adv-x="475" 
d="M408 375h-37c-32 87 -71 125 -130 125c-27 0 -61 -18 -61 -61c0 -42 35 -64 71 -79c142 -59 189 -100 189 -198c0 -103 -91 -172 -214 -172c-55 0 -132 15 -176 39l-10 146h39c34 -125 104 -135 136 -135c34 0 70 24 70 73c0 29 -15 65 -103 102
c-108 47 -152 89 -152 182c0 85 64 153 206 153c51 0 118 -14 162 -35zM228 675l-105 -75h-50l125 180h60l125 -180h-50z" />
    <glyph glyph-name="Scommaaccent.small" unicode="&#xf69b;" horiz-adv-x="475" 
d="M408 375h-37c-32 87 -71 125 -130 125c-27 0 -61 -18 -61 -61c0 -42 35 -64 71 -79c142 -59 189 -100 189 -198c0 -103 -91 -172 -214 -172c-55 0 -132 15 -176 39l-10 146h39c34 -125 104 -135 136 -135c34 0 70 24 70 73c0 29 -15 65 -103 102
c-108 47 -152 89 -152 182c0 85 64 153 206 153c51 0 118 -14 162 -35zM220 -36c74 0 91 -66 91 -110c0 -101 -80 -176 -141 -198l-21 32c94 44 123 134 68 134c-36 0 -66 26 -66 73c0 36 33 69 69 69z" />
    <glyph glyph-name="Tcaron.small" unicode="&#xf69d;" horiz-adv-x="540" 
d="M515 540h-490l-5 -150h35c10 81 50 105 105 105h30v-385c0 -55 -20 -70 -60 -80v-30h280v30c-40 10 -60 25 -60 80v385h30c55 0 95 -24 105 -105h35zM269 705l-105 75h-50l125 -180h60l125 180h-50z" />
    <glyph glyph-name="Tbar.small" horiz-adv-x="540" 
d="M440 295h-90v200h30c55 0 95 -24 105 -105h35l-5 150h-490l-5 -150h35c10 81 50 105 105 105h30v-200h-90v-45h90v-140c0 -55 -20 -70 -60 -80v-30h280v30c-40 10 -60 25 -60 80v140h90v45z" />
    <glyph glyph-name="Tcommaaccent.small" unicode="&#xf69e;" horiz-adv-x="540" 
d="M515 540h-490l-5 -150h35c10 81 50 105 105 105h30v-385c0 -55 -20 -70 -60 -80v-30h280v30c-40 10 -60 25 -60 80v385h30c55 0 95 -24 105 -105h35zM258 -36c74 0 91 -66 91 -110c0 -101 -80 -176 -141 -198l-21 32c94 44 123 134 68 134c-36 0 -66 26 -66 73
c0 36 33 69 69 69z" />
    <glyph glyph-name="Ubreve.small" unicode="&#xf69f;" horiz-adv-x="700" 
d="M535 250v180c0 55 -15 70 -95 80v30h240v-30c-70 -10 -90 -25 -90 -80v-190c0 -170 -112 -250 -245 -250c-165 0 -265 87 -265 250v190c0 55 -20 70 -60 80v30h280v-30c-40 -10 -60 -25 -60 -80v-180c0 -150 50 -200 135 -200c115 0 160 70 160 200zM369 620
c90 0 135 78 135 151h-48c-11 -51 -56 -63 -87 -63s-76 12 -87 63h-48c0 -73 45 -151 135 -151z" />
    <glyph glyph-name="Uhungarumlaut.small" unicode="&#xf6a0;" horiz-adv-x="700" 
d="M535 250v180c0 55 -15 70 -95 80v30h240v-30c-70 -10 -90 -25 -90 -80v-190c0 -170 -112 -250 -245 -250c-165 0 -265 87 -265 250v190c0 55 -20 70 -60 80v30h280v-30c-40 -10 -60 -25 -60 -80v-180c0 -150 50 -200 135 -200c115 0 160 70 160 200zM293 600l108 153
c38 57 -73 103 -89 43l-51 -181zM453 600l108 153c38 57 -73 103 -89 43l-51 -181z" />
    <glyph glyph-name="Umacron.small" unicode="&#xf6a1;" horiz-adv-x="700" 
d="M535 250v180c0 55 -15 70 -95 80v30h240v-30c-70 -10 -90 -25 -90 -80v-190c0 -170 -112 -250 -245 -250c-165 0 -265 87 -265 250v190c0 55 -20 70 -60 80v30h280v-30c-40 -10 -60 -25 -60 -80v-180c0 -150 50 -200 135 -200c115 0 160 70 160 200zM205 695h330v-55
h-330v55z" />
    <glyph glyph-name="Uogonek.small" horiz-adv-x="700" 
d="M430 -160v-35c-18 -23 -60 -40 -90 -40c-119 0 -136 129 -13 225c-155 6 -247 93 -247 250v190c0 55 -20 70 -60 80v30h280v-30c-40 -10 -60 -25 -60 -80v-180c0 -150 50 -200 135 -200c115 0 160 70 160 200v180c0 55 -15 70 -95 80v30h240v-30c-70 -10 -90 -25 -90 -80
v-190c0 -157 -95 -237 -214 -248c-75 -79 -66 -201 54 -152z" />
    <glyph glyph-name="Uring.small" unicode="&#xf6a3;" horiz-adv-x="700" 
d="M535 250v180c0 55 -15 70 -95 80v30h240v-30c-70 -10 -90 -25 -90 -80v-190c0 -170 -112 -250 -245 -250c-165 0 -265 87 -265 250v190c0 55 -20 70 -60 80v30h280v-30c-40 -10 -60 -25 -60 -80v-180c0 -150 50 -200 135 -200c115 0 160 70 160 200zM273 687
c0 54 41 97 96 97c54 0 97 -43 97 -97c0 -55 -43 -96 -97 -96c-55 0 -96 41 -96 96zM315 687c0 -30 24 -54 54 -54c31 0 55 24 55 54c0 31 -24 55 -55 55c-30 0 -54 -24 -54 -55z" />
    <glyph glyph-name="Utilde.small" unicode="&#xf6a4;" horiz-adv-x="700" 
d="M535 250v180c0 55 -15 70 -95 80v30h240v-30c-70 -10 -90 -25 -90 -80v-190c0 -170 -112 -250 -245 -250c-165 0 -265 87 -265 250v190c0 55 -20 70 -60 80v30h280v-30c-40 -10 -60 -25 -60 -80v-180c0 -150 50 -200 135 -200c115 0 160 70 160 200zM213 610l-35 20
c21 43 74 130 120 130c40 0 121 -40 160 -40c35 0 59 10 75 30l35 -20c-21 -42 -69 -120 -115 -120c-47 0 -118 40 -165 40c-36 0 -59 -21 -75 -40z" />
    <glyph glyph-name="Wacute.small" unicode="&#xf6a5;" horiz-adv-x="880" 
d="M385 450l22 -63l-85 -221h-2l-80 254c-17 51 -20 80 30 90v30h-270v-30c30 -15 42 -26 55 -60l170 -455h83l123 330l109 -330h84l171 455c15 40 36 50 85 60v30h-220v-30c71 -10 84 -39 65 -90l-89 -254h-2l-74 254c-15 53 -10 80 40 90v30h-270v-30
c30 -15 43 -26 55 -60zM458 600l149 108c66 48 -32 122 -71 62l-98 -151z" />
    <glyph glyph-name="Wcircumflex.small" unicode="&#xf6a6;" horiz-adv-x="880" 
d="M385 450l22 -63l-85 -221h-2l-80 254c-17 51 -20 80 30 90v30h-270v-30c30 -15 42 -26 55 -60l170 -455h83l123 330l109 -330h84l171 455c15 40 36 50 85 60v30h-220v-30c71 -10 84 -39 65 -90l-89 -254h-2l-74 254c-15 53 -10 80 40 90v30h-270v-30
c30 -15 43 -26 55 -60zM462 675l-105 -75h-50l125 180h60l125 -180h-50z" />
    <glyph glyph-name="Wdieresis.small" unicode="&#xf6a7;" horiz-adv-x="880" 
d="M385 450l22 -63l-85 -221h-2l-80 254c-17 51 -20 80 30 90v30h-270v-30c30 -15 42 -26 55 -60l170 -455h83l123 330l109 -330h84l171 455c15 40 36 50 85 60v30h-220v-30c71 -10 84 -39 65 -90l-89 -254h-2l-74 254c-15 53 -10 80 40 90v30h-270v-30
c30 -15 43 -26 55 -60zM302 665c0 38 28 65 64 65c37 0 65 -27 65 -65s-28 -63 -65 -63c-36 0 -64 25 -64 63zM497 665c0 38 28 65 65 65c36 0 64 -27 64 -65s-28 -63 -64 -63c-37 0 -65 25 -65 63z" />
    <glyph glyph-name="Wgrave.small" unicode="&#xf6a8;" horiz-adv-x="880" 
d="M385 450l22 -63l-85 -221h-2l-80 254c-17 51 -20 80 30 90v30h-270v-30c30 -15 42 -26 55 -60l170 -455h83l123 330l109 -330h84l171 455c15 40 36 50 85 60v30h-220v-30c71 -10 84 -39 65 -90l-89 -254h-2l-74 254c-15 53 -10 80 40 90v30h-270v-30
c30 -15 43 -26 55 -60zM459 600l-149 108c-66 48 32 122 71 62l98 -151z" />
    <glyph glyph-name="Ycircumflex.small" unicode="&#xf6a9;" horiz-adv-x="560" 
d="M55 450l160 -287v-53c0 -55 -20 -70 -60 -80v-30h280v30c-40 10 -60 25 -60 80v101l105 239c18 40 41 50 90 60v30h-220v-30c71 -10 82 -46 60 -95l-79 -175h-2l-94 180c-25 48 -35 80 15 90v30h-260v-30c30 -15 47 -28 65 -60zM300 675l-105 -75h-50l125 180h60
l125 -180h-50z" />
    <glyph glyph-name="Ygrave.small" unicode="&#xf6aa;" horiz-adv-x="560" 
d="M55 450l160 -287v-53c0 -55 -20 -70 -60 -80v-30h280v30c-40 10 -60 25 -60 80v101l105 239c18 40 41 50 90 60v30h-220v-30c71 -10 82 -46 60 -95l-79 -175h-2l-94 180c-25 48 -35 80 15 90v30h-260v-30c30 -15 47 -28 65 -60zM291 600l-149 108c-66 48 32 122 71 62
l98 -151z" />
    <glyph glyph-name="Zacute.small" unicode="&#xf6ab;" horiz-adv-x="535" 
d="M205 45l290 435v60h-443l-5 -150h35c10 81 68 105 125 105h118l-300 -445v-50h470l10 150h-35c-10 -81 -70 -105 -130 -105h-135zM254 600l149 108c66 48 -32 122 -71 62l-98 -151z" />
    <glyph glyph-name="Zdotaccent.small" unicode="&#xf6ac;" horiz-adv-x="535" 
d="M205 45l290 435v60h-443l-5 -150h35c10 81 68 105 125 105h118l-300 -445v-50h470l10 150h-35c-10 -81 -70 -105 -130 -105h-135zM209 677c0 39 30 69 69 69s69 -30 69 -69s-30 -69 -69 -69s-69 30 -69 69z" />
    <glyph glyph-name="abreve" unicode="&#x103;" horiz-adv-x="500" 
d="M435 375l-5 -235c-2 -80 25 -75 70 -65v-25c-50 -40 -80 -60 -140 -60c-70 0 -90 40 -90 80h-2c-55 -57 -78 -80 -138 -80c-59 0 -110 52 -110 120c0 62 51 102 130 115l123 20l2 85c2 80 -5 120 -65 120c-90 0 -82 -75 -55 -100c42 -39 -99 -84 -115 -50
c-29 63 80 210 230 210c100 0 167 -50 165 -135zM270 110l2 95l-47 -10c-34 -7 -51 -24 -45 -65c3 -20 18 -40 45 -40c20 0 31 8 45 20zM249 570c90 0 135 78 135 151h-48c-11 -51 -56 -63 -87 -63s-76 12 -87 63h-48c0 -73 45 -151 135 -151z" />
    <glyph glyph-name="amacron" unicode="&#x101;" horiz-adv-x="500" 
d="M435 375l-5 -235c-2 -80 25 -75 70 -65v-25c-50 -40 -80 -60 -140 -60c-70 0 -90 40 -90 80h-2c-55 -57 -78 -80 -138 -80c-59 0 -110 52 -110 120c0 62 51 102 130 115l123 20l2 85c2 80 -5 120 -65 120c-90 0 -82 -75 -55 -100c42 -39 -99 -84 -115 -50
c-29 63 80 210 230 210c100 0 167 -50 165 -135zM270 110l2 95l-47 -10c-34 -7 -51 -24 -45 -65c3 -20 18 -40 45 -40c20 0 31 8 45 20zM81 645h330v-55h-330v55z" />
    <glyph glyph-name="aogonek" unicode="&#x105;" horiz-adv-x="500" 
d="M430 140l5 235c2 85 -65 135 -165 135c-150 0 -259 -147 -230 -210c16 -34 157 11 115 50c-27 25 -35 100 55 100c60 0 67 -40 65 -120l-2 -85l-123 -20c-79 -13 -130 -53 -130 -115c0 -68 51 -120 110 -120c60 0 83 23 138 80h2c0 -35 15 -70 64 -78
c-125 -96 -109 -227 11 -227c30 0 72 17 90 40v35c-120 -49 -142 102 -45 150c42 20 66 25 110 60v25c-45 -10 -72 -15 -70 65zM272 205l-2 -95c-14 -12 -25 -20 -45 -20c-27 0 -42 20 -45 40c-6 41 11 58 45 65z" />
    <glyph glyph-name="a.end" horiz-adv-x="806" 
d="M500 45c195 0 272 29 206 161c-30 60 100 100 100 -10c0 -80 -71 -201 -306 -201h-140c-70 0 -90 35 -90 75h-2c-55 -57 -78 -80 -138 -80c-59 0 -110 52 -110 120c0 62 51 102 130 115l123 20l2 85c2 80 -5 120 -65 120c-90 0 -82 -75 -55 -100c42 -39 -99 -84 -115 -50
c-29 63 80 210 230 210c100 0 167 -50 165 -135l-5 -235c-2 -80 24 -95 70 -95zM270 110l2 95l-47 -10c-34 -7 -51 -24 -45 -65c3 -20 18 -40 45 -40c20 0 31 8 45 20z" />
    <glyph glyph-name="aacute.end" horiz-adv-x="806" 
d="M500 45c195 0 272 29 206 161c-30 60 100 100 100 -10c0 -80 -71 -201 -306 -201h-140c-70 0 -90 35 -90 75h-2c-55 -57 -78 -80 -138 -80c-59 0 -110 52 -110 120c0 62 51 102 130 115l123 20l2 85c2 80 -5 120 -65 120c-90 0 -82 -75 -55 -100c42 -39 -99 -84 -115 -50
c-29 63 80 210 230 210c100 0 167 -50 165 -135l-5 -235c-2 -80 24 -95 70 -95zM270 110l2 95l-47 -10c-34 -7 -51 -24 -45 -65c3 -20 18 -40 45 -40c20 0 31 8 45 20zM247 550l149 108c66 48 -32 122 -71 62l-98 -151z" />
    <glyph glyph-name="abreve.end" horiz-adv-x="806" 
d="M500 45c195 0 272 29 206 161c-30 60 100 100 100 -10c0 -80 -71 -201 -306 -201h-140c-70 0 -90 35 -90 75h-2c-55 -57 -78 -80 -138 -80c-59 0 -110 52 -110 120c0 62 51 102 130 115l123 20l2 85c2 80 -5 120 -65 120c-90 0 -82 -75 -55 -100c42 -39 -99 -84 -115 -50
c-29 63 80 210 230 210c100 0 167 -50 165 -135l-5 -235c-2 -80 24 -95 70 -95zM270 110l2 95l-47 -10c-34 -7 -51 -24 -45 -65c3 -20 18 -40 45 -40c20 0 31 8 45 20zM261 570c90 0 135 78 135 151h-48c-11 -51 -56 -63 -87 -63s-76 12 -87 63h-48c0 -73 45 -151 135 -151z
" />
    <glyph glyph-name="acircumflex.end" horiz-adv-x="806" 
d="M500 45c195 0 272 29 206 161c-30 60 100 100 100 -10c0 -80 -71 -201 -306 -201h-140c-70 0 -90 35 -90 75h-2c-55 -57 -78 -80 -138 -80c-59 0 -110 52 -110 120c0 62 51 102 130 115l123 20l2 85c2 80 -5 120 -65 120c-90 0 -82 -75 -55 -100c42 -39 -99 -84 -115 -50
c-29 63 80 210 230 210c100 0 167 -50 165 -135l-5 -235c-2 -80 24 -95 70 -95zM270 110l2 95l-47 -10c-34 -7 -51 -24 -45 -65c3 -20 18 -40 45 -40c20 0 31 8 45 20zM245 625l-105 -75h-50l125 180h60l125 -180h-50z" />
    <glyph glyph-name="adieresis.end" horiz-adv-x="806" 
d="M500 45c195 0 272 29 206 161c-30 60 100 100 100 -10c0 -80 -71 -201 -306 -201h-140c-70 0 -90 35 -90 75h-2c-55 -57 -78 -80 -138 -80c-59 0 -110 52 -110 120c0 62 51 102 130 115l123 20l2 85c2 80 -5 120 -65 120c-90 0 -82 -75 -55 -100c42 -39 -99 -84 -115 -50
c-29 63 80 210 230 210c100 0 167 -50 165 -135l-5 -235c-2 -80 24 -95 70 -95zM270 110l2 95l-47 -10c-34 -7 -51 -24 -45 -65c3 -20 18 -40 45 -40c20 0 31 8 45 20zM88 615c0 38 28 65 64 65c37 0 65 -27 65 -65s-28 -63 -65 -63c-36 0 -64 25 -64 63zM283 615
c0 38 28 65 65 65c36 0 64 -27 64 -65s-28 -63 -64 -63c-37 0 -65 25 -65 63z" />
    <glyph glyph-name="agrave.end" horiz-adv-x="806" 
d="M500 45c195 0 272 29 206 161c-30 60 100 100 100 -10c0 -80 -71 -201 -306 -201h-140c-70 0 -90 35 -90 75h-2c-55 -57 -78 -80 -138 -80c-59 0 -110 52 -110 120c0 62 51 102 130 115l123 20l2 85c2 80 -5 120 -65 120c-90 0 -82 -75 -55 -100c42 -39 -99 -84 -115 -50
c-29 63 80 210 230 210c100 0 167 -50 165 -135l-5 -235c-2 -80 24 -95 70 -95zM270 110l2 95l-47 -10c-34 -7 -51 -24 -45 -65c3 -20 18 -40 45 -40c20 0 31 8 45 20zM255 550l-149 108c-66 48 32 122 71 62l98 -151z" />
    <glyph glyph-name="amacron.end" horiz-adv-x="806" 
d="M500 45c195 0 272 29 206 161c-30 60 100 100 100 -10c0 -80 -71 -201 -306 -201h-140c-70 0 -90 35 -90 75h-2c-55 -57 -78 -80 -138 -80c-59 0 -110 52 -110 120c0 62 51 102 130 115l123 20l2 85c2 80 -5 120 -65 120c-90 0 -82 -75 -55 -100c42 -39 -99 -84 -115 -50
c-29 63 80 210 230 210c100 0 167 -50 165 -135l-5 -235c-2 -80 24 -95 70 -95zM270 110l2 95l-47 -10c-34 -7 -51 -24 -45 -65c3 -20 18 -40 45 -40c20 0 31 8 45 20zM75 625h330v-55h-330v55z" />
    <glyph glyph-name="aogonek.end" horiz-adv-x="806" 
d="M457 -160v-35c-18 -23 -60 -40 -90 -40c-121 0 -137 134 -7 230c-70 0 -90 35 -90 75h-2c-55 -57 -78 -80 -138 -80c-59 0 -110 52 -110 120c0 62 51 102 130 115l123 20l2 85c2 80 -5 120 -65 120c-90 0 -82 -75 -55 -100c42 -39 -99 -84 -115 -50
c-29 63 80 210 230 210c100 0 167 -50 165 -135l-5 -235c-2 -80 24 -95 70 -95c195 0 272 29 206 161c-30 60 100 100 100 -10c0 -80 -71 -201 -306 -201h-93c-79 -78 -72 -205 50 -155zM270 110l2 95l-47 -10c-34 -7 -51 -24 -45 -65c3 -20 18 -40 45 -40c20 0 31 8 45 20z
" />
    <glyph glyph-name="aring.end" horiz-adv-x="806" 
d="M500 45c195 0 272 29 206 161c-30 60 100 100 100 -10c0 -80 -71 -201 -306 -201h-140c-70 0 -90 35 -90 75h-2c-55 -57 -78 -80 -138 -80c-59 0 -110 52 -110 120c0 62 51 102 130 115l123 20l2 85c2 80 -5 120 -65 120c-90 0 -82 -75 -55 -100c42 -39 -99 -84 -115 -50
c-29 63 80 210 230 210c100 0 167 -50 165 -135l-5 -235c-2 -80 24 -95 70 -95zM270 110l2 95l-47 -10c-34 -7 -51 -24 -45 -65c3 -20 18 -40 45 -40c20 0 31 8 45 20zM159 637c0 54 41 97 96 97c54 0 97 -43 97 -97c0 -55 -43 -96 -97 -96c-55 0 -96 41 -96 96zM201 637
c0 -30 24 -54 54 -54c31 0 55 24 55 54c0 31 -24 55 -55 55c-30 0 -54 -24 -54 -55z" />
    <glyph glyph-name="atilde.end" horiz-adv-x="806" 
d="M500 45c195 0 272 29 206 161c-30 60 100 100 100 -10c0 -80 -71 -201 -306 -201h-140c-70 0 -90 35 -90 75h-2c-55 -57 -78 -80 -138 -80c-59 0 -110 52 -110 120c0 62 51 102 130 115l123 20l2 85c2 80 -5 120 -65 120c-90 0 -82 -75 -55 -100c42 -39 -99 -84 -115 -50
c-29 63 80 210 230 210c100 0 167 -50 165 -135l-5 -235c-2 -80 24 -95 70 -95zM270 110l2 95l-47 -10c-34 -7 -51 -24 -45 -65c3 -20 18 -40 45 -40c20 0 31 8 45 20zM99 560l-35 20c21 43 74 130 120 130c40 0 121 -40 160 -40c35 0 59 10 75 30l35 -20
c-21 -42 -69 -120 -115 -120c-47 0 -118 40 -165 40c-36 0 -59 -21 -75 -40z" />
    <glyph glyph-name="aeacute" unicode="&#x1fd;" horiz-adv-x="741" 
d="M402 550l149 108c66 48 -32 122 -71 62l-98 -151zM516 -10c-85 0 -145 31 -185 80c-90 -74 -148 -80 -201 -80c-59 0 -110 52 -110 120c0 62 51 102 130 115l123 20l2 85c2 80 -5 120 -65 120c-90 0 -82 -75 -55 -100c42 -39 -99 -84 -115 -50c-29 63 80 210 230 210
c52 0 95 -13 124 -38c40 25 86 38 132 38c115 0 219 -55 189 -225h-281c-3 -135 62 -180 137 -180c60 0 100 15 150 45v-70c-20 -20 -80 -90 -205 -90zM521 460c-57 0 -86 -39 -86 -120h141c25 90 -15 120 -55 120zM225 90c15 0 44 0 78 25c-13 25 -22 55 -25 90l-53 -10
c-34 -7 -51 -24 -45 -65c3 -20 18 -40 45 -40z" />
    <glyph glyph-name="cacute" unicode="&#x107;" horiz-adv-x="500" 
d="M280 460c-70 0 -102 -63 -102 -179c0 -131 77 -176 152 -176c60 0 100 15 150 45v-70c-20 -20 -80 -90 -205 -90c-165 0 -255 120 -255 255c0 170 140 265 265 265s191 -61 191 -125c0 -35 -16 -70 -76 -70c-50 0 -61 31 -60 52c5 73 -20 93 -60 93zM279 550l149 108
c66 48 -32 122 -71 62l-98 -151z" />
    <glyph glyph-name="ccaron" unicode="&#x10d;" horiz-adv-x="500" 
d="M280 460c-70 0 -102 -63 -102 -179c0 -131 77 -176 152 -176c60 0 100 15 150 45v-70c-20 -20 -80 -90 -205 -90c-165 0 -255 120 -255 255c0 170 140 265 265 265s191 -61 191 -125c0 -35 -16 -70 -76 -70c-50 0 -61 31 -60 52c5 73 -20 93 -60 93zM292 655l-105 75h-50
l125 -180h60l125 180h-50z" />
    <glyph glyph-name="ccircumflex" unicode="&#x109;" horiz-adv-x="500" 
d="M280 460c-70 0 -102 -63 -102 -179c0 -131 77 -176 152 -176c60 0 100 15 150 45v-70c-20 -20 -80 -90 -205 -90c-165 0 -255 120 -255 255c0 170 140 265 265 265s191 -61 191 -125c0 -35 -16 -70 -76 -70c-50 0 -61 31 -60 52c5 73 -20 93 -60 93zM285 625l-105 -75
h-50l125 180h60l125 -180h-50z" />
    <glyph glyph-name="cdotaccent" unicode="&#x10b;" horiz-adv-x="500" 
d="M280 460c-70 0 -102 -63 -102 -179c0 -131 77 -176 152 -176c60 0 100 15 150 45v-70c-20 -20 -80 -90 -205 -90c-165 0 -255 120 -255 255c0 170 140 265 265 265s191 -61 191 -125c0 -35 -16 -70 -76 -70c-50 0 -61 31 -60 52c5 73 -20 93 -60 93zM223 627
c0 39 30 69 69 69s69 -30 69 -69s-30 -69 -69 -69s-69 30 -69 69z" />
    <glyph glyph-name="c_t" horiz-adv-x="880" 
d="M560 510v90c-107 29 -206 53 -212 -96c84 -17 128 -67 128 -119c0 -35 -16 -70 -76 -70c-50 0 -61 31 -60 52c5 73 -20 93 -60 93c-70 0 -102 -63 -102 -179c0 -131 77 -176 152 -176c60 0 100 15 150 45v-70c-20 -20 -80 -90 -205 -90c-165 0 -255 120 -255 255
c0 170 140 265 265 265h2c54 155 160 218 373 160l50 30h10v-200h120v-55h-120v-295c0 -65 10 -85 60 -85c20 0 48 4 80 10v-25c-50 -40 -110 -60 -160 -60c-70 0 -140 35 -140 120v335h-40v50z" />
    <glyph glyph-name="dcaron" unicode="&#x10f;" 
d="M300 75c25 0 50 10 70 27v233c0 115 -50 125 -80 125c-70 0 -110 -75 -105 -210c5 -130 55 -175 115 -175zM370 480v140c0 50 -20 65 -50 75v30l200 45h10v-610c0 -70 5 -90 70 -85v-35l-220 -50h-10v70h-2c-33 -45 -78 -70 -138 -70c-130 0 -210 110 -210 260
c0 160 125 260 255 260c37 0 70 -10 95 -30zM629 784c74 0 91 -66 91 -110c0 -101 -80 -176 -141 -198l-21 32c94 44 123 134 68 134c-36 0 -66 26 -66 73c0 36 33 69 69 69z" />
    <glyph glyph-name="dcroat" unicode="&#x111;" 
d="M580 545h-50v-385c0 -70 5 -90 70 -85v-35l-220 -50h-10v70h-2c-33 -45 -78 -70 -138 -70c-130 0 -210 110 -210 260c0 160 125 260 255 260c37 0 70 -10 95 -30v65h-60v45h60v30c0 50 -20 65 -50 75v30l200 45h10v-180h50v-45zM300 75c25 0 50 10 70 27v233
c0 115 -50 125 -80 125c-70 0 -110 -75 -105 -210c5 -130 55 -175 115 -175z" />
    <glyph glyph-name="d.end" horiz-adv-x="906" 
d="M300 75c25 0 50 10 70 27v233c0 115 -50 125 -80 125c-70 0 -110 -75 -105 -210c5 -130 55 -175 115 -175zM370 60h-2c-33 -45 -78 -70 -138 -70c-130 0 -210 110 -210 260c0 160 125 260 255 260c37 0 70 -10 95 -30v140c0 50 -20 65 -50 75v30l200 45h10v-630
c-2 -80 24 -95 70 -95c195 0 272 29 206 161c-30 60 100 100 100 -10c0 -80 -71 -201 -306 -201h-140c-70 0 -90 35 -90 65z" />
    <glyph glyph-name="dcaron.end" horiz-adv-x="906" 
d="M300 75c25 0 50 10 70 27v233c0 115 -50 125 -80 125c-70 0 -110 -75 -105 -210c5 -130 55 -175 115 -175zM370 60h-2c-33 -45 -78 -70 -138 -70c-130 0 -210 110 -210 260c0 160 125 260 255 260c37 0 70 -10 95 -30v140c0 50 -20 65 -50 75v30l200 45h10v-630
c-2 -80 24 -95 70 -95c195 0 272 29 206 161c-30 60 100 100 100 -10c0 -80 -71 -201 -306 -201h-140c-70 0 -90 35 -90 65zM628 780c74 0 91 -66 91 -110c0 -101 -80 -176 -141 -198l-21 32c94 44 123 134 68 134c-36 0 -66 26 -66 73c0 36 33 69 69 69z" />
    <glyph glyph-name="dcroat.end" horiz-adv-x="906" 
d="M300 75c25 0 50 10 70 27v233c0 115 -50 125 -80 125c-70 0 -110 -75 -105 -210c5 -130 55 -175 115 -175zM370 545h-60v45h60v30c0 50 -20 65 -50 75v30l200 45h10v-180h50v-45h-50v-405c-2 -80 24 -95 70 -95c195 0 272 29 206 161c-30 60 100 100 100 -10
c0 -80 -71 -201 -306 -201h-140c-70 0 -90 35 -90 65h-2c-33 -45 -78 -70 -138 -70c-130 0 -210 110 -210 260c0 160 125 260 255 260c37 0 70 -10 95 -30v65z" />
    <glyph glyph-name="ebreve" unicode="&#x115;" horiz-adv-x="500" 
d="M280 460c-57 0 -89 -42 -99 -120h154c25 90 -15 120 -55 120zM275 -10c-165 0 -255 120 -255 255c0 170 140 265 265 265c115 0 219 -55 189 -225h-296c0 -135 77 -180 152 -180c60 0 100 15 150 45v-70c-20 -20 -80 -90 -205 -90zM282 570c90 0 135 78 135 151h-48
c-11 -51 -56 -63 -87 -63s-76 12 -87 63h-48c0 -73 45 -151 135 -151z" />
    <glyph glyph-name="ecaron" unicode="&#x11b;" horiz-adv-x="500" 
d="M280 460c-57 0 -89 -42 -99 -120h154c25 90 -15 120 -55 120zM275 -10c-165 0 -255 120 -255 255c0 170 140 265 265 265c115 0 219 -55 189 -225h-296c0 -135 77 -180 152 -180c60 0 100 15 150 45v-70c-20 -20 -80 -90 -205 -90zM281 655l-105 75h-50l125 -180h60
l125 180h-50z" />
    <glyph glyph-name="edotaccent" unicode="&#x117;" horiz-adv-x="500" 
d="M280 460c-57 0 -89 -42 -99 -120h154c25 90 -15 120 -55 120zM275 -10c-165 0 -255 120 -255 255c0 170 140 265 265 265c115 0 219 -55 189 -225h-296c0 -135 77 -180 152 -180c60 0 100 15 150 45v-70c-20 -20 -80 -90 -205 -90zM214 627c0 39 30 69 69 69
s69 -30 69 -69s-30 -69 -69 -69s-69 30 -69 69z" />
    <glyph glyph-name="emacron" unicode="&#x113;" horiz-adv-x="500" 
d="M280 460c-57 0 -89 -42 -99 -120h154c25 90 -15 120 -55 120zM275 -10c-165 0 -255 120 -255 255c0 170 140 265 265 265c115 0 219 -55 189 -225h-296c0 -135 77 -180 152 -180c60 0 100 15 150 45v-70c-20 -20 -80 -90 -205 -90zM114 645h330v-55h-330v55z" />
    <glyph glyph-name="eogonek" unicode="&#x119;" horiz-adv-x="500" 
d="M355 -160v-35c-18 -23 -60 -40 -90 -40c-120 0 -136 130 -12 226c-151 10 -233 125 -233 254c0 170 140 265 265 265c115 0 219 -55 189 -225h-296c0 -135 77 -180 152 -180c60 0 100 15 150 45v-70c-19 -19 -72 -80 -179 -89c-75 -78 -66 -200 54 -151zM280 460
c-57 0 -89 -42 -99 -120h154c25 90 -15 120 -55 120z" />
    <glyph glyph-name="e.end" horiz-adv-x="806" 
d="M275 -10c-165 0 -255 120 -255 255c0 170 140 265 265 265c103 0 196 -44 194 -175c224 3 289 36 227 161c-30 60 100 100 100 -10c0 -80 -71 -201 -306 -201h-322c0 -135 77 -180 152 -180c60 0 100 15 150 45v-70c-20 -20 -80 -90 -205 -90zM280 460
c-57 0 -89 -42 -99 -120h154c25 90 -15 120 -55 120z" />
    <glyph glyph-name="eacute.end" horiz-adv-x="806" 
d="M275 -10c-165 0 -255 120 -255 255c0 170 140 265 265 265c103 0 196 -44 194 -175c224 3 289 36 227 161c-30 60 100 100 100 -10c0 -80 -71 -201 -306 -201h-322c0 -135 77 -180 152 -180c60 0 100 15 150 45v-70c-20 -20 -80 -90 -205 -90zM280 460
c-57 0 -89 -42 -99 -120h154c25 90 -15 120 -55 120zM291 550l149 108c66 48 -32 122 -71 62l-98 -151z" />
    <glyph glyph-name="ebreve.end" horiz-adv-x="806" 
d="M275 -10c-165 0 -255 120 -255 255c0 170 140 265 265 265c103 0 196 -44 194 -175c224 3 289 36 227 161c-30 60 100 100 100 -10c0 -80 -71 -201 -306 -201h-322c0 -135 77 -180 152 -180c60 0 100 15 150 45v-70c-20 -20 -80 -90 -205 -90zM280 460
c-57 0 -89 -42 -99 -120h154c25 90 -15 120 -55 120zM277 570c90 0 135 78 135 151h-48c-11 -51 -56 -63 -87 -63s-76 12 -87 63h-48c0 -73 45 -151 135 -151z" />
    <glyph glyph-name="ecaron.end" horiz-adv-x="806" 
d="M275 -10c-165 0 -255 120 -255 255c0 170 140 265 265 265c103 0 196 -44 194 -175c224 3 289 36 227 161c-30 60 100 100 100 -10c0 -80 -71 -201 -306 -201h-322c0 -135 77 -180 152 -180c60 0 100 15 150 45v-70c-20 -20 -80 -90 -205 -90zM280 460
c-57 0 -89 -42 -99 -120h154c25 90 -15 120 -55 120zM290 655l-105 75h-50l125 -180h60l125 180h-50z" />
    <glyph glyph-name="ecircumflex.end" horiz-adv-x="806" 
d="M275 -10c-165 0 -255 120 -255 255c0 170 140 265 265 265c103 0 196 -44 194 -175c224 3 289 36 227 161c-30 60 100 100 100 -10c0 -80 -71 -201 -306 -201h-322c0 -135 77 -180 152 -180c60 0 100 15 150 45v-70c-20 -20 -80 -90 -205 -90zM280 460
c-57 0 -89 -42 -99 -120h154c25 90 -15 120 -55 120zM276 625l-105 -75h-50l125 180h60l125 -180h-50z" />
    <glyph glyph-name="edieresis.end" horiz-adv-x="806" 
d="M275 -10c-165 0 -255 120 -255 255c0 170 140 265 265 265c103 0 196 -44 194 -175c224 3 289 36 227 161c-30 60 100 100 100 -10c0 -80 -71 -201 -306 -201h-322c0 -135 77 -180 152 -180c60 0 100 15 150 45v-70c-20 -20 -80 -90 -205 -90zM280 460
c-57 0 -89 -42 -99 -120h154c25 90 -15 120 -55 120zM125 615c0 38 28 65 64 65c37 0 65 -27 65 -65s-28 -63 -65 -63c-36 0 -64 25 -64 63zM320 615c0 38 28 65 65 65c36 0 64 -27 64 -65s-28 -63 -64 -63c-37 0 -65 25 -65 63z" />
    <glyph glyph-name="edotaccent.end" horiz-adv-x="806" 
d="M275 -10c-165 0 -255 120 -255 255c0 170 140 265 265 265c103 0 196 -44 194 -175c224 3 289 36 227 161c-30 60 100 100 100 -10c0 -80 -71 -201 -306 -201h-322c0 -135 77 -180 152 -180c60 0 100 15 150 45v-70c-20 -20 -80 -90 -205 -90zM280 460
c-57 0 -89 -42 -99 -120h154c25 90 -15 120 -55 120zM224 627c0 39 30 69 69 69s69 -30 69 -69s-30 -69 -69 -69s-69 30 -69 69z" />
    <glyph glyph-name="emacron.end" horiz-adv-x="806" 
d="M275 -10c-165 0 -255 120 -255 255c0 170 140 265 265 265c103 0 196 -44 194 -175c224 3 289 36 227 161c-30 60 100 100 100 -10c0 -80 -71 -201 -306 -201h-322c0 -135 77 -180 152 -180c60 0 100 15 150 45v-70c-20 -20 -80 -90 -205 -90zM280 460
c-57 0 -89 -42 -99 -120h154c25 90 -15 120 -55 120zM127 645h330v-55h-330v55z" />
    <glyph glyph-name="egrave.end" horiz-adv-x="806" 
d="M275 -10c-165 0 -255 120 -255 255c0 170 140 265 265 265c103 0 196 -44 194 -175c224 3 289 36 227 161c-30 60 100 100 100 -10c0 -80 -71 -201 -306 -201h-322c0 -135 77 -180 152 -180c60 0 100 15 150 45v-70c-20 -20 -80 -90 -205 -90zM280 460
c-57 0 -89 -42 -99 -120h154c25 90 -15 120 -55 120zM301 550l-149 108c-66 48 32 122 71 62l98 -151z" />
    <glyph glyph-name="eogonek.end" horiz-adv-x="806" 
d="M500 285h-322c0 -135 77 -180 152 -180c60 0 100 15 150 45v-70c-19 -19 -72 -80 -179 -89c-75 -78 -66 -200 54 -151v-35c-18 -23 -60 -40 -90 -40c-120 0 -136 130 -12 226c-151 10 -233 125 -233 254c0 170 140 265 265 265c103 0 196 -44 194 -175
c224 3 289 36 227 161c-30 60 100 100 100 -10c0 -80 -71 -201 -306 -201zM280 460c-57 0 -89 -42 -99 -120h154c25 90 -15 120 -55 120z" />
    <glyph glyph-name="gbreve" unicode="&#x11f;" horiz-adv-x="540" 
d="M310 -75l-155 20c-10 -35 -15 -55 -15 -95c0 -55 50 -70 100 -70c60 0 150 23 150 90c0 35 -37 49 -80 55zM185 325c7 -94 35 -130 70 -130c50 0 60 49 55 134c-5 86 -27 131 -65 131c-43 0 -67 -42 -60 -135zM420 440v-2c23 -21 45 -63 45 -108
c0 -115 -90 -185 -215 -185c-20 0 -45 5 -60 10c-10 -9 -25 -21 -25 -35c0 -15 12 -21 50 -25l149 -15c121 -12 166 -70 166 -140c0 -123 -190 -210 -330 -210c-124 0 -200 35 -200 100c0 60 54 93 125 125c-23 9 -80 25 -80 90c0 55 50 90 110 120c-65 20 -125 85 -125 162
c0 108 95 183 220 183c60 0 90 -13 125 -25l145 15v-60h-100zM268 570c90 0 135 78 135 151h-48c-11 -51 -56 -63 -87 -63s-76 12 -87 63h-48c0 -73 45 -151 135 -151z" />
    <glyph glyph-name="gcircumflex" unicode="&#x11d;" horiz-adv-x="540" 
d="M310 -75l-155 20c-10 -35 -15 -55 -15 -95c0 -55 50 -70 100 -70c60 0 150 23 150 90c0 35 -37 49 -80 55zM185 325c7 -94 35 -130 70 -130c50 0 60 49 55 134c-5 86 -27 131 -65 131c-43 0 -67 -42 -60 -135zM420 440v-2c23 -21 45 -63 45 -108
c0 -115 -90 -185 -215 -185c-20 0 -45 5 -60 10c-10 -9 -25 -21 -25 -35c0 -15 12 -21 50 -25l149 -15c121 -12 166 -70 166 -140c0 -123 -190 -210 -330 -210c-124 0 -200 35 -200 100c0 60 54 93 125 125c-23 9 -80 25 -80 90c0 55 50 90 110 120c-65 20 -125 85 -125 162
c0 108 95 183 220 183c60 0 90 -13 125 -25l145 15v-60h-100zM253 625l-105 -75h-50l125 180h60l125 -180h-50z" />
    <glyph glyph-name="gcommaaccent" unicode="&#x123;" horiz-adv-x="540" 
d="M310 -75l-155 20c-10 -35 -15 -55 -15 -95c0 -55 50 -70 100 -70c60 0 150 23 150 90c0 35 -37 49 -80 55zM185 325c7 -94 35 -130 70 -130c50 0 60 49 55 134c-5 86 -27 131 -65 131c-43 0 -67 -42 -60 -135zM420 440v-2c23 -21 45 -63 45 -108
c0 -115 -90 -185 -215 -185c-20 0 -45 5 -60 10c-10 -9 -25 -21 -25 -35c0 -15 12 -21 50 -25l149 -15c121 -12 166 -70 166 -140c0 -123 -190 -210 -330 -210c-124 0 -200 35 -200 100c0 60 54 93 125 125c-23 9 -80 25 -80 90c0 55 50 90 110 120c-65 20 -125 85 -125 162
c0 108 95 183 220 183c60 0 90 -13 125 -25l145 15v-60h-100zM266 854c74 0 91 -66 91 -110c0 -101 -80 -176 -141 -198l-21 32c94 44 123 134 68 134c-36 0 -66 26 -66 73c0 36 33 69 69 69z" />
    <glyph glyph-name="gdotaccent" unicode="&#x121;" horiz-adv-x="540" 
d="M310 -75l-155 20c-10 -35 -15 -55 -15 -95c0 -55 50 -70 100 -70c60 0 150 23 150 90c0 35 -37 49 -80 55zM185 325c7 -94 35 -130 70 -130c50 0 60 49 55 134c-5 86 -27 131 -65 131c-43 0 -67 -42 -60 -135zM420 440v-2c23 -21 45 -63 45 -108
c0 -115 -90 -185 -215 -185c-20 0 -45 5 -60 10c-10 -9 -25 -21 -25 -35c0 -15 12 -21 50 -25l149 -15c121 -12 166 -70 166 -140c0 -123 -190 -210 -330 -210c-124 0 -200 35 -200 100c0 60 54 93 125 125c-23 9 -80 25 -80 90c0 55 50 90 110 120c-65 20 -125 85 -125 162
c0 108 95 183 220 183c60 0 90 -13 125 -25l145 15v-60h-100zM193 627c0 39 30 69 69 69s69 -30 69 -69s-30 -69 -69 -69s-69 30 -69 69z" />
    <glyph glyph-name="hbar" unicode="&#x127;" horiz-adv-x="620" 
d="M30 590h50v30c0 50 -20 65 -50 75v30l202 45h8v-180h60v-45h-60v-120h2c38 50 110 85 183 85c67 0 135 -40 135 -150v-250c0 -55 20 -70 60 -80v-30h-260v30c30 15 40 25 40 80v240c0 45 -30 60 -60 60c-31 0 -70 -10 -100 -25v-275c0 -55 20 -70 60 -80v-30h-280v30
c40 10 60 25 60 80v435h-50v45z" />
    <glyph glyph-name="hcircumflex" unicode="&#x125;" horiz-adv-x="620" 
d="M20 0v30c40 10 60 25 60 80v510c0 50 -20 65 -50 75v30l202 45h8v-345h2c38 50 110 85 183 85c67 0 135 -40 135 -150v-250c0 -55 20 -70 60 -80v-30h-260v30c30 15 40 25 40 80v240c0 45 -30 60 -60 60c-31 0 -70 -10 -100 -25v-275c0 -55 20 -70 60 -80v-30h-280z
M160 855l-105 -75h-50l125 180h60l125 -180h-50z" />
    <glyph glyph-name="h.end" horiz-adv-x="1050" 
d="M744 0h-384v30c30 15 40 25 40 80v240c0 45 -30 60 -60 60c-31 0 -70 -10 -100 -25v-275c0 -55 20 -70 60 -80v-30h-280v30c40 10 60 25 60 80v510c0 50 -20 65 -50 75v30l202 45h8v-345h2c38 50 110 85 183 85c67 0 135 -40 135 -150v-250c0 -55 19 -75 60 -75h124
c195 0 272 39 206 171c-30 60 100 100 100 -10c0 -80 -71 -196 -306 -196z" />
    <glyph glyph-name="hbar.end" horiz-adv-x="1050" 
d="M744 0h-384v30c30 15 40 25 40 80v240c0 45 -30 60 -60 60c-31 0 -70 -10 -100 -25v-275c0 -55 20 -70 60 -80v-30h-280v30c40 10 60 25 60 80v435h-50v45h50v30c0 50 -20 65 -50 75v30l202 45h8v-180h60v-45h-60v-120h2c38 50 110 85 183 85c67 0 135 -40 135 -150v-250
c0 -55 19 -75 60 -75h124c195 0 272 39 206 171c-30 60 100 100 100 -10c0 -80 -71 -196 -306 -196z" />
    <glyph glyph-name="hcircumflex.end" horiz-adv-x="1050" 
d="M744 0h-384v30c30 15 40 25 40 80v240c0 45 -30 60 -60 60c-31 0 -70 -10 -100 -25v-275c0 -55 20 -70 60 -80v-30h-280v30c40 10 60 25 60 80v510c0 50 -20 65 -50 75v30l202 45h8v-345h2c38 50 110 85 183 85c67 0 135 -40 135 -150v-250c0 -55 19 -75 60 -75h124
c195 0 272 39 206 171c-30 60 100 100 100 -10c0 -80 -71 -196 -306 -196zM160 845l-105 -75h-50l125 180h60l125 -180h-50z" />
    <glyph glyph-name="ibreve" unicode="&#x12d;" horiz-adv-x="300" 
d="M240 510v-400c0 -55 20 -70 60 -80v-30h-280v30c40 10 60 25 60 80v250c0 50 -20 65 -50 75v30l202 45h8zM160 570c90 0 135 78 135 151h-48c-11 -51 -56 -63 -87 -63s-76 12 -87 63h-48c0 -73 45 -151 135 -151z" />
    <glyph glyph-name="imacron" unicode="&#x12b;" horiz-adv-x="300" 
d="M236 510v-400c0 -55 20 -70 60 -80v-30h-280v30c40 10 60 25 60 80v250c0 50 -20 65 -50 75v30l202 45h8zM-10 645h330v-55h-330v55z" />
    <glyph glyph-name="iogonek" unicode="&#x12f;" horiz-adv-x="300" 
d="M240 -160v-35c-18 -23 -60 -40 -90 -40c-123 0 -137 138 0 235h-130v30c40 10 60 25 60 80v250c0 50 -20 65 -50 75v30l202 45h8v-400c0 -55 20 -70 60 -80v-30h-105c-84 -78 -79 -211 45 -160zM68 677c0 51 41 93 92 93s93 -42 93 -93s-42 -92 -93 -92s-92 41 -92 92z
" />
    <glyph glyph-name="itilde" unicode="&#x129;" horiz-adv-x="300" 
d="M236 510v-400c0 -55 20 -70 60 -80v-30h-280v30c40 10 60 25 60 80v250c0 50 -20 65 -50 75v30l202 45h8zM-5 560l-35 20c21 43 74 130 120 130c40 0 121 -40 160 -40c35 0 59 10 75 30l35 -20c-21 -42 -69 -120 -115 -120c-47 0 -118 40 -165 40c-36 0 -59 -21 -75 -40z
" />
    <glyph glyph-name="ij" unicode="&#x133;" horiz-adv-x="579" 
d="M240 510v-400c0 -55 20 -70 60 -80v-30h-280v30c40 10 60 25 60 80v250c0 50 -20 65 -50 75v30l202 45h8zM68 677c0 51 41 93 92 93s93 -42 93 -93s-42 -92 -93 -92s-92 41 -92 92zM539 510v-465c0 -175 -130 -315 -210 -315c-110 0 -70 130 -10 100
c132 -66 60 60 60 215v315c0 50 -20 65 -50 75v30l202 45h8zM367 677c0 51 41 93 92 93s93 -42 93 -93s-42 -92 -93 -92s-92 41 -92 92z" />
    <glyph glyph-name="jcircumflex" unicode="&#x135;" horiz-adv-x="279" 
d="M239 510v-465c0 -175 -130 -315 -210 -315c-110 0 -70 130 -10 100c132 -66 60 60 60 215v315c0 50 -20 65 -50 75v30l202 45h8zM159 625l-105 -75h-50l125 180h60l125 -180h-50z" />
    <glyph glyph-name="dotlessj" unicode="&#xf6be;" horiz-adv-x="279" 
d="M239 510v-465c0 -175 -130 -315 -210 -315c-110 0 -70 130 -10 100c132 -66 60 60 60 215v315c0 50 -20 65 -50 75v30l202 45h8z" />
    <glyph glyph-name="kcommaaccent" unicode="&#x137;" 
d="M240 220v-110c0 -55 20 -70 60 -80v-30h-280v30c40 10 60 25 60 80v510c0 50 -20 65 -50 75v30l202 45h8v-475c30 0 61 6 85 35l50 60c34 42 37 70 -35 80v30h235v-30c-54 -10 -87 -15 -115 -50l-90 -105l141 -190c65 -83 74 -80 99 -95v-30h-260v30c20 5 26 16 -15 75
l-55 80c-21 29 -30 35 -40 35zM297 -36c74 0 91 -66 91 -110c0 -101 -80 -176 -141 -198l-21 32c94 44 123 134 68 134c-36 0 -66 26 -66 73c0 36 33 69 69 69z" />
    <glyph glyph-name="kgreenlandic" unicode="&#x138;" 
d="M240 220v-110c0 -55 20 -70 60 -80v-30h-280v30c40 10 60 25 60 80v250c0 50 -20 65 -50 75v30l202 45h8v-215c30 0 61 6 85 35l50 60c34 42 37 70 -35 80v30h235v-30c-54 -10 -87 -15 -115 -50l-90 -105l141 -190c65 -83 74 -80 99 -95v-30h-260v30c20 5 26 16 -15 75
l-55 80c-21 29 -30 35 -40 35z" />
    <glyph glyph-name="lacute" unicode="&#x13a;" horiz-adv-x="300" 
d="M240 770v-660c0 -55 20 -70 60 -80v-30h-280v30c40 10 60 25 60 80v510c0 50 -20 65 -50 75v30l202 45h8zM145 810l149 108c66 48 -32 122 -71 62l-98 -151z" />
    <glyph glyph-name="lcaron" unicode="&#x13e;" horiz-adv-x="300" 
d="M240 770v-660c0 -55 20 -70 60 -80v-30h-280v30c40 10 60 25 60 80v510c0 50 -20 65 -50 75v30l202 45h8zM339 784c74 0 91 -66 91 -110c0 -101 -80 -176 -141 -198l-21 32c94 44 123 134 68 134c-36 0 -66 26 -66 73c0 36 33 69 69 69z" />
    <glyph glyph-name="lcommaaccent" unicode="&#x13c;" horiz-adv-x="300" 
d="M240 770v-660c0 -55 20 -70 60 -80v-30h-280v30c40 10 60 25 60 80v510c0 50 -20 65 -50 75v30l202 45h8zM149 -36c74 0 91 -66 91 -110c0 -101 -80 -176 -141 -198l-21 32c94 44 123 134 68 134c-36 0 -66 26 -66 73c0 36 33 69 69 69z" />
    <glyph glyph-name="ldot" unicode="&#x140;" horiz-adv-x="366" 
d="M240 770v-660c0 -55 20 -70 60 -80v-30h-280v30c40 10 60 25 60 80v510c0 50 -20 65 -50 75v30l202 45h8zM249 358c0 38 28 65 64 65s64 -27 64 -65s-28 -63 -64 -63s-64 25 -64 63z" />
    <glyph glyph-name="l.end" horiz-adv-x="730" 
d="M300 35h124c195 0 272 39 206 171c-30 60 100 100 100 -10c0 -80 -71 -196 -306 -196h-404v30c40 10 60 25 60 80v510c0 50 -20 65 -50 75v30l202 45h8v-660c0 -55 19 -75 60 -75z" />
    <glyph glyph-name="lacute.end" horiz-adv-x="730" 
d="M300 35h124c195 0 272 39 206 171c-30 60 100 100 100 -10c0 -80 -71 -196 -306 -196h-404v30c40 10 60 25 60 80v510c0 50 -20 65 -50 75v30l202 45h8v-660c0 -55 19 -75 60 -75zM151 810l149 108c66 48 -32 122 -71 62l-98 -151z" />
    <glyph glyph-name="lcaron.end" horiz-adv-x="730" 
d="M300 35h124c195 0 272 39 206 171c-30 60 100 100 100 -10c0 -80 -71 -196 -306 -196h-404v30c40 10 60 25 60 80v510c0 50 -20 65 -50 75v30l202 45h8v-660c0 -55 19 -75 60 -75zM338 780c74 0 91 -66 91 -110c0 -101 -80 -176 -141 -198l-21 32c94 44 123 134 68 134
c-36 0 -66 26 -66 73c0 36 33 69 69 69z" />
    <glyph glyph-name="lcommaaccent.end" horiz-adv-x="730" 
d="M300 35h124c195 0 272 39 206 171c-30 60 100 100 100 -10c0 -80 -71 -196 -306 -196h-404v30c40 10 60 25 60 80v510c0 50 -20 65 -50 75v30l202 45h8v-660c0 -55 19 -75 60 -75zM148 -36c74 0 91 -66 91 -110c0 -101 -80 -176 -141 -198l-21 32c94 44 123 134 68 134
c-36 0 -66 26 -66 73c0 36 33 69 69 69z" />
    <glyph glyph-name="lslash.end" horiz-adv-x="730" 
d="M20 375h60v245c0 50 -20 65 -50 75v30l202 45h8v-395h60v-45h-60v-220c0 -55 19 -75 60 -75h124c195 0 272 39 206 171c-30 60 100 100 100 -10c0 -80 -71 -196 -306 -196h-404v30c40 10 60 25 60 80v220h-60v45z" />
    <glyph glyph-name="m.end" horiz-adv-x="1350" 
d="M1044 0h-384v30c30 15 40 25 40 80v240c0 45 -20 60 -50 60c-31 0 -65 -15 -100 -45v-255c0 -55 20 -70 60 -80v-30h-260v30c30 15 40 25 40 80v240c0 45 -20 60 -50 60c-31 0 -65 -15 -100 -45v-255c0 -55 20 -70 60 -80v-30h-280v30c40 10 60 25 60 80v250
c0 50 -20 65 -50 75v30l205 45h8l-3 -105h2c38 65 100 105 173 105c58 0 117 -30 131 -110h3c38 65 103 110 176 110c67 0 135 -40 135 -150v-250c0 -55 19 -75 60 -75h124c195 0 272 39 206 171c-30 60 100 100 100 -10c0 -80 -71 -196 -306 -196z" />
    <glyph glyph-name="nacute" unicode="&#x144;" horiz-adv-x="620" 
d="M20 0v30c40 10 60 25 60 80v250c0 50 -20 65 -50 75v30l205 45h8l-3 -105h2c38 65 110 105 183 105c67 0 135 -40 135 -150v-250c0 -55 20 -70 60 -80v-30h-260v30c30 15 40 25 40 80v240c0 45 -30 60 -60 60c-31 0 -65 -15 -100 -45v-255c0 -55 20 -70 60 -80v-30h-280z
M312 550l149 108c66 48 -32 122 -71 62l-98 -151z" />
    <glyph glyph-name="napostrophe" unicode="&#x149;" horiz-adv-x="620" 
d="M20 0v30c40 10 60 25 60 80v250c0 50 -20 65 -50 75v30l205 45h8l-3 -105h2c38 65 110 105 183 105c67 0 135 -40 135 -150v-250c0 -55 20 -70 60 -80v-30h-260v30c30 15 40 25 40 80v240c0 45 -30 60 -60 60c-31 0 -65 -15 -100 -45v-255c0 -55 20 -70 60 -80v-30h-280z
M152 854c74 0 91 -66 91 -110c0 -101 -80 -176 -141 -198l-21 32c94 44 123 134 68 134c-36 0 -66 26 -66 73c0 36 33 69 69 69z" />
    <glyph glyph-name="ncaron" unicode="&#x148;" horiz-adv-x="620" 
d="M20 0v30c40 10 60 25 60 80v250c0 50 -20 65 -50 75v30l205 45h8l-3 -105h2c38 65 110 105 183 105c67 0 135 -40 135 -150v-250c0 -55 20 -70 60 -80v-30h-260v30c30 15 40 25 40 80v240c0 45 -30 60 -60 60c-31 0 -65 -15 -100 -45v-255c0 -55 20 -70 60 -80v-30h-280z
M324 655l-105 75h-50l125 -180h60l125 180h-50z" />
    <glyph glyph-name="ncommaaccent" unicode="&#x146;" horiz-adv-x="620" 
d="M20 0v30c40 10 60 25 60 80v250c0 50 -20 65 -50 75v30l205 45h8l-3 -105h2c38 65 110 105 183 105c67 0 135 -40 135 -150v-250c0 -55 20 -70 60 -80v-30h-260v30c30 15 40 25 40 80v240c0 45 -30 60 -60 60c-31 0 -65 -15 -100 -45v-255c0 -55 20 -70 60 -80v-30h-280z
M315 -36c74 0 91 -66 91 -110c0 -101 -80 -176 -141 -198l-21 32c94 44 123 134 68 134c-36 0 -66 26 -66 73c0 36 33 69 69 69z" />
    </font>
</defs>
</svg>
