<?xml version="1.0" encoding="utf-8"?>
<!-- Generator: Adobe Illustrator 18.0.0, SVG Export Plug-In . SVG Version: 6.00 Build 0)  -->
<!DOCTYPE svg PUBLIC "-//W3C//DTD SVG 1.1//EN" "http://www.w3.org/Graphics/SVG/1.1/DTD/svg11.dtd">
<svg version="1.1" id="Layer_1" xmlns="http://www.w3.org/2000/svg" xmlns:xlink="http://www.w3.org/1999/xlink" x="0px" y="0px"
	 viewBox="13.8 137.1 567.7 567.7" enable-background="new 13.8 137.1 567.7 567.7" xml:space="preserve">
<g>
	<path fill="#013E50" d="M297.6,137.1C141,137.1,13.8,264.3,13.8,420.9s127.5,283.8,283.8,283.8c156.6,0,283.8-127.5,283.8-283.8
		C581.5,264.3,454.2,137.1,297.6,137.1z M570.3,419.2h-50.5c0-4.7-0.3-9.4-0.9-13.8l50.5-4.1C570,407.1,570.3,413.3,570.3,419.2z
		 M507.4,487.3l-43.2-14.1c2.4-7.6,4.1-15.3,5.6-23.2l44.4,7.1C512.7,467.4,510.4,477.4,507.4,487.3z M297.6,643.7
		c-97.8,0-180.7-64.3-208.9-153.1l43.5-14.1c23.2,69,88.4,119,165.4,119c76.7,0,142.2-49.9,165.4-119l43.5,14.1
		C478.3,579.3,395.5,643.7,297.6,643.7z M81.1,457.1l44.4-7.1c1.5,7.9,3.2,15.6,5.6,23.2l-43.2,14.1
		C84.9,477.4,82.6,467.4,81.1,457.1z M90.2,355.4l41.1,13.2c-2.4,7.6-4.1,15.3-5.6,23.2l-43.2-6.8C84.3,374.8,87,365.1,90.2,355.4z
		 M103.4,324l37.9,19.4c-3.5,7.1-6.5,14.4-9.1,22l-41.1-13.2C94.6,342.5,98.7,333.1,103.4,324z M121.6,295.2l34.1,24.7
		c-4.7,6.5-8.8,13.2-12.6,20.3l-37.9-19.4C109.9,311.9,115.5,303.4,121.6,295.2z M143.7,269.6l29.4,29.4
		c-5.6,5.6-10.9,11.8-15.6,18.2l-34.1-24.7C129.9,284.3,136.6,276.7,143.7,269.6z M471.6,292.3l-33.8,24.7
		c-4.7-6.5-10-12.3-15.6-18.2l29.4-29.4C458.7,276.7,465.4,284.3,471.6,292.3z M490.1,320.8l-37.9,19.4c-3.8-7.1-7.9-13.8-12.6-20.3
		l34.1-24.7C479.8,303.4,485.4,311.9,490.1,320.8z M503.9,352.2l-41.1,13.2c-2.6-7.6-5.6-15-9.1-22l37.9-19.4
		C496.6,333.1,500.7,342.5,503.9,352.2z M512.7,385.1l-43.2,6.8c-1.5-7.9-3.2-15.6-5.6-23.2l41.1-13.2
		C508.3,365.1,511,374.8,512.7,385.1z M516.5,424.8c0,9.7-0.6,19.4-2.1,28.5l-44.4-6.8c1.2-7.6,1.8-15.9,1.8-23.8h44.4
		C516.5,423.3,516.5,424.2,516.5,424.8z M297.6,591.9c-94.3,0-171-76.7-171-171s76.7-171,171-171s171,76.7,171,171
		S392,591.9,297.6,591.9z M78.7,424.8c0-0.9,0-1.5,0-2.1h44.4c0,7.9,0.6,16.2,1.8,23.8l-44.4,7.1C79.3,444.2,78.7,434.8,78.7,424.8z
		 M472.2,419.2c0-7.9-0.6-16.2-1.8-23.8l43.2-6.8c1.8,10,2.6,20.3,2.9,30.6H472.2z M419.6,296.4c-5.6-5.6-11.8-10.9-18.2-15.6
		l24.1-33.2c8.2,5.9,15.9,12.3,23.2,19.4L419.6,296.4z M398.7,278.7c-6.5-4.7-13.2-8.8-20.3-12.6l18.5-36.4
		c9.1,4.7,17.6,9.7,25.9,15.6L398.7,278.7z M375.2,264.6c-7.1-3.5-14.4-6.5-22-9.1l12.6-38.8c9.7,3.2,19.1,7.1,27.9,11.5
		L375.2,264.6z M349.9,254.3c-7.6-2.4-15.3-4.1-23.2-5.6l6.5-40c10,1.8,20,3.8,29.4,6.8L349.9,254.3z M323.2,248.5
		c-7.6-1.2-15.9-1.8-23.8-1.8v-40.5c10.3,0,20.3,0.9,30.3,2.4L323.2,248.5z M295.9,246.4c-7.9,0-16.2,0.6-23.8,1.8l-6.5-39.7
		c10-1.5,20-2.4,30.3-2.4V246.4L295.9,246.4z M262.4,208.8l6.5,40c-7.9,1.5-15.6,3.2-23.2,5.6L233,215.6
		C242.4,212.9,252.1,210.6,262.4,208.8z M229.5,217l12.6,38.5c-7.6,2.6-15,5.6-22,9.1l-18.5-36.4C210.4,223.8,219.8,220,229.5,217z
		 M198.3,230l18.5,36.4c-7.1,3.8-13.8,7.9-20.3,12.6l-24.1-33.2C180.7,239.7,189.2,234.7,198.3,230z M169.5,247.6l24.1,33.2
		c-6.5,4.7-12.3,10-18.2,15.6L146,267C153.7,259.9,161.3,253.5,169.5,247.6z M82,388.6l43.2,6.8c-1.2,7.6-1.8,15.9-1.8,23.8H79
		C79.3,408.9,80.2,398.6,82,388.6z M569.4,397.7l-50.5,4.1c-0.6-4.7-1.2-9.1-2.1-13.8l50.2-7.9C568.2,386,568.8,391.9,569.4,397.7z
		 M566.8,376.6l-50.5,7.9c-0.9-4.7-1.8-9.1-2.9-13.5l49.9-12C564.7,364.8,565.9,370.7,566.8,376.6z M562.4,355.7l-49.9,12
		c-1.2-4.4-2.6-8.8-4.1-13.2l49.1-15.9C559.4,344,560.9,349.8,562.4,355.7z M556.5,334.9l-49.1,15.9c-1.5-4.4-3.2-8.8-5-12.9
		l47.9-20C552.4,323.7,554.7,329.3,556.5,334.9z M548.9,314.9l-47.9,20c-1.8-4.1-3.8-8.2-5.9-12.3l46.4-23.8
		C544.2,304,546.5,309.6,548.9,314.9z M539.7,295.5l-46.4,23.8c-2.1-4.1-4.4-7.9-7.1-12l44.7-27.3
		C534.2,285.2,537.1,290.2,539.7,295.5z M529.2,277l-44.7,27.3c-2.6-3.8-5-7.6-7.9-11.5l42.6-30.9C522.7,267,525.9,272,529.2,277z
		 M517.1,259.3l-42.6,31.1c-2.9-3.5-5.6-7.3-8.8-10.6l40.3-34.4C509.8,249.6,513.6,254.3,517.1,259.3z M297.6,148.3
		c82.3,0,156,36.4,206,94.3L463.4,277c-40.8-45.5-99.9-74.3-165.7-74.3s-124.9,28.5-165.4,74L92,242
		C141.9,184.7,215.7,148.3,297.6,148.3z M89.6,244.7l40.3,34.4c-2.9,3.5-5.9,7.1-8.8,10.6l-42.6-30.9
		C82,254.1,85.8,249.4,89.6,244.7z M76.4,261.7l42.6,31.1c-2.9,3.8-5.6,7.6-8.2,11.8l-44.7-27.3C69.3,271.7,72.9,266.7,76.4,261.7z
		 M64.3,279.9l44.7,27.3c-2.4,3.8-4.7,7.9-7.1,12l-46.4-23.8C58.2,290.2,61.1,285.2,64.3,279.9z M53.8,298.7l46.4,23.8
		c-2.1,4.1-4.1,8.2-5.9,12.3l-47.9-20C48.8,309.6,51.1,304,53.8,298.7z M45,318.1l47.9,20c-1.8,4.1-3.5,8.5-5,12.9l-49.1-15.9
		C40.8,329.3,42.9,323.7,45,318.1z M37.6,338.4l49.1,15.9c-1.5,4.4-2.9,8.8-4.1,13.2l-49.9-12C34.4,349.8,35.8,344,37.6,338.4z
		 M32,358.9L82,371c-1.2,4.4-2.1,9.1-2.9,13.5l-50.5-7.9C29.4,370.7,30.6,364.8,32,358.9z M27.9,380.1l50.2,7.9
		c-0.9,4.7-1.5,9.1-2.1,13.8l-50.2-4.1C26.4,391.9,27,386,27.9,380.1z M25.6,401.3l50.5,4.1c-0.3,4.7-0.6,9.1-0.9,13.8H24.7
		C25,413.3,25.3,407.1,25.6,401.3z M25,422.7h50.2c0,0.6,0,1.5,0,2.1c0,3.8,0,7.9,0.3,11.8l-49.9,3.8C25.3,434.8,25,428.6,25,422.7z
		 M25.9,444.2l49.9-3.8c0.3,4.7,0.9,9.4,1.5,13.8l-49.4,7.9C27,455.9,26.4,450,25.9,444.2z M28.5,465.3l49.1-7.6
		c0.6,4.7,1.5,9.1,2.6,13.8L32,482.9C30.6,477.1,29.4,471.2,28.5,465.3z M32.9,486.5L81.1,475c1.2,4.7,2.4,9.1,3.5,13.5l-46.7,15.3
		C35.8,497.9,34.4,492,32.9,486.5z M38.8,507l46.7-15.3c1.5,4.4,2.9,8.8,4.7,13.2L45,523.8C42.9,518.2,40.8,512.6,38.8,507z
		 M46.4,527l45.2-18.8c1.8,4.4,3.5,8.8,5.6,12.9l-43.2,22C51.1,537.9,48.8,532.6,46.4,527z M55.5,546.4l43.2-22
		c2.1,4.1,4.4,8.2,6.8,12.3L64.3,562C61.1,557,58.2,551.7,55.5,546.4z M66.1,564.9l41.1-25.3c2.4,4.1,5,7.9,7.6,11.8l-38.8,28.2
		C72.6,574.9,69.3,569.9,66.1,564.9z M78.2,582.5l38.8-28.2c2.6,3.8,5.6,7.6,8.5,11.2L89,596.6C85.5,592.2,81.7,587.5,78.2,582.5z
		 M91.4,599.3l36.4-31.1c2.9,3.5,6.2,7.1,9.4,10.6l-33.8,33.8C99.6,608.1,95.5,604,91.4,599.3z M106.1,614.9l33.5-33.5
		c3.2,3.2,6.8,6.5,10.3,9.7L119,627.2C114.9,623.1,110.5,619.3,106.1,614.9z M121.9,629.3l30.9-35.8c3.5,3.2,7.3,6.2,11.2,8.8
		l-27.6,38.2C131.3,636.9,126.6,633.1,121.9,629.3z M139,642.5l27.6-38.2c3.8,2.9,7.6,5.6,11.8,7.9l-24.7,40
		C148.7,649.2,143.7,646,139,642.5z M156.6,654.2l24.7-40c4.1,2.4,8.2,4.7,12.3,7.1l-21.2,41.7C166.9,660.4,161.9,657.5,156.6,654.2
		z M175.4,664.8l21.2-41.7c4.1,2.1,8.5,4.1,12.9,6.2l-17.9,43.2C186.3,669.8,180.7,667.5,175.4,664.8z M194.8,673.6l17.9-43.2
		c4.4,1.8,8.8,3.5,13.2,5l-14.4,44.4C206,678,200.4,675.7,194.8,673.6z M215.1,681l14.4-44.4c4.4,1.5,9.1,2.9,13.8,3.8l-10.9,45.2
		C226.5,684.2,220.7,682.7,215.1,681z M235.6,686.6l10.9-45.2c4.7,1.2,9.4,2.1,14.1,2.9l-7.3,45.8
		C247.4,689.2,241.5,688,235.6,686.6z M256.8,690.7l7.3-45.8c4.7,0.6,9.4,1.2,14.1,1.8l-3.5,46.4
		C268.6,692.1,262.7,691.6,256.8,690.7z M278,693l3.5-46.4c4.7,0.3,9.4,0.6,14.4,0.6v46.4C290,693.6,283.8,693.3,278,693z
		 M299.4,693.6v-46.4c4.7,0,9.4-0.3,14.4-0.6l3.5,46.4C311.4,693.3,305.6,693.6,299.4,693.6z M320.9,692.7l-3.5-46.4
		c4.7-0.3,9.4-0.9,14.1-1.8l7.3,45.8C332.6,691.6,326.7,692.1,320.9,692.7z M342,690.1l-7.3-45.8c4.7-0.9,9.4-1.8,14.1-2.9
		l10.9,45.2C353.8,688,347.9,689.2,342,690.1z M363.2,685.7l-10.9-45.2c4.7-1.2,9.1-2.6,13.8-3.8l14.4,44.4
		C374.6,682.7,368.7,684.2,363.2,685.7z M383.7,679.8l-14.4-44.4c4.4-1.5,9.1-3.2,13.2-5l17.9,43.2
		C394.9,675.7,389.3,678,383.7,679.8z M403.7,672.2L385.8,629c4.4-1.8,8.5-3.8,12.9-6.2l21.2,41.7
		C414.6,667.5,409.3,669.8,403.7,672.2z M423.1,663.1l-21.2-41.7c4.1-2.4,8.2-4.7,12.3-7.1l24.7,40
		C433.7,657.5,428.4,660.4,423.1,663.1z M441.6,652.5l-24.7-40c4.1-2.6,7.9-5.3,11.8-7.9l27.6,38.2
		C451.6,646,446.6,649.2,441.6,652.5z M459.2,640.4l-27.6-38.2c3.8-2.9,7.3-5.9,10.9-8.8l30.9,36.1
		C468.9,633.1,464.2,636.9,459.2,640.4z M476,627.2l-30.9-36.1c3.5-3.2,7.1-6.5,10.3-9.7l33.5,33.5C484.8,619,480.7,623.1,476,627.2
		z M491.6,612.5l-33.5-33.8c3.2-3.5,6.5-6.8,9.4-10.6l36.4,31.1C499.8,603.7,496,608.1,491.6,612.5z M506,596.6l-36.4-31.1
		c2.9-3.5,5.9-7.3,8.5-11.2l38.8,28.2C513.6,587.5,509.8,591.9,506,596.6z M519.2,579.9l-38.8-28.2c2.6-3.8,5.3-7.9,7.6-11.8
		l41.1,25.3C525.9,569.9,522.7,574.9,519.2,579.9z M530.9,562l-41.1-25.3c2.4-4.1,4.7-8.2,6.8-12.3l43.2,22
		C537.1,551.7,534.2,556.7,530.9,562z M541.5,543.2l-43.2-22c2.1-4.1,3.8-8.5,5.6-12.9l45.2,18.8
		C546.5,532.3,544.2,537.9,541.5,543.2z M550.3,523.8L505.1,505c1.8-4.4,3.2-8.8,4.7-13.2l46.7,15.3
		C554.7,512.6,552.4,518.2,550.3,523.8z M557.7,503.5L511,488.2c1.5-4.4,2.6-9.1,3.5-13.5l48.2,11.5
		C560.9,492,559.4,497.9,557.7,503.5z M563.3,482.9l-48.2-11.5c0.9-4.4,1.8-9.1,2.6-13.8l49.1,7.6
		C565.9,471.2,564.7,477.1,563.3,482.9z M567.4,461.8l-49.4-7.9c0.6-4.7,1.2-9.1,1.5-13.8l49.9,3.8
		C568.8,450,568.2,455.9,567.4,461.8z M569.7,440.6l-49.9-3.8c0.3-3.8,0.3-7.9,0.3-11.8c0-0.9,0-1.5,0-2.1h50.2
		C570.3,428.6,570,434.8,569.7,440.6z"/>
	<path fill="#013E50" d="M298.5,326.6c-52,0-94.3,42.3-94.3,94.3s42.3,94.3,94.3,94.3s94.3-42.3,94.3-94.3S350.5,326.6,298.5,326.6z
		 M298.5,511.7c-49.9,0-90.8-40.5-90.8-90.8c0-49.9,40.5-90.8,90.8-90.8c49.9,0,90.8,40.5,90.8,90.8
		C389.3,470.9,348.5,511.7,298.5,511.7z"/>
	<path fill="#013E50" d="M301.2,549.9c-31.4,0-65.5-14.7-91.4-39.4c-24.7-24.1-38.2-55.5-38.2-87.9c0-71.1,59.4-131,129.6-131
		c26.2,0,54.4,10,75.8,26.4l15-15c-25.3-20.3-57.3-32-89.6-32c-40.3,0-78.2,15.6-107,44.1c-29.1,28.5-45,66.1-45,106.1
		c0,80.8,69.6,149,151.9,149c32.3,0,63.5-10.9,90.5-31.4l-15-15C355.8,539.6,326.4,549.9,301.2,549.9z"/>
	<path fill="#013E50" d="M150.1,248.5c3.2-2.6,5.3-6.5,5.6-9.7l-3.2-1.2c-0.6,2.9-2.1,5.9-4.4,7.9c-5.9,5-13.2,4.4-18.5-1.5
		c-5.3-5.9-5-13.5,0.6-18.2c2.6-2.4,5-3.2,7.9-3.5l-0.6-3.5c-3.2,0-6.5,1.5-9.7,4.1c-7.9,6.8-7.6,16.7-1.2,23.8
		C132.8,254.6,142.5,254.9,150.1,248.5z"/>
	<path fill="#013E50" d="M170.1,232.3l-1.5-10.9l12.9-7.9l8.8,6.5l3.8-2.4l-29.4-21.4l-2.9,1.8l5,36.1L170.1,232.3z M178.3,211.5
		l-10.3,5.9L166,202L178.3,211.5z"/>
	<polygon fill="#013E50" points="228.3,204.4 227.1,200.6 211.6,206.5 201.3,178.8 197.4,180.3 209.2,211.5 	"/>
	<polygon fill="#013E50" points="252.4,198.5 259.1,163 255,163.6 250,192.9 233.3,168.3 228.9,169.1 249.5,199.1 	"/>
	<polygon fill="#013E50" points="300.9,193.5 300.9,189.7 285.6,190.3 285.3,179.1 298.5,178.5 298.5,174.7 285,175.3 284.7,164.4 
		299.4,163.9 299.4,160.3 280.6,160.9 281.8,194.1 	"/>
	<path fill="#013E50" d="M325.3,181.8l5.3,0.6l8.5,14.4l5,0.6l-9.4-15.3c3.8-0.6,7.6-3.2,8.2-8.5c0.6-5.3-1.5-10.3-10.6-11.2
		c-0.9,0-7.1-0.9-8.8-0.9l-4.1,33.2l4.1,0.6L325.3,181.8z M327.3,165.9c1.5,0,3.5,0.3,4.7,0.6c5.9,0.6,7.3,3.5,7.1,7.1
		c-0.6,3.8-4.4,5.9-8.2,5.3l-5-0.6L327.3,165.9z"/>
	<polygon fill="#013E50" points="365.2,203.5 369,204.7 377.6,176.5 388.7,180 389.9,176.2 363.7,168.3 362.6,171.8 373.7,175.3 	
		"/>
	<path fill="#013E50" d="M431,231.1l-12.9-8.2c3.5-0.6,18.5-2.9,23.5-10.9c2.1-3.5,2.1-8.8-3.2-12c-3.8-2.4-8.8-2.4-12.3,1.5
		l2.1,2.9c2.4-2.6,5.6-2.6,7.9-1.5c2.9,2.1,3.2,5,1.8,7.3c-3.8,5.9-16.5,8.5-24.1,10.3l-1.8,2.6l17.3,10.9L431,231.1z"/>
	<path fill="#013E50" d="M466.9,225.6c2.6,2.4,2.6,5.3,0.6,7.6c-4.7,5.3-17.6,6.2-25.3,6.8l-2.1,2.4l15.6,13.2l2.4-2.6l-11.8-10
		c3.5,0,18.8-0.3,24.7-7.3c2.6-3.2,3.2-8.2-1.5-12.3c-3.5-2.9-8.5-3.5-12.3-0.3l1.5,3.2C461.6,223.5,464.8,223.8,466.9,225.6z"/>
	<polygon fill="#013E50" points="132.5,504.1 139.3,517 142.8,515.6 134.3,498.5 104.6,513.8 106.4,517.3 118.7,511.1 124.9,522.9 
		128.1,521.1 122.2,509.4 	"/>
	<path fill="#013E50" d="M138.1,539.6c-7.6,6.8-8.2,16.7-1.8,24.1s16.5,8.2,24.1,1.8c7.6-6.8,8.2-16.7,1.8-24.1
		C155.7,534.1,145.4,533.5,138.1,539.6z M157.5,562.3c-5.6,5-13.5,5-18.5-0.9c-4.7-5.3-3.8-13.5,1.8-18.2c5.9-5,13.8-4.7,18.5,0.9
		C164,549.3,163.4,557.3,157.5,562.3z"/>
	<path fill="#013E50" d="M195.1,594c-4.1,6.2-9.1,7.6-13.8,4.4c-5.3-3.5-5.6-9.1-1.8-15l10.3-15.3l-3.2-2.4L176,581.7
		c-5.3,8.2-3.2,15.6,3.2,20c5.6,3.8,12.9,3.8,18.8-4.7l10.9-16.2l-3.2-2.4L195.1,594z"/>
	<polygon fill="#013E50" points="241.5,622.5 230.4,590.8 227.1,589.9 216.5,621.3 220.1,622.8 228.6,597.8 239.8,629.3 243,630.4 
		253.6,598.7 250,597.5 	"/>
	<path fill="#013E50" d="M283.2,602.8c-2.6-0.3-6.5-0.3-8.5-0.3h-0.6l-2.1,33.2h0.6c2.9,0.3,5.9,0.3,8.2,0.6
		c12.6,0.9,19.4-6.5,20-16.2C301.5,611.6,296.5,603.7,283.2,602.8z M281.2,632.5c-0.6,0-2.6-0.3-4.7-0.3l1.5-25.6c1.8,0,2.9,0,5,0
		c9.7,0.6,14.1,6.2,13.8,13.5C296.2,627.8,290.6,633.1,281.2,632.5z"/>
	<path fill="#013E50" d="M329.1,600.5l-7.6,35.6l4.1-0.9l2.4-10.6l15-2.9l6.2,9.1l4.1-0.9l-20.6-30.3L329.1,600.5z M328.5,620.4
		l3.2-15l8.5,12.9L328.5,620.4z"/>
	<polygon fill="#013E50" points="382,587 380.5,583.4 355.2,594.3 356.7,597.8 367.6,593.1 379.3,620.2 383.1,618.7 371.4,591.7 	
		"/>
	
		<rect x="390.3" y="584.3" transform="matrix(0.5621 0.8271 -0.8271 0.5621 663.2072 -79.846)" fill="#013E50" width="33.5" height="4.1"/>
	<path fill="#013E50" d="M426.6,547.3c-6.8,7.3-6.2,17.6,0.9,24.1c7.3,7.1,17.6,6.5,24.1-0.6c6.8-7.1,6.5-17.3-0.9-24.1
		C443.4,539.6,433.4,540.2,426.6,547.3z M449,568.1c-5,5.3-12.9,5.3-18.5,0c-5.6-5.3-5.9-13.2-0.9-18.5c5-5.3,12.6-5.3,18.5,0
		C453.4,554.9,454.2,562.6,449,568.1z"/>
	<polygon fill="#013E50" points="491.3,510.9 461.9,495.3 460.1,498.8 483.3,510.9 450.4,517.3 449,520 478.3,535.5 480.1,532 
		456.9,520 489.8,513.8 	"/>
	<path fill="#013E50" d="M291.2,403.6c0-9.7-6.8-20.3-22-20.3c-12,0-21.2,7.1-23.2,18.5l-0.3,1.2l12.6,5.6l0.3-1.5
		c1.5-5.6,4.7-8.8,9.1-8.8c5,0,7.9,2.9,7.9,7.9c0,12.6-15.6,27.9-27,39.1l-3.2,2.9v11.5h48.5v-13.8h-27.9
		C276.8,436.5,291.2,420.7,291.2,403.6z"/>
	<path fill="#013E50" d="M348.8,403.6c0-9.7-6.8-20.3-22-20.3c-12,0-21.2,7.1-23.2,18.5l-0.3,1.2l12.6,5.6l0.3-1.5
		c1.5-5.6,4.7-8.8,9.1-8.8c5,0,7.9,2.9,7.9,7.9c0,12.6-15.6,27.9-27,39.1l-2.9,2.9v11.5h48.5v-13.8h-27.9
		C334.4,436.5,348.8,420.7,348.8,403.6z"/>
</g>
</svg>
