<?xml version="1.0" encoding="utf-8"?>
<!-- Generator: Adobe Illustrator 18.0.0, SVG Export Plug-In . SVG Version: 6.00 Build 0)  -->
<!DOCTYPE svg PUBLIC "-//W3C//DTD SVG 1.1//EN" "http://www.w3.org/Graphics/SVG/1.1/DTD/svg11.dtd">
<svg version="1.1" id="Layer_1" xmlns="http://www.w3.org/2000/svg" xmlns:xlink="http://www.w3.org/1999/xlink" x="0px" y="0px"
	 viewBox="0 405.7 595.3 30.6" enable-background="new 0 405.7 595.3 30.6" xml:space="preserve">
<g>
	<polygon fill="#013E50" points="102.6,435.6 98.7,435.6 86.5,406.3 92.2,406.3 100.8,428.1 109.2,406.3 114.3,406.3 	"/>
	<g>
		<path fill="#013E50" d="M24.6,432.8c-1.9,1.9-5.6,3.3-9.5,3.3c-9,0-15.1-6-15.1-15.1c0-8.4,5.3-15.3,15.1-15.3c3.9,0,7,1.2,9,3
			l-2.3,3.9c-1.8-1.2-3.7-1.9-6.7-1.9c-5.5,0-9.7,3.9-9.7,10.4c0,6.2,4.2,10.4,10.2,10.4c2.5,0,4.9-0.9,7-2.3L24.6,432.8z"/>
	</g>
	<path fill="#013E50" d="M42.4,406.3H47l12.5,29.6H54l-3.2-7.6H38.2l-3,7.6h-5.3L42.4,406.3z M40.3,423.3h8.6l-4.2-10.6L40.3,423.3z
		"/>
	<polygon fill="#013E50" points="68.1,406.3 73.2,406.3 73.2,430.9 82.3,430.9 82.3,435.8 68.1,435.8 	"/>
	<polygon fill="#013E50" points="124.4,406.3 141.4,406.3 141.4,411.2 129.5,411.2 129.5,418.4 140.2,418.4 140.2,423.3 
		129.5,423.3 129.5,430.9 141.8,430.9 141.8,435.8 124.4,435.8 	"/>
	<g>
		<path fill="#013E50" d="M152.9,435.8v-29.6c1.6,0,8.1,0,9,0c8.1,0,10.7,4,10.7,9.1c0,5.1-3.2,7.6-5.6,8.4l4,5.5
			c1.1,1.4,3,2.5,4.6,2.1v4.6c-2.5,0.9-6,0-8.4-3.7l-5.3-7.4h-3.7V436h-5.3V435.8z M158,411.2v8.8h3.3c3,0,5.6-1.6,5.6-4.6
			c0-2.3-1.2-4.2-5.5-4.2C160.6,411,159.4,411,158,411.2"/>
	</g>
	<polygon fill="#013E50" points="181.2,405.7 199,405.7 199,410.7 192.6,410.7 192.6,435.6 187.5,435.6 187.5,410.7 181.2,410.7 	
		"/>
	<g>
		<path fill="#013E50" d="M590.2,435.5h5.1v-29.2h-5.1v16.9l-14.4-11.6v-5.3h-5.1v29.2h5.1v-17.2l14.4,11.6V435.5z M536,420.9
			c0-6,4.2-10.4,9.9-10.4c5.5,0,9.9,4.2,9.9,10.4c0,5.8-3.7,10.4-9.9,10.4C540.4,431.2,536,426.7,536,420.9 M530.5,420.9
			c0,9.1,6.5,15.1,15.3,15.1c8.6,0,15.3-6.3,15.3-15.1c0-9.1-6.5-15.1-15.3-15.1C536.9,405.7,530.5,412.4,530.5,420.9 M515.1,435.5
			h5.1v-29.2h-5.1V435.5z M488.7,411h6.2v24.5h5.1V411h6.2v-4.7h-17.4V411z M471.1,412.8l4.2,10.4h-8.6L471.1,412.8z M456.5,435.5
			h5.1l3-7.6h12.5l3,7.6h5.5l-12.3-29.4h-4.6L456.5,435.5z M435,410.8c7,0,11.1,3.7,11.1,9.7c0,6.2-4,10.2-11.3,10.2
			c-0.7,0-1.9,0-3.3,0V411C432.9,411,434,410.8,435,410.8 M426.6,435.5h0.5c2.6,0,6,0,7.7,0c11.1,0,16.7-6.7,16.7-15
			c0-7.7-4.7-14.4-16.4-14.4c-2.1,0-6.3,0.2-8.1,0.2h-0.5V435.5z M409.9,435.5h5.1v-29.2h-5.1v16.9l-14.4-11.6v-5.3h-5.1v29.2h5.1
			v-17.2l14.4,11.6V435.5z M378.9,406.3h-5.1v16c0,5.6-2.1,8.8-6.5,8.8c-5.1,0-7.4-3.7-7.4-9.1v-15.7h-5.1v16.9
			c0,8.6,5.1,12.8,12.5,12.8c6.2,0,11.6-3.7,11.6-12.5L378.9,406.3L378.9,406.3z M320.5,420.9c0-6,4.2-10.4,9.9-10.4
			c5.5,0,9.9,4.2,9.9,10.4c0,5.8-3.7,10.4-9.9,10.4C324.7,431.2,320.5,426.7,320.5,420.9 M315.1,420.9c0,9.1,6.5,15.1,15.3,15.1
			c8.6,0,15.3-6.3,15.3-15.1c0-9.1-6.5-15.1-15.3-15.1C321.2,405.7,315.1,412.4,315.1,420.9 M290.6,435.5h5.1V424h10.4v-4.7h-10.4
			V411h11.6v-4.7h-16.7V435.5z"/>
		<path fill="#013E50" d="M247.7,435.1H266v-4.4h-12.1c2.3-1.9,10.9-9.1,10.9-17.4c0-3.9-2.6-7.6-8.3-7.6c-4.6,0-7.9,2.6-8.8,6.9
			l4,1.8c0.7-2.5,2.1-3.9,4.2-3.9c2.5,0,3.7,1.4,3.7,3.7c0,5.6-7.4,12.3-12.1,17.1v3.9H247.7z M221.5,435.1h18.3v-4.4h-12.1
			c2.3-1.9,10.9-9.1,10.9-17.4c0-3.9-2.6-7.6-8.3-7.6c-4.6,0-7.9,2.6-8.8,6.9l4,1.8c0.7-2.5,2.1-3.9,4.2-3.9c2.5,0,3.7,1.4,3.7,3.7
			c0,5.6-7.4,12.3-12.1,17.1v3.9H221.5z"/>
	</g>
</g>
</svg>
