<?xml version="1.0" encoding="utf-8"?>
<!-- Generator: Adobe Illustrator 18.0.0, SVG Export Plug-In . SVG Version: 6.00 Build 0)  -->
<!DOCTYPE svg PUBLIC "-//W3C//DTD SVG 1.1//EN" "http://www.w3.org/Graphics/SVG/1.1/DTD/svg11.dtd">
<svg version="1.1" id="Layer_1" xmlns="http://www.w3.org/2000/svg" xmlns:xlink="http://www.w3.org/1999/xlink" x="0px" y="0px"
	 viewBox="0 0 338.4 17.3" enable-background="new 0 0 338.4 17.3" xml:space="preserve">
<g>
	<polygon fill="#FFFFFF" points="58.3,17 56.1,17 49.2,0.3 52.4,0.3 57.3,12.7 62.1,0.3 65,0.3 	"/>
	<g>
		<path fill="#FFFFFF" d="M14,15.4c-1.1,1.1-3.2,1.9-5.4,1.9C3.5,17.3,0,13.9,0,8.7C0,3.9,3,0,8.6,0c2.2,0,4,0.7,5.1,1.7l-1.3,2.2
			c-1-0.7-2.1-1.1-3.8-1.1C5.5,2.8,3.1,5,3.1,8.7c0,3.5,2.4,5.9,5.8,5.9c1.4,0,2.8-0.5,4-1.3L14,15.4z"/>
	</g>
	<path fill="#FFFFFF" d="M24.1,0.3h2.6l7.1,16.8h-3.1l-1.8-4.3h-7.2L20,17.1h-3L24.1,0.3z M22.9,10h4.9l-2.4-6L22.9,10z"/>
	<polygon fill="#FFFFFF" points="38.7,0.3 41.6,0.3 41.6,14.3 46.8,14.3 46.8,17.1 38.7,17.1 	"/>
	<polygon fill="#FFFFFF" points="70.7,0.3 80.4,0.3 80.4,3.1 73.6,3.1 73.6,7.2 79.7,7.2 79.7,10 73.6,10 73.6,14.3 80.6,14.3 
		80.6,17.1 70.7,17.1 	"/>
	<g>
		<path fill="#FFFFFF" d="M86.9,17.1V0.3c0.9,0,4.6,0,5.1,0c4.6,0,6.1,2.3,6.1,5.2c0,2.9-1.8,4.3-3.2,4.8l2.3,3.1
			c0.6,0.8,1.7,1.4,2.6,1.2v2.6c-1.4,0.5-3.4,0-4.8-2.1l-3-4.2h-2.1v6.3H86.9z M89.8,3.1v5h1.9c1.7,0,3.2-0.9,3.2-2.6
			c0-1.3-0.7-2.4-3.1-2.4C91.3,3,90.6,3,89.8,3.1"/>
	</g>
	<polygon fill="#FFFFFF" points="103,0 113.1,0 113.1,2.8 109.5,2.8 109.5,17 106.6,17 106.6,2.8 103,2.8 	"/>
	<g>
		<path fill="#FFFFFF" d="M335.5,16.9h2.9V0.3h-2.9v9.6l-8.2-6.6v-3h-2.9v16.6h2.9V7.1l8.2,6.6V16.9z M304.7,8.6
			c0-3.4,2.4-5.9,5.6-5.9c3.1,0,5.6,2.4,5.6,5.9c0,3.3-2.1,5.9-5.6,5.9C307.2,14.5,304.7,11.9,304.7,8.6 M301.6,8.6
			c0,5.2,3.7,8.6,8.7,8.6c4.9,0,8.7-3.6,8.7-8.6c0-5.2-3.7-8.6-8.7-8.6C305.2,0,301.6,3.8,301.6,8.6 M292.8,16.9h2.9V0.3h-2.9V16.9z
			 M277.8,3h3.5v13.9h2.9V3h3.5V0.3h-9.9V3z M267.8,4l2.4,5.9h-4.9L267.8,4z M259.5,16.9h2.9l1.7-4.3h7.1l1.7,4.3h3.1l-7-16.7h-2.6
			L259.5,16.9z M247.3,2.9c4,0,6.3,2.1,6.3,5.5c0,3.5-2.3,5.8-6.4,5.8c-0.4,0-1.1,0-1.9,0V3C246.1,3,246.7,2.9,247.3,2.9
			 M242.5,16.9h0.3c1.5,0,3.4,0,4.4,0c6.3,0,9.5-3.8,9.5-8.5c0-4.4-2.7-8.2-9.3-8.2c-1.2,0-3.6,0.1-4.6,0.1h-0.3V16.9z M233,16.9
			h2.9V0.3H233v9.6l-8.2-6.6v-3h-2.9v16.6h2.9V7.1l8.2,6.6V16.9z M215.4,0.3h-2.9v9.1c0,3.2-1.2,5-3.7,5c-2.9,0-4.2-2.1-4.2-5.2V0.3
			h-2.9v9.6c0,4.9,2.9,7.3,7.1,7.3c3.5,0,6.6-2.1,6.6-7.1V0.3z M182.2,8.6c0-3.4,2.4-5.9,5.6-5.9c3.1,0,5.6,2.4,5.6,5.9
			c0,3.3-2.1,5.9-5.6,5.9C184.6,14.5,182.2,11.9,182.2,8.6 M179.1,8.6c0,5.2,3.7,8.6,8.7,8.6c4.9,0,8.7-3.6,8.7-8.6
			c0-5.2-3.7-8.6-8.7-8.6C182.6,0,179.1,3.8,179.1,8.6 M165.2,16.9h2.9v-6.5h5.9V7.7h-5.9V3h6.6V0.3h-9.5V16.9z"/>
		<path fill="#FFFFFF" d="M140.8,16.7h10.4v-2.5h-6.9c1.3-1.1,6.2-5.2,6.2-9.9c0-2.2-1.5-4.3-4.7-4.3c-2.6,0-4.5,1.5-5,3.9l2.3,1
			c0.4-1.4,1.2-2.2,2.4-2.2c1.4,0,2.1,0.8,2.1,2.1c0,3.2-4.2,7-6.9,9.7V16.7z M125.9,16.7h10.4v-2.5h-6.9c1.3-1.1,6.2-5.2,6.2-9.9
			c0-2.2-1.5-4.3-4.7-4.3c-2.6,0-4.5,1.5-5,3.9l2.3,1c0.4-1.4,1.2-2.2,2.4-2.2c1.4,0,2.1,0.8,2.1,2.1c0,3.2-4.2,7-6.9,9.7V16.7z"/>
	</g>
</g>
</svg>
