<?xml version="1.0" encoding="utf-8"?>
<!-- Generator: Adobe Illustrator 18.0.0, SVG Export Plug-In . SVG Version: 6.00 Build 0)  -->
<!DOCTYPE svg PUBLIC "-//W3C//DTD SVG 1.1//EN" "http://www.w3.org/Graphics/SVG/1.1/DTD/svg11.dtd">
<svg version="1.1" xmlns="http://www.w3.org/2000/svg" xmlns:xlink="http://www.w3.org/1999/xlink" x="0px" y="0px"
	 viewBox="0 0 202.6 214.7" enable-background="new 0 0 202.6 214.7" xml:space="preserve">
<g id="Layer_1">
</g>
<g id="Layer_6">
</g>
<g id="Layer_8">
</g>
<g id="Layer_4">
	<g>
		<path fill="#0C464E" d="M101.3,0C45.4,0,0,45.4,0,101.3c0,55.9,45.4,101.3,101.3,101.3c55.9,0,101.3-45.4,101.3-101.3
			C202.6,45.4,157.2,0,101.3,0z M198.6,100.7l-18,0c0-1.7-0.1-3.3-0.3-5l18-1.4C198.5,96.4,198.6,98.5,198.6,100.7z M176.1,125
			l-15.4-5c0.8-2.7,1.5-5.5,2-8.3l15.9,2.5C178,117.9,177.2,121.5,176.1,125z M101.3,180.8c-34.9,0-64.5-23-74.5-54.6l15.5-5
			c8.3,24.6,31.6,42.4,59,42.4c27.4,0,50.7-17.8,59-42.4l15.5,5C165.8,157.8,136.2,180.8,101.3,180.8z M24.1,114.2l15.9-2.5
			c0.5,2.8,1.1,5.6,2,8.3l-15.4,5C25.4,121.5,24.6,117.9,24.1,114.2z M27.3,77.9l14.6,4.8c-0.8,2.7-1.5,5.5-2,8.3l-15.4-2.4
			C25.2,84.9,26.1,81.3,27.3,77.9z M32,66.7l13.5,6.9c-1.3,2.5-2.4,5.2-3.3,7.9l-14.6-4.8C28.9,73.3,30.4,69.9,32,66.7z M38.5,56.4
			l12.1,8.8c-1.6,2.3-3.1,4.7-4.5,7.3l-13.5-6.9C34.3,62.4,36.3,59.3,38.5,56.4z M46.4,47.3l10.5,10.5c-2,2-3.8,4.2-5.5,6.5
			l-12.1-8.8C41.4,52.5,43.8,49.8,46.4,47.3z M163.4,55.4l-12.1,8.8c-1.7-2.3-3.6-4.4-5.5-6.5l10.5-10.5
			C158.8,49.8,161.2,52.5,163.4,55.4z M170,65.6l-13.5,6.9c-1.3-2.5-2.8-4.9-4.5-7.3l12.1-8.8C166.3,59.3,168.3,62.4,170,65.6z
			 M174.9,76.7l-14.6,4.8c-0.9-2.7-2-5.3-3.3-7.9l13.5-6.9C172.2,69.9,173.7,73.3,174.9,76.7z M178.1,88.5l-15.4,2.4
			c-0.5-2.8-1.1-5.6-2-8.3l14.6-4.8C176.5,81.3,177.4,84.9,178.1,88.5z M179.4,102.7c0,3.5-0.2,6.9-0.7,10.2l-15.8-2.5
			c0.4-2.8,0.6-5.6,0.7-8.5l15.8,0C179.4,102.2,179.4,102.4,179.4,102.7z M101.3,162.3c-33.6,0-61-27.4-61-61c0-33.6,27.4-61,61-61
			c33.6,0,61,27.4,61,61C162.3,134.9,134.9,162.3,101.3,162.3z M23.2,102.7c0-0.3,0-0.5,0-0.8l15.8,0c0,2.9,0.2,5.7,0.7,8.5
			l-15.8,2.5C23.5,109.6,23.2,106.2,23.2,102.7z M163.5,100.7c0-2.9-0.2-5.7-0.7-8.5l15.4-2.4c0.6,3.6,1,7.2,1,10.9L163.5,100.7z
			 M144.8,56.9c-2-2-4.2-3.8-6.5-5.5l8.6-11.9c2.9,2.1,5.7,4.4,8.3,6.9L144.8,56.9z M137.4,50.6c-2.3-1.6-4.7-3.1-7.3-4.5l6.6-13
			c3.2,1.6,6.3,3.5,9.3,5.6L137.4,50.6z M129,45.6c-2.5-1.3-5.2-2.4-7.9-3.3l4.5-13.8c3.4,1.1,6.8,2.5,10,4.1L129,45.6z M119.9,41.9
			c-2.7-0.8-5.5-1.5-8.3-2l2.3-14.3c3.6,0.6,7.1,1.4,10.5,2.5L119.9,41.9z M110.4,39.7c-2.8-0.4-5.6-0.6-8.5-0.7V24.6
			c3.7,0,7.2,0.3,10.8,0.8L110.4,39.7z M100.7,39.1c-2.9,0-5.7,0.2-8.5,0.7l-2.3-14.3c3.5-0.5,7.1-0.8,10.8-0.8V39.1z M88.7,25.7
			l2.3,14.3c-2.8,0.5-5.6,1.1-8.3,2l-4.5-13.8C81.6,27.1,85.1,26.2,88.7,25.7z M77,28.5l4.5,13.8c-2.7,0.9-5.3,2-7.9,3.3l-6.6-13
			C70.2,31,73.5,29.6,77,28.5z M65.9,33.2l6.6,13c-2.5,1.3-4.9,2.8-7.3,4.5l-8.6-11.9C59.6,36.7,62.7,34.8,65.9,33.2z M55.6,39.5
			l8.6,11.9c-2.3,1.7-4.4,3.6-6.5,5.5L47.3,46.4C49.9,43.9,52.7,41.6,55.6,39.5z M24.3,89.7l15.4,2.4c-0.4,2.8-0.6,5.6-0.7,8.5
			l-15.8,0C23.4,97,23.7,93.3,24.3,89.7z M198.3,93l-18,1.4c-0.2-1.7-0.4-3.3-0.7-4.9l18-2.8C197.8,88.8,198.1,90.9,198.3,93z
			 M197.3,85.5l-18,2.9c-0.3-1.6-0.6-3.3-1-4.8l17.8-4.3C196.6,81.3,197,83.3,197.3,85.5z M195.8,78L178,82.3
			c-0.4-1.6-0.9-3.2-1.4-4.7l17.5-5.7C194.7,73.8,195.3,75.9,195.8,78z M193.6,70.6l-17.5,5.7c-0.6-1.6-1.1-3.1-1.8-4.6l17.1-7.1
			C192.2,66.6,193,68.6,193.6,70.6z M191,63.5l-17.1,7.1c-0.7-1.5-1.4-3-2.1-4.4l16.6-8.4C189.2,59.6,190.1,61.5,191,63.5z
			 M187.7,56.6L171.1,65c-0.8-1.4-1.6-2.9-2.5-4.2l16-9.8C185.7,52.8,186.7,54.7,187.7,56.6z M183.9,49.9l-16,9.8
			c-0.9-1.4-1.8-2.8-2.8-4.1l15.2-11C181.6,46.3,182.8,48.1,183.9,49.9z M179.6,43.6l-15.2,11.1c-1-1.3-2-2.6-3.1-3.8l14.3-12.3
			C177,40.2,178.3,41.9,179.6,43.6z M101.3,4c29.3,0,55.6,13,73.5,33.6l-14.4,12.3c-14.5-16.3-35.7-26.5-59.1-26.5
			c-23.4,0-44.5,10.2-59,26.4L27.9,37.5C45.8,17,72,4,101.3,4z M27.1,38.4l14.3,12.3c-1.1,1.2-2.1,2.5-3.1,3.8L23.1,43.5
			C24.4,41.7,25.7,40.1,27.1,38.4z M22.4,44.5l15.2,11.1c-1,1.4-2,2.8-2.9,4.2l-16-9.8C19.9,48.1,21.1,46.3,22.4,44.5z M18,51
			l16,9.8c-0.9,1.4-1.7,2.8-2.5,4.2l-16.6-8.5C15.9,54.7,16.9,52.8,18,51z M14.3,57.7l16.6,8.4c-0.8,1.5-1.5,2.9-2.1,4.4l-17.1-7.1
			C12.5,61.5,13.4,59.6,14.3,57.7z M11.2,64.7l17.1,7.1c-0.6,1.5-1.2,3.1-1.8,4.6L9,70.6C9.6,68.6,10.4,66.6,11.2,64.7z M8.6,71.8
			l17.5,5.7c-0.5,1.6-1,3.1-1.4,4.7L6.8,78C7.3,75.9,7.9,73.9,8.6,71.8z M6.5,79.2l17.8,4.3c-0.4,1.6-0.7,3.2-1,4.8l-18-2.8
			C5.6,83.4,6.1,81.3,6.5,79.2z M5.1,86.7l18,2.8c-0.3,1.6-0.5,3.3-0.7,4.9l-18-1.4C4.5,90.9,4.8,88.8,5.1,86.7z M4.3,94.3l18,1.4
			c-0.1,1.6-0.2,3.3-0.3,5l-18,0C4,98.5,4.1,96.4,4.3,94.3z M4,101.9l18,0c0,0.3,0,0.5,0,0.8c0,1.4,0,2.8,0.1,4.2l-17.8,1.4
			C4.1,106.2,4,104.1,4,101.9z M4.4,109.6l17.8-1.4c0.1,1.7,0.3,3.3,0.5,5l-17.6,2.8C4.8,113.8,4.5,111.7,4.4,109.6z M5.3,117.1
			l17.5-2.8c0.2,1.7,0.5,3.3,0.9,4.9l-17.2,4.1C6.1,121.4,5.6,119.3,5.3,117.1z M6.8,124.6l17.2-4.1c0.4,1.6,0.8,3.3,1.3,4.8
			l-16.7,5.4C7.9,128.8,7.3,126.7,6.8,124.6z M9,132l16.7-5.4c0.5,1.6,1.1,3.2,1.7,4.7L11.2,138C10.4,136,9.6,134,9,132z
			 M11.6,139.1l16.1-6.7c0.6,1.6,1.3,3.1,2,4.6l-15.4,7.9C13.4,143,12.5,141.1,11.6,139.1z M14.9,146l15.4-7.9
			c0.8,1.5,1.6,3,2.4,4.4l-14.7,9C16.9,149.8,15.9,147.9,14.9,146z M18.7,152.7l14.7-9c0.9,1.4,1.8,2.8,2.8,4.2L22.3,158
			C21,156.2,19.8,154.5,18.7,152.7z M23,159l13.9-10.1c1,1.4,2,2.7,3.1,4l-13,11.1C25.6,162.4,24.3,160.7,23,159z M27.8,164.9
			l13-11.1c1.1,1.3,2.2,2.5,3.4,3.7l-12,12C30.6,168.1,29.2,166.6,27.8,164.9z M33,170.5l12-12c1.2,1.2,2.4,2.4,3.7,3.5l-11,12.9
			C36.1,173.5,34.5,172,33,170.5z M38.6,175.7l11-12.8c1.3,1.1,2.6,2.2,3.9,3.2l-9.9,13.6C41.9,178.4,40.2,177,38.6,175.7z
			 M44.6,180.4l9.9-13.6c1.4,1,2.8,1.9,4.2,2.9L50,183.9C48.1,182.8,46.4,181.6,44.6,180.4z M51,184.6l8.8-14.3
			c1.4,0.9,2.9,1.7,4.4,2.5l-7.6,14.9C54.7,186.7,52.8,185.7,51,184.6z M57.7,188.3l7.6-14.9c1.5,0.8,3,1.5,4.6,2.2L63.5,191
			C61.5,190.1,59.6,189.2,57.7,188.3z M64.7,191.4L71,176c1.6,0.6,3.2,1.2,4.8,1.8l-5.1,15.8C68.6,193,66.6,192.2,64.7,191.4z
			 M71.8,194l5.1-15.8c1.6,0.5,3.2,1,4.9,1.4L78,195.8C75.9,195.3,73.9,194.7,71.8,194z M79.2,196.1l3.9-16.2c1.6,0.4,3.3,0.7,5,1
			l-2.6,16.4C83.4,197,81.3,196.6,79.2,196.1z M86.7,197.5l2.6-16.4c1.7,0.3,3.4,0.4,5.1,0.6l-1.3,16.5
			C90.9,198.1,88.8,197.8,86.7,197.5z M94.3,198.4l1.3-16.5c1.7,0.1,3.4,0.2,5.1,0.2l0,16.6C98.5,198.6,96.4,198.5,94.3,198.4z
			 M101.9,198.6l0-16.6c1.7,0,3.4-0.1,5.1-0.2l1.3,16.5C106.2,198.5,104.1,198.6,101.9,198.6z M109.6,198.3l-1.3-16.5
			c1.7-0.1,3.4-0.3,5.1-0.6l2.6,16.4C113.8,197.8,111.7,198.1,109.6,198.3z M117.1,197.3l-2.6-16.4c1.7-0.3,3.3-0.6,5-1l3.9,16.2
			C121.4,196.6,119.3,197,117.1,197.3z M124.6,195.8l-3.9-16.1c1.7-0.4,3.3-0.9,4.9-1.4l5.1,15.8
			C128.8,194.7,126.7,195.3,124.6,195.8z M132,193.6l-5.1-15.8c1.6-0.5,3.2-1.1,4.8-1.8l6.4,15.4C136,192.2,134,193,132,193.6z
			 M139.1,191l-6.4-15.4c1.6-0.7,3.1-1.4,4.6-2.2l7.6,14.9C143,189.2,141.1,190.1,139.1,191z M146,187.7l-7.6-14.9
			c1.5-0.8,3-1.6,4.4-2.5l8.8,14.3C149.8,185.7,147.9,186.7,146,187.7z M152.7,183.9l-8.8-14.3c1.4-0.9,2.8-1.9,4.2-2.9l9.9,13.6
			C156.2,181.6,154.5,182.8,152.7,183.9z M159,179.6l-9.9-13.6c1.3-1,2.7-2.1,3.9-3.2l11,12.8C162.4,177,160.7,178.3,159,179.6z
			 M164.9,174.8L154,162c1.3-1.1,2.5-2.3,3.7-3.5l12,12C168.1,172,166.6,173.5,164.9,174.8z M170.5,169.6l-12-12
			c1.2-1.2,2.3-2.5,3.4-3.7l13,11.1C173.5,166.5,172,168.1,170.5,169.6z M175.7,164l-13-11.1c1.1-1.3,2.1-2.6,3.1-4l13.9,10.1
			C178.4,160.7,177,162.4,175.7,164z M180.4,158l-13.9-10.1c1-1.4,1.9-2.8,2.8-4.2l14.7,9C182.8,154.5,181.6,156.2,180.4,158z
			 M184.6,151.6l-14.7-9c0.8-1.4,1.6-2.9,2.4-4.4l15.4,7.9C186.7,147.9,185.7,149.8,184.6,151.6z M188.3,144.9l-15.4-7.9
			c0.7-1.5,1.4-3,2-4.6l16.1,6.7C190.1,141.1,189.2,143,188.3,144.9z M191.4,138l-16.1-6.7c0.6-1.6,1.2-3.1,1.7-4.7l16.7,5.4
			C193,134,192.2,136,191.4,138z M194,130.8l-16.7-5.4c0.5-1.6,0.9-3.2,1.3-4.8l17.2,4.1C195.3,126.7,194.7,128.7,194,130.8z
			 M196.1,123.4l-17.2-4.1c0.3-1.6,0.6-3.3,0.9-4.9l17.5,2.8C197,119.3,196.6,121.3,196.1,123.4z M197.5,115.9l-17.6-2.8
			c0.2-1.6,0.4-3.3,0.5-5l17.8,1.4C198.1,111.7,197.8,113.8,197.5,115.9z M198.4,108.3l-17.8-1.4c0.1-1.4,0.1-2.8,0.1-4.2
			c0-0.3,0-0.5,0-0.8l18,0C198.6,104.1,198.5,106.2,198.4,108.3z"/>
		<path fill="#0C464E" d="M101.6,67.7C83.1,67.7,68,82.8,68,101.3c0,18.5,15.1,33.6,33.6,33.6c18.5,0,33.6-15.1,33.6-33.6
			C135.2,82.8,120.2,67.7,101.6,67.7z M101.6,133.7c-17.8,0-32.4-14.5-32.4-32.4c0-17.8,14.5-32.4,32.4-32.4
			c17.8,0,32.4,14.5,32.4,32.4C134,119.1,119.5,133.7,101.6,133.7z"/>
		<path fill="#0C464E" d="M102.5,147.4c-11.2,0-23.4-5.2-32.6-14c-8.8-8.6-13.6-19.8-13.6-31.4c0-25.3,21.2-46.7,46.2-46.7
			c9.3,0,19.3,3.6,27.1,9.4l5.3-5.3c-9-7.3-20.5-11.4-32-11.4c-14.3,0-27.9,5.6-38.2,15.7c-10.4,10.2-16.1,23.6-16.1,37.8
			c0,28.8,24.8,53.2,54.1,53.2c11.5,0,22.7-3.9,32.3-11.2l-5.4-5.3C122,143.7,111.6,147.4,102.5,147.4z"/>
	</g>
</g>
<g id="Layer_3">
	<path fill="#0C464E" d="M62.4,29.8c1.3-0.7,2.3-1.9,2.6-3l-1-0.7c-0.4,1-1.1,1.9-2.1,2.4c-2.4,1.4-5,0.6-6.4-1.9
		c-1.4-2.5-0.7-5,1.5-6.3c1.1-0.6,2-0.8,3-0.7l0-1.3c-1.1-0.2-2.4,0-3.7,0.8c-3.2,1.8-3.8,5.3-2.2,8.2C56,30.6,59.3,31.5,62.4,29.8z
		"/>
	<path fill="#0C464E" d="M70.6,25.6l0.2-3.9l5.1-1.8l2.6,2.9l1.5-0.5l-8.8-9.6l-1.2,0.4l-0.9,13L70.6,25.6z M75,18.8l-4,1.4l0.4-5.5
		L75,18.8z"/>
	<polygon fill="#0C464E" points="93,20 92.8,18.6 87,19.6 85.3,9.2 83.9,9.4 85.8,21.1 	"/>
	<polygon fill="#0C464E" points="101.9,19.7 106.7,7.7 105.3,7.7 101.4,17.5 97.3,7.8 95.7,7.8 100.8,19.7 	"/>
	<polygon fill="#0C464E" points="119.1,21.5 119.4,20.1 114,19.2 114.7,15.3 119.4,16.1 119.6,14.8 114.9,13.9 115.6,10.2 
		120.8,11.1 121,9.7 114.4,8.6 112.4,20.3 	"/>
	<path fill="#0C464E" d="M128.5,19.2l1.8,0.6l1.9,5.7l1.7,0.6l-2.1-6c1.3,0.1,2.9-0.6,3.5-2.4c0.6-1.8,0.2-3.7-2.9-4.7
		c-0.3-0.1-2.4-0.8-3-1l-3.8,11.3l1.4,0.5L128.5,19.2z M130.4,13.7c0.5,0.2,1.2,0.4,1.6,0.5c2,0.7,2.3,1.8,1.9,3
		c-0.5,1.3-2,1.7-3.3,1.3l-1.7-0.6L130.4,13.7z"/>
	<polygon fill="#0C464E" points="140.8,29.6 142.1,30.3 147.2,21.1 150.8,23.1 151.5,21.9 142.9,17.2 142.3,18.4 145.9,20.4 	"/>
</g>
<g id="Layer_2">
	<path id="SVGID_x5F_1_x5F_" fill="none" d="M158.8,142.1c-21.9,31.7-65.3,39.6-97,17.8c-31.7-21.9-39.6-65.3-17.8-97
		c21.9-31.7,65.3-39.6,97-17.8C172.8,67,180.7,110.4,158.8,142.1z"/>
	<text>	<textPath  xlink:href="#SVGID_x5F_1_x5F_" startOffset="87.207%">
<tspan  fill="#0C464E" font-family="'Circe-Regular'" font-size="16.5" letter-spacing="350">FORUM</tspan>	</textPath>
</text>
</g>
<g id="Layer_5">
	<polygon fill="#0C464E" points="30.9,136.5 45.6,129 46.1,130.1 31.4,137.5 	"/>
	<polyline fill="#0C464E" points="37.1,147.1 50.6,137.4 51.4,138.4 37.9,148.2 37.1,147.3 	"/>
	<polygon fill="#0C464E" points="45,156.7 56.9,144.9 57.7,145.7 45.8,157.6 	"/>
	<polygon fill="#0C464E" points="171.7,136.5 157.1,128.9 156.5,130.1 171.1,137.6 	"/>
	<polygon fill="#0C464E" points="165.4,147.2 152,137.4 151.2,138.4 164.7,148.2 	"/>
	<polygon fill="#0C464E" points="157.6,156.7 145.7,144.8 144.9,145.7 156.7,157.7 	"/>
	<polygon fill="#0C464E" points="45.5,46.4 32,33 32.8,32.3 46.3,45.6 	"/>
	<polygon fill="#0C464E" points="49.6,42.6 36.8,28.5 37.8,27.7 50.4,41.9 	"/>
	<polygon fill="#0C464E" points="157.1,46.4 170.6,33.1 169.6,32.1 156.2,45.5 	"/>
	<polygon fill="#0C464E" points="153,42.6 165.8,28.5 164.8,27.6 152.1,41.8 	"/>
</g>
<g id="Layer_7">
	<rect x="68.5" y="88.7" fill="none" width="64.9" height="28.7"/>
	
		<text transform="matrix(1 0 0 1 91.062 114.5776)" fill="#0C464E" stroke="#0C464E" stroke-miterlimit="10" font-family="'Circe-Bold'" font-size="37" letter-spacing="1">F</text>
</g>
</svg>
