<?xml version="1.0" encoding="utf-8"?>
<!-- Generator: Adobe Illustrator 18.0.0, SVG Export Plug-In . SVG Version: 6.00 Build 0)  -->
<!DOCTYPE svg PUBLIC "-//W3C//DTD SVG 1.1//EN" "http://www.w3.org/Graphics/SVG/1.1/DTD/svg11.dtd">
<svg version="1.1" id="Layer_1" xmlns="http://www.w3.org/2000/svg" xmlns:xlink="http://www.w3.org/1999/xlink" x="0px" y="0px"
	 viewBox="245.8 244.6 160.2 192.1" enable-background="new 245.8 244.6 160.2 192.1" xml:space="preserve">
<rect x="280.4" y="327.2" transform="matrix(0.7071 -0.7071 0.7071 0.7071 -167.9965 339.4598)" fill="#FFFFFF" width="90.7" height="90.7"/>
<circle fill="#FFFFFF" cx="325.9" cy="324.6" r="80.1"/>
<g>
	<path fill="#013E50" d="M325.9,254c-39,0-70.7,31.7-70.7,70.7s31.8,70.7,70.7,70.7c39,0,70.7-31.8,70.7-70.7
		C396.6,285.6,364.9,254,325.9,254z M393.8,324.2h-12.6c0-1.2-0.1-2.3-0.2-3.4l12.6-1C393.8,321.2,393.8,322.7,393.8,324.2z
		 M378.2,341.2l-10.8-3.5c0.6-1.9,1-3.8,1.4-5.8l11.1,1.8C379.5,336.2,378.9,338.7,378.2,341.2z M325.9,380.1c-24.4,0-45-16-52-38.1
		l10.8-3.5c5.8,17.2,22,29.6,41.2,29.6c19.1,0,35.4-12.4,41.2-29.6l10.8,3.5C370.9,364.1,350.3,380.1,325.9,380.1z M272,333.7
		l11.1-1.8c0.4,2,0.8,3.9,1.4,5.8l-10.8,3.5C272.9,338.7,272.3,336.2,272,333.7z M274.2,308.3l10.2,3.3c-0.6,1.9-1,3.8-1.4,5.8
		l-10.8-1.7C272.8,313.2,273.4,310.7,274.2,308.3z M277.5,300.5l9.4,4.8c-0.9,1.8-1.6,3.6-2.3,5.5l-10.2-3.3
		C275.3,305.1,276.4,302.8,277.5,300.5z M282.1,293.3l8.5,6.1c-1.2,1.6-2.2,3.3-3.1,5l-9.4-4.8C279.1,297.5,280.5,295.4,282.1,293.3
		z M287.6,287l7.3,7.3c-1.4,1.4-2.7,2.9-3.9,4.5l-8.5-6.1C284.1,290.6,285.8,288.7,287.6,287z M369.2,292.6l-8.4,6.1
		c-1.2-1.6-2.5-3.1-3.9-4.5l7.3-7.3C366,288.7,367.7,290.6,369.2,292.6z M373.8,299.7l-9.4,4.8c-1-1.8-2-3.4-3.1-5l8.5-6.1
		C371.3,295.4,372.7,297.5,373.8,299.7z M377.3,307.5l-10.2,3.3c-0.7-1.9-1.4-3.7-2.3-5.5l9.4-4.8
		C375.5,302.8,376.5,305.1,377.3,307.5z M379.5,315.7l-10.8,1.7c-0.4-2-0.8-3.9-1.4-5.8l10.2-3.3C378.4,310.7,379,313.2,379.5,315.7
		z M380.4,325.6c0,2.4-0.1,4.8-0.5,7.1l-11.1-1.7c0.3-1.9,0.4-4,0.4-5.9h11.1C380.4,325.2,380.4,325.5,380.4,325.6z M325.9,367.2
		c-23.5,0-42.6-19.1-42.6-42.6c0-23.5,19.1-42.6,42.6-42.6s42.6,19.1,42.6,42.6C368.5,348.1,349.4,367.2,325.9,367.2z M271.4,325.6
		c0-0.2,0-0.4,0-0.5h11.1c0,2,0.1,4,0.4,5.9l-11.1,1.8C271.5,330.4,271.4,328.1,271.4,325.6z M369.4,324.2c0-2-0.1-4-0.4-5.9
		l10.8-1.7c0.4,2.5,0.7,5,0.7,7.6H369.4z M356.3,293.6c-1.4-1.4-2.9-2.7-4.5-3.9l6-8.3c2,1.5,4,3.1,5.8,4.8L356.3,293.6z
		 M351.1,289.2c-1.6-1.2-3.3-2.2-5-3.1l4.6-9.1c2.3,1.2,4.4,2.4,6.4,3.9L351.1,289.2z M345.2,285.7c-1.8-0.9-3.6-1.6-5.5-2.3
		l3.1-9.7c2.4,0.8,4.8,1.8,7,2.9L345.2,285.7z M338.9,283.2c-1.9-0.6-3.8-1-5.8-1.4l1.6-10c2.5,0.4,5,1,7.3,1.7L338.9,283.2z
		 M332.3,281.7c-1.9-0.3-4-0.4-5.9-0.4v-10.1c2.6,0,5,0.2,7.5,0.6L332.3,281.7z M325.5,281.2c-2,0-4,0.1-5.9,0.4l-1.6-9.9
		c2.5-0.4,5-0.6,7.5-0.6V281.2L325.5,281.2z M317.1,271.8l1.6,10c-2,0.4-3.9,0.8-5.8,1.4l-3.1-9.7
		C312.2,272.8,314.6,272.2,317.1,271.8z M308.9,273.9l3.1,9.6c-1.9,0.7-3.7,1.4-5.5,2.3l-4.6-9.1
		C304.2,275.5,306.5,274.6,308.9,273.9z M301.2,277.1l4.6,9.1c-1.8,1-3.4,2-5,3.1l-6-8.3C296.8,279.5,298.9,278.3,301.2,277.1z
		 M294,281.5l6,8.3c-1.6,1.2-3.1,2.5-4.5,3.9l-7.3-7.3C290,284.5,292,282.9,294,281.5z M272.2,316.6l10.8,1.7
		c-0.3,1.9-0.4,4-0.4,5.9h-11.1C271.5,321.6,271.8,319.1,272.2,316.6z M393.6,318.9l-12.6,1c-0.1-1.2-0.3-2.3-0.5-3.4l12.5-2
		C393.3,315.9,393.5,317.4,393.6,318.9z M392.9,313.6l-12.6,2c-0.2-1.2-0.4-2.3-0.7-3.4l12.4-3C392.4,310.7,392.7,312.1,392.9,313.6
		z M391.8,308.4l-12.4,3c-0.3-1.1-0.7-2.2-1-3.3l12.2-4C391.1,305.5,391.5,306.9,391.8,308.4z M390.4,303.2l-12.2,4
		c-0.4-1.1-0.8-2.2-1.2-3.2l11.9-5C389.4,300.4,389.9,301.8,390.4,303.2z M388.5,298.2l-11.9,5c-0.4-1-1-2-1.5-3.1l11.6-5.9
		C387.3,295.5,387.9,296.9,388.5,298.2z M386.2,293.4l-11.6,5.9c-0.5-1-1.1-2-1.8-3l11.1-6.8C384.8,290.8,385.6,292.1,386.2,293.4z
		 M383.6,288.8l-11.1,6.8c-0.7-1-1.2-1.9-2-2.9l10.6-7.7C382,286.3,382.8,287.5,383.6,288.8z M380.6,284.4l-10.6,7.8
		c-0.7-0.9-1.4-1.8-2.2-2.6l10-8.6C378.7,282,379.7,283.2,380.6,284.4z M325.9,256.7c20.5,0,38.9,9.1,51.3,23.5l-10,8.6
		c-10.2-11.3-24.9-18.5-41.3-18.5s-31.1,7.1-41.2,18.4l-10-8.6C287.1,265.8,305.5,256.7,325.9,256.7z M274.1,280.7l10,8.6
		c-0.7,0.9-1.5,1.8-2.2,2.6l-10.6-7.7C272.2,283.1,273.1,281.9,274.1,280.7z M270.8,285l10.6,7.8c-0.7,1-1.4,1.9-2,2.9l-11.1-6.8
		C269,287.5,269.9,286.2,270.8,285z M267.8,289.5l11.1,6.8c-0.6,1-1.2,2-1.8,3l-11.6-5.9C266.3,292.1,267,290.8,267.8,289.5z
		 M265.2,294.2l11.6,5.9c-0.5,1-1,2-1.5,3.1l-11.9-5C263.9,296.9,264.5,295.5,265.2,294.2z M263,299l11.9,5c-0.4,1-0.9,2.1-1.2,3.2
		l-12.2-4C261.9,301.8,262.5,300.4,263,299z M261.1,304.1l12.2,4c-0.4,1.1-0.7,2.2-1,3.3l-12.4-3
		C260.3,306.9,260.7,305.5,261.1,304.1z M259.8,309.2l12.4,3c-0.3,1.1-0.5,2.3-0.7,3.4l-12.6-2C259.1,312.1,259.4,310.7,259.8,309.2
		z M258.7,314.5l12.5,2c-0.2,1.2-0.4,2.3-0.5,3.4l-12.5-1C258.4,317.4,258.5,315.9,258.7,314.5z M258.1,319.7l12.6,1
		c-0.1,1.2-0.1,2.3-0.2,3.4h-12.6C258,322.7,258.1,321.2,258.1,319.7z M258,325.1h12.5c0,0.1,0,0.4,0,0.5c0,1,0,2,0.1,2.9l-12.4,1
		C258.1,328.1,258,326.6,258,325.1z M258.2,330.4l12.4-1c0.1,1.2,0.2,2.3,0.4,3.4l-12.3,2C258.5,333.4,258.4,331.9,258.2,330.4z
		 M258.9,335.7l12.2-1.9c0.1,1.2,0.4,2.3,0.7,3.4l-12,2.9C259.4,338.6,259.1,337.2,258.9,335.7z M260,341l12-2.9
		c0.3,1.2,0.6,2.3,0.9,3.4l-11.6,3.8C260.7,343.8,260.3,342.4,260,341z M261.4,346.1l11.6-3.8c0.4,1.1,0.7,2.2,1.2,3.3l-11.3,4.7
		C262.5,348.9,261.9,347.5,261.4,346.1z M263.3,351.1l11.3-4.7c0.4,1.1,0.9,2.2,1.4,3.2l-10.8,5.5
		C264.5,353.8,263.9,352.5,263.3,351.1z M265.6,355.9l10.8-5.5c0.5,1,1.1,2,1.7,3.1l-10.2,6.3C267,358.5,266.3,357.2,265.6,355.9z
		 M268.2,360.5l10.2-6.3c0.6,1,1.2,2,1.9,2.9l-9.7,7C269.9,363,269,361.8,268.2,360.5z M271.2,364.9l9.7-7c0.7,1,1.4,1.9,2.1,2.8
		l-9.1,7.8C273.1,367.3,272.1,366.1,271.2,364.9z M274.5,369.1l9.1-7.8c0.7,0.9,1.5,1.8,2.3,2.6l-8.4,8.4
		C276.6,371.3,275.6,370.2,274.5,369.1z M278.2,373l8.3-8.3c0.8,0.8,1.7,1.6,2.6,2.4l-7.7,9C280.4,375,279.3,374,278.2,373z
		 M282.1,376.5l7.7-8.9c0.9,0.8,1.8,1.5,2.8,2.2l-6.9,9.5C284.5,378.4,283.3,377.5,282.1,376.5z M286.4,379.8l6.9-9.5
		c1,0.7,1.9,1.4,2.9,2l-6.1,10C288.8,381.5,287.6,380.7,286.4,379.8z M290.8,382.8l6.1-10c1,0.6,2,1.2,3.1,1.8l-5.3,10.4
		C293.3,384.3,292.1,383.6,290.8,382.8z M295.5,385.4l5.3-10.4c1,0.5,2.1,1,3.2,1.5l-4.5,10.8C298.2,386.6,296.8,386.1,295.5,385.4z
		 M300.3,387.6l4.5-10.8c1.1,0.4,2.2,0.9,3.3,1.2l-3.6,11.1C303.1,388.7,301.7,388.1,300.3,387.6z M305.3,389.4l3.6-11.1
		c1.1,0.4,2.3,0.7,3.4,1l-2.7,11.3C308.2,390.2,306.7,389.9,305.3,389.4z M310.5,390.8l2.7-11.3c1.2,0.3,2.3,0.5,3.5,0.7l-1.8,11.4
		C313.4,391.5,311.9,391.2,310.5,390.8z M315.7,391.8l1.8-11.4c1.2,0.1,2.3,0.3,3.5,0.4l-0.9,11.6
		C318.7,392.2,317.2,392.1,315.7,391.8z M321,392.4l0.9-11.6c1.2,0.1,2.3,0.1,3.6,0.1v11.6C324,392.6,322.5,392.5,321,392.4z
		 M326.3,392.6V381c1.2,0,2.3-0.1,3.6-0.1l0.9,11.6C329.3,392.5,327.9,392.6,326.3,392.6z M331.7,392.3l-0.9-11.6
		c1.2-0.1,2.3-0.2,3.5-0.4l1.8,11.4C334.6,392.1,333.2,392.2,331.7,392.3z M337,391.7l-1.8-11.4c1.2-0.2,2.3-0.4,3.5-0.7l2.7,11.3
		C339.9,391.2,338.4,391.5,337,391.7z M342.2,390.6l-2.7-11.3c1.2-0.3,2.3-0.7,3.4-1l3.6,11.1C345.1,389.9,343.6,390.2,342.2,390.6z
		 M347.4,389.1l-3.6-11.1c1.1-0.4,2.3-0.8,3.3-1.2l4.5,10.8C350.1,388.1,348.7,388.7,347.4,389.1z M352.3,387.2l-4.5-10.8
		c1.1-0.4,2.1-1,3.2-1.5l5.3,10.4C355,386.1,353.7,386.6,352.3,387.2z M357.2,385l-5.3-10.4c1-0.6,2-1.2,3.1-1.8l6.1,10
		C359.8,383.6,358.5,384.3,357.2,385z M361.8,382.3l-6.1-10c1-0.7,2-1.3,2.9-2l6.9,9.5C364.3,380.7,363,381.5,361.8,382.3z
		 M366.2,379.3l-6.9-9.5c1-0.7,1.8-1.5,2.7-2.2l7.7,9C368.6,377.5,367.4,378.4,366.2,379.3z M370.3,376l-7.7-9
		c0.9-0.8,1.8-1.6,2.6-2.4l8.3,8.3C372.5,374,371.5,375,370.3,376z M374.2,372.4l-8.3-8.4c0.8-0.9,1.6-1.7,2.3-2.6l9.1,7.8
		C376.3,370.2,375.3,371.3,374.2,372.4z M377.8,368.4l-9.1-7.8c0.7-0.9,1.5-1.8,2.1-2.8l9.7,7C379.7,366.1,378.7,367.2,377.8,368.4z
		 M381.1,364.2l-9.7-7c0.7-1,1.3-2,1.9-2.9l10.2,6.3C382.8,361.8,382,363,381.1,364.2z M384,359.8l-10.2-6.3c0.6-1,1.2-2,1.7-3.1
		l10.8,5.5C385.6,357.2,384.8,358.5,384,359.8z M386.7,355.1l-10.8-5.5c0.5-1,1-2.1,1.4-3.2l11.3,4.7
		C387.9,352.4,387.3,353.8,386.7,355.1z M388.8,350.3l-11.3-4.7c0.4-1.1,0.8-2.2,1.2-3.3l11.6,3.8
		C389.9,347.5,389.4,348.9,388.8,350.3z M390.7,345.2l-11.6-3.8c0.4-1.1,0.7-2.3,0.9-3.4l12,2.9
		C391.5,342.4,391.1,343.8,390.7,345.2z M392.1,340.1l-12-2.9c0.2-1.1,0.4-2.3,0.7-3.4l12.2,1.9
		C392.7,337.2,392.4,338.6,392.1,340.1z M393.1,334.8l-12.3-2c0.1-1.2,0.3-2.3,0.4-3.4l12.4,1C393.5,331.9,393.3,333.4,393.1,334.8z
		 M393.7,329.6l-12.4-1c0.1-1,0.1-2,0.1-2.9c0-0.2,0-0.4,0-0.5h12.5C393.8,326.6,393.8,328.1,393.7,329.6z"/>
	<path fill="#013E50" d="M326.1,301.2c-13,0-23.5,10.5-23.5,23.5c0,13,10.5,23.5,23.5,23.5c13,0,23.5-10.5,23.5-23.5
		C349.6,311.7,339.1,301.2,326.1,301.2z M326.1,347.3c-12.4,0-22.6-10.1-22.6-22.6c0-12.4,10.1-22.6,22.6-22.6
		c12.4,0,22.6,10.1,22.6,22.6C348.7,337.1,338.6,347.3,326.1,347.3z"/>
	<path fill="#013E50" d="M326.8,356.8c-7.8,0-16.3-3.7-22.8-9.8c-6.1-6-9.5-13.8-9.5-21.9c0-17.7,14.8-32.6,32.3-32.6
		c6.5,0,13.5,2.5,18.9,6.6l3.7-3.7c-6.3-5-14.3-8-22.3-8c-10,0-19.5,3.9-26.6,11c-7.2,7.1-11.2,16.5-11.2,26.4
		c0,20.1,17.3,37.1,37.8,37.1c8.1,0,15.8-2.7,22.5-7.8l-3.7-3.7C340.4,354.2,333.1,356.8,326.8,356.8z"/>
	<path fill="#013E50" d="M289.2,281.7c0.8-0.7,1.3-1.6,1.4-2.4l-0.8-0.3c-0.1,0.7-0.5,1.5-1.1,2c-1.5,1.2-3.3,1.1-4.6-0.4
		c-1.3-1.5-1.2-3.4,0.1-4.5c0.7-0.6,1.2-0.8,2-0.9l-0.1-0.9c-0.8,0-1.6,0.4-2.4,1c-2,1.7-1.9,4.2-0.3,5.9
		C284.9,283.2,287.3,283.3,289.2,281.7z"/>
	<path fill="#013E50" d="M294.1,277.7l-0.4-2.7l3.2-2l2.2,1.6l1-0.6l-7.3-5.3l-0.7,0.4l1.2,9L294.1,277.7z M296.2,272.5l-2.6,1.5
		l-0.5-3.8L296.2,272.5z"/>
	<polygon fill="#013E50" points="308.6,270.7 308.3,269.8 304.5,271.2 301.9,264.3 301,264.7 303.9,272.5 	"/>
	<polygon fill="#013E50" points="314.6,269.2 316.3,260.4 315.3,260.5 314.1,267.9 309.9,261.7 308.8,261.9 313.9,269.4 	"/>
	<polygon fill="#013E50" points="326.7,268 326.7,267.1 322.9,267.2 322.8,264.4 326.1,264.3 326.1,263.3 322.8,263.5 322.7,260.8 
		326.3,260.6 326.3,259.7 321.7,259.9 322,268.2 	"/>
	<path fill="#013E50" d="M332.8,265.1l1.3,0.1l2.1,3.6l1.2,0.1l-2.3-3.8c1-0.1,1.9-0.8,2-2.1c0.1-1.3-0.4-2.6-2.6-2.8
		c-0.2,0-1.8-0.2-2.2-0.2l-1,8.3l1,0.1L332.8,265.1z M333.3,261.1c0.4,0,0.9,0.1,1.2,0.1c1.5,0.1,1.8,0.9,1.8,1.8
		c-0.1,1-1.1,1.5-2,1.3l-1.2-0.1L333.3,261.1z"/>
	<polygon fill="#013E50" points="342.7,270.5 343.7,270.8 345.8,263.8 348.6,264.6 348.9,263.7 342.4,261.7 342.1,262.6 
		344.9,263.5 	"/>
	<path fill="#013E50" d="M359.1,277.4l-3.2-2c0.9-0.1,4.6-0.7,5.9-2.7c0.5-0.9,0.5-2.2-0.8-3c-1-0.6-2.2-0.6-3.1,0.4l0.5,0.7
		c0.6-0.7,1.4-0.7,2-0.4c0.7,0.5,0.8,1.2,0.4,1.8c-1,1.5-4.1,2.1-6,2.6l-0.4,0.7l4.3,2.7L359.1,277.4z"/>
	<path fill="#013E50" d="M368.1,276c0.7,0.6,0.7,1.3,0.1,1.9c-1.2,1.3-4.4,1.5-6.3,1.7l-0.5,0.6l3.9,3.3l0.6-0.7l-2.9-2.5
		c0.9,0,4.7-0.1,6.1-1.8c0.7-0.8,0.8-2-0.4-3.1c-0.9-0.7-2.1-0.9-3.1-0.1l0.4,0.8C366.7,275.5,367.6,275.5,368.1,276z"/>
	<polygon fill="#013E50" points="284.8,345.4 286.5,348.6 287.3,348.2 285.2,344 277.8,347.8 278.3,348.7 281.3,347.1 282.9,350 
		283.7,349.6 282.2,346.7 	"/>
	<path fill="#013E50" d="M286.2,354.2c-1.9,1.7-2,4.2-0.4,6c1.6,1.8,4.1,2,6,0.4c1.9-1.7,2-4.2,0.4-6S288,352.7,286.2,354.2z
		 M291,359.9c-1.4,1.2-3.4,1.2-4.6-0.2c-1.2-1.3-1-3.4,0.4-4.5c1.5-1.2,3.4-1.2,4.6,0.2C292.6,356.6,292.5,358.6,291,359.9z"/>
	<path fill="#013E50" d="M300.4,367.8c-1,1.5-2.3,1.9-3.4,1.1c-1.3-0.9-1.4-2.3-0.4-3.7l2.6-3.8l-0.8-0.6l-2.6,4
		c-1.3,2-0.8,3.9,0.8,5c1.4,1,3.2,1,4.7-1.2l2.7-4l-0.8-0.6L300.4,367.8z"/>
	<polygon fill="#013E50" points="311.9,374.9 309.2,367 308.3,366.7 305.7,374.6 306.6,374.9 308.7,368.7 311.5,376.5 312.3,376.8 
		314.9,368.9 314.1,368.6 	"/>
	<path fill="#013E50" d="M322.3,370c-0.7-0.1-1.6-0.1-2.1-0.1h-0.1l-0.5,8.3h0.1c0.7,0.1,1.5,0.1,2,0.1c3.1,0.2,4.8-1.6,5-4
		C326.9,372.1,325.6,370.2,322.3,370z M321.8,377.3c-0.1,0-0.7-0.1-1.2-0.1l0.4-6.4c0.4,0,0.7,0,1.2,0c2.4,0.1,3.5,1.5,3.4,3.4
		C325.5,376.2,324.2,377.5,321.8,377.3z"/>
	<path fill="#013E50" d="M333.7,369.4l-1.9,8.9l1-0.2l0.6-2.6l3.7-0.7l1.5,2.3l1-0.2l-5.1-7.5L333.7,369.4z M333.6,374.3l0.8-3.7
		l2.1,3.2L333.6,374.3z"/>
	<polygon fill="#013E50" points="346.9,366 346.5,365.1 340.3,367.8 340.6,368.7 343.3,367.5 346.3,374.3 347.2,373.9 344.3,367.2 	
		"/>
	
		<rect x="349" y="365.3" transform="matrix(0.5621 0.8271 -0.8271 0.5621 457.2394 -131.8711)" fill="#013E50" width="8.3" height="1"/>
	<path fill="#013E50" d="M358,356.1c-1.7,1.8-1.5,4.4,0.2,6c1.8,1.8,4.4,1.6,6-0.1c1.7-1.8,1.6-4.3-0.2-6
		C362.2,354.2,359.7,354.4,358,356.1z M363.6,361.3c-1.2,1.3-3.2,1.3-4.6,0c-1.4-1.3-1.5-3.3-0.2-4.6c1.2-1.3,3.1-1.3,4.6,0
		C364.7,358,364.9,359.9,363.6,361.3z"/>
	<polygon fill="#013E50" points="374.1,347 366.8,343.2 366.4,344 372.2,347 364,348.7 363.6,349.3 370.9,353.2 371.4,352.3 
		365.6,349.3 373.8,347.8 	"/>
	<path fill="#013E50" d="M324.3,320.3c0-2.4-1.7-5-5.5-5c-3,0-5.3,1.8-5.8,4.6l-0.1,0.3l3.1,1.4l0.1-0.4c0.4-1.4,1.2-2.2,2.3-2.2
		c1.2,0,2,0.7,2,2c0,3.1-3.9,7-6.7,9.7l-0.8,0.7v2.9H325v-3.4h-7C320.7,328.5,324.3,324.6,324.3,320.3z"/>
	<path fill="#013E50" d="M338.6,320.3c0-2.4-1.7-5-5.5-5c-3,0-5.3,1.8-5.8,4.6l-0.1,0.3l3.1,1.4l0.1-0.4c0.4-1.4,1.2-2.2,2.3-2.2
		c1.2,0,2,0.7,2,2c0,3.1-3.9,7-6.7,9.7l-0.7,0.7v2.9h12.1v-3.4h-7C335.1,328.5,338.6,324.6,338.6,320.3z"/>
</g>
</svg>
