<?xml version="1.0" encoding="utf-8"?>
<!-- Generator: Adobe Illustrator 18.0.0, SVG Export Plug-In . SVG Version: 6.00 Build 0)  -->
<!DOCTYPE svg PUBLIC "-//W3C//DTD SVG 1.1//EN" "http://www.w3.org/Graphics/SVG/1.1/DTD/svg11.dtd">
<svg version="1.1" id="Layer_1" xmlns="http://www.w3.org/2000/svg" xmlns:xlink="http://www.w3.org/1999/xlink" x="0px" y="0px"
	 viewBox="0 0 268.6 268.6" enable-background="new 0 0 268.6 268.6" xml:space="preserve">
<g>
	<path fill="#414B00" d="M134.7,180.7c-24.6,0-44.5-20-44.5-44.5c0-24.6,20-44.5,44.5-44.5c24.6,0,44.5,20,44.5,44.5
		C179.3,160.7,159.3,180.7,134.7,180.7z M134.7,93.3c-23.6,0-42.9,19.2-42.9,42.9c0,23.6,19.2,42.9,42.9,42.9
		c23.7,0,42.9-19.2,42.9-42.9C177.6,112.5,158.4,93.3,134.7,93.3z"/>
	<path fill="#414B00" d="M172.1,183.1c-10.3,7.4-24.1,12.3-36.1,12.3c-14.8,0-31-6.9-43.2-18.6c-11.6-11.4-18-26.2-18-41.6
		c0-33.6,28-62,61.2-62c12.3,0,25.6,4.8,35.9,12.5l7-7c-11.9-9.6-27.1-15.1-42.4-15.1c-19,0-37,7.4-50.6,20.8
		c-13.8,13.5-21.3,31.3-21.3,50.1c0,38.2,32.9,70.5,71.8,70.5c15.3,0,30-5.1,42.9-14.8L172.1,183.1z"/>
	<g>
		<path fill="#414B00" d="M34.1,61.8l8.2-10l1.4,1.1l-3.5,4.3L51,66.1l-1.2,1.5L39,58.7L35.5,63L34.1,61.8z"/>
		<path fill="#414B00" d="M64.3,43.4l-6.7,5.5l4.5,5.5l-1.5,1.2l-10-12.2l1.5-1.2l4.3,5.3l6.7-5.5l-4.3-5.3l1.5-1.2l10,12.2L68.8,49
			L64.3,43.4z"/>
		<path fill="#414B00" d="M71.9,28l7.8-4.2l0.9,1.6l-6.2,3.3l2.4,4.5l5.6-3l0.9,1.6l-5.6,3l2.5,4.6l6.4-3.4l0.9,1.6l-8,4.3L71.9,28z
			"/>
		<path fill="#414B00" d="M118.6,26.3c-0.8,1.3-2.6,2.3-4.5,2.7c-4.6,1-8.5-1.5-9.5-6.3c-0.9-4.4,1.2-8.5,6-9.5c2-0.4,3.7-0.2,5,0.5
			l-0.6,1.6c-1.2-0.5-2.4-0.7-4.1-0.4c-3.4,0.7-5.2,3.7-4.4,7.4c0.8,3.7,3.7,5.7,7.3,4.9c1.5-0.3,2.8-1.1,3.7-2.2L118.6,26.3z"/>
		<path fill="#414B00" d="M132.4,11.1l1.6,0l6.9,15.8l-2.1,0l-2.1-4.8l-7.2,0l-2,4.8l-1.9,0L132.4,11.1z M130.4,20.4l5.7,0l-2.9-6.7
			L130.4,20.4z"/>
		<path fill="#414B00" d="M152.4,12.3l1.9,0.3l-2.4,13.8l7.7,1.3l-0.3,1.8l-9.5-1.7L152.4,12.3z"/>
		<path fill="#414B00" d="M171.5,33.4l-1.3-0.5l-1-17.2l1.9,0.7l0.8,14l9.2-10.5l1.8,0.6L171.5,33.4z"/>
		<path fill="#414B00" d="M193.2,25.6l7.7,4.4l-0.9,1.6l-6.1-3.5l-2.5,4.4l5.5,3.1l-0.9,1.6l-5.5-3.1l-2.6,4.6l6.3,3.6l-0.9,1.6
			l-7.9-4.5L193.2,25.6z"/>
		<path fill="#414B00" d="M201.4,49.5l10.2-12c0.7,0.6,2.9,2.4,3.3,2.7c3.3,2.8,2.9,5.3,1.3,7.2c-1.6,1.9-3.9,2-5.5,1.2l-0.3,8.5
			l-1.8-1.5l0.4-7.9l-2-1.7l-4.1,4.8L201.4,49.5z M211.8,40.1l-3.8,4.5l1.8,1.5c1.4,1.2,3.5,1.5,4.7,0c1-1.2,1.2-2.8-0.9-4.6
			C213.2,41.2,212.4,40.6,211.8,40.1z"/>
		<path fill="#414B00" d="M226.5,51.2l8.3,10l-1.4,1.2l-3.5-4.2L219.2,67l-1.2-1.5l10.7-8.9l-3.5-4.2L226.5,51.2z"/>
	</g>
	<g>
		<path fill="#414B00" d="M63.4,202.1c-1.8,1.6-3.5,1.8-5.1,0c-0.7-0.8-1-1.8-1-2.3l1.5-0.5c0,0.5,0.2,1,0.6,1.4
			c0.9,1,1.9,0.7,2.9-0.2l8.8-7.9l1.3,1.4L63.4,202.1z"/>
		<path fill="#414B00" d="M87.4,206.3c3.8,2.5,4.9,7.2,2.2,11.2c-2.6,3.9-7.4,4.8-11.2,2.3c-3.8-2.5-4.9-7.2-2.2-11.2
			C78.7,204.8,83.5,203.7,87.4,206.3z M79.4,218.3c3,2,6.5,1,8.5-1.9c2-3.1,1.3-6.7-1.5-8.6c-2.9-1.9-6.5-1.1-8.5,1.9
			C75.9,212.7,76.6,216.4,79.4,218.3z"/>
		<path fill="#414B00" d="M113.5,227.7c-1.4,4.6-4.7,5.7-7.8,4.8c-3.6-1.1-5.6-4.1-4.3-8.5l2.6-8.7l1.8,0.5l-2.5,8.3
			c-1,3.3,0,5.7,2.9,6.6c2.5,0.7,4.5-0.5,5.5-4l2.5-8.4l1.8,0.5L113.5,227.7z"/>
		<path fill="#414B00" d="M128.1,236.3l0.2-15.8c0.9,0,3.8,0,4.2,0c4.3,0.1,5.6,2.2,5.6,4.8c0,2.5-1.7,4-3.5,4.4l5.2,6.7l-2.3,0
			l-4.8-6.4l-2.6,0l-0.1,6.3L128.1,236.3z M130.2,222.4l-0.1,5.9l2.3,0c1.8,0,3.6-1.1,3.6-3c0-1.6-0.9-2.9-3.7-3
			C131.9,222.3,130.9,222.4,130.2,222.4z"/>
		<path fill="#414B00" d="M165.8,231.4l-12.8-9.3l3.3,11.9l-1.7,0.5l-4.2-15.2l1.5-0.4l12.8,9.3l-3.3-12l1.7-0.5l4.2,15.2
			L165.8,231.4z"/>
		<path fill="#414B00" d="M178.3,208l1.4-0.9l14.2,9.8l-1.7,1.1l-4.3-3l-6.1,3.8l0.8,5.1l-1.6,1L178.3,208z M181.5,216.9l4.8-3
			l-6-4.2L181.5,216.9z"/>
		<path fill="#414B00" d="M193.3,196.5l1.3-1.4l10.2,9.5l5.3-5.7l1.3,1.2l-6.6,7.1L193.3,196.5z"/>
	</g>
	<path fill="#414B00" d="M142.5,145.3c0,11.7-6.6,14.8-15.6,14.8v-7.5c5,0,7.5-2,7.5-8.6v-31.7h8.1V145.3z"/>
	<path fill="#414B00" d="M134.3,0C60.2,0,0,60.2,0,134.3c0,74.1,60.2,134.3,134.3,134.3c74.1,0,134.3-60.2,134.3-134.3
		C268.6,60.2,208.4,0,134.3,0z M263.3,133.5l-23.9,0c-0.1-2.2-0.2-4.4-0.4-6.6L263,125C263.2,127.8,263.3,130.6,263.3,133.5z
		 M262.8,123.3l-23.9,1.9c-0.2-2.2-0.5-4.4-0.9-6.5l23.8-3.8C262.3,117.7,262.6,120.5,262.8,123.3z M261.6,113.3l-23.9,3.8
		c-0.4-2.2-0.8-4.3-1.4-6.4l23.6-5.7C260.6,107.7,261.1,110.5,261.6,113.3z M120.6,52.9c-3.8,0.6-7.4,1.5-11,2.6l-5.9-18.3
		c4.5-1.4,9.2-2.5,13.9-3.3L120.6,52.9z M119.2,33.8c4.7-0.7,9.4-1.1,14.3-1.1v19.1c-3.8,0-7.6,0.3-11.3,0.9L119.2,33.8z M108,56.1
		c-3.6,1.2-7.1,2.7-10.4,4.3l-8.8-17.2c4.3-2.1,8.7-3.9,13.3-5.4L108,56.1z M96.1,61.2c-3.3,1.8-6.6,3.7-9.6,5.9L75.1,51.3
		c3.9-2.7,8-5.2,12.3-7.4L96.1,61.2z M85.1,68.1c-3,2.3-5.9,4.7-8.6,7.3L62.7,61.5c3.5-3.3,7.1-6.4,11-9.2L85.1,68.1z M75.4,76.6
		c-2.6,2.7-5.1,5.5-7.3,8.6L52,73.5c2.9-3.8,6.1-7.4,9.5-10.8L75.4,76.6z M67.1,86.5c-2.2,3.1-4.2,6.3-5.9,9.6L43.2,87c0,0,0,0,0,0
		c1-1.9,2.1-3.7,3.2-5.5c0.3-0.5,0.6-0.9,0.9-1.4c1.2-1.8,2.4-3.5,3.6-5.3L67.1,86.5z M60.4,97.6c-1.7,3.4-3.1,6.8-4.3,10.4
		l-19.4-6.3c0.7-2,1.5-4,2.3-6c0.2-0.5,0.5-1,0.7-1.5c0.9-2,1.8-3.9,2.8-5.8L60.4,97.6z M55.6,109.6c-1.1,3.6-2,7.2-2.6,11
		l-20.4-3.2c0.4-2.1,0.8-4.2,1.4-6.3c0.1-0.5,0.3-1.1,0.4-1.6c0.6-2.1,1.2-4.1,1.9-6.2L55.6,109.6z M52.7,122.2
		c-0.5,3.7-0.8,7.4-0.9,11.3l-20.9,0c0.1-2.2,0.2-4.3,0.4-6.5c0-0.5,0.1-1.1,0.1-1.7c0.2-2.2,0.5-4.3,0.9-6.4c0,0,0,0,0,0
		L52.7,122.2z M51.8,135.1c0,3.8,0.3,7.6,0.9,11.3l-21,3.3c-0.3-2.1-0.5-4.3-0.6-6.5c0-0.6-0.1-1.1-0.1-1.7
		c-0.1-1.8-0.1-3.6-0.1-5.4c0-0.3,0-0.7,0-1c0,0,0,0,0,0L51.8,135.1z M31.9,151.4l21-3.3c0.6,3.8,1.5,7.4,2.6,11l-20.5,6.7
		c-0.6-2.1-1.2-4.2-1.7-6.3c-0.1-0.5-0.3-1.1-0.4-1.6C32.6,155.7,32.2,153.5,31.9,151.4C31.9,151.4,31.9,151.4,31.9,151.4z
		 M56.1,160.6c1.2,3.6,2.7,7.1,4.3,10.4L41,180.9c-0.9-2-1.8-4-2.6-6c-0.2-0.5-0.4-1-0.6-1.5c-0.8-2-1.5-4.1-2.2-6.1h0L56.1,160.6z
		 M61.2,172.5c1.8,3.3,3.7,6.6,5.9,9.6l-17.9,13c-1.2-1.8-2.4-3.6-3.6-5.5c-0.3-0.5-0.5-1-0.8-1.4c-1.1-1.9-2.1-3.8-3.1-5.8
		c0,0,0,0,0,0L61.2,172.5z M53.4,134.3c0-44.6,36.3-80.9,80.9-80.9c44.6,0,80.9,36.3,80.9,80.9c0,44.6-36.3,80.9-80.9,80.9
		C89.7,215.2,53.4,178.9,53.4,134.3z M236.1,117.3l-20.4,3.2c-0.6-3.8-1.5-7.4-2.6-11l19.4-6.3c0.7,2,1.3,4.1,1.9,6.2
		c0.1,0.5,0.3,1.1,0.4,1.6C235.2,113.1,235.7,115.2,236.1,117.3L236.1,117.3z M236.4,119c0.4,2.1,0.7,4.2,0.9,6.4
		c0.1,0.5,0.1,1.1,0.1,1.7c0.2,2.1,0.3,4.3,0.4,6.5c0,0,0,0,0,0l-21,0c0-3.8-0.3-7.6-0.9-11.3L236.4,119z M231.9,101.7l-19.4,6.3
		c-1.2-3.6-2.7-7.1-4.3-10.4l17.9-9.1c1,1.9,1.9,3.8,2.8,5.8c0.2,0.5,0.5,1,0.7,1.5C230.4,97.7,231.2,99.7,231.9,101.7
		C231.9,101.7,231.9,101.7,231.9,101.7z M207.4,96.1c-1.8-3.3-3.7-6.6-5.9-9.6l16.1-11.7c1.3,1.7,2.5,3.5,3.6,5.3
		c0.3,0.5,0.6,0.9,0.9,1.4c1.1,1.8,2.2,3.6,3.2,5.5L207.4,96.1z M200.5,85.1c-2.3-3-4.7-5.9-7.3-8.6l13.9-13.9
		c3.4,3.4,6.6,7,9.5,10.8L200.5,85.1z M192,75.4c-2.7-2.6-5.5-5.1-8.6-7.3l11.4-15.7c3.9,2.8,7.6,5.9,11,9.2L192,75.4z M182.1,67.1
		c-3.1-2.2-6.3-4.2-9.6-5.9l8.8-17.2c4.3,2.2,8.4,4.7,12.3,7.4L182.1,67.1z M171,60.4c-3.4-1.7-6.8-3.1-10.4-4.3l5.9-18.3
		c4.6,1.5,9,3.3,13.3,5.4L171,60.4z M159,55.6c-3.6-1.1-7.2-2-11-2.6l3-18.9c4.8,0.8,9.4,1.9,13.9,3.3L159,55.6z M146.4,52.7
		c-3.7-0.5-7.4-0.8-11.3-0.9V32.7c4.8,0,9.6,0.4,14.3,1.1L146.4,52.7z M207.4,172.5l19.5,9.9c-1,2-2,3.9-3.1,5.8
		c-0.3,0.5-0.5,1-0.8,1.4c-1.1,1.9-2.3,3.7-3.6,5.5c0,0,0,0,0,0l-17.9-13C203.7,179,205.7,175.8,207.4,172.5z M208.2,171
		c1.7-3.4,3.1-6.8,4.3-10.4l20.5,6.7c-0.7,2.1-1.4,4.1-2.2,6.1c-0.2,0.5-0.4,1-0.6,1.5c-0.8,2-1.7,4-2.6,6v0L208.2,171z M213,159
		c1.1-3.6,2-7.2,2.6-11l21,3.3c-0.3,2.2-0.7,4.3-1.2,6.4c-0.1,0.5-0.2,1.1-0.4,1.6c-0.5,2.1-1,4.2-1.7,6.3v0L213,159z M215.9,146.4
		c0.5-3.7,0.8-7.4,0.9-11.3l21,0c0,0.3,0,0.7,0,1c0,1.8-0.1,3.6-0.1,5.4c0,0.6-0.1,1.1-0.1,1.7c-0.2,2.2-0.4,4.3-0.6,6.5
		c0,0,0,0,0,0L215.9,146.4z M259.5,103.4l-23.6,5.7c-0.6-2.1-1.2-4.2-1.9-6.3l23.2-7.5C258.1,97.9,258.9,100.6,259.5,103.4z
		 M256.7,93.6l-23.2,7.6c-0.7-2.1-1.5-4.1-2.4-6.1l22.7-9.4C254.9,88.3,255.8,91,256.7,93.6z M253.2,84.2l-22.7,9.4
		c-0.9-2-1.8-4-2.8-5.9l22-11.2C250.9,79,252.1,81.6,253.2,84.2z M248.8,75l-22,11.2c-1-1.9-2.2-3.8-3.3-5.6l21.1-13
		C246.2,70,247.5,72.5,248.8,75z M134.3,5.3c46.2,0,86.7,24.4,109.5,60.9l-21.2,13c-18.8-29-51.3-48.2-88.4-48.2
		c-37,0-69.6,19.2-88.4,48.2l-21.2-13C47.6,29.7,88.1,5.3,134.3,5.3z M23.9,67.6l21.1,13c-1.2,1.8-2.3,3.7-3.3,5.6L19.8,75
		C21.1,72.5,22.4,70,23.9,67.6z M19,76.5l22,11.2c-1,1.9-2,3.9-2.8,5.9l-22.7-9.4C16.5,81.6,17.7,79,19,76.5z M14.8,85.7l22.7,9.4
		c-0.9,2-1.6,4-2.4,6.1l-23.2-7.6C12.8,91,13.7,88.3,14.8,85.7z M11.4,95.2l23.2,7.5c-0.7,2.1-1.3,4.2-1.9,6.3l-23.6-5.7
		C9.7,100.6,10.5,97.9,11.4,95.2z M8.7,105l23.6,5.7c-0.5,2.1-1,4.3-1.4,6.4L7,113.3C7.5,110.5,8,107.7,8.7,105z M6.8,114.9
		l23.8,3.8c-0.4,2.2-0.7,4.3-0.9,6.5l-23.9-1.9C6,120.5,6.3,117.7,6.8,114.9z M5.6,125l23.9,1.9c-0.2,2.2-0.3,4.4-0.4,6.6l-23.9,0
		C5.3,130.6,5.4,127.8,5.6,125z M5.3,135.1l23.8,0c0,0.3,0,0.7,0,1c0,1.9,0.1,3.7,0.2,5.6l-23.6,1.9C5.4,140.8,5.3,138,5.3,135.1z
		 M5.8,145.3l23.6-1.9c0.2,2.2,0.4,4.4,0.7,6.6l-23.3,3.7C6.3,150.9,6,148.1,5.8,145.3z M7,155.3l23.2-3.7c0.3,2.2,0.7,4.4,1.2,6.5
		l-22.8,5.5C8,160.9,7.5,158.1,7,155.3z M9.1,165.2l22.8-5.5c0.5,2.2,1.1,4.3,1.7,6.4l-22.1,7.2C10.5,170.7,9.7,168,9.1,165.2z
		 M11.9,175l22.1-7.2c0.7,2.1,1.4,4.2,2.2,6.3l-21.4,8.9C13.8,180.3,12.8,177.6,11.9,175z M15.4,184.4l21.4-8.8
		c0.8,2.1,1.7,4.1,2.7,6.1L19,192.1C17.7,189.6,16.5,187,15.4,184.4z M19.8,193.6l20.5-10.4c1,2,2.1,3.9,3.2,5.9l-19.5,12
		C22.5,198.6,21.1,196.1,19.8,193.6z M24.8,202.4l19.5-11.9c1.2,1.9,2.4,3.8,3.7,5.6l-18.4,13.4C27.9,207.1,26.3,204.8,24.8,202.4z
		 M30.5,210.8l18.4-13.4c1.3,1.8,2.6,3.6,4.1,5.3l-17.2,14.7C33.9,215.3,32.2,213,30.5,210.8z M36.8,218.7L54,204
		c1.4,1.7,2.9,3.4,4.5,5l-15.9,15.9C40.6,222.9,38.6,220.8,36.8,218.7z M43.7,226.1l15.9-15.9c1.6,1.6,3.2,3.1,4.9,4.6l-14.6,17
		C47.8,230,45.7,228,43.7,226.1z M51.2,232.9l14.5-17c1.7,1.5,3.4,2.9,5.2,4.2l-13.1,18.1C55.6,236.5,53.4,234.7,51.2,232.9z
		 M59.2,239.1l13.1-18c1.8,1.3,3.7,2.6,5.6,3.8l-11.6,19C63.8,242.3,61.5,240.8,59.2,239.1z M67.6,244.7l11.6-18.9
		c1.9,1.2,3.9,2.3,5.8,3.3L75,248.8C72.5,247.5,70,246.2,67.6,244.7z M76.5,249.6l10.1-19.7c2,1,4,2,6.1,2.9l-8.5,20.4
		C81.6,252.1,79,250.9,76.5,249.6z M85.7,253.8l8.5-20.4c2.1,0.9,4.2,1.6,6.3,2.4l-6.8,21C91,255.8,88.3,254.9,85.7,253.8z
		 M95.2,257.2l6.8-21c2.1,0.7,4.3,1.3,6.5,1.9l-5.1,21.4C100.6,258.9,97.9,258.1,95.2,257.2z M105,259.9l5.1-21.4
		c2.2,0.5,4.4,1,6.6,1.3l-3.4,21.7C110.5,261.1,107.7,260.6,105,259.9z M114.9,261.8l3.4-21.7c2.2,0.3,4.5,0.6,6.7,0.8l-1.7,21.9
		C120.5,262.6,117.7,262.3,114.9,261.8z M125,263l1.7-21.9c2.2,0.2,4.5,0.3,6.7,0.3l0,22C130.6,263.3,127.8,263.2,125,263z
		 M133.5,239.7c-2.2,0-4.4-0.1-6.6-0.3c-0.6,0-1.1-0.1-1.7-0.1c-2.2-0.2-4.4-0.4-6.6-0.8c-0.5-0.1-1.1-0.2-1.6-0.3
		c-2.2-0.4-4.3-0.8-6.5-1.3c-0.5-0.1-1.1-0.2-1.6-0.4c-2.1-0.5-4.3-1.2-6.4-1.8c-0.5-0.2-1-0.4-1.6-0.5c-2.1-0.7-4.2-1.5-6.2-2.3
		c-0.5-0.2-1-0.4-1.5-0.6c-2-0.9-4-1.8-6-2.8c-0.5-0.3-1-0.5-1.5-0.8c-1.9-1-3.9-2.1-5.7-3.3c-0.5-0.3-0.9-0.6-1.4-0.9
		c-1.9-1.2-3.7-2.4-5.4-3.7c-0.4-0.3-0.9-0.7-1.3-1c-1.8-1.3-3.4-2.7-5.1-4.2c-0.4-0.4-0.8-0.7-1.3-1.1c-1.6-1.5-3.2-3-4.8-4.5
		c-0.4-0.4-0.8-0.8-1.1-1.2c-1.5-1.6-3-3.2-4.4-4.9c-0.4-0.4-0.7-0.8-1.1-1.3c-1.4-1.7-2.7-3.4-4-5.2c0,0,0,0,0,0l17.9-13
		c15.1,20.2,39.1,33.4,66.2,33.4c27.1,0,51.2-13.1,66.3-33.4l17.9,13c-1.3,1.8-2.6,3.5-4,5.2c-0.3,0.4-0.7,0.8-1.1,1.3
		c-1.4,1.7-2.9,3.3-4.4,4.9c-0.4,0.4-0.8,0.8-1.1,1.2c-1.5,1.6-3.1,3.1-4.8,4.5c-0.4,0.4-0.8,0.7-1.3,1.1c-1.7,1.4-3.4,2.8-5.1,4.2
		c-0.4,0.3-0.9,0.7-1.3,1c-1.8,1.3-3.6,2.5-5.4,3.7c-0.5,0.3-0.9,0.6-1.4,0.9c-1.9,1.2-3.8,2.2-5.7,3.3c-0.5,0.3-1,0.5-1.5,0.8
		c-2,1-3.9,2-6,2.8c-0.5,0.2-1,0.4-1.5,0.6c-2,0.8-4.1,1.6-6.2,2.3c-0.5,0.2-1,0.4-1.6,0.5c-2.1,0.7-4.2,1.3-6.4,1.8
		c-0.5,0.1-1.1,0.2-1.6,0.4c-2.1,0.5-4.3,0.9-6.5,1.3c-0.5,0.1-1.1,0.2-1.6,0.3c-2.2,0.3-4.4,0.6-6.6,0.8c-0.5,0-1.1,0.1-1.7,0.1
		c-2.2,0.2-4.4,0.3-6.6,0.3c-0.3,0-0.6,0-0.8,0C134,239.7,133.8,239.7,133.5,239.7z M135.1,263.3l0-22c2.3,0,4.5-0.1,6.7-0.3
		l1.7,21.9C140.8,263.2,138,263.3,135.1,263.3z M145.3,262.8l-1.7-21.9c2.3-0.2,4.5-0.4,6.7-0.8l3.4,21.7
		C150.9,262.3,148.1,262.6,145.3,262.8z M155.3,261.6l-3.4-21.7c2.2-0.4,4.4-0.8,6.6-1.3l5.1,21.4
		C160.9,260.6,158.1,261.1,155.3,261.6z M165.2,259.5l-5.1-21.4c2.2-0.6,4.3-1.2,6.5-1.9l6.8,21C170.7,258.1,168,258.9,165.2,259.5z
		 M175,256.7l-6.8-21c2.1-0.7,4.2-1.5,6.3-2.4l8.5,20.4C180.3,254.8,177.7,255.8,175,256.7z M184.4,253.2l-8.5-20.4
		c2.1-0.9,4.1-1.9,6.1-2.9l10.1,19.7C189.6,250.9,187,252.1,184.4,253.2z M193.6,248.8l-10.1-19.7c2-1.1,3.9-2.2,5.8-3.3l11.6,18.9
		C198.6,246.2,196.1,247.5,193.6,248.8z M202.4,243.8l-11.6-19c1.9-1.2,3.7-2.5,5.6-3.8l13.1,18
		C207.1,240.7,204.8,242.3,202.4,243.8z M210.8,238.1l-13.1-18c1.8-1.4,3.5-2.8,5.2-4.2l14.5,17C215.3,234.7,213,236.4,210.8,238.1z
		 M218.7,231.8l-14.6-17c1.7-1.5,3.3-3,4.9-4.6l15.9,15.9C222.9,228,220.8,230,218.7,231.8z M226.1,224.9L210.1,209
		c1.5-1.6,3-3.3,4.5-5l17.2,14.7C230,220.8,228,222.9,226.1,224.9z M232.9,217.4l-17.2-14.7c1.4-1.7,2.8-3.5,4.1-5.3l18.4,13.4
		C236.5,213,234.7,215.2,232.9,217.4z M239.1,209.4l-18.4-13.4c1.3-1.8,2.5-3.7,3.7-5.6l19.5,11.9
		C242.3,204.8,240.8,207.1,239.1,209.4z M244.7,201L225.2,189c1.1-1.9,2.2-3.9,3.2-5.9l20.5,10.4C247.5,196.1,246.2,198.6,244.7,201
		z M249.6,192.1l-20.5-10.4c1-2,1.8-4,2.7-6.1l21.4,8.8C252.1,187,250.9,189.6,249.6,192.1z M253.8,182.9l-21.4-8.9
		c0.8-2.1,1.6-4.1,2.2-6.3l22.1,7.2C255.8,177.6,254.9,180.3,253.8,182.9z M257.2,173.4l-22.1-7.2c0.6-2.1,1.2-4.3,1.7-6.4l22.8,5.5
		C258.9,168,258.1,170.7,257.2,173.4z M259.9,163.6l-22.8-5.5c0.5-2.2,0.9-4.3,1.2-6.5l23.2,3.7
		C261.1,158.1,260.6,160.9,259.9,163.6z M261.8,153.7l-23.3-3.7c0.3-2.2,0.5-4.4,0.7-6.6l23.6,1.9
		C262.6,148.1,262.3,150.9,261.8,153.7z M263,143.6l-23.6-1.9c0.1-1.8,0.2-3.7,0.2-5.6c0-0.4,0-0.7,0-1l23.8,0
		C263.3,138,263.2,140.8,263,143.6z"/>
</g>
</svg>
